<?xml version="1.0" encoding="utf-8"?>
<!-- Generator: Adobe Illustrator 16.0.3, SVG Export Plug-In . SVG Version: 6.00 Build 0)  -->
<!DOCTYPE svg PUBLIC "-//W3C//DTD SVG 1.1//EN" "http://www.w3.org/Graphics/SVG/1.1/DTD/svg11.dtd">
<svg version="1.1" id="Ebene_1" xmlns="http://www.w3.org/2000/svg" xmlns:xlink="http://www.w3.org/1999/xlink" x="0px" y="0px"
	 width="425.197px" height="389.764px" viewBox="0 0 425.197 389.764" enable-background="new 0 0 425.197 389.764"
	 xml:space="preserve">
<g>
	<g>
		<path fill="#2A2A2A" d="M353.153,70.911l-57.105,23.221c-0.225,0.091-0.371,0.309-0.373,0.553
			c0.002,0.241,0.148,0.459,0.376,0.551l16.732,6.752L200.96,213.812c-0.23,0.232-0.23,0.608,0,0.842l9.568,9.567
			c0.234,0.232,0.607,0.232,0.842,0l111.675-111.676l6.56,16.247c0.09,0.223,0.31,0.371,0.551,0.371
			c0.159,0,0.313-0.064,0.422-0.175c0.058-0.053,0.101-0.12,0.13-0.196l23.22-57.105c0.09-0.224,0.037-0.476-0.128-0.645
			C353.627,70.874,353.374,70.821,353.153,70.911z"/>
		<path fill="#2A2A2A" d="M312.172,125.55c-0.401-0.446-0.808-0.89-1.224-1.365l-4.7-5.223c-0.264-0.276-0.47-0.49-0.637-0.642
			c-0.008-0.01-0.016-0.021-0.021-0.03l-0.006,0.002c-0.014-0.009-0.02-0.016-0.031-0.025l0.004-0.005
			c-0.004-0.004-0.084-0.081-0.084-0.085l-5.761-5.17c-0.461-0.407-0.918-0.815-1.377-1.224c-1.511-1.355-3.071-2.756-4.793-3.914
			c-0.83-0.603-1.659-1.21-2.489-1.818c-3.416-2.506-6.953-5.098-10.761-7.13c-0.688-0.394-1.372-0.798-2.058-1.196
			c-1.583-0.929-3.216-1.89-4.897-2.767l-10.889-4.854c-0.832-0.321-1.687-0.604-2.536-0.888c-0.405-0.133-0.807-0.267-1.21-0.405
			l-7.475-2.483c-1.68-0.524-3.411-0.908-5.086-1.278c-0.854-0.188-1.704-0.376-2.558-0.586l-5.746-1.291l-1.937-0.239
			c-1.222-0.136-2.438-0.289-3.65-0.442c-3.842-0.484-7.813-0.985-11.735-0.932l-7.665-0.148l-7.516,0.529
			c-3.688,0.121-7.326,0.797-10.835,1.448c-1.333,0.251-2.665,0.499-3.979,0.713c-1.721,0.24-3.39,0.72-5.009,1.187
			c-0.729,0.206-1.457,0.418-2.201,0.606l-7.044,2.007l-6.729,2.6c-0.65,0.275-1.307,0.531-1.964,0.787
			c-1.542,0.604-3.137,1.226-4.599,2.051l-9.362,4.858l-2.913,1.878c-0.786,0.52-1.574,1.022-2.359,1.528
			c-2.98,1.918-6.067,3.899-8.936,6.423c-1.79,1.478-3.562,2.939-5.338,4.397l-1.34,1.13l-8.638,8.731l-2.983,3.6
			c-2.041,2.336-3.826,4.847-5.552,7.276c-0.595,0.838-1.182,1.667-1.802,2.52l-3.112,4.989c-1.142,1.739-2.085,3.543-2.853,5.063
			c-4.076,7.434-6.764,14.998-8.441,20.067c-1.646,5.756-3.422,12.505-4.133,18.935c-1.384,10.428-1.319,20.827,0.185,30.889
			c0.382,3.235,1.063,6.165,1.659,8.753c0.187,0.796,0.365,1.564,0.537,2.351c0.294,0.984,0.569,1.93,0.833,2.818
			c0.575,1.961,1.073,3.657,1.57,5.12l2.434,6.326c0.104,0.278,0.397,0.437,0.687,0.366c0.291-0.066,0.486-0.338,0.457-0.633
			l-0.632-6.741c-0.114-1.407-0.169-3.006-0.231-4.845c-0.033-0.99-0.07-2.03-0.118-3.07c0.048-1.092,0.067-2.234,0.083-3.424
			c0.037-2.302,0.072-4.681,0.341-7.294c0.731-9.544,2.562-18.854,5.454-27.675c1.433-4.632,3.533-9.778,6.396-15.705
			c2.679-4.976,5.715-10.62,9.722-15.808c0.995-1.416,1.959-2.665,2.952-3.828l3.111-3.794c0.701-0.725,1.388-1.467,2.078-2.209
			c1.471-1.581,2.986-3.217,4.646-4.7l0.365-0.317l2.435-2.273c0.014-0.01,0.023-0.019,0.039-0.028l0.002-0.002
			c0.004-0.002,0.01-0.007,0.012-0.009c0.016-0.01,0.031-0.023,0.049-0.035l8.867-7.192l5.397-3.4
			c1.87-1.334,4.083-2.479,6.425-3.694c0.94-0.487,1.885-0.977,2.804-1.476l2.368-1.267l7.764-3.136
			c1.088-0.518,2.253-0.843,3.48-1.185c0.594-0.164,1.193-0.332,1.773-0.518l5.342-1.646l5.569-1.13
			c0.642-0.112,1.271-0.251,1.907-0.392c1.195-0.264,2.428-0.533,3.682-0.593c1.189-0.104,2.375-0.235,3.556-0.368
			c2.587-0.29,5.258-0.592,7.942-0.515l5.777-0.133l5.877,0.447c2.699,0.065,5.431,0.559,8.069,1.034
			c1.173,0.212,2.347,0.425,3.544,0.604c1.209,0.139,2.37,0.47,3.604,0.817c0.69,0.196,1.388,0.392,2.063,0.546
			c0.701,0.198,1.408,0.374,2.12,0.549c1.182,0.292,2.411,0.598,3.562,1.009l5.583,2.061c0.369,0.138,0.737,0.27,1.101,0.4
			c0.563,0.201,1.129,0.401,1.65,0.616l8.045,3.897c1.032,0.565,2.037,1.178,3.044,1.79c0.696,0.423,1.396,0.846,2.116,1.263
			c2.57,1.36,4.953,3.15,7.261,4.879c0.849,0.636,1.692,1.271,2.571,1.905c1.184,0.774,2.202,1.729,3.291,2.74
			c0.4,0.373,0.802,0.75,1.206,1.11l3.913,3.548l4.679,5.039c0.388,0.434,0.795,0.877,1.207,1.32
			c1.158,1.25,2.349,2.543,2.974,3.563c0.646,0.932,1.316,1.829,1.995,2.73c1.497,1.999,3.047,4.069,4.401,6.59
			c0.402,0.688,0.819,1.371,1.238,2.051c0.609,1.003,1.25,2.04,1.804,3.053l2.597,5.39l1.312,2.646
			c0.239,0.571,0.444,1.151,0.656,1.729c0.122,0.35,0.248,0.695,0.381,1.038l2.079,5.579c0.406,1.132,0.707,2.335,1.004,3.495
			c0.176,0.732,0.361,1.466,0.57,2.178l1.137,4.235l0.232,1.457c0.18,1.174,0.392,2.339,0.607,3.508
			c0.484,2.643,0.982,5.378,1.064,8.107l0.463,5.789l-0.115,5.856c0.078,2.635-0.213,5.282-0.494,7.85
			c-0.133,1.205-0.262,2.41-0.361,3.641c-0.055,1.233-0.315,2.412-0.586,3.661c-0.138,0.631-0.274,1.269-0.38,1.891l-1.099,5.526
			l-1.65,5.393c-0.188,0.593-0.355,1.194-0.52,1.798c-0.341,1.226-0.661,2.384-1.188,3.514c-2.753,7.301-5.999,13.873-9.64,19.531
			l-2.898,4.544c-0.401,0.688-0.889,1.362-1.505,2.085l-5.622,7.07c-0.01,0.014-0.023,0.03-0.03,0.041
			c-0.029,0.037-0.055,0.078-0.078,0.117l-0.683,0.717c-0.648,0.692-1.301,1.389-1.957,2.09c-1.793,2.016-3.385,3.504-4.922,4.942
			c-0.749,0.7-1.492,1.396-2.205,2.103c-0.849,0.68-1.682,1.376-2.508,2.073c-1.656,1.389-3.366,2.819-5.153,4.054
			c-5.202,4.05-10.809,7.081-15.728,9.745c-5.965,2.901-11.1,5.016-15.711,6.459c-8.794,2.913-18.096,4.776-27.66,5.543
			c-2.574,0.277-4.941,0.318-7.232,0.36c-1.205,0.025-2.362,0.044-3.418,0.103c-1.028-0.042-2.008-0.074-2.94-0.103
			c-1.933-0.063-3.597-0.117-5.045-0.223l-6.725-0.604c-0.3-0.029-0.567,0.172-0.636,0.458c-0.063,0.289,0.096,0.584,0.371,0.688
			c0,0,2.215,0.84,6.378,2.428c1.447,0.489,3.13,0.98,5.075,1.543c0.891,0.263,1.834,0.534,2.869,0.841
			c0.724,0.154,1.472,0.325,2.247,0.508c2.61,0.596,5.562,1.276,8.807,1.655c10.071,1.481,20.474,1.521,30.897,0.113
			c6.51-0.743,13.231-2.534,18.971-4.198c5.493-1.838,12.738-4.465,20.019-8.479l2.558-1.338c0.551-0.314,1.09-0.653,1.634-0.993
			c0.285-0.179,0.569-0.357,0.858-0.534l5.039-3.164c0.648-0.474,1.318-0.954,1.993-1.441c2.755-1.993,5.605-4.051,7.755-5.919
			l3.311-2.735c0.004-0.004,0.01-0.009,0.012-0.012c0.006-0.004,0.014-0.014,0.025-0.021l8.167-8.169
			c0.858-0.819,1.589-1.631,2.239-2.472l4.188-5.135c11.938-15.287,20.112-32.918,23.641-51.001
			c0.211-1.295,0.445-2.591,0.686-3.891c0.65-3.548,1.325-7.217,1.425-10.915l0.51-7.601l-0.17-7.599
			c0.039-3.931-0.465-7.9-0.966-11.735c-0.154-1.218-0.311-2.44-0.456-3.678l-0.27-1.974l-1.297-5.702
			c-0.203-0.83-0.392-1.67-0.579-2.511c-0.379-1.684-0.772-3.432-1.312-5.129l-2.497-7.462c-0.157-0.448-0.312-0.9-0.464-1.356
			c-0.266-0.799-0.537-1.596-0.846-2.411l-4.91-10.87c-0.845-1.608-1.781-3.197-2.688-4.731c-0.429-0.728-0.858-1.451-1.271-2.166
			c-2.151-4.023-5.18-8.08-8.105-12.006l-1.295-1.74C314.486,128.099,313.312,126.804,312.172,125.55z"/>
		<path fill="#9D9D9C" d="M264.537,161.263c-0.006-0.01-0.014-0.017-0.021-0.023l0.004-0.005c-0.008-0.007-0.1-0.095-0.111-0.102
			l-3.264-3.061c-0.726-0.679-1.477-1.377-2.302-1.967l-0.482-0.366c-1.861-1.424-3.781-2.896-5.864-4.062l-0.963-0.576
			c-0.777-0.473-1.56-0.941-2.394-1.389l-3.443-1.597c-1.644-0.822-3.382-1.402-5.072-1.966c-0.7-0.228-1.395-0.461-2.126-0.724
			c-2.595-0.702-4.938-1.316-7.372-1.708c-0.523-0.061-1.049-0.131-1.572-0.198c-1.904-0.247-3.876-0.502-5.821-0.49
			c-1.218-0.024-2.429-0.05-3.688-0.078l-3.587,0.234c-1.829,0.061-3.626,0.401-5.354,0.732c-0.59,0.111-1.172,0.223-1.771,0.325
			c-1.728,0.351-3.408,0.849-5.039,1.33c-0.578,0.171-1.149,0.341-1.773,0.521l-1.232,0.479c-1.698,0.654-3.448,1.327-5.105,2.173
			c-0.618,0.349-1.243,0.672-1.868,0.992c-1.325,0.685-2.694,1.39-3.922,2.274l-0.952,0.635c-1.514,0.998-2.942,1.94-4.415,3.264
			l-3.232,2.789l-3.368,3.655c-0.283,0.26-0.392,0.362-0.42,0.388c-0.042,0.041-0.074,0.088-0.104,0.136
			c-0.004,0.009-0.016,0.021-0.018,0.026l-4.546,6.269c-0.933,1.642-1.798,3.26-2.575,4.811c-0.127,0.262-0.263,0.521-0.394,0.778
			c-0.27,0.525-0.535,1.046-0.775,1.612l-1.202,3.348c-0.448,1.265-0.873,2.463-1.232,3.732l-1.265,6.63
			c-0.084,0.504-0.098,1.004-0.115,1.483c-0.006,0.226-0.014,0.451-0.027,0.694c-0.018,0.67-0.051,1.329-0.078,1.971
			c-0.09,2.006-0.182,3.902,0.125,5.703c0.084,0.638,0.148,1.255,0.209,1.855c0.167,1.588,0.32,3.086,0.771,4.491
			c0.471,1.867,0.933,3.517,1.393,4.966l1.459,3.251c0.811,1.78,1.292,2.719,1.292,2.719c0.123,0.231,0.378,0.36,0.633,0.316
			c0.258-0.047,0.454-0.254,0.488-0.514c0,0,0.128-1.05,0.275-3.005l0.23-3.467c0.305-1.358,0.602-2.87,0.913-4.521
			c0.139-1.029,0.506-2.191,0.9-3.419c0.188-0.585,0.379-1.185,0.553-1.807c0.342-1.367,0.957-2.757,1.613-4.226
			c0.228-0.512,0.458-1.026,0.688-1.569c0.37-0.979,0.935-1.94,1.53-2.931l1.504-2.599l3.518-4.784
			c0.167-0.197,0.352-0.385,0.537-0.569l0.538-0.536l0.226-0.229l0.241-0.238c0.496-0.496,0.975-1.007,1.457-1.521
			c0.323-0.341,0.646-0.687,0.921-0.978l3.759-3.006c0.039-0.016,0.078-0.039,0.113-0.063l4.033-2.805l2.088-0.969
			c0.573-0.316,1.332-0.626,2.13-0.951c0.481-0.198,0.971-0.399,1.453-0.618c0.709-0.355,1.49-0.576,2.314-0.807
			c0.526-0.149,1.049-0.298,1.521-0.471c0.67-0.194,1.386-0.339,2.076-0.478c0.677-0.131,1.351-0.27,1.899-0.433
			c0.575-0.056,1.146-0.132,1.714-0.214c0.839-0.115,1.64-0.225,2.438-0.254c0.472-0.004,0.944-0.021,1.419-0.037
			c0.957-0.035,1.858-0.068,2.813,0.025l2.066,0.064l2.13,0.304c2.852,0.362,5.604,1.231,8.14,2.073
			c2.336,0.965,5.054,2.178,7.535,3.925c0.782,0.437,1.48,0.998,2.221,1.593c0.385,0.311,0.771,0.622,1.193,0.93
			c0.377,0.25,0.707,0.585,1.058,0.934c0.154,0.152,0.313,0.308,0.469,0.449l1.462,1.372l2.045,2.339
			c0.395,0.441,0.98,1.105,1.109,1.386c0.25,0.414,0.52,0.786,0.807,1.17c0.404,0.55,0.824,1.122,1.248,1.937
			c0.16,0.277,0.328,0.551,0.49,0.827c0.211,0.328,0.412,0.661,0.578,0.963c0.262,0.586,0.547,1.161,0.833,1.738l0.131,0.251
			c0.417,0.721,0.69,1.504,0.984,2.33c0.188,0.529,0.375,1.061,0.574,1.504c0.758,2.613,1.493,5.419,1.755,8.262l0.217,2.064
			l-0.012,2.165c0.047,0.905-0.021,1.79-0.09,2.729c-0.041,0.485-0.078,0.971-0.096,1.43c-0.492,5.269-2.157,10.498-4.951,15.537
			l-0.375,0.678c-0.544,0.975-1.057,1.898-1.723,2.74l-1.464,2.075c-0.034,0.051-0.06,0.103-0.077,0.159l-3.846,4.197l-0.748,0.646
			c-0.643,0.546-1.245,1.062-1.837,1.649c-0.167,0.154-0.332,0.313-0.494,0.476c-0.239,0.235-0.48,0.473-0.713,0.664l-0.213,0.148
			c-0.45,0.301-0.888,0.599-1.323,0.9c-1.032,0.715-2.04,1.415-2.955,2.063l-3.125,1.654c-1.103,0.613-2.031,1.088-2.992,1.412
			c-0.523,0.202-1.043,0.408-1.558,0.615c-1.5,0.602-2.915,1.167-4.32,1.459c-0.593,0.146-1.183,0.31-1.755,0.469
			c-1.26,0.354-2.444,0.683-3.577,0.782c-1.673,0.242-3.212,0.474-4.499,0.706l-6.445,0.291c-0.262,0.016-0.484,0.2-0.545,0.458
			c-0.068,0.254,0.047,0.521,0.279,0.651c0.033,0.023,0.914,0.532,2.673,1.413l3.354,1.639c1.286,0.461,2.848,0.968,4.74,1.528
			c1.376,0.521,2.871,0.736,4.454,0.961c0.597,0.087,1.215,0.178,1.822,0.282c1.801,0.386,3.68,0.372,5.665,0.362
			c0.662-0.006,1.339-0.01,2.058,0c0.224-0.006,0.455-0.006,0.683-0.002c0.479,0.002,0.977,0.006,1.486-0.061l6.719-1.007
			c1.156-0.28,2.299-0.633,3.495-1.004l3.664-1.147c0.585-0.226,1.183-0.51,1.783-0.795l0.77-0.363
			c1.499-0.698,3.206-1.563,5.257-2.674c1.33-0.847,2.683-1.709,4.055-2.592l1.496-0.961c0.019-0.014,0.081-0.064,0.1-0.078
			l-0.003-0.004c0.016-0.012,0.029-0.02,0.043-0.031h0.002c0-0.002,0.01-0.01,0.012-0.012c0.128-0.104,0.276-0.239,0.453-0.396
			l2.786-2.443c0.578-0.478,1.17-1.021,1.812-1.662c0.753-0.752,1.478-1.546,2.218-2.355l0.379-0.41
			c6.096-6.916,10.415-15.106,12.495-23.701c0.126-0.588,0.261-1.174,0.394-1.76c0.4-1.717,0.809-3.49,0.934-5.299l0.377-3.638
			l0.065-3.625c0.089-1.965-0.089-3.943-0.257-5.856c-0.049-0.524-0.096-1.054-0.139-1.614c-0.332-2.503-0.882-5.037-1.446-7.445
			c-0.214-0.683-0.414-1.378-0.613-2.068c-0.5-1.719-1.01-3.498-1.77-5.172l-1.487-3.55c-0.403-0.813-0.837-1.609-1.277-2.408
			l-0.53-0.971c-1.122-2.237-2.861-4.674-4.537-6.971c-0.693-0.986-1.178-1.545-1.651-2.087c-0.172-0.196-0.344-0.392-0.531-0.617
			l-1.969-2.284c-0.236-0.252-0.391-0.425-0.507-0.542c-0.012-0.012-0.02-0.025-0.033-0.037L264.537,161.263z"/>
		<g>
			<path fill="#C6C6C6" d="M187.317,219.007c5.168,15.554,21.967,23.971,37.52,18.803c15.557-5.174,23.968-21.975,18.8-37.528
				c-5.166-15.548-21.963-23.967-37.52-18.795C190.564,186.654,182.145,203.461,187.317,219.007z"/>
		</g>
		<path fill="#2A2A2A" d="M206.273,208.5l-74.37,74.368l-22.242-2.018c-0.146,0.01-0.285,0.07-0.39,0.174l-38.235,38.233
			c-0.155,0.16-0.211,0.396-0.139,0.613c0.074,0.214,0.264,0.366,0.489,0.395l21.393,4.57l6.081,1.486l1.488,6.102l4.566,21.372
			c0.029,0.226,0.185,0.417,0.398,0.491c0.214,0.073,0.451,0.016,0.614-0.142l38.232-38.233c0.104-0.107,0.165-0.244,0.172-0.39
			l-2.021-22.246l74.371-74.369c0.039-0.038,0.072-0.085,0.098-0.132c2.253-2.4,1.825-6.577-0.997-9.396
			C212.921,206.515,208.652,206.118,206.273,208.5z"/>
	</g>
	<g>
		<path fill="#706F6F" d="M293.556,187.547c-0.279,0.063-0.478,0.327-0.456,0.618c0,0,0.112,1.681,0.31,4.827
			c0.057,1.035,0.068,2.229,0.08,3.609c0.008,0.667,0.012,1.368,0.025,2.048c-0.055,0.795-0.09,1.627-0.125,2.497
			c-0.064,1.621-0.133,3.296-0.369,5.134c-0.685,6.774-2.131,13.336-4.298,19.507c-2.76,8.014-6.716,15.394-11.771,21.952
			c-0.856,1.204-1.865,2.381-2.845,3.516c-0.505,0.585-1.012,1.173-1.461,1.726l-0.348,0.343c-0.43,0.43-0.838,0.854-1.252,1.281
			c-0.416,0.432-0.839,0.872-1.29,1.325c-0.729,0.728-1.41,1.363-2.146,2.012l-1.982,1.826c-0.049,0.025-0.094,0.053-0.133,0.088
			c-0.02,0.012-0.04,0.025-0.059,0.039l-3.475,2.691c-1.543,1.323-3.346,2.44-5.093,3.52l-0.981,0.61
			c-9.077,5.533-19.037,9.068-28.779,10.221c-0.862,0.061-1.722,0.149-2.581,0.238c-1.753,0.179-3.565,0.367-5.392,0.302
			l-3.978,0.069l-4.058-0.341c-5.893-0.452-11.582-1.968-15.843-3.224l-3.854-1.451c-0.23-0.086-0.462-0.172-0.693-0.256
			c-0.411-0.146-0.817-0.29-1.183-0.446l-5.547-2.704c-0.718-0.392-1.42-0.821-2.12-1.25c-0.474-0.289-0.945-0.578-1.441-0.869
			c-1.168-0.622-2.176-1.299-3.125-1.984l-20.502,20.5c2.957,2.19,6.01,4.449,8.973,6.022l1.366,0.796
			c1.204,0.705,2.45,1.434,3.745,2.109l7.979,3.55c0.602,0.23,1.212,0.433,1.822,0.634l6.408,2.114
			c1.233,0.386,2.505,0.665,3.733,0.938c0.622,0.137,1.241,0.274,1.886,0.43c0.637,0.122,1.266,0.271,1.895,0.419
			c1.209,0.284,2.461,0.58,3.728,0.693c0.881,0.096,1.762,0.203,2.636,0.309c2.829,0.345,5.752,0.699,8.633,0.652l0.76,0.012
			c1.607,0.025,3.211,0.051,4.862,0.072l5.49-0.401c2.737-0.1,5.423-0.612,8.022-1.112c0.943-0.179,1.881-0.361,2.836-0.523
			c13.197-2.684,26.023-8.777,37.105-17.629l0.641-0.533c1.839-1.516,3.738-3.084,5.429-4.772c0.366-0.369,0.728-0.745,1.065-1.115
			l4.291-4.412l1.912-2.386c1.386-1.648,2.969-3.903,4.5-6.083l0.794-1.136c0.428-0.723,0.868-1.431,1.305-2.131
			c1.095-1.767,2.128-3.433,2.957-5.225c2.222-4.191,4.11-8.845,5.946-14.67c1.133-4.202,2.351-9.125,2.785-13.771
			c0.877-7.582,0.693-15.102-0.547-22.327c-0.338-2.393-0.891-4.543-1.381-6.439c-0.133-0.517-0.26-1.016-0.391-1.543l-0.629-1.949
			c-0.452-1.412-0.843-2.631-1.239-3.707l-1.866-4.508C294.132,187.628,293.839,187.478,293.556,187.547z"/>
		<path fill="#706F6F" d="M160.027,248.018c-4.049-5.689-7.345-12.043-9.691-18.795c-1.38-4.631-2.849-10.138-3.293-15.883
			l-0.34-3.998l0.051-4.072c-0.074-1.813,0.111-3.646,0.287-5.417c0.084-0.841,0.17-1.684,0.228-2.508
			c0.176-1.642,0.506-3.291,0.826-4.891c0.193-0.961,0.388-1.921,0.533-2.82l1.106-3.761c0.129-0.416,0.24-0.838,0.351-1.261
			c0.221-0.848,0.43-1.649,0.786-2.427l2.072-5.354l0.873-1.699c0.351-0.67,0.695-1.354,1.035-2.036
			c0.809-1.617,1.573-3.145,2.46-4.443l2.208-3.684l1.952-2.484c0.866-1.094,1.725-2.184,2.571-3.263l0.561-0.704
			c0.008-0.01,0.012-0.017,0.02-0.023c0.023-0.03,0.045-0.063,0.064-0.096l1.475-1.644c0.548-0.656,1.175-1.331,1.97-2.125
			c0.476-0.478,0.96-0.945,1.443-1.41c0.486-0.469,0.969-0.933,1.444-1.409l0.05-0.054c0.613-0.509,1.216-1.03,1.815-1.551
			c1.173-1.014,2.28-1.972,3.489-2.836c6.521-5.047,13.894-9.021,21.916-11.806c6.159-2.179,12.721-3.639,19.521-4.341
			c1.808-0.231,3.478-0.303,5.091-0.371c0.878-0.037,1.722-0.074,2.474-0.131c0.722,0.008,1.414,0.014,2.069,0.018
			c1.381,0.008,2.572,0.014,3.614,0.07l4.851,0.311c0.291,0.019,0.557-0.179,0.617-0.461c0.063-0.282-0.084-0.572-0.354-0.685
			l-4.514-1.854c-1.019-0.375-2.209-0.751-3.59-1.187c-0.65-0.207-1.344-0.425-2.116-0.674c-0.492-0.119-1.001-0.249-1.527-0.383
			c-1.89-0.48-4.033-1.023-6.398-1.346c-7.247-1.22-14.761-1.383-22.322-0.482c-4.604,0.44-9.338,1.621-13.791,2.836
			c-5.786,1.831-10.432,3.73-14.598,5.962c-1.839,0.858-3.605,1.957-5.316,3.021c-0.677,0.419-1.358,0.844-2.094,1.287
			c-0.608,0.436-1.228,0.867-1.851,1.301c-1.766,1.235-3.592,2.511-5.281,3.966l-2.688,2.197l-6.35,6.194l-4.047,4.832
			c-1.902,2.14-3.37,4.398-4.789,6.589c-0.361,0.553-0.721,1.108-1.096,1.669l-1.395,2.155l-3.559,6.787
			c-1.16,2.291-2.1,4.748-3.012,7.122c-0.328,0.854-0.658,1.714-1.019,2.627c-0.271,0.97-0.556,1.944-0.842,2.919
			c-0.708,2.406-1.44,4.896-1.949,7.444c-0.157,0.951-0.339,1.899-0.519,2.854c-0.49,2.589-0.996,5.268-1.092,7.976l-0.393,5.56
			l0.101,5.544c-0.038,2.919,0.329,5.858,0.683,8.699c0.109,0.86,0.217,1.722,0.311,2.564c0.1,1.296,0.4,2.559,0.695,3.774
			c0.149,0.62,0.299,1.24,0.426,1.893c0.152,0.61,0.287,1.223,0.424,1.837c0.276,1.236,0.562,2.513,0.947,3.742
			c3.233,11.164,8.657,21.75,15.896,31.133L160.027,248.018z"/>
	</g>
</g>
</svg>
