<svg xmlns="http://www.w3.org/2000/svg" xmlns:xlink="http://www.w3.org/1999/xlink" width="1080" zoomAndPan="magnify" viewBox="0 0 810 809.999993" height="1080" preserveAspectRatio="xMidYMid meet" version="1.0"><defs><clipPath id="97713225e2"><path d="M 254 346 L 564 346 L 564 504 L 254 504 Z M 254 346 " clip-rule="nonzero"/></clipPath><clipPath id="8fa148051d"><path d="M 203.46875 405.566406 L 463.371094 212.105469 L 606.675781 404.625 L 346.773438 598.085938 Z M 203.46875 405.566406 " clip-rule="nonzero"/></clipPath><clipPath id="fc077cd768"><path d="M 346.628906 597.886719 L 606.53125 404.425781 L 463.226562 211.90625 L 203.324219 405.367188 Z M 346.628906 597.886719 " clip-rule="nonzero"/></clipPath></defs><g clip-path="url(#97713225e2)"><g clip-path="url(#8fa148051d)"><g clip-path="url(#fc077cd768)"><path fill="#000000" d="M 322.871094 417.632812 C 326.722656 418.445312 329.925781 419.3125 333.191406 419.773438 C 344.054688 421.277344 354.894531 423.191406 365.824219 423.855469 C 377.609375 424.574219 386.792969 415.179688 388.191406 403.132812 C 388.554688 400.136719 391.082031 397.40625 392.808594 394.214844 C 391.839844 390.535156 388.207031 391.296875 385.363281 390.957031 C 359.511719 387.832031 335.105469 379.59375 311.492188 369.15625 C 302.457031 365.175781 294.144531 359.472656 285.683594 354.277344 C 279.035156 350.195312 278.128906 349.589844 272.171875 354.8125 C 261.554688 364.125 254.578125 375.296875 254.699219 390.3125 C 254.875 416.421875 253.5625 442.558594 258.382812 468.425781 C 259.183594 472.628906 260.5 476.738281 262.207031 483.347656 C 270.234375 474.78125 277.902344 469.171875 277.308594 458.148438 C 276.941406 451.394531 276.683594 444.660156 276.226562 435.40625 C 282.113281 441.109375 286.101562 445.101562 290.207031 448.945312 C 321.167969 477.886719 357.078125 498.054688 399.417969 502.269531 C 437.957031 506.128906 475.691406 500.539062 508.3125 476.882812 C 535.695312 456.988281 551.074219 428.988281 558.703125 396.707031 C 561.742188 383.773438 562.398438 370.246094 563.757812 356.953125 C 564.109375 353.503906 563.070312 349.945312 562.640625 346.417969 C 561.699219 346.300781 560.757812 346.179688 559.816406 346.058594 C 558.023438 350.613281 555.976562 355.09375 554.558594 359.757812 C 553.683594 362.679688 553.703125 365.878906 553.441406 368.964844 C 550.121094 408.582031 528.207031 434.8125 493.152344 450.789062 C 466.382812 463 438.054688 464.742188 409.335938 459.613281 C 379.019531 454.234375 351.773438 441.605469 327.242188 423.019531 C 326.136719 422.199219 325.082031 421.308594 324.109375 420.355469 C 323.707031 419.902344 323.566406 419.183594 322.871094 417.632812 Z M 322.871094 417.632812 " fill-opacity="1" fill-rule="nonzero"/></g></g></g></svg>