<svg id="ea50zq7OuTX1" xmlns="http://www.w3.org/2000/svg" xmlns:xlink="http://www.w3.org/1999/xlink" viewBox="0 0 283.464 283.464" shape-rendering="geometricPrecision" text-rendering="geometricPrecision">
<style><![CDATA[
#ea50zq7OuTX3_to {animation: ea50zq7OuTX3_to__to 5800ms linear infinite normal forwards}@keyframes ea50zq7OuTX3_to__to { 0% {transform: translate(208.311928px,146.715843px)} 82.758621% {transform: translate(208.311928px,146.715843px)} 86.206897% {transform: translate(211.28669px,143.135282px)} 89.655172% {transform: translate(208.311928px,146.715843px)} 100% {transform: translate(208.311928px,146.715843px)}} #ea50zq7OuTX4_to {animation: ea50zq7OuTX4_to__to 5800ms linear infinite normal forwards}@keyframes ea50zq7OuTX4_to__to { 0% {transform: translate(208.311936px,146.714335px)} 82.758621% {transform: translate(208.311936px,146.714335px)} 86.206897% {transform: translate(211.286698px,143.133774px)} 89.655172% {transform: translate(208.311936px,146.714335px)} 100% {transform: translate(208.311936px,146.714335px)}} #ea50zq7OuTX4_tr {animation: ea50zq7OuTX4_tr__tr 5800ms linear infinite normal forwards}@keyframes ea50zq7OuTX4_tr__tr { 0% {transform: rotate(0deg)} 8.62069% {transform: rotate(0deg)} 79.310345% {transform: rotate(360deg)} 100% {transform: rotate(360deg)}} #ea50zq7OuTX5_to {animation: ea50zq7OuTX5_to__to 5800ms linear infinite normal forwards}@keyframes ea50zq7OuTX5_to__to { 0% {transform: translate(205.739311px,149.194921px)} 82.758621% {transform: translate(205.739311px,149.194921px)} 86.206897% {transform: translate(208.714074px,145.614359px)} 89.655172% {transform: translate(205.739311px,149.194921px)} 100% {transform: translate(205.739311px,149.194921px)}} #ea50zq7OuTX7_to {animation: ea50zq7OuTX7_to__to 5800ms linear infinite normal forwards}@keyframes ea50zq7OuTX7_to__to { 0% {transform: translate(477.933021px,-122.997213px)} 10.344828% {transform: translate(477.933021px,-122.997213px)} 72.413793% {transform: translate(-85.613648px,440.549462px)} 82.758621% {transform: translate(209.62328px,145.312578px)} 100% {transform: translate(209.62328px,145.312578px)}} #ea50zq7OuTX7 {animation: ea50zq7OuTX7_c_o 5800ms linear infinite normal forwards}@keyframes ea50zq7OuTX7_c_o { 0% {opacity: 0} 0.517241% {opacity: 0} 6.896552% {opacity: 1} 10.344828% {opacity: 0} 68.965517% {opacity: 0} 72.413793% {opacity: 1} 94.827586% {opacity: 1} 100% {opacity: 0}} #ea50zq7OuTX8_tr {animation: ea50zq7OuTX8_tr__tr 5800ms linear infinite normal forwards}@keyframes ea50zq7OuTX8_tr__tr { 0% {transform: translate(208.311936px,146.715866px) rotate(0deg)} 3.448276% {transform: translate(208.311936px,146.715866px) rotate(0deg)} 74.137931% {transform: translate(208.311936px,146.715866px) rotate(-360deg)} 100% {transform: translate(208.311936px,146.715866px) rotate(-360deg)}} #ea50zq7OuTX10_tr {animation: ea50zq7OuTX10_tr__tr 5800ms linear infinite normal forwards}@keyframes ea50zq7OuTX10_tr__tr { 0% {transform: translate(208.312439px,146.715866px) rotate(0deg)} 12.068966% {transform: translate(208.312439px,146.715866px) rotate(0deg)} 82.758621% {transform: translate(208.312439px,146.715866px) rotate(360deg)} 100% {transform: translate(208.312439px,146.715866px) rotate(360deg)}} #ea50zq7OuTX12_to {animation: ea50zq7OuTX12_to__to 5800ms linear infinite normal forwards}@keyframes ea50zq7OuTX12_to__to { 0% {transform: translate(208.312439px,146.715866px)} 82.758621% {transform: translate(208.312439px,146.715866px)} 86.206897% {transform: translate(211.287202px,143.135305px)} 89.655172% {transform: translate(208.312439px,146.715866px)} 100% {transform: translate(208.312439px,146.715866px)}} #ea50zq7OuTX12 {animation: ea50zq7OuTX12_c_o 5800ms linear infinite normal forwards}@keyframes ea50zq7OuTX12_c_o { 0% {opacity: 1} 3.448276% {opacity: 1} 6.896552% {opacity: 0} 100% {opacity: 0}} #ea50zq7OuTX13_to {animation: ea50zq7OuTX13_to__to 5800ms linear infinite normal forwards}@keyframes ea50zq7OuTX13_to__to { 0% {transform: translate(208.312978px,146.714335px)} 82.758621% {transform: translate(208.312978px,146.714335px)} 86.206897% {transform: translate(211.287741px,143.133774px)} 89.655172% {transform: translate(208.312978px,146.714335px)} 100% {transform: translate(208.312978px,146.714335px)}}
]]></style>
<g transform="matrix(1.093931 0 0 1.093931-89.587905-14.012712)"><g id="ea50zq7OuTX3_to" transform="translate(208.311928,146.715843)"><path d="M184.625,154.591c4.348,13.083,18.479,20.162,31.561,15.814c13.086-4.352,20.162-18.483,15.814-31.565-4.346-13.081-18.475-20.162-31.561-15.813-13.082,4.349-20.166,18.486-15.814,31.564Z" transform="translate(-208.311928,-146.715843)" fill="#ffcc34"/></g><g id="ea50zq7OuTX4_to" transform="translate(208.311936,146.714335)"><g id="ea50zq7OuTX4_tr" transform="rotate(0)"><path d="M273.807,128.311c-.235.055-.4.275-.385.52c0,0,.094,1.414.26,4.061.05.873.059,1.876.069,3.039.005.56.011,1.149.022,1.721-.049.67-.078,1.37-.107,2.1-.055,1.364-.112,2.774-.309,4.318-.577,5.699-1.793,11.22-3.615,16.411-2.323,6.74-5.65,12.948-9.902,18.465-.72,1.013-1.57,2.001-2.394,2.955-.426.494-.852.989-1.229,1.453l-.291.288c-.363.363-.707.72-1.054,1.08-.351.363-.705.731-1.087,1.113-.613.613-1.184,1.149-1.805,1.694l-1.668,1.534c-.04.021-.077.046-.11.075-.017.01-.032.021-.048.033l-2.926,2.264c-1.295,1.113-2.813,2.052-4.281,2.96l-.828.514c-7.633,4.654-16.012,7.627-24.209,8.597-.723.051-1.445.125-2.17.2-1.475.151-3,.308-4.535.254l-3.346.059-3.413-.287c-4.956-.379-9.743-1.655-13.325-2.711l-3.243-1.222c-.194-.073-.39-.143-.585-.214-.342-.122-.686-.245-.994-.375l-4.665-2.275c-.604-.331-1.194-.692-1.784-1.054-.396-.242-.795-.485-1.213-.729-1.436-.764-2.592-1.628-3.711-2.464-.532-.398-1.061-.792-1.645-1.194-.533-.31-1.311-1.026-2.063-1.719-.266-.244-.53-.489-.783-.714l-2.893-2.64c-6.254-6.321-11.17-14.3-14.211-23.052-1.16-3.894-2.396-8.526-2.768-13.359l-.289-3.363.043-3.426c-.061-1.525.094-3.066.243-4.557.071-.708.143-1.416.19-2.109.146-1.382.426-2.771.695-4.113.163-.81.326-1.619.449-2.373l.93-3.165c.107-.35.201-.706.295-1.061.187-.714.362-1.387.662-2.041l1.743-4.504.733-1.431c.297-.562.584-1.138.871-1.711.68-1.36,1.322-2.646,2.069-3.737l1.856-3.099l1.645-2.09c.729-.92,1.449-1.835,2.162-2.743l.472-.596c.005-.006.01-.013.015-.02.021-.025.04-.052.056-.08l1.239-1.381c.463-.553.989-1.121,1.656-1.788.402-.402.809-.795,1.215-1.187.409-.394.815-.786,1.215-1.185l.042-.046c.518-.426,1.024-.865,1.529-1.303.985-.854,1.915-1.659,2.934-2.385c5.485-4.247,11.688-7.588,18.437-9.932c5.18-1.831,10.7-3.059,16.418-3.651c1.522-.194,2.926-.254,4.284-.312.738-.031,1.446-.061,2.079-.111.608.009,1.189.012,1.744.016c1.159.007,2.161.013,3.038.06l4.079.261c.244.015.467-.15.519-.386.056-.239-.07-.482-.298-.575l-3.795-1.562c-.855-.314-1.857-.631-3.019-.998-.549-.173-1.132-.357-1.781-.566-.414-.1-.843-.208-1.285-.32-1.59-.404-3.392-.861-5.381-1.132-6.098-1.027-12.419-1.164-18.776-.407-3.875.373-7.857,1.363-11.604,2.384-4.865,1.542-8.775,3.14-12.278,5.017-1.546.721-3.034,1.646-4.473,2.541-.569.354-1.142.71-1.761,1.082-.512.368-1.032.731-1.556,1.097-1.485,1.038-3.021,2.11-4.444,3.334l-2.258,1.849-5.343,5.21-3.405,4.063c-1.598,1.8-2.834,3.703-4.029,5.543-.302.464-.605.932-.919,1.405l-1.175,1.813-2.993,5.708c-.974,1.929-1.767,3.995-2.534,5.992-.274.718-.552,1.439-.855,2.21-.227.816-.468,1.634-.709,2.455-.595,2.024-1.211,4.116-1.639,6.262-.133.799-.284,1.598-.436,2.4-.412,2.179-.838,4.432-.919,6.709l-.33,4.676.085,4.664c-.032,2.455.275,4.927.573,7.317.091.723.181,1.448.261,2.157.085,1.089.339,2.149.586,3.175.125.521.25,1.044.359,1.593.125.512.24,1.028.355,1.543.231,1.04.471,2.115.795,3.15c3.609,12.452,10.454,24.055,19.812,33.571l3.577,3.22c.283.245.549.484.815.724.757.682,1.539,1.387,2.71,2.221l.961.712c2.496,1.851,5.079,3.765,7.584,5.094l1.148.669c1.013.593,2.061,1.207,3.148,1.775l6.711,2.988c.507.192,1.021.363,1.534.533l5.39,1.777c1.038.323,2.107.559,3.142.788.522.115,1.044.23,1.586.362.534.104,1.064.229,1.594.354c1.018.239,2.069.487,3.136.581.742.08,1.48.17,2.219.26c2.379.289,4.838.588,7.262.55l.629.01c1.355.021,2.707.043,4.099.06l4.616-.339c2.304-.082,4.564-.514,6.751-.934.793-.151,1.583-.303,2.388-.44c11.098-2.258,21.887-7.384,31.209-14.831l.541-.446c1.545-1.276,3.143-2.595,4.564-4.017.31-.31.613-.626.896-.937l3.61-3.711l1.608-2.006c1.166-1.387,2.497-3.283,3.784-5.118l.669-.954c.362-.608.73-1.203,1.097-1.793.922-1.486,1.791-2.889,2.488-4.396c1.871-3.526,3.458-7.44,5.002-12.339.953-3.535,1.978-7.677,2.343-11.584.738-6.378.583-12.702-.459-18.78-.284-2.014-.751-3.822-1.161-5.418-.111-.434-.221-.853-.329-1.295l-.529-1.64c-.381-1.189-.71-2.215-1.042-3.119l-1.572-3.793c-.092-.229-.335-.354-.574-.298Z" transform="translate(-203.490181,-152.177647)" fill="#487af5"/></g></g><g id="ea50zq7OuTX5_to" transform="translate(205.739311,149.194921)"><g transform="translate(-205.739311,-149.194921)"><g><g id="ea50zq7OuTX7_to" transform="translate(477.933021,-122.997213)"><path id="ea50zq7OuTX7" d="M324.123,30.016L276.088,49.548c-.189.076-.313.261-.313.465.001.203.125.386.315.463l14.075,5.68-94.063,94.063v0l-58.088,58.089-18.711-1.696c-.124.006-.24.059-.328.145L86.814,238.919c-.133.134-.179.334-.118.515.063.181.223.311.411.334l17.995,3.844l5.116,1.249l1.251,5.133l3.843,17.979c.024.189.153.348.333.411s.381.015.518-.12l32.16-32.16c.088-.088.139-.204.145-.328l-1.699-18.712l58.09-58.087c.001,0,.001,0,.001,0l3.095-3.095l1.373-1.373v0l89.471-89.473l5.519,13.667c.075.189.259.313.462.314.136,0,.264-.056.355-.148.046-.045.084-.102.109-.166l19.531-48.035c.077-.188.031-.399-.108-.543-.144-.142-.357-.186-.544-.109Z" transform="translate(-205.740822,-149.194942)" opacity="0" fill="#2a2a2a"/></g><g id="ea50zq7OuTX8_tr" transform="translate(208.311936,146.715866) rotate(0)"><path d="M289.651,75.976c-.339-.375-.681-.747-1.03-1.148l-3.953-4.393c-.223-.233-.396-.413-.535-.541-.008-.008-.013-.018-.019-.025l-.004.003c-.012-.008-.019-.015-.028-.022l.005-.004c-.005-.004-.071-.068-.072-.074l-4.845-4.347c-.389-.341-.772-.685-1.158-1.03-1.271-1.14-2.584-2.318-4.031-3.293-.699-.505-1.396-1.017-2.096-1.528-2.873-2.108-5.847-4.288-9.05-5.997-.579-.333-1.155-.671-1.731-1.009-1.331-.78-2.705-1.589-4.121-2.324l-9.157-4.085c-.702-.27-1.421-.508-2.134-.746-.34-.11-.679-.224-1.02-.342l-6.286-2.087c-1.413-.442-2.87-.764-4.279-1.077-.718-.158-1.433-.316-2.149-.492l-4.836-1.086-1.629-.201c-1.025-.116-2.049-.244-3.07-.373-3.23-.408-6.572-.829-9.87-.784l-6.448-.125-6.322.445c-3.104.102-6.16.671-9.113,1.22-1.122.21-2.243.419-3.349.6-1.446.202-2.851.606-4.212.997-.613.176-1.227.352-1.85.512l-5.928,1.687-5.659,2.188c-.548.229-1.1.446-1.653.661-1.296.508-2.638,1.032-3.866,1.726l-7.878,4.088-2.448,1.578c-.663.437-1.325.861-1.985,1.287-2.508,1.613-5.103,3.28-7.515,5.402-1.508,1.243-2.999,2.474-4.493,3.7l-1.126.949-7.267,7.345-2.509,3.027c-1.718,1.965-3.219,4.078-4.669,6.122-.501.705-.995,1.402-1.518,2.12l-2.617,4.196c-.961,1.463-1.754,2.981-2.398,4.26-3.429,6.251-5.691,12.615-7.102,16.879-1.383,4.841-2.879,10.519-3.477,15.928-1.163,8.772-1.108,17.519.154,25.983.322,2.721.895,5.186,1.397,7.362.155.67.307,1.316.451,1.979.248.829.479,1.62.699,2.369.485,1.651.903,3.076,1.322,4.309l2.047,5.322c.088.233.336.365.578.308.243-.054.41-.285.384-.533l-.53-5.671c-.096-1.186-.143-2.527-.196-4.077-.027-.831-.059-1.707-.1-2.582.042-.918.058-1.879.071-2.88.03-1.936.06-3.937.286-6.134.615-8.031,2.156-15.861,4.586-23.28c1.208-3.897,2.974-8.225,5.383-13.211c2.253-4.187,4.808-8.935,8.179-13.297.836-1.191,1.645-2.242,2.482-3.22l2.615-3.193c.59-.609,1.167-1.231,1.749-1.856c1.235-1.33,2.512-2.704,3.909-3.953l.306-.269l2.047-1.912c.012-.007.021-.016.033-.023l.002-.002c.004-.002.008-.005.011-.008.014-.009.027-.019.039-.03l7.462-6.051l4.537-2.859c1.574-1.122,3.436-2.085,5.406-3.108.791-.409,1.587-.822,2.358-1.241l1.994-1.064L173.34,70.3c.916-.434,1.896-.708,2.928-.995.5-.139,1.004-.28,1.49-.437l4.497-1.383l4.683-.952c.539-.095,1.07-.211,1.604-.33c1.005-.22,2.042-.448,3.097-.5c1-.084,1.997-.196,2.993-.308c2.173-.245,4.42-.498,6.68-.433l4.858-.111l4.943.376c2.271.055,4.569.468,6.789.87.987.177,1.974.357,2.981.507c1.018.118,1.993.396,3.03.688.583.166,1.169.331,1.734.461.592.166,1.186.314,1.783.461.997.246,2.029.501,2.997.847l4.696,1.734c.311.115.618.226.926.337.473.169.949.336,1.387.517l6.769,3.28c.868.475,1.713.991,2.563,1.506.583.354,1.172.709,1.778,1.062c2.162,1.144,4.166,2.65,6.108,4.104.711.534,1.423,1.069,2.161,1.602.996.651,1.854,1.455,2.768,2.305.338.315.676.632,1.017.935l3.29,2.983l3.936,4.237c.326.365.67.738,1.016,1.111.975,1.051,1.978,2.139,2.502,2.999.543.784,1.109,1.538,1.678,2.296c1.26,1.681,2.563,3.421,3.702,5.544.339.578.69,1.151,1.042,1.724.516.845,1.052,1.716,1.518,2.568l2.187,4.534l1.102,2.227c.2.48.374.969.553,1.455.103.292.21.585.318.873l1.749,4.693c.342.952.596,1.964.843,2.94.15.617.306,1.232.48,1.832l.958,3.563.195,1.225c.15.988.331,1.969.512,2.951.407,2.223.826,4.523.895,6.821l.388,4.869-.095,4.925c.063,2.216-.18,4.446-.415,6.604-.111,1.013-.222,2.027-.306,3.062-.045,1.038-.263,2.031-.492,3.081-.115.532-.23,1.066-.318,1.589l-.926,4.649-1.389,4.537c-.159.499-.297,1.005-.437,1.511-.286,1.033-.556,2.006-.999,2.957-2.316,6.142-5.047,11.67-8.108,16.429l-2.439,3.822c-.336.578-.746,1.147-1.264,1.754l-4.731,5.947c-.008.013-.02.025-.025.036-.023.03-.044.063-.064.098l-.574.602c-.544.583-1.094,1.17-1.646,1.758-1.51,1.696-2.848,2.947-4.141,4.157-.631.59-1.254,1.175-1.854,1.769-.714.572-1.415,1.159-2.111,1.744-1.392,1.167-2.83,2.374-4.334,3.41-4.373,3.406-9.091,5.958-13.229,8.198-5.019,2.441-9.337,4.218-13.216,5.434-7.398,2.448-15.222,4.017-23.267,4.661-2.167.231-4.157.268-6.083.304-1.016.02-1.988.037-2.876.085-.865-.034-1.69-.062-2.473-.086-1.627-.051-3.026-.098-4.245-.187l-5.656-.508c-.252-.022-.479.144-.535.387-.053.243.08.49.313.579c0,0,1.861.706,5.361,2.042c1.222.413,2.635.824,4.273,1.298.747.22,1.54.45,2.412.707.607.131,1.238.276,1.89.427c2.195.502,4.678,1.075,7.408,1.393c8.474,1.248,17.222,1.28,25.991.097c5.476-.625,11.129-2.133,15.956-3.531c4.622-1.546,10.715-3.755,16.84-7.133l2.149-1.126c.465-.265.919-.549,1.376-.835.24-.15.479-.299.723-.45l4.238-2.66c.547-.398,1.107-.804,1.676-1.214c2.319-1.674,4.717-3.406,6.526-4.979l2.782-2.299c.005-.003.009-.008.01-.01.006-.005.013-.011.021-.018l6.871-6.872c.721-.688,1.338-1.371,1.883-2.077l3.523-4.319c10.043-12.861,16.917-27.69,19.885-42.901.179-1.09.375-2.18.578-3.273.547-2.984,1.113-6.071,1.197-9.182l.43-6.395-.142-6.391c.032-3.307-.394-6.645-.813-9.87-.13-1.025-.262-2.054-.384-3.094l-.227-1.66-1.091-4.798c-.172-.7-.329-1.405-.488-2.111-.318-1.418-.65-2.886-1.102-4.315l-2.101-6.275c-.135-.379-.263-.759-.39-1.141-.228-.671-.452-1.344-.714-2.031l-4.129-9.143c-.71-1.353-1.499-2.688-2.263-3.979-.359-.612-.723-1.221-1.068-1.823-1.809-3.383-4.355-6.797-6.817-10.099l-1.09-1.462c-1.111-1.574-2.099-2.664-3.058-3.718Z" transform="translate(-203.466755,-151.715861)" fill="#2a2a2a"/></g><g><g id="ea50zq7OuTX10_tr" transform="translate(208.312439,146.715866) rotate(0)"><path d="M249.58,106.016c-.004-.008-.012-.013-.018-.019l.004-.004c-.007-.007-.084-.081-.094-.086l-2.744-2.575c-.611-.569-1.244-1.158-1.938-1.653l-.404-.31c-1.566-1.196-3.182-2.437-4.934-3.416l-.81-.483c-.655-.397-1.313-.792-2.014-1.169l-2.897-1.341c-1.383-.692-2.846-1.181-4.266-1.652-.59-.194-1.174-.391-1.789-.611-2.183-.591-4.154-1.108-6.2-1.437-.44-.053-.883-.111-1.322-.168-1.603-.208-3.26-.423-4.898-.413-1.023-.02-2.042-.041-3.103-.066l-3.018.198c-1.539.051-3.049.338-4.503.615-.495.094-.985.187-1.491.273-1.453.297-2.867.716-4.237,1.121-.487.144-.968.286-1.492.438l-1.036.401c-1.43.551-2.902,1.118-4.293,1.83-.521.291-1.049.563-1.574.833-1.115.576-2.267,1.169-3.298,1.914l-.802.533c-1.273.841-2.475,1.633-3.715,2.747l-2.719,2.345-2.832,3.074c-.24.219-.331.303-.354.327-.035.034-.063.073-.088.114-.004.008-.014.019-.016.023l-3.823,5.273c-.783,1.379-1.511,2.741-2.167,4.047-.107.22-.221.437-.332.653-.227.442-.449.88-.65,1.354l-1.012,2.818c-.376,1.064-.734,2.071-1.037,3.139l-1.063,5.577c-.07.425-.082.843-.098,1.249-.004.188-.01.377-.023.582-.016.565-.043,1.119-.066,1.659-.076,1.687-.151,3.281.107,4.797.072.538.123,1.056.176,1.561.139,1.334.268,2.596.648,3.777.395,1.573.783,2.958,1.17,4.177l1.229,2.735c.682,1.497,1.088,2.287,1.088,2.287.102.195.316.302.531.265.217-.039.382-.214.41-.432c0,0,.107-.882.23-2.526l.196-2.916c.255-1.143.505-2.414.767-3.804.117-.868.427-1.843.759-2.877.156-.492.317-.995.464-1.519.287-1.149.805-2.317,1.358-3.556.19-.429.384-.863.577-1.32.313-.824.787-1.632,1.289-2.464l1.264-2.186l2.959-4.025c.141-.164.295-.322.451-.479l.453-.449.189-.193.204-.202c.418-.418.819-.847,1.226-1.278.271-.289.544-.579.775-.824l3.162-2.529c.031-.014.064-.033.094-.052l3.394-2.359l1.755-.814c.483-.265,1.122-.527,1.793-.801.404-.166.814-.335,1.223-.519.596-.299,1.252-.484,1.945-.681.443-.124.885-.249,1.283-.393.561-.164,1.163-.285,1.744-.402.568-.113,1.135-.228,1.598-.364.484-.046.963-.112,1.439-.179.709-.098,1.381-.191,2.053-.216.396-.002.795-.017,1.193-.03.805-.03,1.563-.058,2.365.021l1.738.055l1.793.256c2.4.305,4.713,1.036,6.846,1.743c1.965.812,4.254,1.834,6.34,3.301.656.368,1.244.842,1.867,1.341.324.262.649.524,1.004.782.316.212.594.491.891.785.129.129.261.259.393.378l1.23,1.154l1.722,1.969c.329.369.825.927.931,1.163.212.349.438.662.68.985.341.462.694.942,1.049,1.628.135.233.277.463.416.695.174.278.345.558.482.81.221.493.461.977.701,1.463l.109.211c.353.606.583,1.264.829,1.959.159.445.315.892.483,1.266.637,2.197,1.256,4.559,1.477,6.949l.182,1.736-.01,1.821c.04.761-.016,1.507-.076,2.296-.031.408-.063.817-.08,1.204-.414,4.43-1.814,8.829-4.163,13.069l-.317.568c-.455.821-.887,1.598-1.449,2.307l-1.23,1.744c-.029.042-.05.087-.064.135l-3.235,3.531-.63.544c-.539.459-1.047.895-1.545,1.388-.141.129-.278.266-.416.4-.201.198-.402.397-.6.558l-.18.124c-.377.256-.745.506-1.111.759-.869.601-1.716,1.19-2.484,1.733l-2.632,1.392c-.927.517-1.706.916-2.513,1.189-.443.169-.881.342-1.314.517-1.262.506-2.451.983-3.633,1.228-.5.122-.996.26-1.477.394-1.062.295-2.057.573-3.009.658-1.409.201-2.702.397-3.786.593l-5.42.246c-.221.012-.408.168-.459.383-.056.215.04.439.234.549.029.019.77.449,2.248,1.188l2.822,1.378c1.083.388,2.396.813,3.988,1.287c1.156.437,2.415.618,3.747.809.503.072,1.02.147,1.531.235c1.515.324,3.097.313,4.767.304.556-.003,1.126-.007,1.73.001.188-.005.383-.004.574-.002.404.002.822.006,1.25-.051l5.653-.846c.973-.235,1.931-.533,2.94-.846l3.081-.964c.491-.189.993-.427,1.499-.667l.649-.306c1.259-.588,2.694-1.317,4.421-2.25c1.117-.712,2.256-1.439,3.408-2.18l1.26-.808c.016-.012.068-.054.084-.068l-.002-.003c.012-.008.023-.016.035-.026h.002c0-.002.008-.007.01-.009.107-.088.232-.201.381-.333l2.344-2.056c.488-.402.984-.859,1.523-1.398.635-.633,1.244-1.301,1.867-1.979l.318-.346c5.127-5.82,8.762-12.708,10.512-19.938.105-.494.217-.987.33-1.481.336-1.444.68-2.936.785-4.457l.316-3.061.055-3.049c.074-1.651-.072-3.315-.215-4.925-.041-.443-.08-.887-.118-1.358-.276-2.105-.741-4.236-1.215-6.263-.181-.576-.349-1.158-.518-1.741-.418-1.446-.849-2.941-1.486-4.35l-1.253-2.986c-.337-.685-.703-1.355-1.074-2.025l-.445-.818c-.945-1.883-2.406-3.931-3.815-5.862-.585-.83-.993-1.301-1.392-1.756-.145-.167-.287-.332-.445-.52l-1.656-1.922c-.198-.212-.33-.356-.428-.454-.009-.011-.016-.022-.027-.033v.011Z" transform="translate(-208.312429,-146.715856)" fill="#f40e0e"/></g></g></g></g></g><g id="ea50zq7OuTX12_to" transform="translate(208.312439,146.715866)"><path id="ea50zq7OuTX12" d="M249.58,106.016c-.004-.008-.012-.013-.018-.019l.004-.004c-.007-.007-.084-.081-.094-.086l-2.744-2.575c-.611-.569-1.244-1.158-1.938-1.653l-.404-.31c-1.566-1.196-3.182-2.437-4.934-3.416l-.81-.483c-.655-.397-1.313-.792-2.014-1.169l-2.897-1.341c-1.383-.692-2.846-1.181-4.266-1.652-.59-.194-1.174-.391-1.789-.611-2.183-.591-4.154-1.108-6.2-1.437-.44-.053-.883-.111-1.322-.168-1.603-.208-3.26-.423-4.898-.413-1.023-.02-2.042-.041-3.103-.066l-3.018.198c-1.539.051-3.049.338-4.503.615-.495.094-.985.187-1.491.273-1.453.297-2.867.716-4.237,1.121-.487.144-.968.286-1.492.438l-1.036.401c-1.43.551-2.902,1.118-4.293,1.83-.521.291-1.049.563-1.574.833-1.115.576-2.267,1.169-3.298,1.914l-.802.533c-1.273.841-2.475,1.633-3.715,2.747l-2.719,2.345-2.832,3.074c-.24.219-.331.303-.354.327-.035.034-.063.073-.088.114-.004.008-.014.019-.016.023l-3.823,5.273c-.783,1.379-1.511,2.741-2.167,4.047-.107.22-.221.437-.332.653-.227.442-.449.88-.65,1.354l-1.012,2.818c-.376,1.064-.734,2.071-1.037,3.139l-1.063,5.577c-.07.425-.082.843-.098,1.249-.004.188-.01.377-.023.582-.016.565-.043,1.119-.066,1.659-.076,1.687-.151,3.281.107,4.797.072.538.123,1.056.176,1.561.139,1.334.268,2.596.648,3.777.395,1.573.783,2.958,1.17,4.177l1.229,2.735c.682,1.497,1.088,2.287,1.088,2.287.102.195.316.302.531.265.217-.039.382-.214.41-.432c0,0,.107-.882.23-2.526l.196-2.916c.255-1.143.505-2.414.767-3.804.117-.868.427-1.843.759-2.877.156-.492.317-.995.464-1.519.287-1.149.805-2.317,1.358-3.556.19-.429.384-.863.577-1.32.313-.824.787-1.632,1.289-2.464l1.264-2.186l2.959-4.025c.141-.164.295-.322.451-.479l.453-.449.189-.193.204-.202c.418-.418.819-.847,1.226-1.278.271-.289.544-.579.775-.824l3.162-2.529c.031-.014.064-.033.094-.052l3.394-2.359l1.755-.814c.483-.265,1.122-.527,1.793-.801.404-.166.814-.335,1.223-.519.596-.299,1.252-.484,1.945-.681.443-.124.885-.249,1.283-.393.561-.164,1.163-.285,1.744-.402.568-.113,1.135-.228,1.598-.364.484-.046.963-.112,1.439-.179.709-.098,1.381-.191,2.053-.216.396-.002.795-.017,1.193-.03.805-.03,1.563-.058,2.365.021l1.738.055l1.793.256c2.4.305,4.713,1.036,6.846,1.743c1.965.812,4.254,1.834,6.34,3.301.656.368,1.244.842,1.867,1.341.324.262.649.524,1.004.782.316.212.594.491.891.785.129.129.261.259.393.378l1.23,1.154l1.722,1.969c.329.369.825.927.931,1.163.212.349.438.662.68.985.341.462.694.942,1.049,1.628.135.233.277.463.416.695.174.278.345.558.482.81.221.493.461.977.701,1.463l.109.211c.353.606.583,1.264.829,1.959.159.445.315.892.483,1.266.637,2.197,1.256,4.559,1.477,6.949l.182,1.736-.01,1.821c.04.761-.016,1.507-.076,2.296-.031.408-.063.817-.08,1.204-.414,4.43-1.814,8.829-4.163,13.069l-.317.568c-.455.821-.887,1.598-1.449,2.307l-1.23,1.744c-.029.042-.05.087-.064.135l-3.235,3.531-.63.544c-.539.459-1.047.895-1.545,1.388-.141.129-.278.266-.416.4-.201.198-.402.397-.6.558l-.18.124c-.377.256-.745.506-1.111.759-.869.601-1.716,1.19-2.484,1.733l-2.632,1.392c-.927.517-1.706.916-2.513,1.189-.443.169-.881.342-1.314.517-1.262.506-2.451.983-3.633,1.228-.5.122-.996.26-1.477.394-1.062.295-2.057.573-3.009.658-1.409.201-2.702.397-3.786.593l-5.42.246c-.221.012-.408.168-.459.383-.056.215.04.439.234.549.029.019.77.449,2.248,1.188l2.822,1.378c1.083.388,2.396.813,3.988,1.287c1.156.437,2.415.618,3.747.809.503.072,1.02.147,1.531.235c1.515.324,3.097.313,4.767.304.556-.003,1.126-.007,1.73.001.188-.005.383-.004.574-.002.404.002.822.006,1.25-.051l5.653-.846c.973-.235,1.931-.533,2.94-.846l3.081-.964c.491-.189.993-.427,1.499-.667l.649-.306c1.259-.588,2.694-1.317,4.421-2.25c1.117-.712,2.256-1.439,3.408-2.18l1.26-.808c.016-.012.068-.054.084-.068l-.002-.003c.012-.008.023-.016.035-.026h.002c0-.002.008-.007.01-.009.107-.088.232-.201.381-.333l2.344-2.056c.488-.402.984-.859,1.523-1.398.635-.633,1.244-1.301,1.867-1.979l.318-.346c5.127-5.82,8.762-12.708,10.512-19.938.105-.494.217-.987.33-1.481.336-1.444.68-2.936.785-4.457l.316-3.061.055-3.049c.074-1.651-.072-3.315-.215-4.925-.041-.443-.08-.887-.118-1.358-.276-2.105-.741-4.236-1.215-6.263-.181-.576-.349-1.158-.518-1.741-.418-1.446-.849-2.941-1.486-4.35l-1.253-2.986c-.337-.685-.703-1.355-1.074-2.025l-.445-.818c-.945-1.883-2.406-3.931-3.815-5.862-.585-.83-.993-1.301-1.392-1.756-.145-.167-.287-.332-.445-.52l-1.656-1.922c-.198-.212-.33-.356-.428-.454-.009-.011-.016-.022-.027-.033v.011Z" transform="translate(-208.312429,-146.715856)" fill="#f40e0e"/></g><g id="ea50zq7OuTX13_to" transform="translate(208.312978,146.714335)"><path d="M232.001,138.838c4.348,13.082-2.728,27.213-15.814,31.565-2.62333.87199-5.28839,1.2836-7.9082,1.27921l5.31464-13.07096-4.19607-4.19607c.00442-.00704.00864-.01411.01263-.02118c1.895-2.02,1.534-5.533-.839-7.905-2.3756-2.37757-5.90159-2.73074-7.91832-.81852l-4.47415-4.47415-12.83413,5.21862c.12426-10.34443,6.72519-19.94072,17.0946-23.38795c13.086-4.349,27.215,2.732,31.562,15.811Z" transform="translate(-208.312977,-146.714335)" fill="#ffcc34"/></g></g></svg>
