<?xml version="1.0" encoding="utf-8"?>
<!-- Generator: Adobe Illustrator 16.0.3, SVG Export Plug-In . SVG Version: 6.00 Build 0)  -->
<!DOCTYPE svg PUBLIC "-//W3C//DTD SVG 1.1//EN" "http://www.w3.org/Graphics/SVG/1.1/DTD/svg11.dtd">
<svg version="1.1" xmlns="http://www.w3.org/2000/svg" xmlns:xlink="http://www.w3.org/1999/xlink" x="0px" y="0px"
	 width="828.979px" height="448.783px" viewBox="0 0 828.979 448.783" enable-background="new 0 0 828.979 448.783"
	 xml:space="preserve">
<g id="Ebene_1">
	<g>
		<path fill="#2A2A2A" d="M99.614,374.593c3.465,4.378,5.198,9.395,5.198,15.048c0,5.108-1.255,9.599-3.762,13.475
			c-2.51,3.877-6.135,6.908-10.876,9.097c-4.743,2.189-10.352,3.283-16.826,3.283H32.172V320.01H71.57
			c6.475,0,12.06,1.049,16.758,3.146c4.696,2.099,8.253,5.017,10.67,8.755c2.416,3.741,3.626,7.981,3.626,12.723
			c0,5.564-1.483,10.215-4.446,13.954c-2.965,3.741-6.908,6.385-11.833,7.934C91.725,367.526,96.147,370.215,99.614,374.593z
			 M51.323,359.408h17.511c4.56,0,8.071-1.026,10.533-3.078c2.463-2.052,3.694-4.993,3.694-8.824c0-3.83-1.231-6.793-3.694-8.892
			c-2.462-2.097-5.974-3.146-10.533-3.146H51.323V359.408z M81.488,396.618c2.599-2.189,3.898-5.288,3.898-9.302
			c0-4.104-1.368-7.319-4.104-9.645c-2.736-2.326-6.43-3.488-11.081-3.488H51.323v25.718h19.289
			C75.264,399.901,78.889,398.807,81.488,396.618z"/>
		<path fill="#2A2A2A" d="M139.832,410.161c-7.479-4.194-13.406-10.008-17.784-17.442c-4.378-7.432-6.566-15.845-6.566-25.239
			c0-9.303,2.188-17.669,6.566-25.103c4.378-7.432,10.305-13.246,17.784-17.442c7.477-4.194,15.685-6.293,24.624-6.293
			c9.028,0,17.258,2.099,24.692,6.293c7.432,4.196,13.314,10.01,17.646,17.442c4.331,7.434,6.498,15.8,6.498,25.103
			c0,9.394-2.167,17.807-6.498,25.239c-4.332,7.435-10.238,13.249-17.715,17.442c-7.479,4.196-15.688,6.292-24.624,6.292
			C155.517,416.454,147.309,414.357,139.832,410.161z M179.641,395.455c4.378-2.6,7.798-6.314,10.26-11.149
			c2.463-4.833,3.693-10.442,3.693-16.826c0-6.383-1.23-11.97-3.693-16.758c-2.462-4.788-5.882-8.458-10.26-11.012
			c-4.378-2.552-9.439-3.831-15.185-3.831c-5.746,0-10.831,1.278-15.254,3.831c-4.424,2.554-7.865,6.224-10.328,11.012
			c-2.462,4.788-3.693,10.375-3.693,16.758c0,6.384,1.231,11.993,3.693,16.826c2.463,4.835,5.904,8.55,10.328,11.149
			c4.423,2.599,9.508,3.898,15.254,3.898C170.201,399.354,175.263,398.054,179.641,395.455z"/>
		<path fill="#2A2A2A" d="M294.004,348.738c-2.188-4.012-5.198-7.067-9.028-9.166c-3.831-2.097-8.3-3.146-13.406-3.146
			c-5.656,0-10.671,1.278-15.049,3.83c-4.377,2.555-7.797,6.203-10.26,10.944c-2.462,4.743-3.693,10.215-3.693,16.416
			c0,6.385,1.253,11.949,3.762,16.689c2.508,4.743,5.996,8.392,10.466,10.944c4.467,2.555,9.665,3.831,15.595,3.831
			c7.295,0,13.27-1.937,17.921-5.814c4.651-3.875,7.706-9.279,9.166-16.211h-32.832v-14.638h51.71v16.69
			c-1.278,6.658-4.015,12.814-8.208,18.468c-4.196,5.656-9.6,10.192-16.211,13.612c-6.613,3.42-14.021,5.13-22.229,5.13
			c-9.213,0-17.534-2.073-24.967-6.225c-7.434-4.148-13.27-9.918-17.51-17.305c-4.241-7.387-6.361-15.777-6.361-25.171
			c0-9.392,2.12-17.806,6.361-25.24c4.24-7.432,10.076-13.223,17.51-17.374c7.433-4.149,15.709-6.225,24.83-6.225
			c10.76,0,20.109,2.623,28.044,7.866c7.934,5.246,13.406,12.609,16.416,22.093H294.004z"/>
		<path fill="#2A2A2A" d="M351.732,335.468v23.94h32.148v15.185h-32.148v25.308h36.252v15.595h-55.403v-95.623h55.403v15.595
			H351.732z"/>
		<path fill="#2A2A2A" d="M487.027,415.496h-19.151l-43.366-65.527v65.527h-19.151v-95.623h19.151l43.366,65.664v-65.664h19.151
			V415.496z"/>
		<path fill="#2A2A2A" d="M525.056,400.312h31.465v15.185h-50.616V320.01h19.151V400.312z"/>
		<path fill="#2A2A2A" d="M587.847,320.01v95.486h-19.151V320.01H587.847z"/>
		<path fill="#2A2A2A" d="M673.21,348.738c-2.188-4.012-5.198-7.067-9.028-9.166c-3.831-2.097-8.3-3.146-13.406-3.146
			c-5.656,0-10.671,1.278-15.049,3.83c-4.377,2.555-7.797,6.203-10.26,10.944c-2.462,4.743-3.693,10.215-3.693,16.416
			c0,6.385,1.253,11.949,3.762,16.689c2.508,4.743,5.996,8.392,10.466,10.944c4.467,2.555,9.665,3.831,15.595,3.831
			c7.295,0,13.27-1.937,17.921-5.814c4.651-3.875,7.706-9.279,9.166-16.211h-32.832v-14.638h51.71v16.69
			c-1.278,6.658-4.015,12.814-8.208,18.468c-4.196,5.656-9.6,10.192-16.211,13.612c-6.613,3.42-14.021,5.13-22.229,5.13
			c-9.213,0-17.534-2.073-24.967-6.225c-7.434-4.148-13.27-9.918-17.51-17.305c-4.241-7.387-6.361-15.777-6.361-25.171
			c0-9.392,2.12-17.806,6.361-25.24c4.24-7.432,10.076-13.223,17.51-17.374c7.433-4.149,15.709-6.225,24.83-6.225
			c10.76,0,20.109,2.623,28.044,7.866c7.934,5.246,13.406,12.609,16.416,22.093H673.21z"/>
		<path fill="#2A2A2A" d="M770.337,397.302h-38.03l-6.293,18.194h-20.109l34.337-95.623h22.299l34.336,95.623H776.63
			L770.337,397.302z M765.139,381.98l-13.816-39.945l-13.817,39.945H765.139z"/>
	</g>
	<g>
		<g>
			<g>
				<path fill="#2A2A2A" d="M541.265,32.798l-51.436,20.915c-0.201,0.08-0.336,0.279-0.336,0.498
					c0.002,0.217,0.135,0.415,0.338,0.494l15.071,6.084L404.181,161.511c-0.21,0.211-0.21,0.55-0.002,0.758l8.62,8.619
					c0.21,0.209,0.544,0.209,0.757,0l100.59-100.59l5.907,14.634c0.082,0.201,0.278,0.336,0.495,0.336
					c0.146-0.002,0.283-0.061,0.381-0.158c0.051-0.048,0.091-0.109,0.117-0.178l20.915-51.437c0.083-0.201,0.032-0.426-0.116-0.58
					C541.692,32.764,541.464,32.718,541.265,32.798z"/>
				<path fill="#2A2A2A" d="M504.352,82.012c-0.363-0.402-0.73-0.801-1.102-1.229l-4.234-4.705
					c-0.239-0.248-0.421-0.441-0.571-0.578c-0.009-0.01-0.015-0.021-0.021-0.027l-0.003,0.003c-0.016-0.009-0.021-0.016-0.033-0.022
					l0.007-0.006c-0.007-0.006-0.074-0.071-0.074-0.076l-5.191-4.658c-0.414-0.363-0.826-0.732-1.241-1.1
					c-1.358-1.223-2.766-2.482-4.313-3.526c-0.748-0.542-1.496-1.091-2.246-1.636c-3.075-2.258-6.263-4.592-9.69-6.422
					c-0.618-0.355-1.236-0.719-1.853-1.08c-1.426-0.834-2.897-1.701-4.413-2.489l-9.805-4.374c-0.752-0.292-1.522-0.543-2.286-0.798
					c-0.365-0.12-0.726-0.242-1.093-0.367l-6.729-2.237c-1.515-0.471-3.073-0.816-4.582-1.148c-0.769-0.17-1.536-0.342-2.302-0.528
					l-5.18-1.163l-1.743-0.216c-1.098-0.123-2.193-0.261-3.287-0.398c-3.461-0.437-7.037-0.889-10.571-0.84l-6.902-0.134
					l-6.771,0.477c-3.323,0.108-6.597,0.716-9.758,1.306c-1.202,0.226-2.401,0.449-3.585,0.644
					c-1.549,0.215-3.055,0.646-4.511,1.067c-0.656,0.187-1.314,0.377-1.982,0.548l-6.35,1.805l-6.058,2.344
					c-0.585,0.246-1.177,0.479-1.77,0.709c-1.386,0.543-2.824,1.105-4.142,1.848l-8.434,4.377l-2.624,1.689
					c-0.708,0.469-1.416,0.922-2.124,1.377c-2.686,1.728-5.465,3.514-8.045,5.783c-1.615,1.333-3.212,2.65-4.812,3.965l-1.206,1.014
					l-7.78,7.867l-2.688,3.24c-1.838,2.104-3.446,4.367-4.997,6.557c-0.538,0.754-1.069,1.5-1.627,2.268l-2.802,4.494
					c-1.03,1.566-1.879,3.191-2.566,4.563c-3.676,6.693-6.094,13.507-7.605,18.074c-1.481,5.183-3.084,11.263-3.725,17.056
					c-1.248,9.391-1.188,18.759,0.166,27.82c0.343,2.915,0.958,5.554,1.495,7.884c0.166,0.718,0.329,1.408,0.483,2.118
					c0.265,0.889,0.513,1.736,0.749,2.537c0.518,1.768,0.968,3.294,1.414,4.613l2.192,5.699c0.093,0.25,0.361,0.391,0.619,0.331
					c0.26-0.06,0.438-0.306,0.408-0.571l-0.564-6.072c-0.102-1.271-0.154-2.705-0.211-4.365c-0.029-0.891-0.063-1.827-0.106-2.766
					c0.044-0.982,0.062-2.01,0.075-3.084c0.035-2.073,0.066-4.215,0.307-6.568c0.658-8.598,2.309-16.982,4.91-24.927
					c1.294-4.173,3.182-8.808,5.766-14.146c2.412-4.484,5.146-9.568,8.757-14.239c0.897-1.275,1.761-2.4,2.658-3.449l2.8-3.418
					c0.631-0.651,1.25-1.319,1.873-1.987c1.324-1.424,2.689-2.896,4.186-4.233l0.328-0.287l2.192-2.047
					c0.012-0.008,0.021-0.019,0.033-0.025l0.004-0.002c0.003-0.002,0.008-0.006,0.012-0.008c0.015-0.01,0.029-0.021,0.042-0.031
					l7.989-6.479l4.856-3.062c1.686-1.201,3.682-2.234,5.791-3.328c0.846-0.438,1.699-0.88,2.525-1.328l2.135-1.139l6.99-2.828
					c0.982-0.465,2.029-0.758,3.137-1.066c0.534-0.148,1.075-0.299,1.594-0.467l4.814-1.482l5.018-1.019
					c0.575-0.1,1.145-0.226,1.717-0.353c1.075-0.235,2.187-0.479,3.318-0.535c1.07-0.09,2.139-0.209,3.203-0.329
					c2.328-0.262,4.735-0.534,7.153-0.466l5.201-0.119l5.295,0.404c2.427,0.061,4.892,0.502,7.268,0.932
					c1.058,0.189,2.114,0.381,3.193,0.543c1.089,0.125,2.134,0.424,3.243,0.736c0.625,0.178,1.252,0.354,1.855,0.492
					c0.636,0.178,1.27,0.338,1.91,0.492c1.066,0.266,2.174,0.539,3.209,0.91l5.03,1.856c0.333,0.124,0.662,0.243,0.99,0.36
					c0.508,0.182,1.015,0.359,1.486,0.556l7.248,3.511c0.929,0.511,1.834,1.061,2.744,1.612c0.625,0.38,1.256,0.762,1.903,1.139
					c2.314,1.225,4.461,2.837,6.54,4.396c0.762,0.572,1.522,1.144,2.314,1.715c1.068,0.698,1.985,1.559,2.964,2.469
					c0.362,0.338,0.724,0.676,1.089,1.002l3.522,3.193l4.217,4.539c0.347,0.391,0.716,0.789,1.086,1.189
					c1.044,1.125,2.117,2.291,2.68,3.21c0.581,0.837,1.186,1.646,1.796,2.458c1.352,1.803,2.744,3.666,3.969,5.938
					c0.362,0.619,0.737,1.232,1.113,1.846c0.551,0.904,1.129,1.839,1.626,2.751l2.34,4.854l1.181,2.386
					c0.215,0.514,0.4,1.036,0.59,1.557c0.115,0.313,0.227,0.626,0.345,0.935l1.871,5.025c0.367,1.02,0.638,2.104,0.903,3.148
					c0.16,0.66,0.326,1.318,0.514,1.96l1.025,3.816l0.207,1.312c0.162,1.057,0.356,2.107,0.551,3.16
					c0.438,2.38,0.883,4.841,0.956,7.303l0.416,5.213l-0.102,5.274c0.068,2.374-0.192,4.761-0.444,7.071
					c-0.12,1.085-0.237,2.171-0.326,3.28c-0.049,1.109-0.283,2.173-0.528,3.298c-0.122,0.569-0.245,1.141-0.341,1.703l-0.991,4.977
					l-1.488,4.859c-0.167,0.532-0.319,1.074-0.466,1.617c-0.309,1.105-0.597,2.148-1.07,3.165
					c-2.48,6.578-5.404,12.497-8.683,17.593l-2.61,4.093c-0.361,0.618-0.801,1.228-1.355,1.877l-5.066,6.369
					c-0.006,0.014-0.02,0.027-0.026,0.037c-0.022,0.033-0.046,0.069-0.068,0.107l-0.615,0.645c-0.581,0.623-1.169,1.251-1.76,1.883
					c-1.618,1.814-3.05,3.155-4.435,4.451c-0.677,0.633-1.345,1.256-1.983,1.893c-0.767,0.613-1.517,1.242-2.263,1.867
					c-1.49,1.252-3.03,2.543-4.641,3.652c-4.684,3.648-9.733,6.38-14.164,8.779c-5.375,2.613-9.998,4.518-14.152,5.818
					c-7.925,2.623-16.301,4.302-24.916,4.992c-2.319,0.248-4.448,0.285-6.514,0.324c-1.086,0.023-2.125,0.039-3.079,0.09
					c-0.925-0.033-1.808-0.064-2.646-0.092c-1.741-0.053-3.24-0.104-4.545-0.199l-6.059-0.545c-0.268-0.024-0.513,0.154-0.571,0.416
					c-0.06,0.26,0.085,0.525,0.334,0.618c0,0,1.995,0.757,5.743,2.187c1.307,0.441,2.819,0.883,4.574,1.391
					c0.801,0.234,1.648,0.48,2.584,0.757c0.65,0.14,1.324,0.296,2.023,0.456c2.35,0.538,5.009,1.152,7.932,1.492
					c9.075,1.336,18.44,1.37,27.832,0.105c5.862-0.671,11.915-2.285,17.085-3.782c4.948-1.657,11.474-4.022,18.032-7.64l2.305-1.204
					c0.495-0.284,0.982-0.587,1.47-0.896c0.257-0.16,0.513-0.32,0.774-0.48l4.537-2.85c0.586-0.426,1.188-0.859,1.796-1.299
					c2.482-1.795,5.051-3.646,6.987-5.331l2.98-2.464c0.004-0.004,0.009-0.008,0.013-0.01c0.005-0.006,0.009-0.014,0.02-0.02
					l7.359-7.358c0.771-0.738,1.431-1.47,2.016-2.226l3.772-4.625c10.753-13.77,18.114-29.648,21.291-45.937
					c0.192-1.168,0.404-2.336,0.62-3.505c0.586-3.194,1.191-6.501,1.283-9.832l0.458-6.849l-0.151-6.844
					c0.035-3.541-0.422-7.116-0.87-10.568c-0.141-1.098-0.282-2.199-0.413-3.313l-0.243-1.778l-1.168-5.138
					c-0.184-0.748-0.351-1.504-0.522-2.26c-0.34-1.52-0.696-3.091-1.181-4.619l-2.25-6.723c-0.142-0.403-0.279-0.811-0.418-1.221
					c-0.241-0.72-0.482-1.44-0.762-2.173l-4.423-9.791c-0.759-1.449-1.605-2.877-2.424-4.261c-0.383-0.654-0.773-1.308-1.143-1.952
					c-1.938-3.622-4.662-7.277-7.299-10.813l-1.168-1.566C506.438,84.309,505.38,83.143,504.352,82.012z"/>
				<path fill="#F40E0E" d="M461.444,114.179c-0.004-0.009-0.013-0.015-0.018-0.021l0.004-0.004
					c-0.008-0.006-0.09-0.086-0.102-0.093l-2.936-2.757c-0.657-0.609-1.335-1.24-2.078-1.77l-0.434-0.332
					c-1.676-1.281-3.406-2.611-5.282-3.658l-0.867-0.517c-0.702-0.426-1.407-0.849-2.157-1.253l-3.102-1.438
					c-1.48-0.74-3.047-1.264-4.569-1.769c-0.632-0.206-1.256-0.417-1.915-0.653c-2.337-0.632-4.448-1.188-6.642-1.539
					c-0.47-0.055-0.943-0.117-1.412-0.178c-1.717-0.223-3.491-0.455-5.248-0.443c-1.093-0.021-2.186-0.043-3.319-0.068l-3.233,0.21
					c-1.646,0.056-3.264,0.362-4.821,0.659c-0.532,0.1-1.053,0.201-1.595,0.292c-1.558,0.317-3.07,0.766-4.538,1.2
					c-0.521,0.154-1.035,0.307-1.595,0.469l-1.115,0.43c-1.527,0.59-3.105,1.197-4.597,1.959c-0.558,0.313-1.12,0.602-1.683,0.893
					c-1.193,0.617-2.428,1.254-3.531,2.049l-0.859,0.57c-1.365,0.9-2.65,1.75-3.977,2.941l-2.912,2.512l-3.034,3.289
					c-0.257,0.237-0.354,0.329-0.378,0.352c-0.038,0.037-0.068,0.079-0.093,0.123c-0.007,0.01-0.017,0.02-0.021,0.023l-4.093,5.646
					c-0.837,1.479-1.617,2.937-2.319,4.334c-0.115,0.237-0.238,0.469-0.357,0.699c-0.243,0.474-0.479,0.942-0.692,1.451
					l-1.084,3.016c-0.405,1.141-0.79,2.219-1.113,3.363l-1.137,5.971c-0.075,0.455-0.089,0.903-0.106,1.337
					c-0.003,0.202-0.01,0.405-0.023,0.624c-0.017,0.605-0.046,1.197-0.07,1.775c-0.083,1.808-0.163,3.515,0.113,5.139
					c0.077,0.574,0.133,1.131,0.188,1.67c0.15,1.432,0.288,2.781,0.694,4.045c0.424,1.684,0.84,3.168,1.253,4.473l1.317,2.93
					c0.73,1.604,1.162,2.447,1.162,2.447c0.111,0.211,0.342,0.324,0.568,0.285c0.234-0.042,0.411-0.229,0.441-0.461
					c0,0,0.114-0.945,0.248-2.707l0.209-3.123c0.271-1.223,0.539-2.584,0.818-4.07c0.127-0.931,0.459-1.975,0.814-3.083
					c0.168-0.526,0.34-1.065,0.499-1.626c0.306-1.231,0.859-2.482,1.452-3.809c0.204-0.459,0.412-0.924,0.617-1.412
					c0.334-0.883,0.844-1.748,1.381-2.641l1.352-2.34l3.168-4.31c0.155-0.176,0.319-0.345,0.485-0.513l0.484-0.48l0.203-0.209
					l0.219-0.213c0.448-0.448,0.874-0.908,1.313-1.37c0.292-0.308,0.579-0.618,0.827-0.882l3.388-2.708
					c0.033-0.015,0.07-0.034,0.103-0.056l3.634-2.525l1.878-0.871c0.516-0.285,1.202-0.565,1.919-0.859
					c0.434-0.178,0.874-0.358,1.313-0.557c0.639-0.32,1.341-0.518,2.081-0.729c0.477-0.133,0.947-0.267,1.371-0.422
					c0.604-0.175,1.248-0.305,1.872-0.43c0.606-0.121,1.213-0.245,1.708-0.391c0.518-0.049,1.031-0.118,1.543-0.191
					c0.758-0.105,1.479-0.204,2.198-0.23c0.426-0.003,0.852-0.02,1.276-0.033c0.863-0.031,1.675-0.061,2.533,0.021l1.86,0.061
					l1.921,0.275c2.569,0.324,5.047,1.107,7.332,1.866c2.104,0.869,4.553,1.962,6.787,3.534c0.704,0.395,1.332,0.9,2,1.436
					c0.346,0.281,0.694,0.561,1.075,0.838c0.337,0.227,0.636,0.525,0.953,0.84c0.139,0.138,0.28,0.277,0.423,0.406l1.316,1.235
					l1.843,2.108c0.352,0.395,0.883,0.992,0.998,1.245c0.226,0.374,0.469,0.71,0.728,1.055c0.363,0.496,0.743,1.009,1.123,1.743
					c0.143,0.251,0.297,0.496,0.443,0.744c0.188,0.298,0.371,0.598,0.519,0.869c0.236,0.525,0.494,1.045,0.751,1.566l0.116,0.225
					c0.376,0.649,0.624,1.354,0.888,2.099c0.169,0.478,0.337,0.956,0.518,1.356c0.681,2.352,1.345,4.883,1.582,7.441l0.196,1.859
					l-0.014,1.949c0.042,0.814-0.017,1.613-0.082,2.459c-0.032,0.436-0.066,0.873-0.084,1.287c-0.443,4.746-1.942,9.454-4.46,13.995
					l-0.337,0.608c-0.49,0.877-0.951,1.711-1.553,2.471l-1.314,1.867c-0.032,0.046-0.057,0.094-0.071,0.145l-3.464,3.781
					l-0.677,0.58c-0.575,0.493-1.119,0.959-1.652,1.488c-0.148,0.138-0.299,0.284-0.445,0.428c-0.217,0.211-0.431,0.424-0.643,0.597
					l-0.191,0.134c-0.404,0.273-0.799,0.541-1.189,0.813c-0.932,0.645-1.839,1.275-2.662,1.855l-2.814,1.492
					c-0.995,0.554-1.831,0.979-2.695,1.271c-0.473,0.182-0.941,0.367-1.406,0.555c-1.351,0.543-2.622,1.052-3.889,1.315
					c-0.536,0.13-1.068,0.279-1.583,0.422c-1.135,0.316-2.202,0.614-3.222,0.704c-1.507,0.217-2.892,0.428-4.055,0.637l-5.805,0.262
					c-0.235,0.014-0.435,0.182-0.491,0.41c-0.059,0.232,0.044,0.472,0.252,0.59c0.031,0.021,0.823,0.479,2.407,1.271l3.022,1.477
					c1.159,0.416,2.563,0.871,4.27,1.377c1.239,0.47,2.587,0.662,4.009,0.867c0.54,0.076,1.096,0.158,1.645,0.251
					c1.621,0.347,3.315,0.335,5.104,0.327c0.596-0.006,1.203-0.01,1.852,0.001c0.201-0.007,0.409-0.005,0.613-0.004
					c0.437,0.004,0.883,0.009,1.34-0.052l6.054-0.908c1.044-0.252,2.066-0.57,3.146-0.906l3.301-1.031
					c0.527-0.203,1.064-0.459,1.606-0.717l0.695-0.326c1.35-0.631,2.883-1.409,4.731-2.41c1.197-0.763,2.416-1.539,3.651-2.333
					l1.349-0.866c0.016-0.014,0.073-0.059,0.091-0.072l-0.001-0.004c0.01-0.011,0.023-0.018,0.036-0.026h0.001
					c0-0.003,0.009-0.009,0.012-0.011c0.111-0.095,0.247-0.216,0.407-0.357l2.511-2.201c0.521-0.43,1.054-0.92,1.632-1.496
					c0.677-0.679,1.332-1.395,1.998-2.119l0.34-0.371c5.489-6.23,9.381-13.609,11.255-21.35c0.114-0.527,0.234-1.056,0.357-1.586
					c0.355-1.543,0.726-3.143,0.839-4.771l0.337-3.277l0.06-3.265c0.08-1.769-0.079-3.552-0.229-5.274
					c-0.045-0.473-0.087-0.951-0.126-1.453c-0.296-2.256-0.795-4.535-1.304-6.707c-0.191-0.615-0.372-1.24-0.553-1.863
					c-0.448-1.549-0.909-3.15-1.591-4.658l-1.343-3.198c-0.36-0.733-0.753-1.45-1.15-2.167l-0.476-0.875
					c-1.013-2.017-2.574-4.209-4.087-6.277c-0.626-0.889-1.062-1.395-1.489-1.88c-0.154-0.179-0.307-0.354-0.475-0.558l-1.774-2.058
					c-0.213-0.227-0.353-0.383-0.458-0.487c-0.01-0.012-0.018-0.022-0.029-0.034V114.179z"/>
				<g>
					<path fill="#FFCC34" d="M391.891,166.192c4.656,14.009,19.788,21.589,33.795,16.934c14.014-4.661,21.591-19.792,16.934-33.801
						c-4.652-14.006-19.783-21.589-33.795-16.93C394.816,137.05,387.23,152.188,391.891,166.192z"/>
				</g>
				<path fill="#2A2A2A" d="M408.966,156.728l-66.99,66.985l-20.035-1.815c-0.131,0.009-0.257,0.063-0.348,0.155l-34.44,34.438
					c-0.139,0.145-0.19,0.361-0.124,0.553c0.066,0.193,0.237,0.333,0.438,0.357l19.27,4.117l5.479,1.336l1.341,5.499l4.114,19.25
					c0.025,0.203,0.166,0.377,0.357,0.441c0.191,0.066,0.406,0.016,0.553-0.129l34.438-34.436c0.094-0.096,0.149-0.218,0.151-0.351
					l-1.816-20.038l66.989-66.985c0.034-0.035,0.065-0.076,0.088-0.117c2.03-2.164,1.643-5.926-0.897-8.465
					C414.952,154.939,411.108,154.585,408.966,156.728z"/>
			</g>
			<g>
				<path fill="#487AF5" d="M487.586,137.854c-0.255,0.058-0.434,0.295-0.416,0.557c0,0,0.104,1.514,0.279,4.349
					c0.053,0.934,0.065,2.009,0.077,3.254c0.004,0.6,0.007,1.229,0.02,1.843c-0.05,0.716-0.082,1.466-0.114,2.249
					c-0.058,1.459-0.118,2.971-0.332,4.623c-0.615,6.104-1.919,12.014-3.869,17.572c-2.485,7.219-6.048,13.865-10.603,19.772
					c-0.77,1.086-1.68,2.144-2.563,3.166c-0.456,0.528-0.912,1.058-1.314,1.554l-0.314,0.31c-0.386,0.388-0.755,0.77-1.128,1.155
					c-0.376,0.39-0.757,0.783-1.164,1.191c-0.659,0.656-1.267,1.229-1.932,1.813l-1.785,1.645c-0.045,0.023-0.084,0.047-0.117,0.08
					c-0.02,0.01-0.037,0.021-0.056,0.035l-3.13,2.424c-1.388,1.191-3.012,2.197-4.587,3.17l-0.885,0.549
					c-8.174,4.984-17.146,8.169-25.921,9.209c-0.778,0.053-1.551,0.133-2.327,0.212c-1.577,0.163-3.212,0.331-4.854,0.273
					l-3.584,0.063l-3.653-0.305c-5.307-0.408-10.433-1.773-14.269-2.905l-3.477-1.309c-0.203-0.076-0.416-0.154-0.624-0.229
					c-0.367-0.132-0.733-0.264-1.063-0.4l-4.998-2.438c-0.646-0.354-1.275-0.74-1.907-1.127c-0.425-0.26-0.851-0.52-1.298-0.781
					c-1.053-0.559-1.96-1.172-2.817-1.787l-18.462,18.46c2.66,1.979,5.412,4.012,8.082,5.428l1.229,0.716
					c1.085,0.636,2.206,1.293,3.371,1.9l7.187,3.198c0.541,0.207,1.093,0.39,1.643,0.572l5.771,1.9
					c1.109,0.35,2.255,0.604,3.364,0.846c0.559,0.121,1.118,0.247,1.698,0.385c0.573,0.113,1.14,0.244,1.706,0.379
					c1.092,0.257,2.217,0.522,3.358,0.623c0.792,0.088,1.584,0.184,2.376,0.28c2.548,0.31,5.181,0.63,7.775,0.588l0.684,0.011
					c1.45,0.023,2.891,0.047,4.382,0.064l4.942-0.361c2.467-0.09,4.885-0.553,7.226-1.001c0.852-0.163,1.694-0.325,2.56-0.471
					c11.883-2.419,23.436-7.907,33.421-15.881l0.577-0.478c1.652-1.366,3.365-2.779,4.885-4.301c0.332-0.334,0.658-0.672,0.96-1.004
					l3.867-3.975l1.722-2.148c1.248-1.485,2.675-3.517,4.053-5.48l0.716-1.022c0.386-0.65,0.78-1.288,1.175-1.92
					c0.987-1.589,1.916-3.092,2.663-4.707c2.003-3.775,3.703-7.965,5.356-13.213c1.021-3.785,2.117-8.221,2.51-12.404
					c0.788-6.828,0.624-13.602-0.493-20.109c-0.304-2.156-0.803-4.091-1.243-5.802c-0.118-0.465-0.236-0.913-0.353-1.388
					l-0.565-1.754c-0.407-1.275-0.761-2.373-1.115-3.342l-1.686-4.061C488.103,137.929,487.841,137.795,487.586,137.854z"/>
				<path fill="#487AF5" d="M367.312,192.324c-3.647-5.126-6.619-10.849-8.729-16.933c-1.244-4.17-2.566-9.129-2.966-14.303
					l-0.309-3.603l0.044-3.668c-0.066-1.634,0.102-3.284,0.263-4.878c0.073-0.761,0.153-1.517,0.202-2.26
					c0.158-1.479,0.456-2.967,0.745-4.404c0.175-0.866,0.348-1.732,0.479-2.541l0.996-3.389c0.115-0.375,0.217-0.754,0.318-1.135
					c0.197-0.764,0.386-1.486,0.707-2.186l1.866-4.824l0.786-1.531c0.315-0.602,0.626-1.219,0.929-1.833
					c0.733-1.456,1.42-2.833,2.22-4l1.987-3.319l1.76-2.239c0.78-0.986,1.553-1.965,2.316-2.938l0.505-0.637
					c0.004-0.008,0.009-0.016,0.017-0.021c0.022-0.025,0.04-0.057,0.061-0.086l1.327-1.479c0.493-0.593,1.058-1.199,1.771-1.916
					c0.43-0.428,0.863-0.851,1.302-1.27c0.437-0.423,0.872-0.842,1.302-1.27l0.043-0.049c0.554-0.457,1.097-0.927,1.638-1.396
					c1.053-0.914,2.049-1.775,3.142-2.554c5.875-4.548,12.517-8.126,19.742-10.636c5.548-1.961,11.457-3.276,17.581-3.91
					c1.628-0.208,3.133-0.273,4.588-0.334c0.791-0.032,1.548-0.066,2.226-0.119c0.65,0.01,1.273,0.014,1.865,0.018
					c1.244,0.007,2.315,0.014,3.254,0.064l4.368,0.277c0.263,0.019,0.5-0.158,0.557-0.412c0.059-0.256-0.075-0.516-0.318-0.616
					l-4.064-1.673c-0.916-0.336-1.988-0.676-3.231-1.068c-0.587-0.187-1.213-0.382-1.909-0.605
					c-0.442-0.109-0.901-0.225-1.377-0.344c-1.701-0.432-3.632-0.922-5.763-1.213c-6.526-1.1-13.294-1.246-20.103-0.436
					c-4.149,0.398-8.415,1.461-12.425,2.555c-5.212,1.649-9.396,3.362-13.149,5.373c-1.655,0.772-3.247,1.762-4.788,2.719
					c-0.61,0.379-1.223,0.762-1.885,1.159c-0.549,0.394-1.106,0.782-1.668,1.175c-1.59,1.111-3.234,2.26-4.757,3.57l-2.42,1.979
					l-5.722,5.58l-3.646,4.352c-1.711,1.928-3.036,3.965-4.313,5.936c-0.325,0.498-0.648,0.998-0.985,1.505l-1.258,1.939
					l-3.206,6.113c-1.044,2.066-1.892,4.276-2.712,6.415c-0.295,0.77-0.591,1.542-0.916,2.368c-0.243,0.873-0.502,1.748-0.757,2.627
					c-0.642,2.167-1.298,4.408-1.757,6.705c-0.143,0.856-0.306,1.711-0.469,2.57c-0.44,2.333-0.898,4.746-0.983,7.184l-0.353,5.008
					l0.088,4.994c-0.031,2.629,0.299,5.277,0.615,7.836c0.1,0.775,0.194,1.549,0.279,2.309c0.092,1.168,0.365,2.302,0.628,3.4
					c0.136,0.558,0.27,1.117,0.385,1.705c0.136,0.549,0.257,1.102,0.381,1.654c0.247,1.113,0.504,2.264,0.852,3.373
					c2.916,10.054,7.799,19.588,14.32,28.039L367.312,192.324z"/>
			</g>
		</g>
	</g>
</g>
<g id="Ebene_2">
</g>
</svg>
