<svg id="eZkUsYLc6TD1" xmlns="http://www.w3.org/2000/svg" xmlns:xlink="http://www.w3.org/1999/xlink" viewBox="0 0 283.464 283.464" shape-rendering="geometricPrecision" text-rendering="geometricPrecision"><g transform="matrix(1.093931 0 0 1.093931-90.587905-14.012712)"><path id="eZkUsYLc6TD3" d="M184.625,154.591c4.348,13.083,18.479,20.162,31.561,15.814c13.086-4.352,20.162-18.483,15.814-31.565-4.346-13.081-18.475-20.162-31.561-15.813-13.082,4.349-20.166,18.486-15.814,31.564Z" fill="#ffcc34"/><path id="eZkUsYLc6TD4" d="M273.807,128.311c-.235.055-.4.275-.385.52c0,0,.094,1.414.26,4.061.05.873.059,1.876.069,3.039.005.56.011,1.149.022,1.721-.049.67-.078,1.37-.107,2.1-.055,1.364-.112,2.774-.309,4.318-.577,5.699-1.793,11.22-3.615,16.411-2.323,6.74-5.65,12.948-9.902,18.465-.72,1.013-1.57,2.001-2.394,2.955-.426.494-.852.989-1.229,1.453l-.291.288c-.363.363-.707.72-1.054,1.08-.351.363-.705.731-1.087,1.113-.613.613-1.184,1.149-1.805,1.694l-1.668,1.534c-.04.021-.077.046-.11.075-.017.01-.032.021-.048.033l-2.926,2.264c-1.295,1.113-2.813,2.052-4.281,2.96l-.828.514c-7.633,4.654-16.012,7.627-24.209,8.597-.723.051-1.445.125-2.17.2-1.475.151-3,.308-4.535.254l-3.346.059-3.413-.287c-4.956-.379-9.743-1.655-13.325-2.711l-3.243-1.222c-.194-.073-.39-.143-.585-.214-.342-.122-.686-.245-.994-.375l-4.665-2.275c-.604-.331-1.194-.692-1.784-1.054-.396-.242-.795-.485-1.213-.729-1.436-.764-2.592-1.628-3.711-2.464-.532-.398-1.061-.792-1.645-1.194-.533-.31-1.311-1.026-2.063-1.719-.266-.244-.53-.489-.783-.714l-2.893-2.64c-6.254-6.321-11.17-14.3-14.211-23.052-1.16-3.894-2.396-8.526-2.768-13.359l-.289-3.363.043-3.426c-.061-1.525.094-3.066.243-4.557.071-.708.143-1.416.19-2.109.146-1.382.426-2.771.695-4.113.163-.81.326-1.619.449-2.373l.93-3.165c.107-.35.201-.706.295-1.061.187-.714.362-1.387.662-2.041l1.743-4.504.733-1.431c.297-.562.584-1.138.871-1.711.68-1.36,1.322-2.646,2.069-3.737l1.856-3.099l1.645-2.09c.729-.92,1.449-1.835,2.162-2.743l.472-.596c.005-.006.01-.013.015-.02.021-.025.04-.052.056-.08l1.239-1.381c.463-.553.989-1.121,1.656-1.788.402-.402.809-.795,1.215-1.187.409-.394.815-.786,1.215-1.185l.042-.046c.518-.426,1.024-.865,1.529-1.303.985-.854,1.915-1.659,2.934-2.385c5.485-4.247,11.688-7.588,18.437-9.932c5.18-1.831,10.7-3.059,16.418-3.651c1.522-.194,2.926-.254,4.284-.312.738-.031,1.446-.061,2.079-.111.608.009,1.189.012,1.744.016c1.159.007,2.161.013,3.038.06l4.079.261c.244.015.467-.15.519-.386.056-.239-.07-.482-.298-.575l-3.795-1.562c-.855-.314-1.857-.631-3.019-.998-.549-.173-1.132-.357-1.781-.566-.414-.1-.843-.208-1.285-.32-1.59-.404-3.392-.861-5.381-1.132-6.098-1.027-12.419-1.164-18.776-.407-3.875.373-7.857,1.363-11.604,2.384-4.865,1.542-8.775,3.14-12.278,5.017-1.546.721-3.034,1.646-4.473,2.541-.569.354-1.142.71-1.761,1.082-.512.368-1.032.731-1.556,1.097-1.485,1.038-3.021,2.11-4.444,3.334l-2.258,1.849-5.343,5.21-3.405,4.063c-1.598,1.8-2.834,3.703-4.029,5.543-.302.464-.605.932-.919,1.405l-1.175,1.813-2.993,5.708c-.974,1.929-1.767,3.995-2.534,5.992-.274.718-.552,1.439-.855,2.21-.227.816-.468,1.634-.709,2.455-.595,2.024-1.211,4.116-1.639,6.262-.133.799-.284,1.598-.436,2.4-.412,2.179-.838,4.432-.919,6.709l-.33,4.676.085,4.664c-.032,2.455.275,4.927.573,7.317.091.723.181,1.448.261,2.157.085,1.089.339,2.149.586,3.175.125.521.25,1.044.359,1.593.125.512.24,1.028.355,1.543.231,1.04.471,2.115.795,3.15c3.609,12.452,10.454,24.055,19.812,33.571l3.577,3.22c.283.245.549.484.815.724.757.682,1.539,1.387,2.71,2.221l.961.712c2.496,1.851,5.079,3.765,7.584,5.094l1.148.669c1.013.593,2.061,1.207,3.148,1.775l6.711,2.988c.507.192,1.021.363,1.534.533l5.39,1.777c1.038.323,2.107.559,3.142.788.522.115,1.044.23,1.586.362.534.104,1.064.229,1.594.354c1.018.239,2.069.487,3.136.581.742.08,1.48.17,2.219.26c2.379.289,4.838.588,7.262.55l.629.01c1.355.021,2.707.043,4.099.06l4.616-.339c2.304-.082,4.564-.514,6.751-.934.793-.151,1.583-.303,2.388-.44c11.098-2.258,21.887-7.384,31.209-14.831l.541-.446c1.545-1.276,3.143-2.595,4.564-4.017.31-.31.613-.626.896-.937l3.61-3.711l1.608-2.006c1.166-1.387,2.497-3.283,3.784-5.118l.669-.954c.362-.608.73-1.203,1.097-1.793.922-1.486,1.791-2.889,2.488-4.396c1.871-3.526,3.458-7.44,5.002-12.339.953-3.535,1.978-7.677,2.343-11.584.738-6.378.583-12.702-.459-18.78-.284-2.014-.751-3.822-1.161-5.418-.111-.434-.221-.853-.329-1.295l-.529-1.64c-.381-1.189-.71-2.215-1.042-3.119l-1.572-3.793c-.092-.229-.335-.354-.574-.298Z" transform="translate(4.821755-5.463312)" fill="#487af5"/><g id="eZkUsYLc6TD5"><g><path id="eZkUsYLc6TD7" d="M324.123,30.016L276.088,49.548c-.189.076-.313.261-.313.465.001.203.125.386.315.463l14.075,5.68-94.063,94.063v0l-58.088,58.089-18.711-1.696c-.124.006-.24.059-.328.145L86.814,238.919c-.133.134-.179.334-.118.515.063.181.223.311.411.334l17.995,3.844l5.116,1.249l1.251,5.133l3.843,17.979c.024.189.153.348.333.411s.381.015.518-.12l32.16-32.16c.088-.088.139-.204.145-.328l-1.699-18.712l58.09-58.087c.001,0,.001,0,.001,0l3.095-3.095l1.373-1.373v0l89.471-89.473l5.519,13.667c.075.189.259.313.462.314.136,0,.264-.056.355-.148.046-.045.084-.102.109-.166l19.531-48.035c.077-.188.031-.399-.108-.543-.144-.142-.357-.186-.544-.109Z" transform="translate(272.192199-272.192155)" opacity="0" fill="#2a2a2a"/><path id="eZkUsYLc6TD8" d="M289.651,75.976c-.339-.375-.681-.747-1.03-1.148l-3.953-4.393c-.223-.233-.396-.413-.535-.541-.008-.008-.013-.018-.019-.025l-.004.003c-.012-.008-.019-.015-.028-.022l.005-.004c-.005-.004-.071-.068-.072-.074l-4.845-4.347c-.389-.341-.772-.685-1.158-1.03-1.271-1.14-2.584-2.318-4.031-3.293-.699-.505-1.396-1.017-2.096-1.528-2.873-2.108-5.847-4.288-9.05-5.997-.579-.333-1.155-.671-1.731-1.009-1.331-.78-2.705-1.589-4.121-2.324l-9.157-4.085c-.702-.27-1.421-.508-2.134-.746-.34-.11-.679-.224-1.02-.342l-6.286-2.087c-1.413-.442-2.87-.764-4.279-1.077-.718-.158-1.433-.316-2.149-.492l-4.836-1.086-1.629-.201c-1.025-.116-2.049-.244-3.07-.373-3.23-.408-6.572-.829-9.87-.784l-6.448-.125-6.322.445c-3.104.102-6.16.671-9.113,1.22-1.122.21-2.243.419-3.349.6-1.446.202-2.851.606-4.212.997-.613.176-1.227.352-1.85.512l-5.928,1.687-5.659,2.188c-.548.229-1.1.446-1.653.661-1.296.508-2.638,1.032-3.866,1.726l-7.878,4.088-2.448,1.578c-.663.437-1.325.861-1.985,1.287-2.508,1.613-5.103,3.28-7.515,5.402-1.508,1.243-2.999,2.474-4.493,3.7l-1.126.949-7.267,7.345-2.509,3.027c-1.718,1.965-3.219,4.078-4.669,6.122-.501.705-.995,1.402-1.518,2.12l-2.617,4.196c-.961,1.463-1.754,2.981-2.398,4.26-3.429,6.251-5.691,12.615-7.102,16.879-1.383,4.841-2.879,10.519-3.477,15.928-1.163,8.772-1.108,17.519.154,25.983.322,2.721.895,5.186,1.397,7.362.155.67.307,1.316.451,1.979.248.829.479,1.62.699,2.369.485,1.651.903,3.076,1.322,4.309l2.047,5.322c.088.233.336.365.578.308.243-.054.41-.285.384-.533l-.53-5.671c-.096-1.186-.143-2.527-.196-4.077-.027-.831-.059-1.707-.1-2.582.042-.918.058-1.879.071-2.88.03-1.936.06-3.937.286-6.134.615-8.031,2.156-15.861,4.586-23.28c1.208-3.897,2.974-8.225,5.383-13.211c2.253-4.187,4.808-8.935,8.179-13.297.836-1.191,1.645-2.242,2.482-3.22l2.615-3.193c.59-.609,1.167-1.231,1.749-1.856c1.235-1.33,2.512-2.704,3.909-3.953l.306-.269l2.047-1.912c.012-.007.021-.016.033-.023l.002-.002c.004-.002.008-.005.011-.008.014-.009.027-.019.039-.03l7.462-6.051l4.537-2.859c1.574-1.122,3.436-2.085,5.406-3.108.791-.409,1.587-.822,2.358-1.241l1.994-1.064L173.34,70.3c.916-.434,1.896-.708,2.928-.995.5-.139,1.004-.28,1.49-.437l4.497-1.383l4.683-.952c.539-.095,1.07-.211,1.604-.33c1.005-.22,2.042-.448,3.097-.5c1-.084,1.997-.196,2.993-.308c2.173-.245,4.42-.498,6.68-.433l4.858-.111l4.943.376c2.271.055,4.569.468,6.789.87.987.177,1.974.357,2.981.507c1.018.118,1.993.396,3.03.688.583.166,1.169.331,1.734.461.592.166,1.186.314,1.783.461.997.246,2.029.501,2.997.847l4.696,1.734c.311.115.618.226.926.337.473.169.949.336,1.387.517l6.769,3.28c.868.475,1.713.991,2.563,1.506.583.354,1.172.709,1.778,1.062c2.162,1.144,4.166,2.65,6.108,4.104.711.534,1.423,1.069,2.161,1.602.996.651,1.854,1.455,2.768,2.305.338.315.676.632,1.017.935l3.29,2.983l3.936,4.237c.326.365.67.738,1.016,1.111.975,1.051,1.978,2.139,2.502,2.999.543.784,1.109,1.538,1.678,2.296c1.26,1.681,2.563,3.421,3.702,5.544.339.578.69,1.151,1.042,1.724.516.845,1.052,1.716,1.518,2.568l2.187,4.534l1.102,2.227c.2.48.374.969.553,1.455.103.292.21.585.318.873l1.749,4.693c.342.952.596,1.964.843,2.94.15.617.306,1.232.48,1.832l.958,3.563.195,1.225c.15.988.331,1.969.512,2.951.407,2.223.826,4.523.895,6.821l.388,4.869-.095,4.925c.063,2.216-.18,4.446-.415,6.604-.111,1.013-.222,2.027-.306,3.062-.045,1.038-.263,2.031-.492,3.081-.115.532-.23,1.066-.318,1.589l-.926,4.649-1.389,4.537c-.159.499-.297,1.005-.437,1.511-.286,1.033-.556,2.006-.999,2.957-2.316,6.142-5.047,11.67-8.108,16.429l-2.439,3.822c-.336.578-.746,1.147-1.264,1.754l-4.731,5.947c-.008.013-.02.025-.025.036-.023.03-.044.063-.064.098l-.574.602c-.544.583-1.094,1.17-1.646,1.758-1.51,1.696-2.848,2.947-4.141,4.157-.631.59-1.254,1.175-1.854,1.769-.714.572-1.415,1.159-2.111,1.744-1.392,1.167-2.83,2.374-4.334,3.41-4.373,3.406-9.091,5.958-13.229,8.198-5.019,2.441-9.337,4.218-13.216,5.434-7.398,2.448-15.222,4.017-23.267,4.661-2.167.231-4.157.268-6.083.304-1.016.02-1.988.037-2.876.085-.865-.034-1.69-.062-2.473-.086-1.627-.051-3.026-.098-4.245-.187l-5.656-.508c-.252-.022-.479.144-.535.387-.053.243.08.49.313.579c0,0,1.861.706,5.361,2.042c1.222.413,2.635.824,4.273,1.298.747.22,1.54.45,2.412.707.607.131,1.238.276,1.89.427c2.195.502,4.678,1.075,7.408,1.393c8.474,1.248,17.222,1.28,25.991.097c5.476-.625,11.129-2.133,15.956-3.531c4.622-1.546,10.715-3.755,16.84-7.133l2.149-1.126c.465-.265.919-.549,1.376-.835.24-.15.479-.299.723-.45l4.238-2.66c.547-.398,1.107-.804,1.676-1.214c2.319-1.674,4.717-3.406,6.526-4.979l2.782-2.299c.005-.003.009-.008.01-.01.006-.005.013-.011.021-.018l6.871-6.872c.721-.688,1.338-1.371,1.883-2.077l3.523-4.319c10.043-12.861,16.917-27.69,19.885-42.901.179-1.09.375-2.18.578-3.273.547-2.984,1.113-6.071,1.197-9.182l.43-6.395-.142-6.391c.032-3.307-.394-6.645-.813-9.87-.13-1.025-.262-2.054-.384-3.094l-.227-1.66-1.091-4.798c-.172-.7-.329-1.405-.488-2.111-.318-1.418-.65-2.886-1.102-4.315l-2.101-6.275c-.135-.379-.263-.759-.39-1.141-.228-.671-.452-1.344-.714-2.031l-4.129-9.143c-.71-1.353-1.499-2.688-2.263-3.979-.359-.612-.723-1.221-1.068-1.823-1.809-3.383-4.355-6.797-6.817-10.099l-1.09-1.462c-1.111-1.574-2.099-2.664-3.058-3.718Z" transform="translate(4.845181-4.999995)" fill="#2a2a2a"/><g><path id="eZkUsYLc6TD10" d="M249.58,106.016c-.004-.008-.012-.013-.018-.019l.004-.004c-.007-.007-.084-.081-.094-.086l-2.744-2.575c-.611-.569-1.244-1.158-1.938-1.653l-.404-.31c-1.566-1.196-3.182-2.437-4.934-3.416l-.81-.483c-.655-.397-1.313-.792-2.014-1.169l-2.897-1.341c-1.383-.692-2.846-1.181-4.266-1.652-.59-.194-1.174-.391-1.789-.611-2.183-.591-4.154-1.108-6.2-1.437-.44-.053-.883-.111-1.322-.168-1.603-.208-3.26-.423-4.898-.413-1.023-.02-2.042-.041-3.103-.066l-3.018.198c-1.539.051-3.049.338-4.503.615-.495.094-.985.187-1.491.273-1.453.297-2.867.716-4.237,1.121-.487.144-.968.286-1.492.438l-1.036.401c-1.43.551-2.902,1.118-4.293,1.83-.521.291-1.049.563-1.574.833-1.115.576-2.267,1.169-3.298,1.914l-.802.533c-1.273.841-2.475,1.633-3.715,2.747l-2.719,2.345-2.832,3.074c-.24.219-.331.303-.354.327-.035.034-.063.073-.088.114-.004.008-.014.019-.016.023l-3.823,5.273c-.783,1.379-1.511,2.741-2.167,4.047-.107.22-.221.437-.332.653-.227.442-.449.88-.65,1.354l-1.012,2.818c-.376,1.064-.734,2.071-1.037,3.139l-1.063,5.577c-.07.425-.082.843-.098,1.249-.004.188-.01.377-.023.582-.016.565-.043,1.119-.066,1.659-.076,1.687-.151,3.281.107,4.797.072.538.123,1.056.176,1.561.139,1.334.268,2.596.648,3.777.395,1.573.783,2.958,1.17,4.177l1.229,2.735c.682,1.497,1.088,2.287,1.088,2.287.102.195.316.302.531.265.217-.039.382-.214.41-.432c0,0,.107-.882.23-2.526l.196-2.916c.255-1.143.505-2.414.767-3.804.117-.868.427-1.843.759-2.877.156-.492.317-.995.464-1.519.287-1.149.805-2.317,1.358-3.556.19-.429.384-.863.577-1.32.313-.824.787-1.632,1.289-2.464l1.264-2.186l2.959-4.025c.141-.164.295-.322.451-.479l.453-.449.189-.193.204-.202c.418-.418.819-.847,1.226-1.278.271-.289.544-.579.775-.824l3.162-2.529c.031-.014.064-.033.094-.052l3.394-2.359l1.755-.814c.483-.265,1.122-.527,1.793-.801.404-.166.814-.335,1.223-.519.596-.299,1.252-.484,1.945-.681.443-.124.885-.249,1.283-.393.561-.164,1.163-.285,1.744-.402.568-.113,1.135-.228,1.598-.364.484-.046.963-.112,1.439-.179.709-.098,1.381-.191,2.053-.216.396-.002.795-.017,1.193-.03.805-.03,1.563-.058,2.365.021l1.738.055l1.793.256c2.4.305,4.713,1.036,6.846,1.743c1.965.812,4.254,1.834,6.34,3.301.656.368,1.244.842,1.867,1.341.324.262.649.524,1.004.782.316.212.594.491.891.785.129.129.261.259.393.378l1.23,1.154l1.722,1.969c.329.369.825.927.931,1.163.212.349.438.662.68.985.341.462.694.942,1.049,1.628.135.233.277.463.416.695.174.278.345.558.482.81.221.493.461.977.701,1.463l.109.211c.353.606.583,1.264.829,1.959.159.445.315.892.483,1.266.637,2.197,1.256,4.559,1.477,6.949l.182,1.736-.01,1.821c.04.761-.016,1.507-.076,2.296-.031.408-.063.817-.08,1.204-.414,4.43-1.814,8.829-4.163,13.069l-.317.568c-.455.821-.887,1.598-1.449,2.307l-1.23,1.744c-.029.042-.05.087-.064.135l-3.235,3.531-.63.544c-.539.459-1.047.895-1.545,1.388-.141.129-.278.266-.416.4-.201.198-.402.397-.6.558l-.18.124c-.377.256-.745.506-1.111.759-.869.601-1.716,1.19-2.484,1.733l-2.632,1.392c-.927.517-1.706.916-2.513,1.189-.443.169-.881.342-1.314.517-1.262.506-2.451.983-3.633,1.228-.5.122-.996.26-1.477.394-1.062.295-2.057.573-3.009.658-1.409.201-2.702.397-3.786.593l-5.42.246c-.221.012-.408.168-.459.383-.056.215.04.439.234.549.029.019.77.449,2.248,1.188l2.822,1.378c1.083.388,2.396.813,3.988,1.287c1.156.437,2.415.618,3.747.809.503.072,1.02.147,1.531.235c1.515.324,3.097.313,4.767.304.556-.003,1.126-.007,1.73.001.188-.005.383-.004.574-.002.404.002.822.006,1.25-.051l5.653-.846c.973-.235,1.931-.533,2.94-.846l3.081-.964c.491-.189.993-.427,1.499-.667l.649-.306c1.259-.588,2.694-1.317,4.421-2.25c1.117-.712,2.256-1.439,3.408-2.18l1.26-.808c.016-.012.068-.054.084-.068l-.002-.003c.012-.008.023-.016.035-.026h.002c0-.002.008-.007.01-.009.107-.088.232-.201.381-.333l2.344-2.056c.488-.402.984-.859,1.523-1.398.635-.633,1.244-1.301,1.867-1.979l.318-.346c5.127-5.82,8.762-12.708,10.512-19.938.105-.494.217-.987.33-1.481.336-1.444.68-2.936.785-4.457l.316-3.061.055-3.049c.074-1.651-.072-3.315-.215-4.925-.041-.443-.08-.887-.118-1.358-.276-2.105-.741-4.236-1.215-6.263-.181-.576-.349-1.158-.518-1.741-.418-1.446-.849-2.941-1.486-4.35l-1.253-2.986c-.337-.685-.703-1.355-1.074-2.025l-.445-.818c-.945-1.883-2.406-3.931-3.815-5.862-.585-.83-.993-1.301-1.392-1.756-.145-.167-.287-.332-.445-.52l-1.656-1.922c-.198-.212-.33-.356-.428-.454-.009-.011-.016-.022-.027-.033v.011Z" transform="translate(.00001 0.00001)" fill="#f40e0e"/></g></g></g><path id="eZkUsYLc6TD12" d="M249.58,106.016c-.004-.008-.012-.013-.018-.019l.004-.004c-.007-.007-.084-.081-.094-.086l-2.744-2.575c-.611-.569-1.244-1.158-1.938-1.653l-.404-.31c-1.566-1.196-3.182-2.437-4.934-3.416l-.81-.483c-.655-.397-1.313-.792-2.014-1.169l-2.897-1.341c-1.383-.692-2.846-1.181-4.266-1.652-.59-.194-1.174-.391-1.789-.611-2.183-.591-4.154-1.108-6.2-1.437-.44-.053-.883-.111-1.322-.168-1.603-.208-3.26-.423-4.898-.413-1.023-.02-2.042-.041-3.103-.066l-3.018.198c-1.539.051-3.049.338-4.503.615-.495.094-.985.187-1.491.273-1.453.297-2.867.716-4.237,1.121-.487.144-.968.286-1.492.438l-1.036.401c-1.43.551-2.902,1.118-4.293,1.83-.521.291-1.049.563-1.574.833-1.115.576-2.267,1.169-3.298,1.914l-.802.533c-1.273.841-2.475,1.633-3.715,2.747l-2.719,2.345-2.832,3.074c-.24.219-.331.303-.354.327-.035.034-.063.073-.088.114-.004.008-.014.019-.016.023l-3.823,5.273c-.783,1.379-1.511,2.741-2.167,4.047-.107.22-.221.437-.332.653-.227.442-.449.88-.65,1.354l-1.012,2.818c-.376,1.064-.734,2.071-1.037,3.139l-1.063,5.577c-.07.425-.082.843-.098,1.249-.004.188-.01.377-.023.582-.016.565-.043,1.119-.066,1.659-.076,1.687-.151,3.281.107,4.797.072.538.123,1.056.176,1.561.139,1.334.268,2.596.648,3.777.395,1.573.783,2.958,1.17,4.177l1.229,2.735c.682,1.497,1.088,2.287,1.088,2.287.102.195.316.302.531.265.217-.039.382-.214.41-.432c0,0,.107-.882.23-2.526l.196-2.916c.255-1.143.505-2.414.767-3.804.117-.868.427-1.843.759-2.877.156-.492.317-.995.464-1.519.287-1.149.805-2.317,1.358-3.556.19-.429.384-.863.577-1.32.313-.824.787-1.632,1.289-2.464l1.264-2.186l2.959-4.025c.141-.164.295-.322.451-.479l.453-.449.189-.193.204-.202c.418-.418.819-.847,1.226-1.278.271-.289.544-.579.775-.824l3.162-2.529c.031-.014.064-.033.094-.052l3.394-2.359l1.755-.814c.483-.265,1.122-.527,1.793-.801.404-.166.814-.335,1.223-.519.596-.299,1.252-.484,1.945-.681.443-.124.885-.249,1.283-.393.561-.164,1.163-.285,1.744-.402.568-.113,1.135-.228,1.598-.364.484-.046.963-.112,1.439-.179.709-.098,1.381-.191,2.053-.216.396-.002.795-.017,1.193-.03.805-.03,1.563-.058,2.365.021l1.738.055l1.793.256c2.4.305,4.713,1.036,6.846,1.743c1.965.812,4.254,1.834,6.34,3.301.656.368,1.244.842,1.867,1.341.324.262.649.524,1.004.782.316.212.594.491.891.785.129.129.261.259.393.378l1.23,1.154l1.722,1.969c.329.369.825.927.931,1.163.212.349.438.662.68.985.341.462.694.942,1.049,1.628.135.233.277.463.416.695.174.278.345.558.482.81.221.493.461.977.701,1.463l.109.211c.353.606.583,1.264.829,1.959.159.445.315.892.483,1.266.637,2.197,1.256,4.559,1.477,6.949l.182,1.736-.01,1.821c.04.761-.016,1.507-.076,2.296-.031.408-.063.817-.08,1.204-.414,4.43-1.814,8.829-4.163,13.069l-.317.568c-.455.821-.887,1.598-1.449,2.307l-1.23,1.744c-.029.042-.05.087-.064.135l-3.235,3.531-.63.544c-.539.459-1.047.895-1.545,1.388-.141.129-.278.266-.416.4-.201.198-.402.397-.6.558l-.18.124c-.377.256-.745.506-1.111.759-.869.601-1.716,1.19-2.484,1.733l-2.632,1.392c-.927.517-1.706.916-2.513,1.189-.443.169-.881.342-1.314.517-1.262.506-2.451.983-3.633,1.228-.5.122-.996.26-1.477.394-1.062.295-2.057.573-3.009.658-1.409.201-2.702.397-3.786.593l-5.42.246c-.221.012-.408.168-.459.383-.056.215.04.439.234.549.029.019.77.449,2.248,1.188l2.822,1.378c1.083.388,2.396.813,3.988,1.287c1.156.437,2.415.618,3.747.809.503.072,1.02.147,1.531.235c1.515.324,3.097.313,4.767.304.556-.003,1.126-.007,1.73.001.188-.005.383-.004.574-.002.404.002.822.006,1.25-.051l5.653-.846c.973-.235,1.931-.533,2.94-.846l3.081-.964c.491-.189.993-.427,1.499-.667l.649-.306c1.259-.588,2.694-1.317,4.421-2.25c1.117-.712,2.256-1.439,3.408-2.18l1.26-.808c.016-.012.068-.054.084-.068l-.002-.003c.012-.008.023-.016.035-.026h.002c0-.002.008-.007.01-.009.107-.088.232-.201.381-.333l2.344-2.056c.488-.402.984-.859,1.523-1.398.635-.633,1.244-1.301,1.867-1.979l.318-.346c5.127-5.82,8.762-12.708,10.512-19.938.105-.494.217-.987.33-1.481.336-1.444.68-2.936.785-4.457l.316-3.061.055-3.049c.074-1.651-.072-3.315-.215-4.925-.041-.443-.08-.887-.118-1.358-.276-2.105-.741-4.236-1.215-6.263-.181-.576-.349-1.158-.518-1.741-.418-1.446-.849-2.941-1.486-4.35l-1.253-2.986c-.337-.685-.703-1.355-1.074-2.025l-.445-.818c-.945-1.883-2.406-3.931-3.815-5.862-.585-.83-.993-1.301-1.392-1.756-.145-.167-.287-.332-.445-.52l-1.656-1.922c-.198-.212-.33-.356-.428-.454-.009-.011-.016-.022-.027-.033v.011Z" transform="translate(.00001 0.00001)" fill="#f40e0e"/><path id="eZkUsYLc6TD13" d="M232.001,138.838c4.348,13.082-2.728,27.213-15.814,31.565-2.62333.87199-5.28839,1.2836-7.9082,1.27921l5.31464-13.07096-4.19607-4.19607c.00442-.00704.00864-.01411.01263-.02118c1.895-2.02,1.534-5.533-.839-7.905-2.3756-2.37757-5.90159-2.73074-7.91832-.81852l-4.47415-4.47415-12.83413,5.21862c.12426-10.34443,6.72519-19.94072,17.0946-23.38795c13.086-4.349,27.215,2.732,31.562,15.811Z" transform="translate(.000001 0)" fill="#ffcc34"/></g>
<script><![CDATA[
!function(t,n){"object"==typeof exports&&"undefined"!=typeof module?module.exports=n():"function"==typeof define&&define.amd?define(n):((t="undefined"!=typeof globalThis?globalThis:t||self).__SVGATOR_PLAYER__=t.__SVGATOR_PLAYER__||{},t.__SVGATOR_PLAYER__["5c7f360c"]=n())}(this,(function(){"use strict";function t(t,n){var e=Object.keys(t);if(Object.getOwnPropertySymbols){var r=Object.getOwnPropertySymbols(t);n&&(r=r.filter((function(n){return Object.getOwnPropertyDescriptor(t,n).enumerable}))),e.push.apply(e,r)}return e}function n(n){for(var e=1;e<arguments.length;e++){var r=null!=arguments[e]?arguments[e]:{};e%2?t(Object(r),!0).forEach((function(t){o(n,t,r[t])})):Object.getOwnPropertyDescriptors?Object.defineProperties(n,Object.getOwnPropertyDescriptors(r)):t(Object(r)).forEach((function(t){Object.defineProperty(n,t,Object.getOwnPropertyDescriptor(r,t))}))}return n}function e(t){return(e="function"==typeof Symbol&&"symbol"==typeof Symbol.iterator?function(t){return typeof t}:function(t){return t&&"function"==typeof Symbol&&t.constructor===Symbol&&t!==Symbol.prototype?"symbol":typeof t})(t)}function r(t,n){if(!(t instanceof n))throw new TypeError("Cannot call a class as a function")}function i(t,n){for(var e=0;e<n.length;e++){var r=n[e];r.enumerable=r.enumerable||!1,r.configurable=!0,"value"in r&&(r.writable=!0),Object.defineProperty(t,r.key,r)}}function u(t,n,e){return n&&i(t.prototype,n),e&&i(t,e),t}function o(t,n,e){return n in t?Object.defineProperty(t,n,{value:e,enumerable:!0,configurable:!0,writable:!0}):t[n]=e,t}function a(t){return(a=Object.setPrototypeOf?Object.getPrototypeOf:function(t){return t.__proto__||Object.getPrototypeOf(t)})(t)}function l(t,n){return(l=Object.setPrototypeOf||function(t,n){return t.__proto__=n,t})(t,n)}function s(){if("undefined"==typeof Reflect||!Reflect.construct)return!1;if(Reflect.construct.sham)return!1;if("function"==typeof Proxy)return!0;try{return Boolean.prototype.valueOf.call(Reflect.construct(Boolean,[],(function(){}))),!0}catch(t){return!1}}function f(t,n,e){return(f=s()?Reflect.construct:function(t,n,e){var r=[null];r.push.apply(r,n);var i=new(Function.bind.apply(t,r));return e&&l(i,e.prototype),i}).apply(null,arguments)}function c(t,n){if(n&&("object"==typeof n||"function"==typeof n))return n;if(void 0!==n)throw new TypeError("Derived constructors may only return object or undefined");return function(t){if(void 0===t)throw new ReferenceError("this hasn't been initialised - super() hasn't been called");return t}(t)}function h(t,n,e){return(h="undefined"!=typeof Reflect&&Reflect.get?Reflect.get:function(t,n,e){var r=function(t,n){for(;!Object.prototype.hasOwnProperty.call(t,n)&&null!==(t=a(t)););return t}(t,n);if(r){var i=Object.getOwnPropertyDescriptor(r,n);return i.get?i.get.call(e):i.value}})(t,n,e||t)}function v(t){return function(t){if(Array.isArray(t))return y(t)}(t)||function(t){if("undefined"!=typeof Symbol&&null!=t[Symbol.iterator]||null!=t["@@iterator"])return Array.from(t)}(t)||function(t,n){if(!t)return;if("string"==typeof t)return y(t,n);var e=Object.prototype.toString.call(t).slice(8,-1);"Object"===e&&t.constructor&&(e=t.constructor.name);if("Map"===e||"Set"===e)return Array.from(t);if("Arguments"===e||/^(?:Ui|I)nt(?:8|16|32)(?:Clamped)?Array$/.test(e))return y(t,n)}(t)||function(){throw new TypeError("Invalid attempt to spread non-iterable instance.\nIn order to be iterable, non-array objects must have a [Symbol.iterator]() method.")}()}function y(t,n){(null==n||n>t.length)&&(n=t.length);for(var e=0,r=new Array(n);e<n;e++)r[e]=t[e];return r}Number.isInteger||(Number.isInteger=function(t){return"number"==typeof t&&isFinite(t)&&Math.floor(t)===t}),Number.EPSILON||(Number.EPSILON=2220446049250313e-31);var g=d(Math.pow(10,-6));function d(t){var n=arguments.length>1&&void 0!==arguments[1]?arguments[1]:6;if(Number.isInteger(t))return t;var e=Math.pow(10,n);return Math.round((+t+Number.EPSILON)*e)/e}function p(t,n){var e=arguments.length>2&&void 0!==arguments[2]?arguments[2]:g;return Math.abs(t-n)<e}var m=Math.PI/180;function b(t){return t}function w(t,n,e){var r=1-e;return 3*e*r*(t*r+n*e)+e*e*e}function x(){var t=arguments.length>0&&void 0!==arguments[0]?arguments[0]:0,n=arguments.length>1&&void 0!==arguments[1]?arguments[1]:0,e=arguments.length>2&&void 0!==arguments[2]?arguments[2]:1,r=arguments.length>3&&void 0!==arguments[3]?arguments[3]:1;return t<0||t>1||e<0||e>1?null:p(t,n)&&p(e,r)?b:function(i){if(i<=0)return t>0?i*n/t:0===n&&e>0?i*r/e:0;if(i>=1)return e<1?1+(i-1)*(r-1)/(e-1):1===e&&t<1?1+(i-1)*(n-1)/(t-1):1;for(var u,o=0,a=1;o<a;){var l=w(t,e,u=(o+a)/2);if(p(i,l))break;l<i?o=u:a=u}return w(n,r,u)}}function A(){return 1}function k(t){return 1===t?1:0}function _(){var t=arguments.length>0&&void 0!==arguments[0]?arguments[0]:1,n=arguments.length>1&&void 0!==arguments[1]?arguments[1]:0;if(1===t){if(0===n)return k;if(1===n)return A}var e=1/t;return function(t){return t>=1?1:(t+=n*e)-t%e}}var S=Math.sin,O=Math.cos,j=Math.acos,M=Math.asin,P=Math.tan,E=Math.atan2,I=Math.PI/180,R=180/Math.PI,F=Math.sqrt,N=function(){function t(){var n=arguments.length>0&&void 0!==arguments[0]?arguments[0]:1,e=arguments.length>1&&void 0!==arguments[1]?arguments[1]:0,i=arguments.length>2&&void 0!==arguments[2]?arguments[2]:0,u=arguments.length>3&&void 0!==arguments[3]?arguments[3]:1,o=arguments.length>4&&void 0!==arguments[4]?arguments[4]:0,a=arguments.length>5&&void 0!==arguments[5]?arguments[5]:0;r(this,t),this.m=[n,e,i,u,o,a],this.i=null,this.w=null,this.s=null}return u(t,[{key:"determinant",get:function(){var t=this.m;return t[0]*t[3]-t[1]*t[2]}},{key:"isIdentity",get:function(){if(null===this.i){var t=this.m;this.i=1===t[0]&&0===t[1]&&0===t[2]&&1===t[3]&&0===t[4]&&0===t[5]}return this.i}},{key:"point",value:function(t,n){var e=this.m;return{x:e[0]*t+e[2]*n+e[4],y:e[1]*t+e[3]*n+e[5]}}},{key:"translateSelf",value:function(){var t=arguments.length>0&&void 0!==arguments[0]?arguments[0]:0,n=arguments.length>1&&void 0!==arguments[1]?arguments[1]:0;if(!t&&!n)return this;var e=this.m;return e[4]+=e[0]*t+e[2]*n,e[5]+=e[1]*t+e[3]*n,this.w=this.s=this.i=null,this}},{key:"rotateSelf",value:function(){var t=arguments.length>0&&void 0!==arguments[0]?arguments[0]:0;if(t%=360){var n=S(t*=I),e=O(t),r=this.m,i=r[0],u=r[1];r[0]=i*e+r[2]*n,r[1]=u*e+r[3]*n,r[2]=r[2]*e-i*n,r[3]=r[3]*e-u*n,this.w=this.s=this.i=null}return this}},{key:"scaleSelf",value:function(){var t=arguments.length>0&&void 0!==arguments[0]?arguments[0]:1,n=arguments.length>1&&void 0!==arguments[1]?arguments[1]:1;if(1!==t||1!==n){var e=this.m;e[0]*=t,e[1]*=t,e[2]*=n,e[3]*=n,this.w=this.s=this.i=null}return this}},{key:"skewSelf",value:function(t,n){if(n%=360,(t%=360)||n){var e=this.m,r=e[0],i=e[1],u=e[2],o=e[3];t&&(t=P(t*I),e[2]+=r*t,e[3]+=i*t),n&&(n=P(n*I),e[0]+=u*n,e[1]+=o*n),this.w=this.s=this.i=null}return this}},{key:"resetSelf",value:function(){var t=arguments.length>0&&void 0!==arguments[0]?arguments[0]:1,n=arguments.length>1&&void 0!==arguments[1]?arguments[1]:0,e=arguments.length>2&&void 0!==arguments[2]?arguments[2]:0,r=arguments.length>3&&void 0!==arguments[3]?arguments[3]:1,i=arguments.length>4&&void 0!==arguments[4]?arguments[4]:0,u=arguments.length>5&&void 0!==arguments[5]?arguments[5]:0,o=this.m;return o[0]=t,o[1]=n,o[2]=e,o[3]=r,o[4]=i,o[5]=u,this.w=this.s=this.i=null,this}},{key:"recomposeSelf",value:function(){var t=arguments.length>0&&void 0!==arguments[0]?arguments[0]:null,n=arguments.length>1&&void 0!==arguments[1]?arguments[1]:null,e=arguments.length>2&&void 0!==arguments[2]?arguments[2]:null,r=arguments.length>3&&void 0!==arguments[3]?arguments[3]:null,i=arguments.length>4&&void 0!==arguments[4]?arguments[4]:null;return this.isIdentity||this.resetSelf(),t&&(t.x||t.y)&&this.translateSelf(t.x,t.y),n&&this.rotateSelf(n),e&&(e.x&&this.skewSelf(e.x,0),e.y&&this.skewSelf(0,e.y)),!r||1===r.x&&1===r.y||this.scaleSelf(r.x,r.y),i&&(i.x||i.y)&&this.translateSelf(i.x,i.y),this}},{key:"decompose",value:function(){var t=arguments.length>0&&void 0!==arguments[0]?arguments[0]:0,n=arguments.length>1&&void 0!==arguments[1]?arguments[1]:0,e=this.m,r=e[0]*e[0]+e[1]*e[1],i=[[e[0],e[1]],[e[2],e[3]]],u=F(r);if(0===u)return{origin:{x:d(e[4]),y:d(e[5])},translate:{x:d(t),y:d(n)},scale:{x:0,y:0},skew:{x:0,y:0},rotate:0};i[0][0]/=u,i[0][1]/=u;var o=e[0]*e[3]-e[1]*e[2]<0;o&&(u=-u);var a=i[0][0]*i[1][0]+i[0][1]*i[1][1];i[1][0]-=i[0][0]*a,i[1][1]-=i[0][1]*a;var l=F(i[1][0]*i[1][0]+i[1][1]*i[1][1]);if(0===l)return{origin:{x:d(e[4]),y:d(e[5])},translate:{x:d(t),y:d(n)},scale:{x:d(u),y:0},skew:{x:0,y:0},rotate:0};i[1][0]/=l,i[1][1]/=l,a/=l;var s=0;return i[1][1]<0?(s=j(i[1][1])*R,i[0][1]<0&&(s=360-s)):s=M(i[0][1])*R,o&&(s=-s),a=E(a,F(i[0][0]*i[0][0]+i[0][1]*i[0][1]))*R,o&&(a=-a),{origin:{x:d(e[4]),y:d(e[5])},translate:{x:d(t),y:d(n)},scale:{x:d(u),y:d(l)},skew:{x:d(a),y:0},rotate:d(s)}}},{key:"clone",value:function(){var t=this.m;return new this.constructor(t[0],t[1],t[2],t[3],t[4],t[5])}},{key:"toString",value:function(){var t=arguments.length>0&&void 0!==arguments[0]?arguments[0]:" ";if(null===this.s){var n=this.m.map((function(t){return d(t)}));1===n[0]&&0===n[1]&&0===n[2]&&1===n[3]?this.s="translate("+n[4]+t+n[5]+")":this.s="matrix("+n.join(t)+")"}return this.s}}],[{key:"create",value:function(t){return t?Array.isArray(t)?f(this,v(t)):t instanceof this?t.clone():(new this).recomposeSelf(t.origin,t.rotate,t.skew,t.scale,t.translate):new this}}]),t}();function T(t,n,e){return t>=.5?e:n}function q(t,n,e){return 0===t||n===e?n:t*(e-n)+n}function B(t,n,e){var r=q(t,n,e);return r<=0?0:r}function L(t,n,e){var r=q(t,n,e);return r<=0?0:r>=1?1:r}function C(t,n,e){return 0===t?n:1===t?e:{x:q(t,n.x,e.x),y:q(t,n.y,e.y)}}function D(t,n,e){var r=function(t,n,e){return Math.round(q(t,n,e))}(t,n,e);return r<=0?0:r>=255?255:r}function z(t,n,e){return 0===t?n:1===t?e:{r:D(t,n.r,e.r),g:D(t,n.g,e.g),b:D(t,n.b,e.b),a:q(t,null==n.a?1:n.a,null==e.a?1:e.a)}}function V(t,n){for(var e=[],r=0;r<t;r++)e.push(n);return e}function G(t,n){if(--n<=0)return t;var e=(t=Object.assign([],t)).length;do{for(var r=0;r<e;r++)t.push(t[r])}while(--n>0);return t}var Y,$=function(){function t(n){r(this,t),this.list=n,this.length=n.length}return u(t,[{key:"setAttribute",value:function(t,n){for(var e=this.list,r=0;r<this.length;r++)e[r].setAttribute(t,n)}},{key:"removeAttribute",value:function(t){for(var n=this.list,e=0;e<this.length;e++)n[e].removeAttribute(t)}},{key:"style",value:function(t,n){for(var e=this.list,r=0;r<this.length;r++)e[r].style[t]=n}}]),t}(),U=/-./g,Q=function(t,n){return n.toUpperCase()};function H(t){return"function"==typeof t?t:T}function J(t){return t?"function"==typeof t?t:Array.isArray(t)?function(t){var n=arguments.length>1&&void 0!==arguments[1]?arguments[1]:b;if(!Array.isArray(t))return n;switch(t.length){case 1:return _(t[0])||n;case 2:return _(t[0],t[1])||n;case 4:return x(t[0],t[1],t[2],t[3])||n}return n}(t,null):function(t,n){var e=arguments.length>2&&void 0!==arguments[2]?arguments[2]:b;switch(t){case"linear":return b;case"steps":return _(n.steps||1,n.jump||0)||e;case"bezier":case"cubic-bezier":return x(n.x1||0,n.y1||0,n.x2||0,n.y2||0)||e}return e}(t.type,t.value,null):null}function Z(t,n,e){var r=arguments.length>3&&void 0!==arguments[3]&&arguments[3],i=n.length-1;if(t<=n[0].t)return r?[0,0,n[0].v]:n[0].v;if(t>=n[i].t)return r?[i,1,n[i].v]:n[i].v;var u,o=n[0],a=null;for(u=1;u<=i;u++){if(!(t>n[u].t)){a=n[u];break}o=n[u]}return null==a?r?[i,1,n[i].v]:n[i].v:o.t===a.t?r?[u,1,a.v]:a.v:(t=(t-o.t)/(a.t-o.t),o.e&&(t=o.e(t)),r?[u,t,e(t,o.v,a.v)]:e(t,o.v,a.v))}function K(t,n){var e=arguments.length>2&&void 0!==arguments[2]?arguments[2]:null;return t&&t.length?"function"!=typeof n?null:("function"!=typeof e&&(e=null),function(r){var i=Z(r,t,n);return null!=i&&e&&(i=e(i)),i}):null}function W(t,n){return t.t-n.t}function X(t,n,r,i,u){var o,a="@"===r[0],l="#"===r[0],s=Y[r],f=T;switch(a?(o=r.substr(1),r=o.replace(U,Q)):l&&(r=r.substr(1)),e(s)){case"function":if(f=s(i,u,Z,J,r,a,n,t),l)return f;break;case"string":f=K(i,H(s));break;case"object":if((f=K(i,H(s.i),s.f))&&"function"==typeof s.u)return s.u(n,f,r,a,t)}return f?function(t,n,e){if(arguments.length>3&&void 0!==arguments[3]&&arguments[3])return t instanceof $?function(r){return t.style(n,e(r))}:function(r){return t.style[n]=e(r)};if(Array.isArray(n)){var r=n.length;return function(i){var u=e(i);if(null==u)for(var o=0;o<r;o++)t[o].removeAttribute(n);else for(var a=0;a<r;a++)t[a].setAttribute(n,u)}}return function(r){var i=e(r);null==i?t.removeAttribute(n):t.setAttribute(n,i)}}(n,r,f,a):null}function tt(t,n,r,i){if(!i||"object"!==e(i))return null;var u=null,o=null;return Array.isArray(i)?o=function(t){if(!t||!t.length)return null;for(var n=0;n<t.length;n++)t[n].e&&(t[n].e=J(t[n].e));return t.sort(W)}(i):(o=i.keys,u=i.data||null),o?X(t,n,r,o,u):null}function nt(t,n,e){if(!e)return null;var r=[];for(var i in e)if(e.hasOwnProperty(i)){var u=tt(t,n,i,e[i]);u&&r.push(u)}return r.length?r:null}function et(t,n){if(!n.settings.duration||n.settings.duration<0)return null;var e,r,i,u,o,a=function(t,n){if(!n)return null;var e=[];if(Array.isArray(n))for(var r=n.length,i=0;i<r;i++){var u=n[i];if(2===u.length){var o=null;if("string"==typeof u[0])o=t.getElementById(u[0]);else if(Array.isArray(u[0])){o=[];for(var a=0;a<u[0].length;a++)if("string"==typeof u[0][a]){var l=t.getElementById(u[0][a]);l&&o.push(l)}o=o.length?1===o.length?o[0]:new $(o):null}if(o){var s=nt(t,o,u[1]);s&&(e=e.concat(s))}}}else for(var f in n)if(n.hasOwnProperty(f)){var c=t.getElementById(f);if(c){var h=nt(t,c,n[f]);h&&(e=e.concat(h))}}return e.length?e:null}(t,n.elements);return a?(e=a,r=n.settings,i=r.duration,u=e.length,o=null,function(t,n){var a=r.iterations||1/0,l=(r.alternate&&a%2==0)^r.direction>0?i:0,s=t%i,f=1+(t-s)/i;n*=r.direction,r.alternate&&f%2==0&&(n=-n);var c=!1;if(f>a)s=l,c=!0,-1===r.fill&&(s=r.direction>0?0:i);else if(n<0&&(s=i-s),s===o)return!1;o=s;for(var h=0;h<u;h++)e[h](s);return c}):null}function rt(t,n){if(Y=n,!t||!t.root||!Array.isArray(t.animations))return null;var e=function(t){for(var n=document.getElementsByTagName("svg"),e=0;e<n.length;e++)if(n[e].id===t.root&&!n[e].svgatorAnimation)return n[e].svgatorAnimation=!0,n[e];return null}(t);if(!e)return null;var r=t.animations.map((function(t){return et(e,t)})).filter((function(t){return!!t}));return r.length?{svg:e,animations:r,animationSettings:t.animationSettings,options:t.options||void 0}:null}function it(t){return+("0x"+(t.replace(/[^0-9a-fA-F]+/g,"")||27))}function ut(t,n,e){return!t||!e||n>t.length?t:t.substring(0,n)+ut(t.substring(n+1),e,e)}function ot(t){var n=arguments.length>1&&void 0!==arguments[1]?arguments[1]:27;return!t||t%n?t%n:ot(t/n,n)}function at(t,n,e){if(t&&t.length){var r=it(e),i=it(n),u=ot(r)+5,o=ut(t,ot(r,5),u);return o=o.replace(/\x7c$/g,"==").replace(/\x2f$/g,"="),o=function(t,n,e){var r=+("0x"+t.substring(0,4));t=t.substring(4);for(var i=n%r+e%27,u=[],o=0;o<t.length;o+=2)if("|"!==t[o]){var a=+("0x"+t[o]+t[o+1])-i;u.push(a)}else{var l=+("0x"+t.substring(o+1,o+1+4))-i;o+=3,u.push(l)}return String.fromCharCode.apply(String,u)}(o=(o=atob(o)).replace(/[\x41-\x5A]/g,""),i,r),o=JSON.parse(o)}}var lt=[{key:"alternate",def:!1},{key:"fill",def:1},{key:"iterations",def:0},{key:"direction",def:1},{key:"speed",def:1},{key:"fps",def:100}],st=function(){function t(n,e){var i=this,u=arguments.length>2&&void 0!==arguments[2]?arguments[2]:null;r(this,t),this._id=0,this._running=!1,this._rollingBack=!1,this._animations=n,this._settings=e,(!u||u<"2022-05-02")&&delete this._settings.speed,lt.forEach((function(t){i._settings[t.key]=i._settings[t.key]||t.def})),this.duration=e.duration,this.offset=e.offset||0,this.rollbackStartOffset=0}return u(t,[{key:"alternate",get:function(){return this._settings.alternate}},{key:"fill",get:function(){return this._settings.fill}},{key:"iterations",get:function(){return this._settings.iterations}},{key:"direction",get:function(){return this._settings.direction}},{key:"speed",get:function(){return this._settings.speed}},{key:"fps",get:function(){return this._settings.fps}},{key:"maxFiniteDuration",get:function(){return this.iterations>0?this.iterations*this.duration:this.duration}},{key:"_apply",value:function(t){for(var n=arguments.length>1&&void 0!==arguments[1]?arguments[1]:{},e=this._animations,r=e.length,i=0,u=0;u<r;u++)n[u]?i++:(n[u]=e[u](t,1),n[u]&&i++);return i}},{key:"_rollback",value:function(t){var n=this,e=1/0,r=null;this.rollbackStartOffset=t,this._rollingBack=!0,this._running=!0;this._id=window.requestAnimationFrame((function i(u){if(n._rollingBack){null==r&&(r=u);var o=Math.round(t-(u-r)*n.speed);if(o>n.duration&&e!==1/0){var a=!!n.alternate&&o/n.duration%2>1,l=o%n.duration;o=(l+=a?n.duration:0)||n.duration}var s=(n.fps?1e3/n.fps:0)*n.speed,f=Math.max(0,o);f<=e-s&&(n.offset=f,e=f,n._apply(f));var c=n.iterations>0&&-1===n.fill&&o>=n.maxFiniteDuration;(o<=0||n.offset<o||c)&&n.stop(),n._id=window.requestAnimationFrame(i)}}))}},{key:"_start",value:function(){var t=this,n=arguments.length>0&&void 0!==arguments[0]?arguments[0]:0,e=-1/0,r=null,i={};this._running=!0;var u=function u(o){null==r&&(r=o);var a=Math.round((o-r)*t.speed+n),l=(t.fps?1e3/t.fps:0)*t.speed;if(a>=e+l&&!t._rollingBack&&(t.offset=a,e=a,t._apply(a,i)===t._animations.length))return void t.pause(!0);t._id=window.requestAnimationFrame(u)};this._id=window.requestAnimationFrame(u)}},{key:"_pause",value:function(){this._id&&window.cancelAnimationFrame(this._id),this._running=!1}},{key:"play",value:function(){if(!this._running)return this._rollingBack?this._rollback(this.offset):this._start(this.offset)}},{key:"stop",value:function(){this._pause(),this.offset=0,this.rollbackStartOffset=0,this._rollingBack=!1,this._apply(0)}},{key:"reachedToEnd",value:function(){return this.iterations>0&&this.offset>=this.iterations*this.duration}},{key:"restart",value:function(){var t=arguments.length>0&&void 0!==arguments[0]&&arguments[0];this.stop(t),this.play(t)}},{key:"pause",value:function(){this._pause()}},{key:"reverse",value:function(){this.direction=-this.direction}}],[{key:"build",value:function(t,n){delete t.animationSettings,t.options=at(t.options,t.root,"5c7f360c"),t.animations.map((function(n){n.settings=at(n.s,t.root,"5c7f360c"),delete n.s,t.animationSettings||(t.animationSettings=n.settings)}));var e=t.version;if(!(t=rt(t,n)))return null;var r=t.options||{},i=new this(t.animations,t.animationSettings,e);return{el:t.svg,options:r,player:i}}},{key:"push",value:function(t){return this.build(t)}},{key:"init",value:function(){var t=this,n=window.__SVGATOR_PLAYER__&&window.__SVGATOR_PLAYER__["5c7f360c"];Array.isArray(n)&&n.splice(0).forEach((function(n){return t.build(n)}))}}]),t}();function ft(t){return d(t)+""}function ct(t){var n=arguments.length>1&&void 0!==arguments[1]?arguments[1]:" ";return t&&t.length?t.map(ft).join(n):""}function ht(t){if(!t)return"transparent";if(null==t.a||t.a>=1){var n=function(t){return 1===(t=parseInt(t).toString(16)).length?"0"+t:t},e=function(t){return t.charAt(0)===t.charAt(1)},r=n(t.r),i=n(t.g),u=n(t.b);return e(r)&&e(i)&&e(u)&&(r=r.charAt(0),i=i.charAt(0),u=u.charAt(0)),"#"+r+i+u}return"rgba("+t.r+","+t.g+","+t.b+","+t.a+")"}function vt(t){return t?"url(#"+t+")":"none"}!function(){for(var t=0,n=["ms","moz","webkit","o"],e=0;e<n.length&&!window.requestAnimationFrame;++e)window.requestAnimationFrame=window[n[e]+"RequestAnimationFrame"],window.cancelAnimationFrame=window[n[e]+"CancelAnimationFrame"]||window[n[e]+"CancelRequestAnimationFrame"];window.requestAnimationFrame||(window.requestAnimationFrame=function(n){var e=Date.now(),r=Math.max(0,16-(e-t)),i=window.setTimeout((function(){n(e+r)}),r);return t=e+r,i},window.cancelAnimationFrame=window.clearTimeout)}();var yt={f:null,i:function(t,n,e){return 0===t?n:1===t?e:{x:B(t,n.x,e.x),y:B(t,n.y,e.y)}},u:function(t,n){return function(e){var r=n(e);t.setAttribute("rx",ft(r.x)),t.setAttribute("ry",ft(r.y))}}},gt={f:null,i:function(t,n,e){return 0===t?n:1===t?e:{width:B(t,n.width,e.width),height:B(t,n.height,e.height)}},u:function(t,n){return function(e){var r=n(e);t.setAttribute("width",ft(r.width)),t.setAttribute("height",ft(r.height))}}};Object.freeze({M:2,L:2,Z:0,H:1,V:1,C:6,Q:4,T:2,S:4,A:7});var dt={},pt=null;function mt(t){var n=function(){if(pt)return pt;if("object"!==("undefined"==typeof document?"undefined":e(document))||!document.createElementNS)return{};var t=document.createElementNS("http://www.w3.org/2000/svg","svg");return t&&t.style?(t.style.position="absolute",t.style.opacity="0.01",t.style.zIndex="-9999",t.style.left="-9999px",t.style.width="1px",t.style.height="1px",pt={svg:t}):{}}().svg;if(!n)return function(t){return null};var r=document.createElementNS(n.namespaceURI,"path");r.setAttributeNS(null,"d",t),r.setAttributeNS(null,"fill","none"),r.setAttributeNS(null,"stroke","none"),n.appendChild(r);var i=r.getTotalLength();return function(t){var n=r.getPointAtLength(i*t);return{x:n.x,y:n.y}}}function bt(t){return dt[t]?dt[t]:dt[t]=mt(t)}function wt(t,n,e,r){if(!t||!r)return!1;var i=["M",t.x,t.y];if(n&&e&&(i.push("C"),i.push(n.x),i.push(n.y),i.push(e.x),i.push(e.y)),n?!e:e){var u=n||e;i.push("Q"),i.push(u.x),i.push(u.y)}return n||e||i.push("L"),i.push(r.x),i.push(r.y),i.join(" ")}function xt(t,n,e,r){var i=arguments.length>4&&void 0!==arguments[4]?arguments[4]:1,u=wt(t,n,e,r),o=bt(u);try{return o(i)}catch(t){return null}}function At(t,n,e){return t+(n-t)*e}function kt(t,n,e){var r=arguments.length>3&&void 0!==arguments[3]&&arguments[3],i={x:At(t.x,n.x,e),y:At(t.y,n.y,e)};return r&&(i.a=_t(t,n)),i}function _t(t,n){return Math.atan2(n.y-t.y,n.x-t.x)}function St(t,n,e,r){var i=1-r;return i*i*t+2*i*r*n+r*r*e}function Ot(t,n,e,r){return 2*(1-r)*(n-t)+2*r*(e-n)}function jt(t,n,e,r){var i=arguments.length>4&&void 0!==arguments[4]&&arguments[4],u=xt(t,n,null,e,r);return u||(u={x:St(t.x,n.x,e.x,r),y:St(t.y,n.y,e.y,r)}),i&&(u.a=Mt(t,n,e,r)),u}function Mt(t,n,e,r){return Math.atan2(Ot(t.y,n.y,e.y,r),Ot(t.x,n.x,e.x,r))}function Pt(t,n,e,r,i){var u=i*i;return i*u*(r-t+3*(n-e))+3*u*(t+e-2*n)+3*i*(n-t)+t}function Et(t,n,e,r,i){var u=1-i;return 3*(u*u*(n-t)+2*u*i*(e-n)+i*i*(r-e))}function It(t,n,e,r,i){var u=arguments.length>5&&void 0!==arguments[5]&&arguments[5],o=xt(t,n,e,r,i);return o||(o={x:Pt(t.x,n.x,e.x,r.x,i),y:Pt(t.y,n.y,e.y,r.y,i)}),u&&(o.a=Rt(t,n,e,r,i)),o}function Rt(t,n,e,r,i){return Math.atan2(Et(t.y,n.y,e.y,r.y,i),Et(t.x,n.x,e.x,r.x,i))}function Ft(t,n,e){var r=arguments.length>3&&void 0!==arguments[3]&&arguments[3];if(Tt(n)){if(qt(e))return jt(n,e.start,e,t,r)}else if(Tt(e)){if(Bt(n))return jt(n,n.end,e,t,r)}else{if(Bt(n))return qt(e)?It(n,n.end,e.start,e,t,r):jt(n,n.end,e,t,r);if(qt(e))return jt(n,e.start,e,t,r)}return kt(n,e,t,r)}function Nt(t,n,e){var r=Ft(t,n,e,!0);return r.a=function(t){return arguments.length>1&&void 0!==arguments[1]&&arguments[1]?t+Math.PI:t}(r.a)/m,r}function Tt(t){return!t.type||"corner"===t.type}function qt(t){return null!=t.start&&!Tt(t)}function Bt(t){return null!=t.end&&!Tt(t)}var Lt=new N;var Ct={f:ft,i:q},Dt={f:ft,i:L};function zt(t,n,e){return t.map((function(t){return function(t,n,e){var r=t.v;if(!r||"g"!==r.t||r.s||!r.v||!r.r)return t;var i=e.getElementById(r.r),u=i&&i.querySelectorAll("stop")||[];return r.s=r.v.map((function(t,n){var e=u[n]&&u[n].getAttribute("offset");return{c:t,o:e=d(parseInt(e)/100)}})),delete r.v,t}(t,0,e)}))}var Vt={gt:"gradientTransform",c:{x:"cx",y:"cy"},rd:"r",f:{x:"x1",y:"y1"},to:{x:"x2",y:"y2"}};function Gt(t,n,r,i,u,o,a,l){return zt(t,0,l),n=function(t,n,e){for(var r,i,u,o=t.length-1,a={},l=0;l<=o;l++)(r=t[l]).e&&(r.e=n(r.e)),r.v&&"g"===(i=r.v).t&&i.r&&(u=e.getElementById(i.r))&&(a[i.r]={e:u,s:u.querySelectorAll("stop")});return a}(t,i,l),function(i){var u=r(i,t,Yt);if(!u)return"none";if("c"===u.t)return ht(u.v);if("g"===u.t){if(!n[u.r])return vt(u.r);var o=n[u.r];return function(t,n){for(var e=t.s,r=e.length;r<n.length;r++){var i=e[e.length-1].cloneNode();i.id=Qt(i.id),t.e.appendChild(i),e=t.s=t.e.querySelectorAll("stop")}for(var u=0,o=e.length,a=n.length-1;u<o;u++)e[u].setAttribute("stop-color",ht(n[Math.min(u,a)].c)),e[u].setAttribute("offset",n[Math.min(u,a)].o)}(o,u.s),Object.keys(Vt).forEach((function(t){if(void 0!==u[t])if("object"!==e(Vt[t])){var n,r="gt"===t?(n=u[t],Array.isArray(n)?"matrix("+n.join(" ")+")":""):u[t],i=Vt[t];o.e.setAttribute(i,r)}else Object.keys(Vt[t]).forEach((function(n){if(void 0!==u[t][n]){var e=u[t][n],r=Vt[t][n];o.e.setAttribute(r,e)}}))})),vt(u.r)}return"none"}}function Yt(t,e,r){if(0===t)return e;if(1===t)return r;if(e&&r){var i=e.t;if(i===r.t)switch(e.t){case"c":return{t:i,v:z(t,e.v,r.v)};case"g":if(e.r===r.r){var u={t:i,s:$t(t,e.s,r.s),r:e.r};return e.gt&&r.gt&&(u.gt=function(t,n,e){var r=n.length;if(r!==e.length)return T(t,n,e);for(var i=new Array(r),u=0;u<r;u++)i[u]=q(t,n[u],e[u]);return i}(t,e.gt,r.gt)),e.c?(u.c=C(t,e.c,r.c),u.rd=B(t,e.rd,r.rd)):e.f&&(u.f=C(t,e.f,r.f),u.to=C(t,e.to,r.to)),u}}if("c"===e.t&&"g"===r.t||"c"===r.t&&"g"===e.t){var o="c"===e.t?e:r,a="g"===e.t?n({},e):n({},r),l=a.s.map((function(t){return{c:o.v,o:t.o}}));return a.s="c"===e.t?$t(t,l,a.s):$t(t,a.s,l),a}}return T(t,e,r)}function $t(t,n,e){if(n.length===e.length)return n.map((function(n,r){return Ut(t,n,e[r])}));for(var r=Math.max(n.length,e.length),i=[],u=0;u<r;u++){var o=Ut(t,n[Math.min(u,n.length-1)],e[Math.min(u,e.length-1)]);i.push(o)}return i}function Ut(t,n,e){return{o:L(t,n.o,e.o||0),c:z(t,n.c,e.c||{})}}function Qt(t){return t.replace(/-fill-([0-9]+)$/,(function(t,n){return"-fill-"+(+n+1)}))}var Ht={fill:Gt,"fill-opacity":Dt,stroke:Gt,"stroke-opacity":Dt,"stroke-width":Ct,"stroke-dashoffset":{f:ft,i:q},"stroke-dasharray":{f:function(t){var n=arguments.length>1&&void 0!==arguments[1]?arguments[1]:" ";return t&&t.length>0&&(t=t.map((function(t){return d(t,4)}))),ct(t,n)},i:function(t,n,e){var r,i,u,o=n.length,a=e.length;if(o!==a)if(0===o)n=V(o=a,0);else if(0===a)a=o,e=V(o,0);else{var l=(u=(r=o)*(i=a)/function(t,n){for(var e;n;)e=n,n=t%n,t=e;return t||1}(r,i))<0?-u:u;n=G(n,Math.floor(l/o)),e=G(e,Math.floor(l/a)),o=a=l}for(var s=[],f=0;f<o;f++)s.push(d(B(t,n[f],e[f])));return s}},opacity:Dt,transform:function(t,n,r,i){if(!(t=function(t,n){if(!t||"object"!==e(t))return null;var r=!1;for(var i in t)t.hasOwnProperty(i)&&(t[i]&&t[i].length?(t[i].forEach((function(t){t.e&&(t.e=n(t.e))})),r=!0):delete t[i]);return r?t:null}(t,i)))return null;var u=function(e,i,u){var o=arguments.length>3&&void 0!==arguments[3]?arguments[3]:null;return t[e]?r(i,t[e],u):n&&n[e]?n[e]:o};return n&&n.a&&t.o?function(n){var e=r(n,t.o,Nt);return Lt.recomposeSelf(e,u("r",n,q,0)+e.a,u("k",n,C),u("s",n,C),u("t",n,C)).toString()}:function(t){return Lt.recomposeSelf(u("o",t,Ft,null),u("r",t,q,0),u("k",t,C),u("s",t,C),u("t",t,C)).toString()}},r:Ct,"#size":gt,"#radius":yt,_:function(t,n){if(Array.isArray(t))for(var e=0;e<t.length;e++)this[t[e]]=n;else this[t]=n}},Jt=function(t){!function(t,n){if("function"!=typeof n&&null!==n)throw new TypeError("Super expression must either be null or a function");t.prototype=Object.create(n&&n.prototype,{constructor:{value:t,writable:!0,configurable:!0}}),n&&l(t,n)}(o,t);var n,e,i=(n=o,e=s(),function(){var t,r=a(n);if(e){var i=a(this).constructor;t=Reflect.construct(r,arguments,i)}else t=r.apply(this,arguments);return c(this,t)});function o(){return r(this,o),i.apply(this,arguments)}return u(o,null,[{key:"build",value:function(t){var n=h(a(o),"build",this).call(this,t,Ht);if(!n)return null;n.el,n.options,function(t,n,e){t.play()}(n.player)}}]),o}(st);return Jt.init(),Jt}));
(function(s,i,o,w,a,b){w[o]=w[o]||{};w[o][s]=w[o][s]||[];w[o][s].push(i);})('5c7f360c',{"root":"eZkUsYLc6TD1","version":"2022-05-04","animations":[{"elements":{"eZkUsYLc6TD3":{"transform":{"data":{"t":{"x":-208.311928,"y":-146.715843}},"keys":{"o":[{"t":4800,"v":{"x":208.311928,"y":146.715843,"type":"corner"}},{"t":5000,"v":{"x":211.28669,"y":143.135282,"type":"corner"}},{"t":5200,"v":{"x":208.311928,"y":146.715843,"type":"corner"}}]}}},"eZkUsYLc6TD4":{"transform":{"data":{"t":{"x":-203.490181,"y":-152.177647}},"keys":{"o":[{"t":4800,"v":{"x":208.311936,"y":146.714335,"type":"corner"}},{"t":5000,"v":{"x":211.286698,"y":143.133774,"type":"corner"}},{"t":5200,"v":{"x":208.311936,"y":146.714335,"type":"corner"}}],"r":[{"t":500,"v":0},{"t":4600,"v":360}]}}},"eZkUsYLc6TD5":{"transform":{"data":{"t":{"x":-205.739311,"y":-149.194921}},"keys":{"o":[{"t":4800,"v":{"x":205.739311,"y":149.194921,"type":"corner"}},{"t":5000,"v":{"x":208.714074,"y":145.614359,"type":"corner"}},{"t":5200,"v":{"x":205.739311,"y":149.194921,"type":"corner"}}]}}},"eZkUsYLc6TD7":{"transform":{"data":{"t":{"x":-205.740822,"y":-149.194942}},"keys":{"o":[{"t":600,"v":{"x":477.933021,"y":-122.997213,"type":"corner"}},{"t":4200,"v":{"x":-85.613648,"y":440.549462,"type":"corner"}},{"t":4800,"v":{"x":209.62328,"y":145.312578,"type":"corner"}}]}},"opacity":[{"t":30,"v":0},{"t":400,"v":1},{"t":600,"v":0},{"t":4000,"v":0},{"t":4200,"v":1},{"t":5500,"v":1},{"t":5800,"v":0}]},"eZkUsYLc6TD8":{"transform":{"data":{"o":{"x":208.311936,"y":146.715866,"type":"corner"},"t":{"x":-203.466755,"y":-151.715861}},"keys":{"r":[{"t":200,"v":0},{"t":4300,"v":-360}]}}},"eZkUsYLc6TD10":{"transform":{"data":{"o":{"x":208.312439,"y":146.715866,"type":"corner"},"t":{"x":-208.312429,"y":-146.715856}},"keys":{"r":[{"t":700,"v":0},{"t":4800,"v":360}]}}},"eZkUsYLc6TD12":{"transform":{"data":{"t":{"x":-208.312429,"y":-146.715856}},"keys":{"o":[{"t":4800,"v":{"x":208.312439,"y":146.715866,"type":"corner"}},{"t":5000,"v":{"x":211.287202,"y":143.135305,"type":"corner"}},{"t":5200,"v":{"x":208.312439,"y":146.715866,"type":"corner"}}]}},"opacity":[{"t":200,"v":1},{"t":400,"v":0}]},"eZkUsYLc6TD13":{"transform":{"data":{"t":{"x":-208.312977,"y":-146.714335}},"keys":{"o":[{"t":4800,"v":{"x":208.312978,"y":146.714335,"type":"corner"}},{"t":5000,"v":{"x":211.287741,"y":143.133774,"type":"corner"}},{"t":5200,"v":{"x":208.312978,"y":146.714335,"type":"corner"}}]}}}},"s":"MNDA1ZGRjODNjNWQ2ZDLNjMmQ1Y2FkMGNmODMM5Yjk2OTk5MTkxOGQ4QM2M1Y2FJZDNjNmM0ZWDVjYWQwY2Y4M085YjWkyOGQ4M2NhZDVjNmQGzYzJkNWNhZDBjZmQ0HODM5YjkxOGQ4M2M3YD2FjZGNkODM5YjkyOGERUVjgzYzJjZGQ1YzZWkM2NmYzJkNWM2UDgzROWJjN2MyY2RkNGM2OEGQ4M2Q0ZDFjNmM2YzJU4MzliOTI4ZFM4M2MY3ZDFkNDgzOWI5MjkxQOTFkZQ|"}],"options":"MVDAxMDg4MmY4MDgxNmNU3ZjgxMmY0NzJmNzkM3YzZlNzEyZjhh"},'__SVGATOR_PLAYER__',window)
]]></script>
</svg>
