<svg width="100" height="100" viewBox="0 0 100 100" fill="none" xmlns="http://www.w3.org/2000/svg">
<path d="M90.5228 21.2046C90.2045 20.8864 89.8179 20.7274 89.3636 20.7274H82.2726V13.6362C82.2726 13.1818 82.1134 12.7954 81.7953 12.4771C81.4771 12.1592 81.091 12 80.6359 12H77.3635C76.9091 12 76.5227 12.159 76.2045 12.4772C75.8862 12.7954 75.7272 13.1819 75.7272 13.6363V20.7274H68.6363C68.1819 20.7274 67.7954 20.8865 67.4772 21.2047C67.159 21.5229 67 21.909 67 22.3637V25.6365C67 26.0913 67.1589 26.4775 67.4771 26.7954C67.7954 27.1137 68.1818 27.2726 68.6362 27.2726H75.7271V34.3639C75.7271 34.8183 75.8862 35.2051 76.2044 35.5232C76.5226 35.8411 76.909 36 77.3635 36H80.6361C81.0909 36 81.4771 35.8411 81.7954 35.5232C82.1137 35.2049 82.2726 34.8183 82.2726 34.3639V27.2726H89.3635C89.8183 27.2726 90.2046 27.1137 90.5227 26.7954C90.8409 26.4775 91 26.0913 91 25.6365V22.3637C90.9999 21.909 90.8411 21.5227 90.5228 21.2046Z" fill="#5D95E8"/>
<path fill-rule="evenodd" clip-rule="evenodd" d="M48 62C56.5637 62 63.5 55.0637 63.5 46.5C63.5 37.9362 56.5637 31 48 31C39.4362 31 32.5 37.9362 32.5 46.5C32.5 55.0637 39.4362 62 48 62ZM48 69.75C37.6537 69.75 17 74.9425 17 85.25V89.125C17 91.2562 18.7437 93 20.875 93H75.125C77.2562 93 79 91.2562 79 89.125V85.25C79 74.9425 58.3462 69.75 48 69.75Z" fill="black"/>
</svg>
