<svg width="85" height="84" viewBox="0 0 85 84" fill="none" xmlns="http://www.w3.org/2000/svg">
<path d="M84.5228 9.20462C84.2045 8.8864 83.8179 8.72735 83.3636 8.72735H76.2726V1.6362C76.2726 1.18181 76.1134 0.795355 75.7953 0.477141C75.4771 0.159167 75.091 0 74.6359 0H71.3635C70.9091 0 70.5227 0.158987 70.2045 0.477201C69.8862 0.795415 69.7272 1.18187 69.7272 1.63626V8.72741H62.6363C62.1819 8.72741 61.7954 8.88646 61.4772 9.20467C61.159 9.52289 61 9.90898 61 10.3637V13.6365C61 14.0913 61.1589 14.4775 61.4771 14.7954C61.7954 15.1137 62.1818 15.2726 62.6362 15.2726H69.7271V22.3639C69.7271 22.8183 69.8862 23.2051 70.2044 23.5232C70.5226 23.8411 70.909 24 71.3635 24H74.6361C75.0909 24 75.4771 23.8411 75.7954 23.5232C76.1137 23.2049 76.2726 22.8183 76.2726 22.3639V15.2726H83.3635C83.8183 15.2726 84.2046 15.1137 84.5227 14.7954C84.8409 14.4775 85 14.0913 85 13.6365V10.3637C84.9999 9.90898 84.8411 9.52265 84.5228 9.20462Z" fill="#5D95E8"/>
<path fill-rule="evenodd" clip-rule="evenodd" d="M37 47C47.2212 47 55.5 38.7212 55.5 28.5C55.5 18.2787 47.2212 10 37 10C26.7787 10 18.5 18.2787 18.5 28.5C18.5 38.7212 26.7787 47 37 47ZM37 56.25C24.6512 56.25 0 62.4475 0 74.75V79.375C0 81.9187 2.08125 84 4.625 84H69.375C71.9187 84 74 81.9187 74 79.375V74.75C74 62.4475 49.3487 56.25 37 56.25Z" fill="black"/>
</svg>
