<svg width="88" height="94" viewBox="0 0 88 94" fill="none" xmlns="http://www.w3.org/2000/svg">
<path d="M86.0419 29.9669C87.2263 27.9981 87.2536 25.5421 86.1152 23.5467C85.3233 22.1604 84.3716 20.4909 83.4495 18.8772C82.4922 17.1999 80.9093 15.972 79.0478 15.4629C77.1846 14.954 75.1961 15.2062 73.5204 16.1634C72.5934 16.691 71.9448 17.0624 71.9448 17.0624C71.1285 17.3178 70.3981 17.2415 69.974 16.4991C69.2206 15.1762 68.0223 13.0792 67.094 11.4511C66.7341 10.8215 66.1401 10.3611 65.4419 10.1706C64.7436 9.98014 63.9988 10.0732 63.3693 10.4331C62.7413 10.7912 62.2808 11.3851 62.0904 12.0834C61.8982 12.7817 61.9931 13.528 62.3528 14.1559C64.6608 18.2024 69.1166 26.0087 69.1166 26.0087C69.1166 26.0087 66.9452 25.3138 65.0098 24.6959C64.2387 24.4499 63.4012 24.5289 62.6888 24.9139C61.9782 25.3005 61.455 25.9612 61.2413 26.7413C61.2415 26.7429 61.24 26.7447 61.2401 26.7464C60.8167 28.2945 61.7178 29.8949 63.2607 30.3354C65.8964 31.0886 69.4509 32.1023 69.4509 32.1023C72.2951 32.88 73.0423 33.1596 74.2453 35.0498C74.741 35.6914 75.6348 35.8708 76.3407 35.468C79.3215 33.8039 86.0419 29.9669 86.0419 29.9669Z" fill="#5D95E8"/>
<path fill-rule="evenodd" clip-rule="evenodd" d="M62.5374 7.04734C62.878 7.64519 62.6709 8.40473 62.0747 8.74521C61.4785 9.08569 60.7173 8.87877 60.3767 8.28092L58.6896 5.32365C58.3491 4.72746 58.556 3.96627 59.1522 3.62579C59.7484 3.2853 60.5097 3.49388 60.8502 4.09007L62.5374 7.04734Z" fill="#5D95E8"/>
<path fill-rule="evenodd" clip-rule="evenodd" d="M68.1241 6.25876C67.944 6.92118 67.2588 7.31229 66.5963 7.13219C65.9338 6.95043 65.5427 6.26518 65.7244 5.60262L66.6222 2.31736C66.8023 1.65493 67.4877 1.26548 68.1501 1.44558C68.8127 1.62734 69.2036 2.31094 69.0219 2.9735L68.1241 6.25876Z" fill="#5D95E8"/>
<path fill-rule="evenodd" clip-rule="evenodd" d="M57.5126 10.29C58.175 10.4701 58.5661 11.1554 58.3844 11.8179C58.2042 12.4804 57.519 12.8715 56.8564 12.6897L53.5712 11.792C52.9088 11.6118 52.5176 10.9266 52.6994 10.264C52.8795 9.60161 53.5648 9.2105 54.2273 9.39226L57.5126 10.29Z" fill="#5D95E8"/>
<path fill-rule="evenodd" clip-rule="evenodd" d="M57.8789 15.1358C58.4751 14.7953 59.2364 15.0038 59.5769 15.6C59.9174 16.1962 59.7088 16.9576 59.1126 17.298L56.1554 18.9852C55.5592 19.3257 54.798 19.1188 54.4575 18.5226C54.1169 17.9247 54.3256 17.165 54.9218 16.8245L57.8789 15.1358Z" fill="#5D95E8"/>
<path fill-rule="evenodd" clip-rule="evenodd" d="M72.6683 6.69647C73.2644 6.35598 74.0256 6.56291 74.3663 7.16076C74.7067 7.75695 74.498 8.51662 73.9018 8.85711L70.9447 10.5459C70.3485 10.8864 69.5872 10.6778 69.2467 10.0816C68.9062 9.48542 69.1148 8.72409 69.711 8.38361L72.6683 6.69647Z" fill="#5D95E8"/>
<path fill-rule="evenodd" clip-rule="evenodd" d="M37 57C47.2212 57 55.5 48.7212 55.5 38.5C55.5 28.2787 47.2212 20 37 20C26.7787 20 18.5 28.2787 18.5 38.5C18.5 48.7212 26.7787 57 37 57ZM37 66.25C24.6512 66.25 0 72.4475 0 84.75V89.375C0 91.9187 2.08125 94 4.625 94H69.375C71.9187 94 74 91.9187 74 89.375V84.75C74 72.4475 49.3487 66.25 37 66.25Z" fill="black"/>
</svg>
