<svg width="100" height="100" viewBox="0 0 100 100" fill="none" xmlns="http://www.w3.org/2000/svg">
<path d="M90.2271 35.5037C91.2352 33.8281 91.2583 31.7379 90.2895 30.0397C89.6156 28.8598 88.8056 27.439 88.0209 26.0656C87.2061 24.6381 85.859 23.5931 84.2747 23.1598C82.6891 22.7267 80.9967 22.9413 79.5706 23.756C78.7816 24.205 78.2296 24.5211 78.2296 24.5211C77.5349 24.7385 76.9133 24.6736 76.5523 24.0417C75.9112 22.9158 74.8913 21.1311 74.1013 19.7455C73.795 19.2097 73.2895 18.8179 72.6952 18.6557C72.101 18.4936 71.4671 18.5728 70.9313 18.8791C70.3968 19.1839 70.005 19.6894 69.8429 20.2836C69.6793 20.878 69.7601 21.5131 70.0662 22.0475C72.0305 25.4913 75.8227 32.135 75.8227 32.135C75.8227 32.135 73.9746 31.5436 72.3275 31.0177C71.6712 30.8083 70.9585 30.8756 70.3522 31.2033C69.7474 31.5322 69.3022 32.0946 69.1203 32.7585C69.1204 32.7599 69.1191 32.7614 69.1192 32.7628C68.7589 34.0803 69.5258 35.4424 70.8389 35.8173C73.0821 36.4583 76.1072 37.321 76.1072 37.321C78.5278 37.9828 79.1637 38.2209 80.1875 39.8295C80.6094 40.3756 81.37 40.5282 81.9708 40.1854C84.5077 38.7691 90.2271 35.5037 90.2271 35.5037Z" fill="#5D95E8"/>
<path fill-rule="evenodd" clip-rule="evenodd" d="M70.2233 15.9977C70.5132 16.5065 70.337 17.1529 69.8296 17.4427C69.3222 17.7325 68.6744 17.5564 68.3845 17.0476L66.9486 14.5307C66.6589 14.0233 66.835 13.3755 67.3424 13.0858C67.8498 12.796 68.4977 12.9735 68.7875 13.4809L70.2233 15.9977Z" fill="#5D95E8"/>
<path fill-rule="evenodd" clip-rule="evenodd" d="M74.978 15.3265C74.8247 15.8903 74.2416 16.2231 73.6778 16.0699C73.1139 15.9152 72.7811 15.332 72.9357 14.7681L73.6998 11.9721C73.8531 11.4084 74.4364 11.0769 75.0001 11.2302C75.564 11.3849 75.8968 11.9667 75.7421 12.5305L74.978 15.3265Z" fill="#5D95E8"/>
<path fill-rule="evenodd" clip-rule="evenodd" d="M65.9468 18.7573C66.5106 18.9106 66.8435 19.4938 66.6888 20.0577C66.5355 20.6215 65.9523 20.9543 65.3884 20.7996L62.5925 20.0356C62.0287 19.8823 61.6958 19.2991 61.8505 18.7352C62.0038 18.1715 62.587 17.8386 63.1509 17.9933L65.9468 18.7573Z" fill="#5D95E8"/>
<path fill-rule="evenodd" clip-rule="evenodd" d="M66.2587 22.8814C66.7661 22.5916 67.414 22.7691 67.7038 23.2765C67.9935 23.7839 67.816 24.4319 67.3086 24.7216L64.7918 26.1575C64.2844 26.4473 63.6366 26.2712 63.3468 25.7638C63.0569 25.255 63.2346 24.6084 63.742 24.3187L66.2587 22.8814Z" fill="#5D95E8"/>
<path fill-rule="evenodd" clip-rule="evenodd" d="M78.8453 15.6991C79.3527 15.4093 80.0006 15.5854 80.2905 16.0942C80.5802 16.6016 80.4026 17.2481 79.8952 17.5379L77.3785 18.9752C76.8711 19.2649 76.2232 19.0874 75.9334 18.58C75.6436 18.0726 75.8211 17.4247 76.3285 17.1349L78.8453 15.6991Z" fill="#5D95E8"/>
<path fill-rule="evenodd" clip-rule="evenodd" d="M48.4893 58.5107C57.1883 58.5107 64.234 51.4649 64.234 42.766C64.234 34.067 57.1883 27.0213 48.4893 27.0213C39.7904 27.0213 32.7447 34.067 32.7447 42.766C32.7447 51.4649 39.7904 58.5107 48.4893 58.5107ZM48.4893 66.383C37.9798 66.383 17 71.6575 17 82.1277V86.0638C17 88.2287 18.7713 90 20.9362 90H76.0425C78.2074 90 79.9787 88.2287 79.9787 86.0638V82.1277C79.9787 71.6575 58.9989 66.383 48.4893 66.383Z" fill="black"/>
</svg>
