<svg width="101" height="100" viewBox="0 0 101 100" fill="none" xmlns="http://www.w3.org/2000/svg">
<path d="M26.3148 85.5172V75.974C26.3086 72.7037 27.0815 69.4789 28.5696 66.5666C30.0576 63.6544 32.218 61.1385 34.8718 59.2274C33.0821 57.131 31.8717 54.6032 31.3605 51.8946C30.8494 49.186 31.0553 46.3909 31.958 43.7865C29.6422 42.5511 26.9428 42.2438 24.4086 42.9271C21.8744 43.6104 19.6954 45.233 18.3145 47.4651C16.9336 49.6972 16.4545 52.3714 16.9744 54.9441C17.4944 57.5168 18.9744 59.795 21.1137 61.3157C18.4095 62.4877 16.1065 64.424 14.4874 66.8868C12.8684 69.3495 12.0039 72.2315 12 75.1788V82.3361C12.0025 84.4445 12.8412 86.4659 14.3321 87.9567C15.8229 89.4476 17.8442 90.2863 19.9526 90.2888H27.4043C26.6892 88.7996 26.3169 87.1692 26.3148 85.5172Z" fill="black"/>
<path d="M72.8695 61.3157C75.0088 59.795 76.4889 57.5168 77.0088 54.9441C77.5288 52.3714 77.0496 49.6972 75.6687 47.4651C74.2879 45.233 72.1089 43.6104 69.5747 42.9271C67.0404 42.2438 64.3411 42.5511 62.0253 43.7865C62.9279 46.3909 63.1339 49.186 62.6227 51.8946C62.1116 54.6032 60.9011 57.131 59.1115 59.2274C61.7653 61.1385 63.9256 63.6544 65.4137 66.5666C66.9018 69.4789 67.6747 72.7037 67.6685 75.974V85.5172C67.6663 87.1692 67.294 88.7996 66.579 90.2888H74.0306C76.139 90.2863 78.1603 89.4476 79.6512 87.9567C81.1421 86.4659 81.9807 84.4445 81.9833 82.3361V75.1788C81.9794 72.2315 81.1149 69.3495 79.4958 66.8868C77.8768 64.424 75.5737 62.4877 72.8695 61.3157Z" fill="black"/>
<path d="M53.6035 59.7856C55.9755 58.343 57.8106 56.1643 58.8289 53.5816C59.8473 50.999 59.993 48.1541 59.244 45.4809C58.4949 42.8076 56.8921 40.4527 54.68 38.7753C52.4679 37.0978 49.7679 36.1899 46.9917 36.1899C44.2155 36.1899 41.5155 37.0978 39.3033 38.7753C37.0912 40.4527 35.4884 42.8076 34.7394 45.4809C33.9903 48.1541 34.1361 50.999 35.1544 53.5816C36.1728 56.1643 38.0079 58.343 40.3798 59.7856C37.1648 61.1004 34.4134 63.3416 32.4753 66.2242C30.5373 69.1068 29.5002 72.5005 29.4958 75.974V85.5172C29.4984 87.6256 30.3371 89.6469 31.8279 91.1378C33.3188 92.6286 35.3401 93.4673 37.4485 93.4698H56.5348C58.6432 93.4673 60.6646 92.6286 62.1554 91.1378C63.6463 89.6469 64.485 87.6256 64.4875 85.5172V75.974C64.4832 72.5005 63.4461 69.1068 61.508 66.2242C59.57 63.3416 56.8185 61.1004 53.6035 59.7856Z" fill="black"/>
<path d="M98.9009 41.6914C99.9954 39.8721 100.021 37.6026 98.9686 35.7588C98.2369 34.4777 97.3575 32.935 96.5054 31.4438C95.6207 29.8939 94.1581 28.7592 92.4379 28.2888C90.7162 27.8185 88.8787 28.0515 87.3302 28.9361C86.4736 29.4236 85.8743 29.7668 85.8743 29.7668C85.12 30.0028 84.445 29.9323 84.0531 29.2463C83.3569 28.0238 82.2496 26.0861 81.3917 24.5816C81.0592 23.9998 80.5103 23.5743 79.8651 23.3983C79.2199 23.2223 78.5316 23.3083 77.9499 23.6408C77.3695 23.9717 76.9441 24.5206 76.7681 25.1658C76.5905 25.8112 76.6782 26.5008 77.0106 27.081C79.1433 30.8202 83.2608 38.0338 83.2608 38.0338C83.2608 38.0338 81.2542 37.3916 79.4658 36.8207C78.7533 36.5933 77.9794 36.6664 77.3211 37.0222C76.6644 37.3793 76.181 37.9899 75.9835 38.7107C75.9836 38.7123 75.9822 38.7139 75.9824 38.7155C75.5911 40.146 76.4238 41.6249 77.8495 42.0319C80.2851 42.7279 83.5697 43.6647 83.5697 43.6647C86.198 44.3833 86.8884 44.6417 88.0001 46.3883C88.4581 46.9813 89.284 47.147 89.9363 46.7748C92.6908 45.237 98.9009 41.6914 98.9009 41.6914Z" fill="#5D95E8"/>
<path fill-rule="evenodd" clip-rule="evenodd" d="M77.1811 20.5122C77.4958 21.0647 77.3045 21.7666 76.7536 22.0812C76.2027 22.3958 75.4993 22.2046 75.1845 21.6522L73.6255 18.9194C73.3109 18.3685 73.5021 17.6651 74.053 17.3505C74.6039 17.0359 75.3074 17.2286 75.6221 17.7795L77.1811 20.5122Z" fill="#5D95E8"/>
<path fill-rule="evenodd" clip-rule="evenodd" d="M82.3437 19.7835C82.1773 20.3957 81.5441 20.7571 80.9319 20.5906C80.3197 20.4227 79.9583 19.7895 80.1262 19.1772L80.9558 16.1414C81.1223 15.5293 81.7556 15.1694 82.3677 15.3358C82.98 15.5038 83.3413 16.1355 83.1733 16.7477L82.3437 19.7835Z" fill="#5D95E8"/>
<path fill-rule="evenodd" clip-rule="evenodd" d="M72.5379 23.5087C73.15 23.6751 73.5114 24.3083 73.3435 24.9206C73.177 25.5327 72.5438 25.8941 71.9316 25.7261L68.8958 24.8966C68.2836 24.7301 67.9222 24.0969 68.0902 23.4847C68.2566 22.8725 68.8898 22.5111 69.5021 22.6791L72.5379 23.5087Z" fill="#5D95E8"/>
<path fill-rule="evenodd" clip-rule="evenodd" d="M72.8764 27.9864C73.4273 27.6718 74.1308 27.8645 74.4455 28.4155C74.7601 28.9664 74.5674 29.6699 74.0164 29.9845L71.2837 31.5436C70.7328 31.8582 70.0294 31.667 69.7148 31.1161C69.4 30.5636 69.5929 29.8616 70.1438 29.547L72.8764 27.9864Z" fill="#5D95E8"/>
<path fill-rule="evenodd" clip-rule="evenodd" d="M86.5428 20.188C87.0937 19.8734 87.7971 20.0646 88.1119 20.6171C88.4265 21.168 88.2336 21.87 87.6827 22.1846L84.9501 23.7452C84.3992 24.0598 83.6957 23.8671 83.3811 23.3161C83.0664 22.7652 83.2592 22.0617 83.8101 21.7471L86.5428 20.188Z" fill="#5D95E8"/>
</svg>
