<svg width="101" height="81" viewBox="0 0 101 81" fill="none" xmlns="http://www.w3.org/2000/svg">
<path d="M15.491 72.3938V62.0665C15.4843 58.5274 16.3208 55.0376 17.9311 51.886C19.5415 48.7345 21.8794 46.0119 24.7512 43.9437C22.8145 41.6751 21.5046 38.9395 20.9514 36.0084C20.3983 33.0772 20.6212 30.0524 21.598 27.234C19.0919 25.8971 16.1707 25.5645 13.4282 26.304C10.6858 27.0434 8.32774 28.7993 6.83339 31.2149C5.33905 33.6304 4.82052 36.5243 5.38319 39.3085C5.94586 42.0926 7.54751 44.558 9.86263 46.2037C6.93621 47.472 4.44392 49.5674 2.69184 52.2325C0.93976 54.8976 0.00417996 58.0164 0 61.2059V68.9514C0.00273306 71.233 0.910326 73.4205 2.5237 75.0338C4.13707 76.6472 6.32449 77.5548 8.60614 77.5575H16.6701C15.8963 75.946 15.4934 74.1815 15.491 72.3938Z" fill="black"/>
<path d="M65.8713 46.2037C68.1864 44.558 69.788 42.0926 70.3507 39.3085C70.9134 36.5243 70.3949 33.6304 68.9005 31.2149C67.4062 28.7993 65.0481 27.0434 62.3057 26.304C59.5632 25.5645 56.6421 25.8971 54.136 27.234C55.1127 30.0524 55.3356 33.0772 54.7825 36.0084C54.2294 38.9395 52.9194 41.6751 50.9827 43.9437C53.8546 46.0119 56.1924 48.7345 57.8028 51.886C59.4131 55.0376 60.2496 58.5274 60.2429 62.0665V72.3938C60.2405 74.1815 59.8376 75.946 59.0638 77.5575H67.1278C69.4094 77.5548 71.5968 76.6472 73.2102 75.0338C74.8236 73.4205 75.7312 71.233 75.7339 68.9514V61.2059C75.7297 58.0164 74.7941 54.8976 73.0421 52.2325C71.29 49.5674 68.7977 47.472 65.8713 46.2037Z" fill="black"/>
<path d="M45.0221 44.5479C47.589 42.9867 49.5749 40.6289 50.6769 37.8341C51.779 35.0392 51.9367 31.9605 51.1261 29.0676C50.3155 26.1747 48.5809 23.6263 46.1871 21.811C43.7932 19.9957 40.8713 19.0132 37.867 19.0132C34.8626 19.0132 31.9408 19.9957 29.5469 21.811C27.153 23.6263 25.4185 26.1747 24.6079 29.0676C23.7972 31.9605 23.955 35.0392 25.057 37.8341C26.1591 40.6289 28.145 42.9867 30.7118 44.5479C27.2326 45.9707 24.2551 48.396 22.1578 51.5155C20.0605 54.6349 18.9381 58.3076 18.9335 62.0665V72.3939C18.9362 74.6755 19.8438 76.8629 21.4572 78.4763C23.0705 80.0897 25.258 80.9973 27.5396 81H48.1943C50.476 80.9973 52.6634 80.0897 54.2768 78.4763C55.8901 76.8629 56.7977 74.6755 56.8005 72.3939V62.0665C56.7958 58.3076 55.6735 54.6349 53.5762 51.5155C51.4789 48.396 48.5013 45.9707 45.0221 44.5479Z" fill="black"/>
<path d="M98.9089 29.9669C100.093 27.9981 100.121 25.5421 98.9821 23.5467C98.1903 22.1604 97.2386 20.4909 96.3164 18.8772C95.3591 17.1999 93.7763 15.972 91.9148 15.4629C90.0516 14.954 88.0631 15.2062 86.3874 16.1634C85.4604 16.691 84.8118 17.0624 84.8118 17.0624C83.9955 17.3178 83.265 17.2415 82.8409 16.4991C82.0876 15.1761 80.8892 13.0792 79.9609 11.4511C79.601 10.8215 79.0071 10.3611 78.3088 10.1706C77.6106 9.98014 76.8658 10.0732 76.2362 10.4331C75.6082 10.7911 75.1478 11.3851 74.9573 12.0834C74.7652 12.7817 74.86 13.528 75.2197 14.1559C77.5277 18.2023 81.9836 26.0087 81.9836 26.0087C81.9836 26.0087 79.8121 25.3138 77.8767 24.6959C77.1056 24.4499 76.2681 24.5289 75.5557 24.9139C74.8452 25.3005 74.322 25.9612 74.1083 26.7413C74.1084 26.7429 74.1069 26.7447 74.107 26.7464C73.6837 28.2945 74.5847 29.8949 76.1276 30.3354C78.7634 31.0886 82.3179 32.1023 82.3179 32.1023C85.1621 32.88 85.9093 33.1596 87.1122 35.0498C87.608 35.6914 88.5017 35.8708 89.2076 35.468C92.1885 33.8039 98.9089 29.9669 98.9089 29.9669Z" fill="#5D95E8"/>
<path fill-rule="evenodd" clip-rule="evenodd" d="M75.4043 7.04734C75.7449 7.64519 75.5379 8.40472 74.9417 8.74521C74.3455 9.08569 73.5843 8.87877 73.2437 8.28092L71.5565 5.32365C71.216 4.72746 71.423 3.96627 72.0191 3.62578C72.6153 3.2853 73.3767 3.49388 73.7172 4.09007L75.4043 7.04734Z" fill="#5D95E8"/>
<path fill-rule="evenodd" clip-rule="evenodd" d="M80.9911 6.25875C80.8109 6.92118 80.1257 7.31229 79.4633 7.13218C78.8007 6.95042 78.4096 6.26517 78.5914 5.60261L79.4891 2.31735C79.6692 1.65493 80.3546 1.26547 81.017 1.44558C81.6796 1.62734 82.0706 2.31093 81.8888 2.97349L80.9911 6.25875Z" fill="#5D95E8"/>
<path fill-rule="evenodd" clip-rule="evenodd" d="M70.3795 10.29C71.0419 10.4701 71.4331 11.1554 71.2513 11.8179C71.0712 12.4803 70.3859 12.8715 69.7234 12.6897L66.4381 11.7919C65.7757 11.6118 65.3846 10.9266 65.5663 10.264C65.7465 9.6016 66.4317 9.2105 67.0943 9.39226L70.3795 10.29Z" fill="#5D95E8"/>
<path fill-rule="evenodd" clip-rule="evenodd" d="M70.7459 15.1358C71.3421 14.7953 72.1034 15.0038 72.4439 15.6C72.7844 16.1962 72.5758 16.9576 71.9796 17.298L69.0223 18.9852C68.4261 19.3257 67.6649 19.1187 67.3244 18.5226C66.9838 17.9247 67.1925 17.165 67.7887 16.8245L70.7459 15.1358Z" fill="#5D95E8"/>
<path fill-rule="evenodd" clip-rule="evenodd" d="M85.5352 6.69646C86.1314 6.35598 86.8926 6.5629 87.2332 7.16075C87.5737 7.75694 87.365 8.51662 86.7688 8.8571L83.8116 10.5459C83.2155 10.8864 82.4541 10.6778 82.1136 10.0816C81.7732 9.48541 81.9817 8.72409 82.5779 8.3836L85.5352 6.69646Z" fill="#5D95E8"/>
</svg>
