<svg width="100" height="100" viewBox="0 0 100 100" fill="none" xmlns="http://www.w3.org/2000/svg">
<path fill-rule="evenodd" clip-rule="evenodd" d="M67 25C68.8778 25 70.4 26.5222 70.4 28.4V31.8H73.8C79.4333 31.8 84 36.3667 84 42V82.8C84 88.4333 79.4333 93 73.8 93H26.2C20.5667 93 16 88.4333 16 82.8V42C16 36.3667 20.5667 31.8 26.2 31.8H29.6V28.4C29.6 26.5222 31.1222 25 33 25C34.8778 25 36.4 26.5222 36.4 28.4V31.8H63.6V28.4C63.6 26.5222 65.1222 25 67 25ZM77.2 59H22.8V82.8C22.8 84.6778 24.3222 86.2 26.2 86.2H73.8C75.6778 86.2 77.2 84.6778 77.2 82.8V59ZM67 65.8C68.8778 65.8 70.4 67.3222 70.4 69.2V76C70.4 77.8778 68.8778 79.4 67 79.4H60.2C58.3222 79.4 56.8 77.8778 56.8 76V69.2C56.8 67.3222 58.3222 65.8 60.2 65.8H67ZM29.6 38.6H26.2C24.3222 38.6 22.8 40.1222 22.8 42V52.2H77.2V42C77.2 40.1222 75.6778 38.6 73.8 38.6H70.4V42C70.4 43.8778 68.8778 45.4 67 45.4C65.1222 45.4 63.6 43.8778 63.6 42V38.6H36.4V42C36.4 43.8778 34.8778 45.4 33 45.4C31.1222 45.4 29.6 43.8778 29.6 42V38.6Z" fill="black"/>
</svg>
