<svg width="82" height="82" viewBox="0 0 82 82" fill="none" xmlns="http://www.w3.org/2000/svg">
<path fill-rule="evenodd" clip-rule="evenodd" d="M61.5 0C63.7644 0 65.6 1.83563 65.6 4.1V8.2H69.7C76.4931 8.2 82 13.7069 82 20.5V69.7C82 76.4931 76.4931 82 69.7 82H12.3C5.5069 82 0 76.4931 0 69.7V20.5C0 13.7069 5.5069 8.2 12.3 8.2H16.4V4.1C16.4 1.83563 18.2356 0 20.5 0C22.7644 0 24.6 1.83563 24.6 4.1V8.2H57.4V4.1C57.4 1.83563 59.2356 0 61.5 0ZM73.8 41H8.2V69.7C8.2 71.9644 10.0356 73.8 12.3 73.8H69.7C71.9644 73.8 73.8 71.9644 73.8 69.7V41ZM61.5 49.2C63.7644 49.2 65.6 51.0356 65.6 53.3V61.5C65.6 63.7644 63.7644 65.6 61.5 65.6H53.3C51.0356 65.6 49.2 63.7644 49.2 61.5V53.3C49.2 51.0356 51.0356 49.2 53.3 49.2H61.5ZM16.4 16.4H12.3C10.0356 16.4 8.2 18.2356 8.2 20.5V32.8H73.8V20.5C73.8 18.2356 71.9644 16.4 69.7 16.4H65.6V20.5C65.6 22.7644 63.7644 24.6 61.5 24.6C59.2356 24.6 57.4 22.7644 57.4 20.5V16.4H24.6V20.5C24.6 22.7644 22.7644 24.6 20.5 24.6C18.2356 24.6 16.4 22.7644 16.4 20.5V16.4Z" fill="black"/>
</svg>
