<svg width="91" height="92" viewBox="0 0 91 92" fill="none" xmlns="http://www.w3.org/2000/svg">
<path d="M35.9147 20C23.1022 20 12.8522 30.25 12.8522 42.8062C12.8522 61.7687 33.3522 77.9125 34.3772 78.425C34.8897 78.6812 35.4022 78.9375 35.9147 78.9375C36.4272 78.9375 36.9397 78.6812 37.4522 78.425C38.4772 77.6562 58.9772 61.7687 58.9772 42.8062C58.9772 30.25 48.7272 20 35.9147 20ZM35.9147 50.75C31.5584 50.75 28.2272 47.4187 28.2272 43.0625C28.2272 38.7062 31.5584 35.375 35.9147 35.375C40.2709 35.375 43.6022 38.7062 43.6022 43.0625C43.6022 47.4187 40.2709 50.75 35.9147 50.75Z" fill="black"/>
<path d="M71.5334 88.1625L61.2834 67.6625C60.7709 66.6375 60.0021 66.125 58.9771 66.125H55.9021C49.7521 75.35 42.0646 81.5 40.5271 82.525C39.2459 83.55 37.7084 84.0625 35.9146 84.0625C34.1209 84.0625 32.5834 83.55 31.3021 82.525C30.0209 81.5 22.0771 75.35 15.9271 66.125H12.8521C11.8271 66.125 11.0584 66.6375 10.5459 67.6625L0.295892 88.1625C-0.216608 88.9312 0.039642 89.9562 0.295892 90.725C0.552142 91.4937 1.83339 91.75 2.60214 91.75H69.2271C69.9959 91.75 71.0209 91.2375 71.5334 90.4687C72.0459 89.7 71.7896 88.9312 71.5334 88.1625Z" fill="black"/>
<path d="M88.495 30.2941C89.6795 28.3253 89.7067 25.8693 88.5683 23.8739C87.7765 22.4876 86.8248 20.8181 85.9026 19.2045C84.9453 17.5271 83.3624 16.2992 81.5009 15.7901C79.6378 15.2812 77.6493 15.5334 75.9736 16.4906C75.0465 17.0182 74.398 17.3896 74.398 17.3896C73.5817 17.645 72.8512 17.5687 72.4271 16.8263C71.6738 15.5034 70.4754 13.4064 69.5471 11.7783C69.1872 11.1487 68.5932 10.6883 67.895 10.4978C67.1968 10.3074 66.452 10.4004 65.8224 10.7603C65.1944 11.1184 64.734 11.7123 64.5435 12.4106C64.3514 13.109 64.4462 13.8553 64.8059 14.4832C67.1139 18.5296 71.5698 26.3359 71.5698 26.3359C71.5698 26.3359 69.3983 25.641 67.4629 25.0232C66.6918 24.7771 65.8543 24.8561 65.1419 25.2412C64.4313 25.6277 63.9082 26.2884 63.6945 27.0685C63.6946 27.0702 63.6931 27.0719 63.6932 27.0736C63.2698 28.6217 64.1709 30.2221 65.7138 30.6626C68.3495 31.4158 71.9041 32.4295 71.9041 32.4295C74.7483 33.2072 75.4955 33.4868 76.6984 35.377C77.1941 36.0186 78.0879 36.198 78.7938 35.7952C81.7746 34.1311 88.495 30.2941 88.495 30.2941Z" fill="#5D95E8"/>
<path fill-rule="evenodd" clip-rule="evenodd" d="M64.9905 7.37455C65.3311 7.9724 65.124 8.73194 64.5278 9.07242C63.9316 9.4129 63.1705 9.20598 62.8298 8.60813L61.1427 5.65087C60.8022 5.05467 61.0091 4.29348 61.6053 3.953C62.2015 3.61251 62.9629 3.82109 63.3033 4.41729L64.9905 7.37455Z" fill="#5D95E8"/>
<path fill-rule="evenodd" clip-rule="evenodd" d="M70.5772 6.58597C70.3971 7.2484 69.7119 7.6395 69.0495 7.4594C68.3869 7.27764 67.9958 6.59239 68.1775 5.92983L69.0753 2.64457C69.2554 1.98214 69.9408 1.59269 70.6032 1.77279C71.2658 1.95456 71.6567 2.63815 71.475 3.30071L70.5772 6.58597Z" fill="#5D95E8"/>
<path fill-rule="evenodd" clip-rule="evenodd" d="M59.9657 10.6172C60.6281 10.7973 61.0192 11.4826 60.8375 12.1451C60.6574 12.8076 59.9721 13.1987 59.3096 13.0169L56.0243 12.1192C55.3619 11.9391 54.9708 11.2538 55.1525 10.5912C55.3326 9.92882 56.0179 9.53771 56.6804 9.71947L59.9657 10.6172Z" fill="#5D95E8"/>
<path fill-rule="evenodd" clip-rule="evenodd" d="M60.332 15.463C60.9282 15.1225 61.6896 15.3311 62.0301 15.9273C62.3705 16.5234 62.162 17.2848 61.5658 17.6253L58.6085 19.3124C58.0123 19.6529 57.2511 19.446 56.9106 18.8498C56.57 18.2519 56.7787 17.4922 57.3749 17.1518L60.332 15.463Z" fill="#5D95E8"/>
<path fill-rule="evenodd" clip-rule="evenodd" d="M75.1214 7.02368C75.7176 6.68319 76.4788 6.89012 76.8194 7.48797C77.1599 8.08416 76.9512 8.84383 76.355 9.18432L73.3978 10.8731C72.8016 11.2136 72.0403 11.005 71.6998 10.4088C71.3593 9.81263 71.5679 9.0513 72.1641 8.71082L75.1214 7.02368Z" fill="#5D95E8"/>
</svg>
