<svg width="100" height="100" viewBox="0 0 100 100" fill="none" xmlns="http://www.w3.org/2000/svg">
<path d="M44.4891 26.2907C32.5419 26.2907 22.9841 35.8206 22.9841 47.4947C22.9841 65.1251 42.0996 80.1347 43.0554 80.6112C43.5333 80.8494 44.0112 81.0876 44.4891 81.0876C44.967 81.0876 45.4449 80.8494 45.9227 80.6112C46.8785 79.8964 65.994 65.1251 65.994 47.4947C65.994 35.8206 56.4363 26.2907 44.4891 26.2907ZM44.4891 54.8804C40.427 54.8804 37.3208 51.7832 37.3208 47.733C37.3208 43.6828 40.427 40.5856 44.4891 40.5856C48.5511 40.5856 51.6574 43.6828 51.6574 47.733C51.6574 51.7832 48.5511 54.8804 44.4891 54.8804Z" fill="black"/>
<path d="M77.7023 89.6646L68.1446 70.6048C67.6667 69.6518 66.9499 69.1753 65.9941 69.1753H63.1267C57.3921 77.7522 50.2238 83.4701 48.7901 84.4231C47.5954 85.3761 46.1617 85.8526 44.4891 85.8526C42.8165 85.8526 41.3828 85.3761 40.1881 84.4231C38.9934 83.4701 31.5861 77.7522 25.8515 69.1753H22.9842C22.0284 69.1753 21.3116 69.6518 20.8337 70.6048L11.2759 89.6646C10.798 90.3793 11.037 91.3323 11.2759 92.0471C11.5149 92.7618 12.7096 93 13.4264 93H75.5518C76.2687 93 77.2244 92.5236 77.7023 91.8088C78.1802 91.0941 77.9413 90.3793 77.7023 89.6646Z" fill="black"/>
<path d="M93.5184 35.8617C94.6228 34.0312 94.6482 31.7477 93.5867 29.8925C92.8484 28.6035 91.9609 27.0514 91.1011 25.5511C90.2084 23.9916 88.7325 22.8499 86.9967 22.3766C85.2593 21.9034 83.4051 22.1379 81.8426 23.0279C80.9782 23.5184 80.3734 23.8637 80.3734 23.8637C79.6122 24.1012 78.9311 24.0303 78.5356 23.34C77.8332 22.11 76.7158 20.1603 75.8501 18.6466C75.5146 18.0613 74.9607 17.6332 74.3096 17.4561C73.6585 17.279 72.9641 17.3655 72.377 17.7001C71.7914 18.033 71.3621 18.5853 71.1845 19.2345C71.0053 19.8838 71.0937 20.5777 71.4292 21.1614C73.5813 24.9236 77.7362 32.1815 77.7362 32.1815C77.7362 32.1815 75.7114 31.5354 73.9067 30.961C73.1877 30.7322 72.4068 30.8057 71.7425 31.1637C71.0799 31.523 70.592 32.1374 70.3928 32.8626C70.3929 32.8642 70.3915 32.8658 70.3916 32.8674C69.9968 34.3067 70.837 35.7947 72.2757 36.2042C74.7335 36.9045 78.0479 37.847 78.0479 37.847C80.7 38.57 81.3968 38.83 82.5185 40.5874C82.9807 41.184 83.8141 41.3507 84.4724 40.9762C87.2519 39.429 93.5184 35.8617 93.5184 35.8617Z" fill="#5D95E8"/>
<path fill-rule="evenodd" clip-rule="evenodd" d="M71.6013 14.5523C71.919 15.1081 71.7259 15.8143 71.17 16.1309C70.614 16.4474 69.9042 16.255 69.5866 15.6992L68.0134 12.9497C67.6959 12.3954 67.8889 11.6876 68.4448 11.3711C69.0007 11.0545 69.7107 11.2484 70.0281 11.8028L71.6013 14.5523Z" fill="#5D95E8"/>
<path fill-rule="evenodd" clip-rule="evenodd" d="M76.8108 13.8191C76.6428 14.4349 76.0038 14.7986 75.3862 14.6311C74.7683 14.4621 74.4036 13.825 74.5731 13.209L75.4103 10.1546C75.5782 9.53866 76.2173 9.17657 76.835 9.34402C77.4528 9.51302 77.8174 10.1486 77.6479 10.7646L76.8108 13.8191Z" fill="#5D95E8"/>
<path fill-rule="evenodd" clip-rule="evenodd" d="M66.9159 17.5671C67.5336 17.7345 67.8983 18.3716 67.7288 18.9876C67.5609 19.6035 66.9219 19.9672 66.3041 19.7982L63.2407 18.9635C62.623 18.796 62.2583 18.1589 62.4278 17.5429C62.5958 16.927 63.2347 16.5634 63.8525 16.7324L66.9159 17.5671Z" fill="#5D95E8"/>
<path fill-rule="evenodd" clip-rule="evenodd" d="M67.2574 22.0724C67.8134 21.7558 68.5233 21.9497 68.8408 22.504C69.1583 23.0583 68.9638 23.7662 68.4078 24.0827L65.6503 25.6514C65.0944 25.9679 64.3846 25.7755 64.0671 25.2212C63.7495 24.6654 63.9441 23.9591 64.5 23.6425L67.2574 22.0724Z" fill="#5D95E8"/>
<path fill-rule="evenodd" clip-rule="evenodd" d="M81.048 14.226C81.6039 13.9094 82.3137 14.1018 82.6313 14.6577C82.9488 15.212 82.7542 15.9183 82.1983 16.2348L79.4408 17.805C78.8849 18.1215 78.175 17.9276 77.8575 17.3733C77.54 16.819 77.7345 16.1112 78.2904 15.7946L81.048 14.226Z" fill="#5D95E8"/>
</svg>
