<svg width="100" height="100" viewBox="0 0 100 100" fill="none" xmlns="http://www.w3.org/2000/svg">
<path d="M77.155 16.9368L80.4031 13.6452L75.5315 12L73.9081 13.6452L73.0963 12.8226L70.6611 15.2904L71.4729 16.113L69.0377 18.582L72.2846 21.8724L74.7198 19.4046L77.7027 22.4274L80.1379 19.9585L77.155 16.9368Z" fill="#5D95E8"/>
<path d="M88.1151 32.9792C88.7879 33.6611 89.8787 33.6611 90.5515 32.9792C91.2231 32.2974 91.2243 31.1932 90.5515 30.5114L84.1977 24.0725L81.7613 26.5403L88.1151 32.9792Z" fill="#5D95E8"/>
<path d="M90.8339 18.9927C91.9649 17.8455 92.2668 16.1886 91.7674 14.7552L90.0222 16.5249C89.3494 17.2067 88.2587 17.2055 87.5859 16.5249C86.9142 15.843 86.913 14.7377 87.5859 14.0559L89.3322 12.2862C87.9188 11.7789 86.2827 12.0861 85.1507 13.2321C84.0197 14.3794 83.7166 16.0362 84.2172 17.4708L80.9496 20.781L78.5144 23.2489L71.35 30.5104C70.6772 31.1922 70.6772 32.2964 71.35 32.9782C72.0217 33.66 73.1124 33.66 73.7852 32.9782L80.9496 25.7167L83.386 23.2489L86.6524 19.9387C88.0669 20.4459 89.7019 20.1399 90.8339 18.9927Z" fill="#5D95E8"/>
<path fill-rule="evenodd" clip-rule="evenodd" d="M51.3412 55.6676C59.9992 55.6676 67.0118 48.5611 67.0118 39.7871C67.0118 31.0131 59.9992 23.9066 51.3412 23.9066C42.6832 23.9066 35.6706 31.0131 35.6706 39.7871C35.6706 48.5611 42.6832 55.6676 51.3412 55.6676ZM51.3412 63.6078C40.8811 63.6078 20 68.9278 20 79.4883V83.4584C20 85.642 21.7629 87.4286 23.9176 87.4286H78.7647C80.9194 87.4286 82.6823 85.642 82.6823 83.4584V79.4883C82.6823 68.9278 61.8013 63.6078 51.3412 63.6078Z" fill="black"/>
</svg>
