<svg width="100" height="100" viewBox="0 0 100 100" fill="none" xmlns="http://www.w3.org/2000/svg">
<path d="M59.9241 42.5529C52.2473 42.5529 46.1059 48.6943 46.1059 56.2176C46.1059 67.5792 58.3888 77.252 59.0029 77.5591C59.31 77.7126 59.617 77.8661 59.9241 77.8661C60.2312 77.8661 60.5383 77.7126 60.8453 77.5591C61.4595 77.0985 73.7423 67.5792 73.7423 56.2176C73.7423 48.6943 67.6009 42.5529 59.9241 42.5529ZM59.9241 60.9772C57.314 60.9772 55.318 58.9812 55.318 56.3711C55.318 53.761 57.314 51.7651 59.9241 51.7651C62.5342 51.7651 64.5302 53.761 64.5302 56.3711C64.5302 58.9812 62.5342 60.9772 59.9241 60.9772Z" fill="#5D95E8"/>
<path fill-rule="evenodd" clip-rule="evenodd" d="M87.0941 70.6667H80.3583V78.1111H87.0941V70.6667ZM87.0941 55.7778H80.3583V63.2222H87.0941V55.7778ZM87.0941 85.5556H80.3583V93C83.7262 93 87.0941 89.2778 87.0941 85.5556ZM60.1508 26H53.415V33.4444H60.1508V26ZM87.0941 40.8889H80.3583V48.3333H87.0941V40.8889ZM80.3583 26V33.4444H87.0941C87.0941 29.7222 83.7262 26 80.3583 26ZM19.7358 93H46.6791V78.1111C46.6791 74.0167 43.648 70.6667 39.9433 70.6667H13V85.5556C13 89.65 16.0311 93 19.7358 93ZM19.7358 40.8889H13V48.3333H19.7358V40.8889ZM60.1508 85.5556H53.415V93H60.1508V85.5556ZM73.6225 26H66.8866V33.4444H73.6225V26ZM73.6225 85.5556H66.8866V93H73.6225V85.5556ZM19.7358 26C16.3679 26 13 29.7222 13 33.4444H19.7358V26ZM19.7358 55.7778H13V63.2222H19.7358V55.7778ZM46.6791 26H39.9433V33.4444H46.6791V26ZM33.2075 26H26.4717V33.4444H33.2075V26Z" fill="black"/>
</svg>
