<svg width="94" height="85" viewBox="0 0 94 85" fill="none" xmlns="http://www.w3.org/2000/svg">
<path d="M59.5306 21C49.7914 21 42 28.7914 42 38.3358C42 52.7498 57.5827 65.0212 58.3619 65.4108C58.7514 65.6056 59.141 65.8004 59.5306 65.8004C59.9201 65.8004 60.3097 65.6056 60.6993 65.4108C61.4784 64.8264 77.0611 52.7498 77.0611 38.3358C77.0611 28.7914 69.2698 21 59.5306 21ZM59.5306 44.3741C56.2192 44.3741 53.687 41.8419 53.687 38.5306C53.687 35.2192 56.2192 32.687 59.5306 32.687C62.8419 32.687 65.3741 35.2192 65.3741 38.5306C65.3741 41.8419 62.8419 44.3741 59.5306 44.3741Z" fill="#5D95E8"/>
<path fill-rule="evenodd" clip-rule="evenodd" d="M94 56.6667H85.4545V66.1111H94V56.6667ZM94 37.7778H85.4545V47.2222H94V37.7778ZM94 75.5555H85.4545V85C89.7273 85 94 80.2778 94 75.5555ZM59.8182 0H51.2727V9.44444H59.8182V0ZM94 18.8889H85.4545V28.3333H94V18.8889ZM85.4545 0V9.44444H94C94 4.72222 89.7273 0 85.4545 0ZM8.54545 85H42.7273V66.1111C42.7273 60.9167 38.8818 56.6667 34.1818 56.6667H0V75.5555C0 80.75 3.84545 85 8.54545 85ZM8.54545 18.8889H0V28.3333H8.54545V18.8889ZM59.8182 75.5555H51.2727V85H59.8182V75.5555ZM76.9091 0H68.3636V9.44444H76.9091V0ZM76.9091 75.5555H68.3636V85H76.9091V75.5555ZM8.54545 0C4.27273 0 0 4.72222 0 9.44444H8.54545V0ZM8.54545 37.7778H0V47.2222H8.54545V37.7778ZM42.7273 0H34.1818V9.44444H42.7273V0ZM25.6364 0H17.0909V9.44444H25.6364V0Z" fill="black"/>
</svg>
