<?xml version="1.0" encoding="utf-8"?>
<!-- Generator: Adobe Illustrator 16.0.3, SVG Export Plug-In . SVG Version: 6.00 Build 0)  -->
<!DOCTYPE svg PUBLIC "-//W3C//DTD SVG 1.1//EN" "http://www.w3.org/Graphics/SVG/1.1/DTD/svg11.dtd">
<svg version="1.1" xmlns="http://www.w3.org/2000/svg" xmlns:xlink="http://www.w3.org/1999/xlink" x="0px" y="0px"
	 width="828.982px" height="428.207px" viewBox="0 0 828.982 428.207" enable-background="new 0 0 828.982 428.207"
	 xml:space="preserve">
<g id="Ebene_1">
	<g>
		<path fill="#2A2A2A" d="M85.617,362.851c2.742,3.463,4.113,7.434,4.113,11.908c0,4.041-0.992,7.596-2.977,10.662
			c-1.985,3.068-4.854,5.467-8.606,7.199c-3.753,1.73-8.191,2.598-13.314,2.598H32.25V319.66h31.176
			c5.123,0,9.543,0.83,13.261,2.488c3.716,1.662,6.53,3.971,8.443,6.928c1.911,2.961,2.869,6.316,2.869,10.068
			c0,4.402-1.174,8.084-3.519,11.041c-2.346,2.961-5.467,5.053-9.363,6.279C79.374,357.259,82.874,359.386,85.617,362.851z
			 M47.404,350.835h13.856c3.607,0,6.387-0.813,8.335-2.436c1.949-1.625,2.923-3.951,2.923-6.982s-0.974-5.375-2.923-7.037
			c-1.948-1.658-4.728-2.49-8.335-2.49H47.404V350.835z M71.274,380.279c2.057-1.732,3.085-4.184,3.085-7.361
			c0-3.246-1.083-5.791-3.248-7.631s-5.088-2.76-8.768-2.76H47.404v20.35h15.264C66.349,382.876,69.217,382.011,71.274,380.279z"/>
		<path fill="#2A2A2A" d="M117.442,390.996c-5.919-3.318-10.608-7.918-14.073-13.801c-3.464-5.883-5.195-12.539-5.195-19.973
			c0-7.361,1.731-13.982,5.195-19.865c3.465-5.881,8.154-10.48,14.073-13.801c5.916-3.318,12.411-4.98,19.485-4.98
			c7.145,0,13.656,1.662,19.539,4.98c5.881,3.32,10.535,7.92,13.964,13.801c3.427,5.883,5.143,12.504,5.143,19.865
			c0,7.434-1.716,14.09-5.143,19.973c-3.429,5.883-8.102,10.482-14.019,13.801c-5.918,3.32-12.413,4.98-19.484,4.98
			C129.854,395.976,123.358,394.316,117.442,390.996z M148.943,379.359c3.464-2.057,6.17-4.996,8.118-8.822
			c1.949-3.824,2.923-8.262,2.923-13.314c0-5.051-0.974-9.473-2.923-13.262c-1.948-3.789-4.654-6.691-8.118-8.713
			c-3.464-2.02-7.47-3.031-12.016-3.031c-4.547,0-8.571,1.012-12.07,3.031c-3.501,2.021-6.225,4.924-8.173,8.713
			s-2.923,8.211-2.923,13.262c0,5.053,0.975,9.49,2.923,13.314c1.948,3.826,4.672,6.766,8.173,8.822
			c3.499,2.057,7.523,3.086,12.07,3.086C141.474,382.445,145.479,381.416,148.943,379.359z"/>
		<path fill="#2A2A2A" d="M239.439,342.392c-1.732-3.176-4.113-5.592-7.145-7.254c-3.031-1.658-6.567-2.49-10.608-2.49
			c-4.476,0-8.443,1.012-11.907,3.031c-3.465,2.021-6.171,4.908-8.119,8.66c-1.948,3.754-2.923,8.084-2.923,12.99
			c0,5.053,0.991,9.455,2.977,13.207c1.984,3.754,4.745,6.641,8.281,8.66c3.535,2.021,7.648,3.031,12.341,3.031
			c5.772,0,10.5-1.533,14.181-4.602c3.681-3.066,6.098-7.342,7.253-12.828h-25.98v-11.582h40.919v13.207
			c-1.012,5.268-3.177,10.141-6.495,14.613c-3.32,4.477-7.596,8.064-12.827,10.771c-5.233,2.705-11.096,4.059-17.591,4.059
			c-7.29,0-13.875-1.641-19.756-4.926c-5.883-3.281-10.501-7.848-13.856-13.693s-5.033-12.484-5.033-19.918
			c0-7.432,1.678-14.09,5.033-19.973c3.355-5.881,7.974-10.463,13.856-13.746c5.881-3.283,12.43-4.926,19.647-4.926
			c8.515,0,15.913,2.074,22.191,6.225s10.608,9.977,12.99,17.482H239.439z"/>
		<path fill="#2A2A2A" d="M285.12,331.89v18.945h25.439v12.016H285.12v20.025h28.687v12.342h-43.841V319.55h43.841v12.34H285.12z"/>
		<path fill="#2A2A2A" d="M392.18,395.218h-15.155l-34.315-51.854v51.854h-15.154V319.55h15.154l34.315,51.961V319.55h15.155
			V395.218z"/>
		<path fill="#2A2A2A" d="M422.271,383.203h24.898v12.016h-40.053V319.66h15.154V383.203z"/>
		<path fill="#2A2A2A" d="M471.959,319.66v75.559h-15.154V319.66H471.959z"/>
		<path fill="#2A2A2A" d="M539.508,342.392c-1.732-3.176-4.113-5.592-7.145-7.254c-3.031-1.658-6.567-2.49-10.608-2.49
			c-4.476,0-8.443,1.012-11.907,3.031c-3.465,2.021-6.171,4.908-8.119,8.66c-1.948,3.754-2.923,8.084-2.923,12.99
			c0,5.053,0.991,9.455,2.977,13.207c1.984,3.754,4.745,6.641,8.281,8.66c3.535,2.021,7.648,3.031,12.341,3.031
			c5.772,0,10.5-1.533,14.181-4.602c3.681-3.066,6.098-7.342,7.253-12.828h-25.98v-11.582h40.919v13.207
			c-1.012,5.268-3.177,10.141-6.495,14.613c-3.32,4.477-7.596,8.064-12.827,10.771c-5.233,2.705-11.096,4.059-17.591,4.059
			c-7.29,0-13.875-1.641-19.756-4.926c-5.883-3.281-10.501-7.848-13.856-13.693s-5.033-12.484-5.033-19.918
			c0-7.432,1.678-14.09,5.033-19.973c3.355-5.881,7.974-10.463,13.856-13.746c5.881-3.283,12.43-4.926,19.647-4.926
			c8.515,0,15.913,2.074,22.191,6.225s10.608,9.977,12.99,17.482H539.508z"/>
		<path fill="#2A2A2A" d="M616.365,380.82h-30.094l-4.979,14.398h-15.913l27.171-75.668h17.645l27.172,75.668h-16.021
			L616.365,380.82z M612.252,368.697l-10.934-31.609l-10.934,31.609H612.252z"/>
		<path fill="#2A2A2A" d="M647.485,393.431c-1.77-1.693-2.652-3.805-2.652-6.332c0-2.525,0.883-4.637,2.652-6.332
			c1.768-1.695,4.022-2.545,6.766-2.545c2.669,0,4.871,0.85,6.604,2.545s2.598,3.807,2.598,6.332c0,2.527-0.865,4.639-2.598,6.332
			c-1.732,1.697-3.935,2.545-6.604,2.545C651.508,395.976,649.253,395.128,647.485,393.431z"/>
		<path fill="#2A2A2A" d="M723.044,324.314c6.024,3.104,10.68,7.523,13.964,13.26c3.283,5.738,4.926,12.395,4.926,19.973
			s-1.643,14.199-4.926,19.863c-3.284,5.668-7.939,10.051-13.964,13.154c-6.026,3.104-13.009,4.654-20.946,4.654h-26.413V319.66
			h26.413C710.035,319.66,717.018,321.212,723.044,324.314z M719.959,375.841c4.33-4.33,6.495-10.428,6.495-18.295
			c0-7.865-2.165-14.018-6.495-18.457c-4.33-4.438-10.465-6.656-18.403-6.656h-10.717v49.902h10.717
			C709.494,382.335,715.629,380.171,719.959,375.841z"/>
		<path fill="#2A2A2A" d="M768.454,331.89v18.945h25.439v12.016h-25.439v20.025h28.687v12.342H753.3V319.55h43.841v12.34H768.454z"
			/>
	</g>
	<g>
		<g>
			<g>
				<path fill="#2A2A2A" d="M541.309,32.798l-51.436,20.915c-0.201,0.08-0.336,0.279-0.336,0.498
					c0.002,0.217,0.135,0.415,0.338,0.494l15.072,6.084L404.226,161.511c-0.212,0.211-0.212,0.549-0.003,0.758l8.619,8.619
					c0.211,0.209,0.545,0.209,0.76,0l100.588-100.59l5.908,14.634c0.082,0.201,0.278,0.336,0.494,0.336
					c0.146-0.002,0.283-0.061,0.381-0.158c0.051-0.048,0.092-0.109,0.117-0.178l20.914-51.437c0.084-0.201,0.033-0.426-0.115-0.58
					C541.736,32.764,541.508,32.718,541.309,32.798z"/>
				<path fill="#2A2A2A" d="M504.396,82.012c-0.365-0.402-0.73-0.801-1.104-1.229l-4.232-4.705c-0.24-0.248-0.422-0.441-0.572-0.578
					c-0.008-0.01-0.015-0.021-0.021-0.027l-0.004,0.003c-0.016-0.009-0.021-0.016-0.03-0.022l0.005-0.006
					c-0.005-0.006-0.074-0.071-0.074-0.076l-5.191-4.658c-0.414-0.363-0.826-0.732-1.24-1.1c-1.359-1.223-2.766-2.482-4.314-3.526
					c-0.748-0.542-1.494-1.091-2.246-1.636c-3.074-2.258-6.261-4.592-9.689-6.422c-0.619-0.355-1.236-0.719-1.854-1.08
					c-1.426-0.834-2.896-1.701-4.412-2.489l-9.806-4.374c-0.752-0.292-1.522-0.543-2.286-0.798c-0.364-0.12-0.727-0.242-1.092-0.367
					l-6.73-2.237c-1.514-0.471-3.072-0.816-4.582-1.148c-0.768-0.17-1.535-0.342-2.301-0.528l-5.18-1.163l-1.744-0.216
					c-1.098-0.123-2.193-0.261-3.287-0.398c-3.459-0.437-7.035-0.889-10.57-0.84l-6.902-0.134l-6.77,0.477
					c-3.324,0.108-6.598,0.716-9.759,1.306c-1.2,0.226-2.401,0.449-3.585,0.644c-1.549,0.215-3.055,0.646-4.512,1.067
					c-0.655,0.187-1.314,0.377-1.982,0.548l-6.347,1.805l-6.06,2.344c-0.585,0.246-1.178,0.479-1.77,0.709
					c-1.387,0.543-2.824,1.105-4.14,1.848l-8.437,4.377l-2.623,1.689c-0.707,0.469-1.416,0.922-2.121,1.377
					c-2.687,1.728-5.467,3.514-8.049,5.783c-1.615,1.333-3.211,2.65-4.811,3.965l-1.207,1.014l-7.779,7.867l-2.688,3.24
					c-1.839,2.104-3.447,4.367-4.998,6.557c-0.539,0.754-1.068,1.5-1.627,2.268l-2.801,4.494c-1.031,1.566-1.881,3.191-2.567,4.563
					c-3.675,6.693-6.095,13.507-7.606,18.074c-1.482,5.183-3.084,11.263-3.723,17.056c-1.247,9.391-1.188,18.759,0.165,27.821
					c0.343,2.914,0.958,5.553,1.495,7.883c0.164,0.719,0.33,1.408,0.483,2.119c0.265,0.889,0.513,1.736,0.749,2.537
					c0.516,1.768,0.967,3.293,1.414,4.613l2.191,5.699c0.094,0.25,0.361,0.391,0.619,0.33c0.261-0.059,0.439-0.305,0.408-0.57
					l-0.563-6.072c-0.103-1.271-0.155-2.705-0.209-4.365c-0.03-0.891-0.063-1.828-0.106-2.766c0.043-0.982,0.059-2.01,0.072-3.084
					c0.035-2.074,0.066-4.215,0.307-6.568c0.66-8.598,2.309-16.983,4.912-24.927c1.295-4.173,3.18-8.808,5.764-14.146
					c2.412-4.484,5.149-9.568,8.758-14.239c0.898-1.275,1.762-2.4,2.658-3.449l2.8-3.418c0.63-0.651,1.252-1.319,1.872-1.987
					c1.324-1.424,2.691-2.896,4.186-4.233l0.328-0.287l2.193-2.047c0.012-0.008,0.02-0.019,0.033-0.025l0.003-0.002
					c0.005-0.002,0.009-0.006,0.013-0.008c0.014-0.01,0.029-0.021,0.044-0.031l7.987-6.479l4.858-3.062
					c1.686-1.201,3.679-2.234,5.788-3.328c0.848-0.438,1.699-0.88,2.526-1.328l2.134-1.139l6.99-2.828
					c0.984-0.465,2.031-0.758,3.138-1.066c0.534-0.148,1.074-0.299,1.595-0.467l4.815-1.482l5.015-1.019
					c0.576-0.1,1.146-0.226,1.719-0.353c1.076-0.235,2.188-0.479,3.316-0.535c1.07-0.09,2.139-0.209,3.203-0.329
					c2.328-0.262,4.734-0.534,7.154-0.466l5.201-0.119l5.295,0.404c2.429,0.061,4.891,0.502,7.268,0.932
					c1.057,0.189,2.113,0.381,3.192,0.543c1.089,0.125,2.134,0.424,3.244,0.736c0.626,0.178,1.253,0.354,1.857,0.492
					c0.634,0.178,1.271,0.338,1.908,0.492c1.066,0.266,2.173,0.539,3.21,0.91l5.029,1.856c0.332,0.124,0.662,0.243,0.99,0.36
					c0.508,0.182,1.017,0.359,1.486,0.556l7.248,3.511c0.93,0.511,1.834,1.061,2.744,1.612c0.625,0.38,1.256,0.762,1.904,1.139
					c2.314,1.225,4.461,2.837,6.539,4.396c0.762,0.572,1.524,1.144,2.314,1.715c1.068,0.698,1.985,1.559,2.963,2.469
					c0.363,0.338,0.725,0.676,1.09,1.002l3.523,3.193l4.215,4.539c0.349,0.391,0.717,0.789,1.088,1.189
					c1.043,1.125,2.117,2.291,2.678,3.21c0.582,0.837,1.188,1.646,1.797,2.458c1.352,1.803,2.744,3.666,3.969,5.938
					c0.361,0.619,0.736,1.232,1.113,1.846c0.551,0.904,1.129,1.839,1.627,2.751l2.339,4.854l1.181,2.386
					c0.215,0.514,0.4,1.036,0.59,1.557c0.115,0.313,0.225,0.626,0.344,0.935l1.873,5.025c0.366,1.02,0.637,2.104,0.902,3.148
					c0.16,0.66,0.326,1.318,0.514,1.96l1.025,3.816l0.207,1.312c0.162,1.057,0.357,2.107,0.551,3.16
					c0.437,2.38,0.883,4.841,0.957,7.303l0.416,5.213l-0.102,5.273c0.068,2.375-0.193,4.762-0.445,7.072
					c-0.119,1.084-0.236,2.17-0.326,3.279c-0.049,1.109-0.283,2.174-0.527,3.299c-0.123,0.568-0.246,1.141-0.342,1.703l-0.99,4.977
					l-1.487,4.859c-0.169,0.531-0.321,1.074-0.468,1.617c-0.309,1.105-0.598,2.148-1.07,3.164
					c-2.479,6.578-5.404,12.498-8.682,17.594l-2.611,4.092c-0.361,0.619-0.801,1.229-1.355,1.877l-5.066,6.369
					c-0.006,0.014-0.02,0.027-0.025,0.037c-0.023,0.033-0.047,0.07-0.068,0.107l-0.615,0.645c-0.582,0.623-1.17,1.252-1.762,1.883
					c-1.617,1.814-3.049,3.156-4.434,4.451c-0.678,0.633-1.344,1.256-1.984,1.893c-0.766,0.613-1.516,1.242-2.262,1.867
					c-1.49,1.252-3.031,2.543-4.641,3.652c-4.684,3.648-9.734,6.381-14.164,8.779c-5.375,2.613-9.998,4.518-14.152,5.818
					c-7.923,2.623-16.299,4.303-24.916,4.992c-2.318,0.248-4.449,0.285-6.514,0.324c-1.086,0.023-2.126,0.039-3.078,0.09
					c-0.926-0.033-1.809-0.064-2.648-0.092c-1.742-0.053-3.239-0.104-4.545-0.199l-6.058-0.545
					c-0.269-0.023-0.513,0.154-0.571,0.416c-0.058,0.26,0.086,0.525,0.336,0.619c0,0,1.992,0.756,5.74,2.186
					c1.307,0.441,2.82,0.883,4.575,1.391c0.801,0.234,1.647,0.48,2.584,0.758c0.651,0.139,1.325,0.295,2.022,0.455
					c2.352,0.539,5.01,1.152,7.933,1.492c9.073,1.337,18.44,1.37,27.832,0.105c5.862-0.67,11.916-2.285,17.085-3.781
					c4.949-1.658,11.473-4.023,18.031-7.641l2.307-1.203c0.494-0.285,0.98-0.588,1.469-0.896c0.258-0.16,0.514-0.32,0.775-0.48
					l4.537-2.85c0.586-0.426,1.188-0.859,1.795-1.299c2.482-1.795,5.051-3.646,6.988-5.33l2.98-2.465
					c0.004-0.004,0.008-0.008,0.012-0.01c0.004-0.006,0.01-0.014,0.02-0.02l7.359-7.357c0.771-0.738,1.43-1.471,2.016-2.227
					l3.773-4.625c10.752-13.77,18.113-29.648,21.291-45.936c0.191-1.168,0.402-2.336,0.619-3.506c0.586-3.193,1.191-6.5,1.283-9.832
					l0.459-6.848l-0.152-6.844c0.035-3.541-0.422-7.116-0.871-10.568c-0.139-1.098-0.281-2.199-0.412-3.313l-0.244-1.778
					l-1.166-5.138c-0.184-0.748-0.352-1.504-0.523-2.26c-0.34-1.52-0.697-3.091-1.18-4.619l-2.251-6.723
					c-0.142-0.403-0.278-0.811-0.417-1.221c-0.242-0.72-0.482-1.44-0.762-2.173l-4.424-9.791c-0.758-1.449-1.605-2.877-2.424-4.261
					c-0.383-0.654-0.773-1.308-1.143-1.952c-1.938-3.622-4.662-7.277-7.299-10.813l-1.168-1.566
					C506.482,84.309,505.424,83.143,504.396,82.012z"/>
				<path fill="#F40E0E" d="M461.488,114.179c-0.004-0.009-0.014-0.015-0.018-0.021l0.004-0.004
					c-0.008-0.006-0.092-0.086-0.102-0.093l-2.936-2.757c-0.656-0.609-1.336-1.24-2.078-1.77l-0.434-0.332
					c-1.676-1.281-3.406-2.611-5.283-3.658l-0.867-0.517c-0.7-0.426-1.406-0.849-2.156-1.253l-3.102-1.438
					c-1.48-0.74-3.049-1.264-4.57-1.769c-0.629-0.206-1.256-0.417-1.914-0.653c-2.338-0.632-4.449-1.188-6.64-1.539
					c-0.472-0.055-0.946-0.117-1.415-0.178c-1.717-0.223-3.49-0.455-5.244-0.443c-1.096-0.021-2.186-0.043-3.322-0.068l-3.232,0.21
					c-1.648,0.056-3.264,0.362-4.821,0.659c-0.531,0.1-1.054,0.201-1.597,0.292c-1.555,0.317-3.07,0.766-4.536,1.2
					c-0.522,0.154-1.036,0.307-1.598,0.469l-1.112,0.43c-1.528,0.59-3.104,1.197-4.598,1.959c-0.556,0.313-1.119,0.602-1.684,0.893
					c-1.191,0.617-2.428,1.254-3.53,2.049l-0.859,0.57c-1.364,0.9-2.65,1.75-3.978,2.941l-2.91,2.512l-3.035,3.289
					c-0.256,0.237-0.354,0.329-0.378,0.352c-0.038,0.037-0.069,0.079-0.093,0.123c-0.006,0.01-0.018,0.02-0.019,0.023l-4.095,5.646
					c-0.838,1.479-1.619,2.937-2.32,4.334c-0.114,0.237-0.236,0.469-0.354,0.699c-0.245,0.474-0.481,0.942-0.696,1.451l-1.082,3.016
					c-0.406,1.141-0.788,2.219-1.113,3.363l-1.137,5.971c-0.076,0.455-0.088,0.903-0.104,1.337
					c-0.004,0.202-0.013,0.405-0.025,0.624c-0.017,0.605-0.046,1.197-0.071,1.775c-0.082,1.808-0.162,3.515,0.115,5.139
					c0.076,0.574,0.133,1.131,0.188,1.67c0.15,1.432,0.287,2.781,0.696,4.045c0.422,1.684,0.838,3.168,1.251,4.473l1.316,2.93
					c0.73,1.604,1.164,2.447,1.164,2.447c0.11,0.211,0.341,0.324,0.57,0.285c0.232-0.043,0.408-0.229,0.439-0.461
					c0,0,0.113-0.945,0.246-2.707l0.209-3.123c0.271-1.223,0.539-2.584,0.822-4.071c0.124-0.931,0.456-1.975,0.811-3.083
					c0.168-0.526,0.34-1.065,0.499-1.626c0.306-1.231,0.862-2.482,1.454-3.809c0.203-0.459,0.41-0.924,0.617-1.412
					c0.334-0.883,0.842-1.748,1.38-2.641l1.354-2.34l3.169-4.31c0.15-0.176,0.316-0.345,0.482-0.513l0.484-0.48l0.203-0.209
					l0.219-0.213c0.448-0.448,0.877-0.908,1.313-1.37c0.291-0.308,0.581-0.618,0.829-0.882l3.386-2.708
					c0.033-0.015,0.068-0.034,0.102-0.056l3.635-2.525l1.879-0.871c0.516-0.285,1.201-0.565,1.918-0.859
					c0.434-0.178,0.874-0.358,1.313-0.557c0.637-0.32,1.341-0.518,2.083-0.729c0.475-0.133,0.944-0.267,1.37-0.422
					c0.604-0.175,1.248-0.305,1.871-0.43c0.607-0.121,1.213-0.245,1.71-0.391c0.517-0.049,1.031-0.118,1.541-0.191
					c0.757-0.105,1.479-0.204,2.198-0.23c0.426-0.003,0.854-0.02,1.279-0.033c0.861-0.031,1.67-0.061,2.531,0.021l1.859,0.061
					l1.92,0.275c2.57,0.324,5.048,1.107,7.332,1.866c2.104,0.869,4.555,1.962,6.787,3.534c0.705,0.395,1.334,0.9,2,1.436
					c0.346,0.281,0.695,0.561,1.076,0.838c0.338,0.227,0.636,0.525,0.953,0.84c0.139,0.138,0.28,0.277,0.422,0.406l1.318,1.235
					l1.842,2.108c0.353,0.395,0.883,0.992,0.998,1.245c0.227,0.374,0.469,0.71,0.727,1.055c0.365,0.496,0.744,1.009,1.124,1.743
					c0.146,0.251,0.296,0.496,0.444,0.744c0.188,0.298,0.369,0.598,0.518,0.869c0.236,0.525,0.494,1.045,0.75,1.566l0.117,0.225
					c0.378,0.649,0.623,1.354,0.888,2.099c0.169,0.478,0.337,0.956,0.519,1.356c0.68,2.352,1.344,4.883,1.58,7.441l0.197,1.859
					l-0.014,1.949c0.043,0.815-0.018,1.614-0.082,2.459c-0.032,0.436-0.066,0.873-0.084,1.287
					c-0.443,4.746-1.943,9.453-4.458,13.994l-0.339,0.609c-0.49,0.877-0.951,1.711-1.553,2.471l-1.314,1.867
					c-0.032,0.045-0.057,0.094-0.072,0.145L441.072,183l-0.675,0.58c-0.577,0.492-1.122,0.959-1.654,1.488
					c-0.149,0.137-0.297,0.283-0.444,0.428c-0.215,0.211-0.432,0.424-0.644,0.596l-0.192,0.135
					c-0.404,0.273-0.797,0.541-1.188,0.813c-0.933,0.645-1.839,1.275-2.663,1.855l-2.813,1.492
					c-0.998,0.553-1.832,0.979-2.697,1.271c-0.471,0.182-0.939,0.367-1.406,0.555c-1.35,0.543-2.621,1.051-3.889,1.314
					c-0.535,0.131-1.067,0.279-1.581,0.422c-1.136,0.316-2.203,0.615-3.224,0.705c-1.507,0.217-2.891,0.428-4.053,0.637
					l-5.804,0.262c-0.237,0.014-0.437,0.182-0.493,0.41c-0.059,0.232,0.043,0.471,0.252,0.59c0.031,0.021,0.825,0.479,2.406,1.271
					l3.023,1.477c1.158,0.416,2.564,0.871,4.27,1.377c1.24,0.469,2.587,0.662,4.01,0.867c0.539,0.076,1.096,0.158,1.645,0.25
					c1.619,0.348,3.314,0.336,5.102,0.328c0.598-0.006,1.206-0.01,1.853,0c0.204-0.006,0.411-0.004,0.615-0.004
					c0.434,0.004,0.882,0.01,1.339-0.051l6.051-0.908c1.045-0.252,2.068-0.57,3.148-0.906l3.301-1.031
					c0.525-0.203,1.064-0.459,1.605-0.717l0.695-0.326c1.35-0.631,2.883-1.41,4.732-2.41c1.197-0.764,2.416-1.539,3.65-2.334
					l1.35-0.865c0.018-0.014,0.072-0.059,0.092-0.072l-0.003-0.004c0.011-0.012,0.024-0.018,0.036-0.027h0.002
					c0-0.002,0.008-0.008,0.01-0.01c0.113-0.096,0.248-0.217,0.408-0.357l2.51-2.201c0.523-0.43,1.055-0.92,1.631-1.496
					c0.68-0.68,1.334-1.395,2-2.119l0.34-0.371c5.49-6.23,9.381-13.609,11.257-21.35c0.112-0.527,0.231-1.057,0.354-1.586
					c0.358-1.543,0.727-3.143,0.84-4.771l0.338-3.278l0.059-3.265c0.08-1.769-0.078-3.552-0.23-5.274
					c-0.043-0.473-0.086-0.951-0.125-1.453c-0.297-2.256-0.795-4.535-1.301-6.707c-0.194-0.615-0.375-1.24-0.555-1.863
					c-0.449-1.549-0.91-3.15-1.592-4.658l-1.342-3.198c-0.361-0.733-0.754-1.45-1.15-2.167l-0.477-0.875
					c-1.013-2.017-2.574-4.209-4.086-6.277c-0.627-0.889-1.063-1.395-1.49-1.88c-0.154-0.179-0.307-0.354-0.475-0.558l-1.775-2.058
					c-0.211-0.227-0.352-0.383-0.457-0.487c-0.01-0.012-0.018-0.022-0.029-0.034V114.179z"/>
				<g>
					<path fill="#FFCC34" d="M391.934,166.193c4.656,14.008,19.789,21.588,33.797,16.934c14.013-4.662,21.59-19.793,16.934-33.801
						c-4.654-14.006-19.783-21.589-33.797-16.93C394.859,137.05,387.274,152.188,391.934,166.193z"/>
				</g>
				<path fill="#2A2A2A" d="M409.009,156.728l-66.989,66.984l-20.035-1.814c-0.131,0.008-0.255,0.063-0.35,0.154l-34.438,34.438
					c-0.14,0.145-0.191,0.361-0.125,0.553c0.066,0.193,0.237,0.334,0.44,0.357l19.267,4.117l5.479,1.336l1.344,5.499l4.113,19.25
					c0.024,0.203,0.164,0.377,0.356,0.441c0.19,0.066,0.406,0.016,0.554-0.129l34.437-34.437c0.095-0.096,0.149-0.217,0.153-0.35
					l-1.816-20.039l66.986-66.984c0.036-0.035,0.066-0.076,0.09-0.117c2.03-2.164,1.643-5.926-0.898-8.465
					C414.996,154.939,411.152,154.585,409.009,156.728z"/>
			</g>
			<g>
				<path fill="#487AF5" d="M487.629,137.854c-0.254,0.058-0.432,0.295-0.414,0.557c0,0,0.104,1.514,0.279,4.349
					c0.053,0.934,0.064,2.009,0.076,3.254c0.004,0.6,0.008,1.229,0.02,1.843c-0.049,0.716-0.082,1.466-0.113,2.249
					c-0.059,1.459-0.119,2.971-0.331,4.623c-0.616,6.104-1.921,12.014-3.871,17.573c-2.485,7.219-6.048,13.865-10.603,19.771
					c-0.77,1.086-1.68,2.145-2.563,3.166c-0.457,0.529-0.914,1.059-1.316,1.555l-0.313,0.309c-0.388,0.389-0.756,0.77-1.129,1.156
					c-0.375,0.389-0.756,0.783-1.164,1.191c-0.658,0.656-1.268,1.229-1.932,1.813l-1.785,1.645c-0.045,0.023-0.084,0.047-0.117,0.08
					c-0.02,0.01-0.035,0.021-0.055,0.035l-3.131,2.424c-1.389,1.191-3.012,2.197-4.586,3.17l-0.885,0.549
					c-8.175,4.984-17.146,8.168-25.922,9.209c-0.775,0.053-1.55,0.133-2.324,0.211c-1.58,0.164-3.215,0.332-4.857,0.273
					l-3.584,0.063l-3.651-0.305c-5.308-0.408-10.434-1.773-14.269-2.904l-3.477-1.309c-0.205-0.076-0.416-0.154-0.625-0.229
					c-0.365-0.133-0.734-0.264-1.063-0.4l-4.996-2.438c-0.646-0.354-1.278-0.74-1.909-1.127c-0.426-0.26-0.852-0.52-1.298-0.781
					c-1.054-0.559-1.961-1.172-2.817-1.787l-18.462,18.459c2.659,1.979,5.412,4.012,8.081,5.428l1.229,0.717
					c1.086,0.635,2.208,1.293,3.373,1.9l7.186,3.197c0.541,0.207,1.093,0.391,1.643,0.572l5.771,1.9
					c1.109,0.35,2.257,0.604,3.365,0.846c0.559,0.121,1.117,0.248,1.697,0.385c0.572,0.113,1.139,0.244,1.705,0.379
					c1.092,0.258,2.217,0.523,3.359,0.623c0.794,0.088,1.584,0.184,2.375,0.281c2.549,0.309,5.182,0.629,7.775,0.588l0.685,0.01
					c1.448,0.023,2.893,0.047,4.382,0.064l4.941-0.361c2.468-0.09,4.887-0.553,7.227-1c0.852-0.164,1.695-0.326,2.56-0.471
					c11.884-2.42,23.437-7.908,33.421-15.881l0.576-0.479c1.654-1.365,3.366-2.779,4.888-4.301c0.331-0.334,0.655-0.672,0.958-1.004
					l3.867-3.975l1.723-2.148c1.248-1.484,2.674-3.516,4.051-5.48l0.717-1.021c0.387-0.65,0.781-1.289,1.174-1.92
					c0.988-1.59,1.916-3.092,2.664-4.707c2.003-3.775,3.703-7.965,5.356-13.213c1.021-3.785,2.116-8.221,2.509-12.404
					c0.789-6.828,0.625-13.602-0.492-20.11c-0.304-2.156-0.803-4.091-1.242-5.802c-0.119-0.465-0.236-0.913-0.354-1.388
					l-0.564-1.754c-0.408-1.275-0.762-2.373-1.115-3.342l-1.685-4.061C488.146,137.929,487.885,137.795,487.629,137.854z"/>
				<path fill="#487AF5" d="M367.355,192.324c-3.646-5.125-6.619-10.848-8.73-16.932c-1.242-4.17-2.566-9.129-2.965-14.303
					l-0.309-3.604l0.046-3.667c-0.065-1.634,0.103-3.284,0.261-4.878c0.076-0.761,0.152-1.517,0.204-2.26
					c0.155-1.479,0.456-2.967,0.743-4.404c0.174-0.866,0.348-1.732,0.479-2.541l0.998-3.389c0.113-0.375,0.217-0.754,0.316-1.135
					c0.199-0.764,0.387-1.486,0.708-2.186l1.866-4.824l0.785-1.531c0.317-0.602,0.625-1.219,0.93-1.833
					c0.733-1.456,1.42-2.833,2.22-4l1.987-3.319l1.76-2.239c0.779-0.986,1.553-1.965,2.315-2.938l0.505-0.637
					c0.006-0.008,0.01-0.016,0.018-0.021c0.021-0.025,0.039-0.057,0.059-0.086l1.328-1.479c0.496-0.593,1.059-1.199,1.771-1.916
					c0.432-0.428,0.865-0.851,1.303-1.27c0.437-0.423,0.873-0.842,1.301-1.27l0.045-0.049c0.553-0.457,1.096-0.927,1.637-1.396
					c1.053-0.914,2.049-1.775,3.141-2.554c5.875-4.548,12.517-8.126,19.742-10.636c5.549-1.961,11.459-3.276,17.582-3.91
					c1.627-0.208,3.133-0.273,4.588-0.334c0.79-0.032,1.547-0.066,2.227-0.119c0.65,0.01,1.272,0.014,1.865,0.018
					c1.243,0.007,2.314,0.014,3.254,0.064l4.367,0.277c0.264,0.019,0.5-0.158,0.557-0.412c0.061-0.256-0.076-0.516-0.318-0.616
					l-4.064-1.673c-0.916-0.336-1.988-0.676-3.232-1.068c-0.586-0.187-1.213-0.382-1.908-0.605c-0.441-0.109-0.9-0.225-1.376-0.344
					c-1.702-0.432-3.633-0.922-5.763-1.213c-6.527-1.1-13.295-1.246-20.104-0.436c-4.15,0.398-8.413,1.461-12.426,2.555
					c-5.211,1.649-9.396,3.362-13.148,5.373c-1.654,0.772-3.248,1.762-4.787,2.719c-0.611,0.379-1.224,0.762-1.887,1.159
					c-0.549,0.394-1.105,0.782-1.668,1.175c-1.589,1.111-3.234,2.26-4.756,3.57l-2.42,1.979l-5.72,5.58l-3.647,4.352
					c-1.711,1.928-3.033,3.965-4.313,5.936c-0.326,0.498-0.648,0.998-0.986,1.505l-1.257,1.939l-3.206,6.113
					c-1.042,2.066-1.891,4.276-2.713,6.415c-0.293,0.77-0.592,1.542-0.914,2.368c-0.244,0.873-0.503,1.748-0.76,2.627
					c-0.638,2.167-1.295,4.408-1.754,6.705c-0.144,0.856-0.307,1.711-0.468,2.57c-0.444,2.333-0.899,4.746-0.986,7.184l-0.353,5.008
					l0.092,4.994c-0.033,2.629,0.295,5.277,0.613,7.836c0.099,0.775,0.193,1.549,0.277,2.309c0.092,1.168,0.367,2.301,0.629,3.4
					c0.136,0.557,0.27,1.117,0.385,1.705c0.137,0.549,0.259,1.102,0.381,1.654c0.246,1.113,0.506,2.264,0.85,3.373
					c2.916,10.053,7.801,19.588,14.324,28.039L367.355,192.324z"/>
			</g>
		</g>
	</g>
</g>
<g id="Ebene_2">
</g>
</svg>
