<?xml version="1.0" encoding="utf-8"?>
<!-- Generator: Adobe Illustrator 25.4.1, SVG Export Plug-In . SVG Version: 6.00 Build 0)  -->
<svg version="1.1" id="Ebene_1" xmlns="http://www.w3.org/2000/svg" xmlns:xlink="http://www.w3.org/1999/xlink" x="0px" y="0px"
	 viewBox="0 0 171.9 33.3" style="enable-background:new 0 0 171.9 33.3;" xml:space="preserve">
<style type="text/css">
	.st0{fill:#E4002B;}
</style>
<g>
	<path d="M20.1,16.4c1.5-0.3,2.6-1.6,2.6-3.4c0-1.7-1.3-3.8-4.4-3.8H9.2v15h9.4c3,0,4.4-2,4.4-4.1C23,18.1,21.7,16.7,20.1,16.4z
		 M13.7,12.8h3.5c0.5,0,0.9,0.4,0.9,0.9s-0.4,1-0.9,1h-3.5C13.7,14.7,13.7,12.8,13.7,12.8z M17.3,20.4h-3.6v-2h3.6
		c0.6,0,1.1,0.5,1.1,1C18.4,20,18,20.4,17.3,20.4z"/>
	<path d="M29.9,13c-3.5,0-5.9,2.5-5.9,5.7c0,3.6,2.6,5.7,6,5.7c1.6,0,3.5-0.4,4.6-1.3L33,20.6c-0.5,0.4-1.5,0.8-2.4,0.8
		c-1.4,0-2.2-0.7-2.4-1.4h7.4v-0.8C35.5,15.3,33.1,13,29.9,13z M28.1,17.4c0.1-0.5,0.5-1.3,1.8-1.3s1.7,0.8,1.8,1.3H28.1z"/>
	<path d="M42.7,20.8c-0.5,0-0.9-0.4-0.9-1v-3H44v-3.5h-2.2v-3h-4v3H36v3.5h1.8V21c0,2.3,1.3,3.4,3.7,3.4c1.4,0,2.3-0.3,2.7-0.7
		l-0.7-3C43.4,20.7,43,20.8,42.7,20.8z"/>
	<path d="M51.2,20.8c-0.5,0-0.9-0.4-0.9-1v-3h2.2v-3.5h-2.2v-3h-4v3h-1.8v3.5h1.8V21c0,2.3,1.3,3.4,3.7,3.4c1.4,0,2.3-0.3,2.7-0.7
		l-0.7-3C52,20.7,51.6,20.8,51.2,20.8z"/>
	<path d="M59.2,13c-3.5,0-5.9,2.5-5.9,5.7c0,3.6,2.6,5.7,6,5.7c1.6,0,3.5-0.4,4.6-1.3l-1.7-2.5c-0.5,0.4-1.5,0.8-2.4,0.8
		c-1.4,0-2.2-0.7-2.4-1.4h7.4v-0.8C64.8,15.3,62.4,13,59.2,13z M57.4,17.4c0.1-0.5,0.5-1.3,1.8-1.3s1.7,0.8,1.8,1.3H57.4z"/>
	<path d="M70.3,14.5v-1.2h-4v10.8h4v-6.6c0.4-0.5,1.5-0.8,2.4-0.8c0.4,0,0.7,0,0.9,0.1V13C72.3,13,70.9,13.7,70.3,14.5z"/>
	<path d="M80.5,16.6c0.9,0,1.5,0.4,1.8,0.9l2.6-2.4c-0.6-0.9-2.1-2-4.6-2c-3.4,0-6.1,2.2-6.1,5.7s2.6,5.7,6.1,5.7c2.5,0,4-1.1,4.6-2
		L82.3,20c-0.3,0.5-1,0.9-1.8,0.9c-1.1,0-2.1-0.7-2.1-2.1C78.4,17.3,79.4,16.6,80.5,16.6z"/>
	<path d="M91.2,13c-1.6,0-3.7,0.5-5.1,1.6l1.4,2.5c0.9-0.7,2-1.1,3-1.1c1.3,0,2,0.6,2,1.3v1.2c-0.6-0.7-1.9-1.2-3.3-1.2
		c-1.6,0-3.7,0.7-3.7,3.3c0,2.5,2.1,3.6,3.7,3.6c1.3,0,2.7-0.5,3.3-1.3v1h4v-6.5C96.5,14,93.9,13,91.2,13z M92.5,21.2
		c-0.3,0.4-1,0.6-1.6,0.6c-0.7,0-1.4-0.2-1.4-0.9c0-0.7,0.7-0.9,1.4-0.9c0.6,0,1.3,0.2,1.6,0.6V21.2z"/>
	<rect x="98.8" y="9.2" width="4" height="15"/>
	<rect x="105.1" y="9.2" width="4" height="15"/>
	<path d="M129.6,9.2h-6.3v15h2.2v-5.8h4.1c3,0,4.8-2.1,4.8-4.6C134.4,11.3,132.7,9.2,129.6,9.2z M129.3,16.4h-3.8v-5.2h3.8
		c1.6,0,2.8,1.1,2.8,2.6C132.1,15.3,131,16.4,129.3,16.4z"/>
	<path d="M140.6,13c-1.7,0-3.2,0.6-4.4,1.8l0.9,1.4c1-1,2-1.4,3.3-1.4c1.5,0,2.6,0.8,2.6,2.2v1.8c-0.8-1-2.1-1.4-3.5-1.4
		c-1.8,0-3.8,1.1-3.8,3.5s2,3.6,3.8,3.6c1.5,0,2.7-0.5,3.5-1.5v1.2h2v-7.3C144.9,14.1,142.9,13,140.6,13z M142.9,21.7
		c-0.6,0.8-1.7,1.2-2.8,1.2c-1.5,0-2.5-0.9-2.5-2.2s1-2.2,2.5-2.2c1.1,0,2.2,0.4,2.8,1.2V21.7z"/>
	<path d="M155.5,21.1c-0.6,0.8-1.7,1.5-3,1.5c-1.4,0-2.3-0.5-2.3-2.3v-7h-2v7.6c0,2.3,1.1,3.5,3.5,3.5c1.7,0,3-0.9,3.9-1.7v1.5h2
		V13.3h-2L155.5,21.1L155.5,21.1z"/>
	<rect x="160.7" y="9.2" width="2" height="15"/>
</g>
<polygon class="st0" points="117.4,9.2 116.2,11.3 115,9.2 111.3,9.2 114.1,13.6 111.1,18.3 114.8,18.3 116.2,15.9 117.6,18.3 
	121.4,18.3 118.4,13.6 121.1,9.2 "/>
</svg>
