<?xml version="1.0" encoding="utf-8"?>
<!-- Generator: Adobe Illustrator 16.0.3, SVG Export Plug-In . SVG Version: 6.00 Build 0)  -->
<!DOCTYPE svg PUBLIC "-//W3C//DTD SVG 1.1//EN" "http://www.w3.org/Graphics/SVG/1.1/DTD/svg11.dtd">
<svg version="1.1" id="Ebene_1" xmlns="http://www.w3.org/2000/svg" xmlns:xlink="http://www.w3.org/1999/xlink" x="0px" y="0px"
	 width="425.197px" height="389.764px" viewBox="0 0 425.197 389.764" enable-background="new 0 0 425.197 389.764"
	 xml:space="preserve">
<g>
	<g>
		<path fill="#2A2A2A" d="M353.089,71.165l-57.006,23.18c-0.225,0.09-0.372,0.309-0.372,0.554c0,0.239,0.147,0.456,0.374,0.548
			l16.703,6.74l-111.627,111.63c-0.232,0.23-0.232,0.606-0.001,0.838l9.552,9.551c0.231,0.232,0.604,0.234,0.84,0l111.481-111.481
			l6.548,16.219c0.09,0.225,0.308,0.371,0.549,0.372c0.16-0.001,0.313-0.065,0.423-0.175c0.054-0.053,0.099-0.121,0.128-0.197
			l23.179-57.006c0.092-0.221,0.038-0.475-0.126-0.644C353.563,71.126,353.31,71.073,353.089,71.165z"/>
		<path fill="#2A2A2A" d="M312.179,125.708c-0.402-0.447-0.808-0.887-1.223-1.363l-4.692-5.214c-0.262-0.276-0.47-0.49-0.634-0.64
			c-0.008-0.011-0.016-0.022-0.021-0.031l-0.006,0.003c-0.014-0.01-0.021-0.017-0.033-0.025l0.006-0.005
			c-0.006-0.006-0.085-0.081-0.085-0.087l-5.751-5.159c-0.459-0.405-0.917-0.815-1.373-1.222c-1.509-1.354-3.068-2.752-4.783-3.908
			c-0.83-0.6-1.658-1.209-2.488-1.813c-3.409-2.502-6.938-5.091-10.74-7.117c-0.685-0.396-1.37-0.797-2.054-1.198
			c-1.58-0.926-3.21-1.887-4.892-2.758l-10.867-4.848c-0.833-0.32-1.686-0.603-2.531-0.885c-0.406-0.132-0.806-0.267-1.211-0.406
			l-7.459-2.477c-1.678-0.525-3.406-0.907-5.079-1.278c-0.852-0.188-1.701-0.374-2.552-0.585l-5.738-1.288l-1.935-0.238
			c-1.215-0.137-2.429-0.289-3.64-0.442c-3.836-0.484-7.803-0.984-11.715-0.932l-7.653-0.147l-7.504,0.529
			c-3.683,0.12-7.311,0.794-10.813,1.445c-1.332,0.25-2.662,0.499-3.973,0.713c-1.719,0.239-3.386,0.718-5,1.184
			c-0.729,0.207-1.455,0.417-2.195,0.605l-7.035,2.001l-6.716,2.597c-0.647,0.275-1.304,0.531-1.962,0.786
			c-1.537,0.602-3.129,1.226-4.588,2.046l-9.35,4.853l-2.906,1.873c-0.787,0.519-1.57,1.022-2.355,1.526
			c-2.977,1.915-6.055,3.893-8.918,6.411c-1.789,1.476-3.559,2.937-5.331,4.393l-1.336,1.125l-8.624,8.719l-2.977,3.59
			c-2.038,2.334-3.821,4.84-5.542,7.266c-0.594,0.836-1.182,1.664-1.802,2.516l-3.104,4.98c-1.141,1.735-2.083,3.537-2.847,5.056
			c-4.069,7.418-6.754,14.97-8.427,20.03c-1.645,5.744-3.418,12.484-4.126,18.901c-1.382,10.409-1.315,20.792,0.182,30.836
			c0.383,3.229,1.063,6.155,1.658,8.736c0.187,0.796,0.365,1.563,0.536,2.348c0.295,0.983,0.569,1.924,0.829,2.813
			c0.578,1.96,1.076,3.651,1.57,5.113l2.43,6.315c0.104,0.277,0.398,0.434,0.685,0.366c0.29-0.064,0.486-0.341,0.457-0.634
			l-0.63-6.73c-0.113-1.407-0.171-2.996-0.231-4.837c-0.033-0.987-0.07-2.026-0.119-3.063c0.049-1.091,0.068-2.23,0.084-3.419
			c0.037-2.297,0.072-4.672,0.339-7.28c0.731-9.527,2.558-18.822,5.443-27.626c1.432-4.624,3.528-9.761,6.388-15.678
			c2.673-4.967,5.704-10.604,9.706-15.779c0.992-1.415,1.953-2.662,2.945-3.823l3.105-3.788c0.699-0.722,1.384-1.464,2.075-2.203
			c1.466-1.579,2.979-3.21,4.636-4.691l0.366-0.318l2.427-2.27c0.015-0.008,0.026-0.019,0.04-0.028h0.003
			c0.004-0.003,0.01-0.006,0.013-0.008c0.017-0.012,0.032-0.024,0.048-0.036l8.852-7.182l5.389-3.395
			c1.865-1.331,4.074-2.476,6.414-3.687c0.939-0.486,1.883-0.976,2.8-1.474l2.366-1.265l7.745-3.131
			c1.091-0.516,2.251-0.842,3.476-1.182c0.594-0.166,1.194-0.33,1.77-0.52l5.336-1.643l5.559-1.128
			c0.639-0.111,1.269-0.25,1.904-0.391c1.191-0.263,2.424-0.53,3.674-0.592c1.186-0.101,2.371-0.233,3.554-0.365
			c2.577-0.291,5.244-0.592,7.925-0.515l5.765-0.131l5.868,0.444c2.695,0.066,5.422,0.557,8.057,1.033
			c1.171,0.21,2.343,0.423,3.538,0.602c1.207,0.139,2.366,0.472,3.596,0.816c0.692,0.195,1.389,0.393,2.059,0.547
			c0.702,0.196,1.407,0.372,2.116,0.548c1.183,0.291,2.408,0.594,3.557,1.005l5.574,2.058c0.368,0.138,0.734,0.27,1.098,0.4
			c0.563,0.201,1.127,0.398,1.648,0.614l8.031,3.892c1.029,0.564,2.032,1.176,3.04,1.787c0.693,0.42,1.39,0.842,2.112,1.261
			c2.563,1.357,4.943,3.143,7.246,4.869c0.845,0.636,1.689,1.27,2.566,1.903c1.183,0.772,2.198,1.726,3.283,2.734
			c0.401,0.374,0.803,0.747,1.205,1.108l3.906,3.542l4.671,5.028c0.387,0.434,0.793,0.876,1.204,1.319
			c1.157,1.246,2.348,2.538,2.969,3.558c0.646,0.931,1.317,1.825,1.99,2.727c1.496,1.996,3.044,4.062,4.396,6.578
			c0.403,0.688,0.818,1.367,1.236,2.045c0.61,1.004,1.248,2.038,1.804,3.05l2.593,5.38l1.308,2.643
			c0.236,0.569,0.443,1.149,0.653,1.725c0.123,0.35,0.249,0.695,0.38,1.037l2.075,5.569c0.407,1.13,0.706,2.331,1.001,3.491
			c0.18,0.731,0.361,1.461,0.57,2.171l1.139,4.23l0.229,1.452c0.177,1.171,0.393,2.337,0.606,3.503
			c0.483,2.638,0.98,5.367,1.063,8.095l0.461,5.777l-0.113,5.844c0.076,2.632-0.215,5.276-0.493,7.837
			c-0.132,1.204-0.264,2.406-0.362,3.636c-0.053,1.229-0.313,2.409-0.584,3.653c-0.138,0.633-0.274,1.268-0.379,1.888l-1.098,5.516
			l-1.648,5.386c-0.188,0.592-0.354,1.192-0.519,1.794c-0.339,1.226-0.659,2.38-1.185,3.509c-2.749,7.289-5.989,13.848-9.623,19.495
			l-2.896,4.538c-0.396,0.686-0.885,1.361-1.499,2.08l-5.615,7.057c-0.01,0.016-0.023,0.03-0.031,0.043
			c-0.026,0.036-0.051,0.076-0.075,0.117l-0.682,0.714c-0.646,0.692-1.298,1.388-1.954,2.088c-1.791,2.011-3.378,3.498-4.913,4.932
			c-0.748,0.701-1.49,1.396-2.2,2.101c-0.847,0.678-1.68,1.374-2.505,2.068c-1.653,1.387-3.358,2.819-5.144,4.048
			c-5.19,4.042-10.79,7.069-15.7,9.729c-5.956,2.896-11.08,5.007-15.685,6.447c-8.779,2.908-18.064,4.767-27.611,5.533
			c-2.572,0.275-4.934,0.316-7.22,0.359c-1.204,0.023-2.358,0.043-3.412,0.102c-1.028-0.041-2.004-0.074-2.934-0.104
			c-1.931-0.061-3.592-0.114-5.037-0.222l-6.714-0.604c-0.297-0.025-0.567,0.174-0.635,0.46c-0.063,0.289,0.095,0.582,0.371,0.687
			c0,0,2.212,0.839,6.365,2.425c1.447,0.488,3.124,0.978,5.068,1.539c0.888,0.261,1.828,0.533,2.864,0.839
			c0.721,0.155,1.469,0.326,2.242,0.508c2.604,0.595,5.552,1.274,8.793,1.651c10.052,1.48,20.437,1.52,30.844,0.113
			c6.498-0.739,13.207-2.529,18.937-4.188c5.482-1.835,12.715-4.457,19.983-8.466l2.552-1.334c0.549-0.316,1.088-0.654,1.631-0.994
			c0.286-0.177,0.569-0.355,0.859-0.533l5.028-3.158c0.649-0.472,1.315-0.952,1.989-1.438c2.752-1.989,5.599-4.042,7.746-5.909
			l3.302-2.73c0.004-0.004,0.01-0.01,0.012-0.012c0.006-0.006,0.014-0.014,0.026-0.021l8.153-8.155
			c0.854-0.818,1.585-1.627,2.233-2.465l4.182-5.127c11.918-15.263,20.075-32.86,23.599-50.912c0.212-1.295,0.445-2.587,0.685-3.884
			c0.649-3.542,1.322-7.205,1.422-10.896l0.51-7.591l-0.169-7.583c0.04-3.925-0.466-7.886-0.963-11.715
			c-0.156-1.217-0.312-2.436-0.458-3.672l-0.27-1.97l-1.293-5.692c-0.201-0.831-0.391-1.666-0.58-2.506
			c-0.377-1.684-0.771-3.424-1.306-5.12l-2.493-7.449c-0.158-0.449-0.313-0.899-0.466-1.354c-0.267-0.796-0.532-1.595-0.843-2.407
			l-4.902-10.852c-0.843-1.605-1.778-3.189-2.686-4.724c-0.427-0.725-0.856-1.448-1.267-2.162
			c-2.146-4.015-5.168-8.068-8.091-11.984l-1.293-1.736C314.487,128.252,313.317,126.958,312.179,125.708z"/>
		<path fill="#F40E0E" d="M264.625,161.358c-0.003-0.011-0.014-0.018-0.02-0.023l0.005-0.006c-0.009-0.006-0.102-0.095-0.113-0.101
			l-3.255-3.055c-0.726-0.677-1.478-1.374-2.3-1.963l-0.48-0.366c-1.858-1.422-3.775-2.893-5.855-4.056l-0.961-0.572
			c-0.777-0.474-1.559-0.94-2.39-1.39l-3.439-1.592c-1.64-0.82-3.376-1.401-5.062-1.96c-0.699-0.23-1.393-0.464-2.123-0.726
			c-2.591-0.699-4.929-1.313-7.358-1.705c-0.521-0.063-1.047-0.131-1.57-0.199c-1.899-0.245-3.867-0.5-5.811-0.489
			c-1.214-0.021-2.424-0.047-3.683-0.077l-3.581,0.234c-1.825,0.061-3.617,0.4-5.345,0.73c-0.588,0.11-1.168,0.223-1.768,0.323
			c-1.725,0.352-3.403,0.849-5.029,1.33c-0.578,0.172-1.147,0.341-1.771,0.521l-1.229,0.477c-1.697,0.652-3.443,1.325-5.097,2.17
			c-0.618,0.346-1.243,0.669-1.865,0.99c-1.323,0.683-2.69,1.389-3.914,2.271l-0.952,0.633c-1.512,0.998-2.938,1.938-4.408,3.259
			l-3.227,2.783l-3.362,3.649c-0.284,0.26-0.391,0.361-0.419,0.386c-0.04,0.041-0.075,0.088-0.103,0.137
			c-0.007,0.012-0.019,0.023-0.021,0.027l-4.537,6.258c-0.93,1.637-1.793,3.254-2.57,4.804c-0.128,0.262-0.263,0.518-0.395,0.773
			c-0.27,0.526-0.533,1.046-0.771,1.61l-1.203,3.343c-0.447,1.263-0.871,2.459-1.229,3.726l-1.262,6.618
			c-0.083,0.504-0.098,1.002-0.115,1.483c-0.005,0.224-0.014,0.446-0.028,0.689c-0.018,0.673-0.051,1.328-0.079,1.968
			c-0.09,2.004-0.181,3.896,0.129,5.695c0.084,0.637,0.145,1.252,0.205,1.852c0.166,1.585,0.32,3.08,0.771,4.482
			c0.47,1.866,0.93,3.512,1.39,4.958l1.456,3.245c0.81,1.777,1.291,2.714,1.291,2.714c0.121,0.232,0.377,0.358,0.631,0.316
			c0.258-0.049,0.453-0.255,0.488-0.513c0,0,0.127-1.048,0.273-2.999l0.232-3.461c0.302-1.356,0.599-2.864,0.909-4.514
			c0.141-1.028,0.507-2.188,0.9-3.415c0.187-0.584,0.376-1.181,0.551-1.801c0.341-1.367,0.952-2.752,1.611-4.221
			c0.228-0.51,0.458-1.023,0.687-1.566c0.368-0.979,0.934-1.938,1.528-2.924l1.5-2.595l3.511-4.775
			c0.17-0.196,0.352-0.384,0.536-0.568l0.54-0.533l0.223-0.231l0.242-0.236c0.497-0.499,0.972-1.007,1.455-1.52
			c0.322-0.341,0.645-0.687,0.918-0.978l3.752-3c0.039-0.016,0.078-0.039,0.115-0.062l4.025-2.801l2.082-0.967
			c0.574-0.314,1.331-0.625,2.127-0.951c0.48-0.198,0.969-0.397,1.453-0.615c0.706-0.356,1.484-0.575,2.31-0.807
			c0.527-0.147,1.048-0.299,1.521-0.468c0.666-0.196,1.381-0.339,2.07-0.477c0.674-0.134,1.347-0.272,1.896-0.434
			c0.574-0.055,1.143-0.132,1.708-0.212c0.841-0.117,1.64-0.227,2.437-0.256c0.472-0.002,0.943-0.019,1.416-0.036
			c0.957-0.036,1.854-0.069,2.807,0.026l2.063,0.063l2.128,0.305c2.847,0.359,5.594,1.229,8.126,2.068
			c2.332,0.964,5.046,2.176,7.521,3.919c0.78,0.436,1.478,0.998,2.218,1.588c0.383,0.313,0.768,0.623,1.189,0.933
			c0.376,0.249,0.706,0.578,1.058,0.929c0.154,0.152,0.311,0.308,0.467,0.449l1.459,1.37l2.045,2.336
			c0.39,0.438,0.977,1.101,1.104,1.381c0.251,0.412,0.521,0.786,0.807,1.169c0.404,0.55,0.824,1.119,1.244,1.933
			c0.159,0.277,0.331,0.549,0.493,0.824c0.207,0.331,0.409,0.663,0.573,0.963c0.262,0.583,0.547,1.158,0.833,1.735l0.13,0.25
			c0.417,0.72,0.69,1.498,0.982,2.325c0.188,0.529,0.374,1.058,0.574,1.502c0.756,2.606,1.491,5.41,1.752,8.248l0.217,2.061
			l-0.014,2.161c0.047,0.902-0.02,1.788-0.09,2.726c-0.037,0.482-0.075,0.968-0.094,1.428c-0.49,5.257-2.153,10.478-4.941,15.509
			l-0.377,0.675c-0.541,0.974-1.053,1.896-1.722,2.738l-1.456,2.07c-0.036,0.051-0.062,0.104-0.079,0.159l-3.839,4.191l-0.746,0.644
			c-0.641,0.546-1.243,1.063-1.836,1.646c-0.165,0.154-0.328,0.314-0.492,0.475c-0.239,0.236-0.479,0.473-0.711,0.662l-0.215,0.149
			c-0.446,0.301-0.885,0.599-1.317,0.9c-1.031,0.712-2.038,1.412-2.949,2.056l-3.123,1.654c-1.101,0.612-2.025,1.085-2.982,1.408
			c-0.526,0.202-1.044,0.408-1.56,0.615c-1.498,0.601-2.906,1.166-4.313,1.457c-0.594,0.144-1.181,0.31-1.75,0.467
			c-1.258,0.352-2.443,0.68-3.572,0.782c-1.672,0.239-3.205,0.473-4.493,0.703l-6.432,0.292c-0.263,0.014-0.484,0.2-0.544,0.454
			c-0.068,0.256,0.046,0.522,0.277,0.653c0.035,0.021,0.913,0.531,2.67,1.41l3.348,1.635c1.285,0.46,2.843,0.964,4.733,1.527
			c1.372,0.52,2.866,0.734,4.446,0.96c0.597,0.085,1.211,0.176,1.818,0.278c1.795,0.386,3.675,0.373,5.656,0.362
			c0.66-0.005,1.336-0.009,2.053,0.001c0.224-0.006,0.455-0.004,0.681-0.003c0.481,0.003,0.977,0.009,1.484-0.06l6.706-1.004
			c1.157-0.279,2.295-0.633,3.49-1.006l3.66-1.143c0.581-0.226,1.178-0.508,1.777-0.793l0.771-0.361
			c1.494-0.699,3.196-1.563,5.245-2.671c1.325-0.845,2.677-1.706,4.045-2.585l1.497-0.959c0.018-0.016,0.08-0.066,0.098-0.082
			v-0.006c0.012-0.01,0.025-0.018,0.039-0.029h0.002c0-0.002,0.01-0.008,0.014-0.012c0.127-0.104,0.275-0.238,0.451-0.395
			l2.781-2.439c0.58-0.477,1.17-1.02,1.809-1.658c0.753-0.752,1.476-1.545,2.216-2.349l0.379-0.413
			c6.083-6.906,10.395-15.079,12.472-23.66c0.126-0.585,0.259-1.171,0.394-1.758c0.398-1.711,0.807-3.483,0.931-5.289l0.377-3.633
			l0.064-3.618c0.088-1.958-0.086-3.935-0.254-5.843c-0.049-0.526-0.096-1.055-0.141-1.611c-0.33-2.5-0.881-5.028-1.442-7.436
			c-0.215-0.68-0.415-1.372-0.613-2.063c-0.497-1.717-1.009-3.491-1.767-5.162l-1.484-3.545c-0.401-0.812-0.835-1.608-1.274-2.403
			l-0.531-0.97c-1.12-2.233-2.853-4.666-4.528-6.958c-0.693-0.983-1.177-1.544-1.65-2.082c-0.172-0.199-0.34-0.393-0.527-0.616
			l-1.966-2.28c-0.236-0.252-0.392-0.426-0.508-0.543c-0.01-0.012-0.019-0.023-0.03-0.037L264.625,161.358z"/>
		<g>
			<path fill="#FFCC34" d="M187.54,219.004c5.158,15.523,21.928,23.927,37.453,18.768c15.531-5.166,23.929-21.937,18.768-37.461
				c-5.157-15.523-21.923-23.928-37.453-18.764C190.782,186.706,182.376,203.484,187.54,219.004z"/>
		</g>
		<path fill="#2A2A2A" d="M206.464,208.514l-74.242,74.238l-22.202-2.014c-0.146,0.009-0.285,0.069-0.39,0.173l-38.168,38.168
			c-0.156,0.159-0.21,0.396-0.137,0.611c0.072,0.215,0.262,0.367,0.484,0.395l21.356,4.563l6.073,1.481l1.484,6.093l4.559,21.337
			c0.029,0.224,0.184,0.411,0.396,0.486c0.212,0.075,0.451,0.019,0.613-0.141l38.167-38.165c0.103-0.105,0.163-0.244,0.171-0.39
			l-2.016-22.208l74.239-74.237c0.039-0.04,0.071-0.087,0.099-0.132c2.248-2.397,1.821-6.568-0.994-9.382
			C213.1,206.53,208.839,206.138,206.464,208.514z"/>
	</g>
	<g>
		<path fill="#487AF5" d="M293.597,187.596c-0.281,0.063-0.478,0.327-0.458,0.617c0,0,0.111,1.679,0.309,4.818
			c0.06,1.035,0.069,2.227,0.083,3.604c0.006,0.667,0.012,1.365,0.025,2.044c-0.057,0.794-0.092,1.625-0.128,2.491
			c-0.063,1.618-0.132,3.293-0.365,5.125c-0.685,6.764-2.128,13.315-4.292,19.476c-2.756,8-6.707,15.366-11.751,21.912
			c-0.853,1.204-1.862,2.377-2.841,3.509c-0.504,0.586-1.01,1.173-1.459,1.723l-0.346,0.344c-0.43,0.429-0.839,0.852-1.249,1.28
			c-0.417,0.432-0.837,0.869-1.289,1.32c-0.729,0.728-1.407,1.363-2.144,2.009l-1.979,1.821c-0.047,0.026-0.092,0.056-0.13,0.091
			c-0.021,0.012-0.04,0.024-0.059,0.04l-3.471,2.685c-1.538,1.32-3.34,2.436-5.083,3.514l-0.98,0.611
			c-9.061,5.521-19.004,9.051-28.73,10.2c-0.858,0.061-1.715,0.148-2.576,0.236c-1.75,0.18-3.561,0.367-5.381,0.304l-3.972,0.07
			l-4.05-0.341c-5.881-0.449-11.563-1.963-15.815-3.219l-3.849-1.45c-0.228-0.086-0.461-0.17-0.691-0.253
			c-0.407-0.145-0.814-0.292-1.182-0.444l-5.535-2.702c-0.717-0.392-1.416-0.818-2.116-1.247c-0.473-0.289-0.944-0.576-1.439-0.866
			c-1.167-0.62-2.173-1.299-3.121-1.979l-20.462,20.461c2.948,2.187,5.998,4.444,8.955,6.012l1.363,0.793
			c1.203,0.705,2.445,1.434,3.737,2.108l7.964,3.544c0.603,0.229,1.211,0.432,1.82,0.633l6.398,2.108
			c1.23,0.384,2.498,0.667,3.728,0.937c0.62,0.138,1.238,0.272,1.882,0.43c0.633,0.123,1.262,0.271,1.89,0.419
			c1.209,0.283,2.456,0.578,3.722,0.691c0.88,0.095,1.759,0.201,2.633,0.308c2.822,0.344,5.742,0.697,8.619,0.652l0.755,0.012
			c1.604,0.024,3.206,0.051,4.854,0.07l5.48-0.4c2.732-0.099,5.415-0.611,8.009-1.11c0.942-0.179,1.879-0.356,2.834-0.521
			c13.171-2.681,25.975-8.763,37.04-17.6l0.64-0.53c1.833-1.516,3.729-3.081,5.418-4.767c0.366-0.368,0.726-0.744,1.062-1.112
			l4.285-4.405l1.906-2.381c1.385-1.646,2.965-3.898,4.493-6.073l0.791-1.133c0.432-0.721,0.87-1.427,1.306-2.128
			c1.093-1.763,2.123-3.428,2.953-5.217c2.219-4.183,4.101-8.829,5.935-14.641c1.131-4.197,2.347-9.113,2.779-13.749
			c0.878-7.57,0.692-15.073-0.546-22.288c-0.337-2.389-0.889-4.532-1.377-6.43c-0.131-0.514-0.26-1.014-0.391-1.537l-0.628-1.943
			c-0.451-1.413-0.842-2.63-1.237-3.705l-1.863-4.5C294.167,187.678,293.88,187.53,293.597,187.596z"/>
		<path fill="#487AF5" d="M160.3,247.963c-4.042-5.68-7.337-12.024-9.676-18.765c-1.379-4.621-2.845-10.118-3.286-15.854
			l-0.341-3.991l0.051-4.064c-0.074-1.811,0.11-3.64,0.288-5.406c0.083-0.843,0.169-1.682,0.225-2.506
			c0.176-1.639,0.506-3.287,0.826-4.88c0.192-0.961,0.388-1.921,0.532-2.816l1.104-3.757c0.127-0.416,0.238-0.834,0.35-1.256
			c0.222-0.848,0.432-1.647,0.786-2.423l2.069-5.345l0.871-1.698c0.35-0.666,0.693-1.351,1.033-2.031
			c0.806-1.614,1.568-3.14,2.457-4.435l2.201-3.678l1.951-2.479c0.865-1.096,1.721-2.18,2.565-3.258l0.561-0.706
			c0.006-0.008,0.01-0.017,0.018-0.021c0.023-0.03,0.047-0.063,0.066-0.096l1.47-1.638c0.549-0.657,1.176-1.332,1.968-2.123
			c0.475-0.476,0.959-0.943,1.44-1.408c0.484-0.468,0.968-0.933,1.443-1.405l0.047-0.055c0.614-0.506,1.217-1.029,1.817-1.548
			c1.167-1.013,2.271-1.97,3.479-2.83c6.511-5.039,13.87-9.006,21.879-11.787c6.147-2.174,12.698-3.632,19.485-4.334
			c1.805-0.229,3.473-0.302,5.085-0.368c0.876-0.038,1.716-0.075,2.469-0.132c0.72,0.008,1.41,0.014,2.065,0.016
			c1.376,0.009,2.566,0.016,3.605,0.072l4.842,0.31c0.292,0.019,0.556-0.178,0.616-0.458c0.065-0.283-0.084-0.571-0.352-0.684
			l-4.505-1.853c-1.018-0.374-2.206-0.75-3.582-1.185c-0.651-0.208-1.344-0.425-2.116-0.672c-0.49-0.118-0.998-0.248-1.523-0.383
			c-1.888-0.478-4.024-1.021-6.387-1.342c-7.235-1.219-14.738-1.381-22.282-0.483c-4.598,0.442-9.324,1.619-13.769,2.831
			c-5.775,1.829-10.416,3.726-14.572,5.952c-1.835,0.856-3.601,1.954-5.309,3.016c-0.676,0.419-1.354,0.844-2.091,1.282
			c-0.604,0.438-1.225,0.869-1.847,1.302c-1.762,1.232-3.582,2.506-5.272,3.96l-2.681,2.191l-6.338,6.185l-4.041,4.823
			c-1.898,2.137-3.363,4.394-4.783,6.576c-0.357,0.553-0.717,1.106-1.091,1.668l-1.394,2.153l-3.553,6.772
			c-1.156,2.289-2.096,4.741-3.006,7.109c-0.326,0.854-0.655,1.711-1.016,2.624c-0.27,0.97-0.557,1.94-0.842,2.914
			c-0.708,2.399-1.438,4.885-1.943,7.431c-0.159,0.948-0.34,1.896-0.519,2.849c-0.489,2.586-0.994,5.259-1.09,7.961l-0.393,5.551
			l0.101,5.535c-0.039,2.913,0.327,5.849,0.681,8.684c0.108,0.859,0.214,1.719,0.31,2.562c0.101,1.291,0.403,2.55,0.696,3.767
			c0.147,0.618,0.298,1.236,0.424,1.889c0.15,0.609,0.286,1.22,0.423,1.834c0.275,1.232,0.56,2.509,0.943,3.736
			c3.23,11.144,8.645,21.71,15.872,31.077L160.3,247.963z"/>
	</g>
</g>
</svg>
