<?xml version="1.0" encoding="utf-8"?>
<!-- Generator: Adobe Illustrator 16.0.3, SVG Export Plug-In . SVG Version: 6.00 Build 0)  -->
<!DOCTYPE svg PUBLIC "-//W3C//DTD SVG 1.1//EN" "http://www.w3.org/Graphics/SVG/1.1/DTD/svg11.dtd">
<svg version="1.1" id="Ebene_1" xmlns="http://www.w3.org/2000/svg" xmlns:xlink="http://www.w3.org/1999/xlink" x="0px" y="0px"
	 width="425.197px" height="389.764px" viewBox="0 0 425.197 389.764" enable-background="new 0 0 425.197 389.764"
	 xml:space="preserve">
<g>
	<g>
		<path fill="#2A2A2A" d="M353.482,70.911l-57.004,23.18c-0.226,0.092-0.371,0.309-0.373,0.553c0.002,0.241,0.149,0.458,0.375,0.55
			l16.702,6.74L201.557,213.562c-0.233,0.232-0.233,0.608-0.002,0.84l9.552,9.552c0.233,0.232,0.605,0.232,0.841,0l111.48-111.48
			l6.548,16.218c0.091,0.223,0.308,0.371,0.549,0.371c0.16,0,0.313-0.065,0.421-0.174c0.057-0.054,0.1-0.121,0.131-0.197
			l23.179-57.006c0.092-0.222,0.037-0.475-0.128-0.645C353.957,70.874,353.704,70.821,353.482,70.911z"/>
		<path fill="#2A2A2A" d="M312.574,125.454c-0.402-0.444-0.808-0.887-1.223-1.363l-4.691-5.212
			c-0.264-0.275-0.472-0.491-0.634-0.642c-0.01-0.01-0.016-0.021-0.023-0.03l-0.004,0.003c-0.017-0.01-0.024-0.018-0.034-0.027
			l0.006-0.004c-0.006-0.005-0.086-0.081-0.086-0.086l-5.75-5.16c-0.461-0.405-0.917-0.813-1.373-1.221
			c-1.508-1.354-3.067-2.751-4.783-3.907c-0.832-0.601-1.658-1.208-2.489-1.814c-3.41-2.502-6.938-5.089-10.739-7.117
			c-0.688-0.394-1.371-0.797-2.055-1.195c-1.58-0.928-3.21-1.887-4.891-2.761l-10.868-4.847c-0.832-0.319-1.687-0.603-2.532-0.886
			c-0.403-0.132-0.805-0.266-1.208-0.405l-7.461-2.478c-1.677-0.523-3.405-0.906-5.078-1.276c-0.853-0.188-1.7-0.376-2.55-0.585
			l-5.741-1.289l-1.933-0.238c-1.217-0.137-2.432-0.289-3.642-0.443c-3.837-0.483-7.801-0.982-11.714-0.929l-7.652-0.148
			l-7.504,0.528c-3.682,0.12-7.312,0.795-10.815,1.446c-1.331,0.251-2.659,0.498-3.972,0.712c-1.718,0.238-3.385,0.719-5,1.184
			c-0.727,0.207-1.456,0.417-2.196,0.605l-7.033,2.003l-6.716,2.596c-0.65,0.273-1.305,0.531-1.963,0.785
			c-1.537,0.604-3.13,1.225-4.587,2.047l-9.351,4.852l-2.904,1.872c-0.787,0.521-1.572,1.022-2.356,1.528
			c-2.977,1.914-6.056,3.892-8.917,6.411c-1.79,1.474-3.559,2.935-5.334,4.39l-1.335,1.127l-8.622,8.717l-2.979,3.593
			c-2.037,2.332-3.82,4.84-5.541,7.265c-0.596,0.836-1.182,1.664-1.803,2.515l-3.104,4.98c-1.143,1.736-2.082,3.538-2.846,5.056
			c-4.07,7.419-6.754,14.971-8.429,20.03c-1.644,5.747-3.417,12.484-4.124,18.902c-1.383,10.409-1.316,20.791,0.182,30.835
			c0.382,3.23,1.062,6.155,1.657,8.738c0.184,0.795,0.364,1.562,0.536,2.347c0.294,0.983,0.57,1.925,0.831,2.813
			c0.573,1.958,1.071,3.65,1.568,5.113l2.429,6.313c0.104,0.278,0.397,0.436,0.686,0.366c0.288-0.065,0.488-0.339,0.457-0.634
			l-0.631-6.728c-0.114-1.407-0.169-3-0.231-4.838c-0.033-0.986-0.07-2.025-0.12-3.064c0.05-1.089,0.069-2.229,0.085-3.418
			c0.037-2.298,0.072-4.671,0.341-7.28c0.729-9.528,2.556-18.821,5.44-27.626c1.435-4.624,3.53-9.761,6.39-15.679
			c2.673-4.967,5.705-10.602,9.705-15.779c0.992-1.414,1.952-2.661,2.945-3.822l3.106-3.788c0.699-0.723,1.385-1.462,2.074-2.203
			c1.467-1.579,2.98-3.211,4.638-4.692l0.364-0.317l2.429-2.269c0.014-0.01,0.025-0.019,0.039-0.028l0.002-0.002
			c0.004-0.002,0.01-0.007,0.014-0.009c0.016-0.01,0.031-0.023,0.047-0.035l8.854-7.181l5.386-3.394
			c1.866-1.332,4.076-2.476,6.415-3.688c0.939-0.487,1.884-0.977,2.799-1.474l2.367-1.264l7.746-3.132
			c1.09-0.517,2.251-0.841,3.477-1.182c0.592-0.165,1.191-0.331,1.767-0.518l5.338-1.644l5.558-1.129
			c0.639-0.11,1.27-0.25,1.902-0.392c1.193-0.262,2.425-0.53,3.676-0.591c1.186-0.102,2.37-0.233,3.552-0.366
			c2.579-0.29,5.247-0.59,7.926-0.514l5.767-0.132l5.866,0.447c2.696,0.064,5.423,0.556,8.058,1.031
			c1.171,0.21,2.342,0.424,3.537,0.602c1.208,0.14,2.368,0.472,3.596,0.816c0.693,0.196,1.389,0.392,2.059,0.547
			c0.703,0.197,1.408,0.373,2.117,0.547c1.182,0.293,2.407,0.597,3.557,1.007l5.574,2.058c0.366,0.137,0.732,0.269,1.098,0.398
			c0.562,0.201,1.125,0.401,1.646,0.615l8.032,3.892c1.03,0.564,2.033,1.177,3.04,1.786c0.693,0.422,1.391,0.844,2.111,1.261
			c2.565,1.358,4.945,3.146,7.248,4.87c0.845,0.635,1.689,1.271,2.564,1.903c1.183,0.771,2.199,1.725,3.284,2.735
			c0.401,0.373,0.804,0.748,1.207,1.107l3.905,3.541l4.671,5.03c0.386,0.434,0.794,0.876,1.205,1.318
			c1.155,1.248,2.347,2.538,2.969,3.558c0.645,0.931,1.314,1.824,1.99,2.727c1.494,1.996,3.042,4.061,4.396,6.578
			c0.401,0.686,0.818,1.367,1.235,2.047c0.609,1.001,1.248,2.037,1.802,3.047l2.594,5.38l1.307,2.644
			c0.238,0.569,0.444,1.149,0.655,1.727c0.124,0.348,0.249,0.693,0.38,1.035l2.074,5.567c0.408,1.132,0.707,2.332,1.001,3.491
			c0.179,0.732,0.362,1.463,0.57,2.175l1.138,4.228l0.231,1.453c0.178,1.172,0.392,2.336,0.606,3.502
			c0.482,2.637,0.979,5.368,1.063,8.094l0.46,5.779l-0.114,5.845c0.077,2.631-0.213,5.275-0.491,7.837
			c-0.133,1.202-0.265,2.406-0.364,3.634c-0.053,1.231-0.312,2.408-0.584,3.656c-0.137,0.63-0.271,1.265-0.378,1.886l-1.099,5.517
			l-1.646,5.385c-0.188,0.591-0.355,1.191-0.52,1.793c-0.339,1.225-0.658,2.381-1.186,3.507c-2.747,7.29-5.988,13.85-9.622,19.498
			l-2.893,4.536c-0.399,0.687-0.888,1.36-1.503,2.082l-5.613,7.057c-0.01,0.015-0.023,0.03-0.031,0.042
			c-0.025,0.038-0.051,0.077-0.076,0.117l-0.682,0.716c-0.645,0.69-1.297,1.386-1.953,2.086c-1.791,2.012-3.378,3.497-4.914,4.933
			c-0.748,0.699-1.488,1.395-2.199,2.1c-0.848,0.679-1.681,1.375-2.507,2.07c-1.651,1.386-3.357,2.815-5.144,4.047
			c-5.189,4.042-10.788,7.069-15.698,9.728c-5.956,2.897-11.081,5.007-15.685,6.448c-8.78,2.906-18.063,4.768-27.609,5.533
			c-2.572,0.274-4.935,0.316-7.222,0.359c-1.205,0.025-2.358,0.044-3.412,0.102c-1.026-0.042-2.004-0.074-2.935-0.102
			c-1.931-0.063-3.592-0.117-5.037-0.224l-6.712-0.603c-0.298-0.027-0.568,0.172-0.635,0.46c-0.064,0.286,0.094,0.581,0.37,0.685
			c0,0,2.211,0.84,6.363,2.426c1.447,0.488,3.126,0.978,5.071,1.538c0.888,0.263,1.827,0.533,2.863,0.839
			c0.721,0.156,1.469,0.327,2.243,0.509c2.604,0.595,5.551,1.273,8.79,1.651c10.056,1.479,20.438,1.52,30.846,0.114
			c6.497-0.741,13.207-2.53,18.936-4.19c5.484-1.836,12.716-4.458,19.983-8.465l2.553-1.335c0.55-0.315,1.089-0.653,1.631-0.992
			c0.286-0.179,0.568-0.356,0.858-0.533l5.029-3.159c0.648-0.473,1.314-0.952,1.988-1.439c2.754-1.988,5.6-4.042,7.746-5.908
			l3.302-2.73c0.004-0.004,0.01-0.01,0.012-0.012c0.006-0.004,0.014-0.014,0.023-0.021l8.156-8.154
			c0.854-0.817,1.586-1.63,2.232-2.466l4.182-5.128c11.918-15.26,20.078-32.859,23.6-50.91c0.211-1.294,0.444-2.588,0.686-3.886
			c0.648-3.542,1.322-7.203,1.422-10.896l0.509-7.588l-0.168-7.584c0.039-3.924-0.466-7.886-0.964-11.715
			c-0.156-1.216-0.313-2.436-0.456-3.671l-0.271-1.971l-1.295-5.692c-0.201-0.83-0.39-1.666-0.579-2.505
			c-0.376-1.684-0.772-3.426-1.307-5.121l-2.493-7.448c-0.159-0.448-0.312-0.9-0.463-1.354c-0.268-0.798-0.536-1.595-0.846-2.408
			l-4.9-10.85c-0.842-1.606-1.778-3.191-2.686-4.725c-0.427-0.725-0.857-1.448-1.267-2.162c-2.147-4.014-5.169-8.065-8.091-11.985
			l-1.293-1.735C314.883,128,313.712,126.706,312.574,125.454z"/>
		<path fill="#2A2A2A" d="M265.021,161.104c-0.004-0.009-0.016-0.016-0.021-0.022l0.006-0.005c-0.01-0.007-0.102-0.095-0.113-0.102
			l-3.255-3.056c-0.725-0.677-1.477-1.374-2.3-1.962l-0.479-0.367c-1.859-1.42-3.774-2.893-5.854-4.054l-0.962-0.575
			c-0.777-0.473-1.559-0.94-2.39-1.389l-3.438-1.592c-1.64-0.82-3.377-1.399-5.062-1.961c-0.701-0.229-1.395-0.461-2.123-0.723
			c-2.591-0.702-4.93-1.314-7.36-1.706c-0.521-0.061-1.046-0.13-1.567-0.196c-1.901-0.249-3.868-0.504-5.813-0.492
			c-1.215-0.023-2.423-0.049-3.683-0.076l-3.58,0.234c-1.827,0.06-3.617,0.4-5.345,0.729c-0.588,0.111-1.168,0.222-1.769,0.325
			c-1.726,0.35-3.404,0.848-5.03,1.328c-0.577,0.171-1.147,0.34-1.771,0.521l-1.23,0.478c-1.695,0.653-3.442,1.326-5.094,2.17
			c-0.619,0.348-1.244,0.67-1.868,0.989c-1.322,0.684-2.689,1.389-3.913,2.271l-0.952,0.634c-1.511,0.996-2.937,1.937-4.407,3.258
			l-3.228,2.784l-3.361,3.647c-0.284,0.26-0.392,0.361-0.419,0.388c-0.041,0.042-0.074,0.088-0.104,0.137
			c-0.006,0.01-0.018,0.021-0.02,0.025l-4.536,6.259c-0.931,1.639-1.794,3.254-2.572,4.803c-0.127,0.262-0.263,0.519-0.394,0.776
			c-0.27,0.522-0.534,1.043-0.773,1.608l-1.201,3.342c-0.446,1.264-0.871,2.459-1.229,3.728l-1.261,6.617
			c-0.083,0.503-0.097,1.002-0.116,1.481c-0.004,0.225-0.012,0.449-0.027,0.692c-0.018,0.67-0.051,1.326-0.078,1.968
			c-0.091,2.003-0.181,3.895,0.127,5.693c0.085,0.638,0.147,1.254,0.208,1.852c0.164,1.586,0.317,3.08,0.771,4.482
			c0.466,1.866,0.929,3.512,1.387,4.958l1.457,3.245c0.811,1.777,1.291,2.714,1.291,2.714c0.121,0.232,0.378,0.359,0.631,0.315
			c0.258-0.046,0.454-0.253,0.487-0.512c0,0,0.128-1.048,0.274-3l0.232-3.46c0.302-1.356,0.598-2.865,0.909-4.514
			c0.14-1.029,0.507-2.188,0.901-3.413c0.186-0.585,0.376-1.183,0.55-1.804c0.341-1.365,0.954-2.751,1.612-4.219
			c0.227-0.51,0.456-1.024,0.686-1.566c0.37-0.979,0.934-1.938,1.529-2.926l1.498-2.594l3.512-4.777
			c0.169-0.193,0.352-0.382,0.537-0.566l0.539-0.534l0.223-0.229l0.243-0.239c0.495-0.496,0.972-1.006,1.455-1.519
			c0.321-0.34,0.643-0.686,0.917-0.976l3.752-3.002c0.039-0.016,0.079-0.039,0.114-0.063l4.026-2.8l2.082-0.967
			c0.574-0.315,1.332-0.626,2.127-0.95c0.482-0.196,0.968-0.398,1.451-0.616c0.707-0.354,1.487-0.575,2.312-0.807
			c0.525-0.148,1.048-0.297,1.521-0.468c0.666-0.195,1.381-0.339,2.072-0.478c0.673-0.133,1.345-0.27,1.894-0.432
			c0.573-0.056,1.144-0.132,1.71-0.213c0.84-0.116,1.637-0.225,2.435-0.255c0.472-0.003,0.946-0.021,1.416-0.037
			c0.958-0.035,1.854-0.067,2.809,0.025l2.063,0.064l2.127,0.304c2.848,0.361,5.594,1.229,8.126,2.07
			c2.331,0.962,5.045,2.174,7.521,3.917c0.781,0.437,1.477,0.996,2.217,1.59c0.384,0.312,0.77,0.622,1.19,0.93
			c0.376,0.25,0.705,0.582,1.056,0.93c0.155,0.153,0.312,0.308,0.469,0.449l1.459,1.37l2.043,2.336
			c0.392,0.438,0.979,1.102,1.104,1.382c0.253,0.412,0.521,0.785,0.807,1.168c0.405,0.55,0.825,1.12,1.246,1.934
			c0.158,0.278,0.329,0.549,0.491,0.824c0.208,0.329,0.409,0.661,0.574,0.963c0.262,0.584,0.547,1.158,0.832,1.735l0.129,0.251
			c0.42,0.719,0.691,1.499,0.984,2.324c0.188,0.528,0.373,1.06,0.573,1.503c0.756,2.606,1.49,5.409,1.753,8.246l0.218,2.061
			l-0.014,2.162c0.047,0.902-0.021,1.787-0.091,2.724c-0.039,0.484-0.076,0.969-0.096,1.428c-0.489,5.26-2.152,10.479-4.939,15.511
			l-0.376,0.676c-0.543,0.973-1.054,1.896-1.72,2.736l-1.461,2.07c-0.033,0.051-0.059,0.104-0.076,0.16l-3.84,4.19l-0.748,0.644
			c-0.641,0.545-1.241,1.063-1.833,1.648c-0.166,0.153-0.331,0.313-0.493,0.474c-0.239,0.235-0.48,0.473-0.711,0.663l-0.214,0.147
			c-0.448,0.302-0.886,0.599-1.318,0.899c-1.032,0.715-2.036,1.414-2.951,2.058l-3.12,1.653c-1.101,0.612-2.027,1.085-2.984,1.409
			c-0.525,0.202-1.043,0.407-1.56,0.614c-1.496,0.601-2.906,1.165-4.312,1.458c-0.593,0.144-1.181,0.309-1.75,0.465
			c-1.26,0.353-2.443,0.682-3.57,0.782c-1.674,0.24-3.207,0.473-4.496,0.705l-6.43,0.291c-0.263,0.014-0.485,0.199-0.547,0.455
			c-0.064,0.254,0.05,0.521,0.278,0.651c0.038,0.022,0.915,0.532,2.67,1.411l3.349,1.634c1.285,0.462,2.845,0.967,4.732,1.528
			c1.373,0.519,2.865,0.734,4.446,0.959c0.597,0.086,1.212,0.176,1.819,0.28c1.796,0.385,3.674,0.371,5.654,0.361
			c0.66-0.005,1.338-0.009,2.055,0c0.224-0.005,0.455-0.005,0.682-0.002c0.48,0.002,0.976,0.007,1.484-0.061l6.707-1.004
			c1.155-0.28,2.291-0.632,3.49-1.004l3.656-1.145c0.584-0.224,1.179-0.507,1.778-0.792l0.771-0.361
			c1.495-0.698,3.196-1.563,5.245-2.671c1.326-0.846,2.678-1.708,4.047-2.586l1.494-0.96c0.018-0.015,0.082-0.065,0.1-0.079
			l-0.002-0.004c0.014-0.012,0.027-0.019,0.041-0.03h0.002c0-0.003,0.01-0.01,0.012-0.012c0.128-0.105,0.277-0.239,0.453-0.396
			l2.781-2.438c0.58-0.478,1.169-1.02,1.808-1.659c0.754-0.751,1.477-1.545,2.215-2.351l0.378-0.41
			c6.086-6.905,10.396-15.08,12.475-23.661c0.125-0.586,0.259-1.17,0.394-1.757c0.397-1.713,0.806-3.483,0.931-5.289l0.376-3.632
			l0.064-3.618c0.089-1.961-0.086-3.936-0.255-5.847c-0.049-0.522-0.096-1.051-0.139-1.61c-0.331-2.498-0.881-5.026-1.443-7.433
			c-0.214-0.682-0.413-1.374-0.613-2.065c-0.497-1.715-1.009-3.49-1.765-5.162l-1.486-3.544c-0.399-0.811-0.835-1.608-1.275-2.403
			l-0.528-0.969c-1.123-2.234-2.854-4.666-4.528-6.959c-0.693-0.984-1.179-1.543-1.651-2.083c-0.172-0.197-0.341-0.392-0.529-0.617
			l-1.964-2.28c-0.235-0.251-0.392-0.424-0.509-0.54c-0.01-0.012-0.018-0.025-0.032-0.037L265.021,161.104z"/>
		<g>
			<path fill="#2A2A2A" d="M187.937,218.75c5.159,15.525,21.929,23.927,37.452,18.768c15.529-5.165,23.928-21.937,18.77-37.461
				c-5.157-15.523-21.925-23.928-37.455-18.763C191.178,186.453,182.771,203.229,187.937,218.75z"/>
		</g>
		<path fill="#2A2A2A" d="M206.858,208.259l-74.239,74.238l-22.204-2.012c-0.146,0.01-0.284,0.069-0.39,0.172l-38.166,38.168
			c-0.156,0.159-0.213,0.396-0.139,0.612c0.072,0.212,0.263,0.366,0.488,0.394l21.354,4.562l6.072,1.483l1.484,6.092l4.56,21.334
			c0.029,0.226,0.183,0.416,0.396,0.49c0.214,0.074,0.453,0.016,0.613-0.141l38.167-38.167c0.104-0.106,0.165-0.243,0.171-0.389
			l-2.016-22.207l74.238-74.238c0.04-0.039,0.073-0.086,0.101-0.132c2.248-2.396,1.819-6.566-0.995-9.381
			C213.494,206.278,209.234,205.884,206.858,208.259z"/>
	</g>
	<g>
		<path fill="#2A2A2A" d="M293.99,187.343c-0.279,0.063-0.476,0.327-0.456,0.616c0,0,0.111,1.679,0.308,4.819
			c0.059,1.034,0.07,2.225,0.082,3.604c0.006,0.665,0.012,1.365,0.025,2.044c-0.057,0.793-0.09,1.625-0.125,2.492
			c-0.064,1.618-0.133,3.291-0.368,5.124c-0.684,6.764-2.127,13.314-4.29,19.476c-2.756,7.999-6.706,15.364-11.751,21.912
			c-0.854,1.203-1.862,2.376-2.84,3.51c-0.506,0.583-1.011,1.17-1.46,1.722l-0.346,0.343c-0.43,0.43-0.839,0.854-1.25,1.279
			c-0.417,0.432-0.836,0.869-1.289,1.321c-0.729,0.729-1.406,1.363-2.143,2.011l-1.979,1.821c-0.049,0.025-0.094,0.053-0.131,0.088
			c-0.02,0.012-0.039,0.025-0.059,0.039l-3.471,2.687c-1.537,1.321-3.34,2.437-5.082,3.514l-0.982,0.61
			c-9.058,5.522-19.002,9.051-28.729,10.203c-0.859,0.06-1.715,0.147-2.575,0.235c-1.749,0.179-3.561,0.367-5.382,0.302l-3.971,0.07
			l-4.05-0.341c-5.882-0.45-11.562-1.964-15.814-3.218l-3.851-1.449c-0.229-0.085-0.46-0.171-0.691-0.255
			c-0.407-0.146-0.814-0.289-1.181-0.444l-5.537-2.7c-0.717-0.393-1.416-0.821-2.115-1.249c-0.472-0.288-0.944-0.576-1.439-0.864
			c-1.167-0.622-2.172-1.299-3.12-1.982l-20.463,20.462c2.949,2.188,5.999,4.443,8.956,6.013l1.363,0.795
			c1.202,0.704,2.444,1.433,3.737,2.106l7.963,3.544c0.602,0.23,1.211,0.431,1.822,0.633l6.395,2.109
			c1.232,0.385,2.501,0.665,3.729,0.937c0.618,0.137,1.237,0.273,1.88,0.429c0.635,0.123,1.264,0.271,1.893,0.42
			c1.208,0.282,2.455,0.577,3.721,0.69c0.88,0.095,1.757,0.202,2.633,0.309c2.824,0.343,5.742,0.697,8.617,0.651l0.758,0.012
			c1.604,0.025,3.205,0.051,4.854,0.071l5.48-0.401c2.732-0.1,5.414-0.611,8.009-1.109c0.942-0.18,1.878-0.359,2.834-0.522
			c13.172-2.679,25.976-8.764,37.039-17.599l0.639-0.531c1.835-1.514,3.731-3.078,5.419-4.765c0.367-0.369,0.727-0.745,1.063-1.112
			l4.285-4.404l1.907-2.384c1.383-1.646,2.964-3.896,4.491-6.072l0.793-1.134c0.43-0.721,0.868-1.428,1.303-2.128
			c1.095-1.762,2.125-3.425,2.953-5.215c2.22-4.184,4.102-8.828,5.936-14.644c1.132-4.195,2.348-9.109,2.781-13.747
			c0.875-7.568,0.691-15.073-0.547-22.286c-0.337-2.391-0.889-4.536-1.377-6.43c-0.133-0.518-0.261-1.013-0.392-1.539l-0.627-1.944
			c-0.452-1.412-0.842-2.629-1.237-3.702l-1.865-4.502C294.563,187.425,294.274,187.275,293.99,187.343z"/>
		<path fill="#2A2A2A" d="M160.696,247.709c-4.043-5.681-7.335-12.022-9.678-18.763c-1.377-4.622-2.844-10.119-3.284-15.854
			l-0.344-3.991l0.052-4.065c-0.073-1.811,0.111-3.639,0.29-5.407c0.082-0.842,0.168-1.681,0.225-2.504
			c0.175-1.638,0.504-3.286,0.824-4.881c0.194-0.959,0.389-1.919,0.533-2.816l1.104-3.755c0.128-0.415,0.239-0.837,0.351-1.259
			c0.22-0.846,0.43-1.646,0.785-2.422l2.066-5.345l0.872-1.696c0.353-0.668,0.693-1.352,1.034-2.033
			c0.807-1.613,1.568-3.139,2.456-4.434l2.203-3.679l1.951-2.48c0.863-1.091,1.72-2.179,2.565-3.257l0.561-0.705
			c0.006-0.008,0.01-0.016,0.018-0.022c0.023-0.03,0.045-0.063,0.066-0.095l1.471-1.639c0.547-0.655,1.174-1.33,1.965-2.124
			c0.476-0.475,0.959-0.942,1.441-1.406c0.485-0.468,0.968-0.932,1.441-1.407l0.051-0.053c0.613-0.508,1.215-1.029,1.814-1.548
			c1.169-1.014,2.273-1.969,3.482-2.83c6.508-5.04,13.868-9.006,21.877-11.787c6.148-2.174,12.697-3.632,19.484-4.335
			c1.806-0.229,3.473-0.3,5.084-0.368c0.878-0.037,1.718-0.074,2.471-0.132c0.721,0.01,1.41,0.014,2.065,0.019
			c1.377,0.007,2.566,0.014,3.606,0.069l4.842,0.311c0.291,0.019,0.554-0.178,0.614-0.458c0.067-0.283-0.084-0.573-0.353-0.685
			l-4.502-1.852c-1.018-0.373-2.206-0.748-3.583-1.185c-0.652-0.206-1.344-0.424-2.115-0.673c-0.491-0.117-0.999-0.247-1.525-0.382
			c-1.887-0.478-4.025-1.021-6.386-1.342c-7.234-1.22-14.736-1.382-22.282-0.482c-4.597,0.44-9.323,1.618-13.77,2.83
			c-5.775,1.828-10.413,3.726-14.571,5.952c-1.836,0.858-3.601,1.954-5.309,3.016c-0.676,0.42-1.354,0.844-2.09,1.284
			c-0.607,0.436-1.226,0.867-1.847,1.3c-1.763,1.233-3.584,2.506-5.272,3.959l-2.682,2.193l-6.338,6.184l-4.043,4.823
			c-1.896,2.135-3.362,4.393-4.78,6.578c-0.358,0.552-0.719,1.105-1.091,1.667l-1.395,2.15l-3.551,6.774
			c-1.158,2.289-2.098,4.741-3.007,7.11c-0.329,0.853-0.656,1.71-1.017,2.623c-0.271,0.969-0.557,1.94-0.842,2.914
			c-0.707,2.4-1.436,4.886-1.943,7.431c-0.158,0.948-0.339,1.896-0.519,2.849c-0.49,2.584-0.995,5.259-1.091,7.962l-0.391,5.549
			l0.101,5.535c-0.04,2.913,0.327,5.848,0.682,8.685c0.107,0.857,0.213,1.718,0.31,2.56c0.1,1.292,0.401,2.551,0.695,3.769
			c0.146,0.618,0.295,1.237,0.425,1.889c0.148,0.607,0.286,1.219,0.423,1.833c0.272,1.233,0.559,2.508,0.942,3.737
			c3.231,11.144,8.646,21.711,15.872,31.077L160.696,247.709z"/>
	</g>
</g>
</svg>
