<?xml version="1.0" encoding="utf-8"?>
<!-- Generator: Adobe Illustrator 16.0.3, SVG Export Plug-In . SVG Version: 6.00 Build 0)  -->
<!DOCTYPE svg PUBLIC "-//W3C//DTD SVG 1.1//EN" "http://www.w3.org/Graphics/SVG/1.1/DTD/svg11.dtd">
<svg version="1.1" id="Ebene_1" xmlns="http://www.w3.org/2000/svg" xmlns:xlink="http://www.w3.org/1999/xlink" x="0px" y="0px"
	 width="425.197px" height="425.197px" viewBox="0 0 425.197 425.197" enable-background="new 0 0 425.197 425.197"
	 xml:space="preserve">
<g>
	<g>
		<path fill="#2A2A2A" d="M415.516,8.316l-82.336,33.48c-0.326,0.131-0.537,0.445-0.539,0.797c0.002,0.348,0.213,0.662,0.543,0.795
			l24.125,9.734l-161.23,161.232c-0.332,0.335-0.332,0.877,0,1.213l13.797,13.795c0.336,0.335,0.875,0.335,1.213,0L372.105,68.344
			l9.457,23.426c0.129,0.321,0.443,0.535,0.793,0.535c0.232,0,0.453-0.093,0.609-0.252c0.084-0.076,0.145-0.173,0.188-0.283
			l33.479-82.336c0.131-0.323,0.055-0.686-0.186-0.929C416.199,8.262,415.832,8.187,415.516,8.316z"/>
		<path fill="#2A2A2A" d="M356.428,87.096c-0.58-0.644-1.164-1.283-1.768-1.969l-6.773-7.53c-0.381-0.399-0.68-0.708-0.918-0.925
			c-0.012-0.014-0.023-0.031-0.031-0.043l-0.008,0.002c-0.021-0.013-0.029-0.023-0.045-0.037l0.006-0.007
			c-0.006-0.005-0.125-0.117-0.125-0.123l-8.305-7.454c-0.664-0.587-1.322-1.176-1.984-1.764c-2.178-1.955-4.428-3.974-6.908-5.643
			c-1.197-0.869-2.393-1.745-3.59-2.622c-4.93-3.613-10.027-7.35-15.516-10.28c-0.992-0.568-1.979-1.151-2.967-1.725
			c-2.285-1.339-4.637-2.725-7.063-3.989l-15.699-6.998c-1.199-0.464-2.434-0.872-3.656-1.281c-0.586-0.191-1.162-0.384-1.744-0.583
			l-10.777-3.581c-2.422-0.756-4.918-1.309-7.334-1.843c-1.23-0.271-2.457-0.542-3.688-0.845l-8.285-1.861l-2.791-0.345
			c-1.762-0.196-3.516-0.417-5.264-0.639c-5.541-0.698-11.266-1.419-16.922-1.343l-11.051-0.214l-10.836,0.763
			c-5.318,0.175-10.564,1.15-15.621,2.089c-1.926,0.362-3.844,0.719-5.738,1.027c-2.48,0.347-4.887,1.039-7.221,1.711
			c-1.049,0.298-2.1,0.603-3.176,0.875l-10.154,2.894l-9.703,3.748c-0.938,0.397-1.883,0.766-2.832,1.135
			c-2.223,0.872-4.523,1.767-6.631,2.957l-13.5,7.005l-4.199,2.708c-1.133,0.749-2.27,1.474-3.402,2.203
			c-4.295,2.766-8.746,5.623-12.881,9.261c-2.582,2.13-5.137,4.239-7.697,6.341l-1.932,1.629L85.244,82.389l-4.301,5.19
			C78,90.946,75.428,94.566,72.938,98.07c-0.857,1.208-1.701,2.404-2.598,3.632l-4.488,7.194c-1.645,2.507-3.004,5.108-4.111,7.3
			c-5.879,10.718-9.752,21.625-12.172,28.934c-2.371,8.299-4.932,18.03-5.957,27.301c-1.994,15.035-1.904,30.029,0.266,44.536
			c0.551,4.665,1.533,8.889,2.393,12.62c0.268,1.148,0.525,2.256,0.773,3.389c0.426,1.42,0.82,2.784,1.201,4.064
			c0.83,2.827,1.547,5.272,2.264,7.382l3.51,9.121c0.15,0.401,0.572,0.63,0.988,0.528c0.42-0.095,0.703-0.487,0.658-0.912
			l-0.908-9.72c-0.166-2.029-0.246-4.333-0.334-6.985c-0.049-1.428-0.102-2.927-0.172-4.427c0.07-1.574,0.1-3.222,0.119-4.937
			c0.055-3.318,0.107-6.749,0.492-10.517c1.055-13.761,3.695-27.183,7.865-39.903c2.064-6.678,5.092-14.099,9.221-22.643
			c3.863-7.174,8.24-15.313,14.018-22.792c1.436-2.042,2.826-3.843,4.256-5.52l4.486-5.47c1.012-1.045,2.002-2.115,2.996-3.185
			c2.121-2.28,4.307-4.638,6.701-6.777l0.523-0.457l3.512-3.278c0.02-0.014,0.033-0.027,0.057-0.041l0.002-0.003
			c0.006-0.002,0.014-0.01,0.018-0.012c0.021-0.014,0.045-0.034,0.07-0.051l12.785-10.369l7.783-4.903
			c2.695-1.924,5.887-3.574,9.262-5.327c1.357-0.703,2.717-1.409,4.043-2.127l3.414-1.826l11.195-4.522
			c1.568-0.746,3.246-1.215,5.018-1.708c0.855-0.237,1.721-0.479,2.557-0.746l7.703-2.374l8.029-1.629
			c0.924-0.163,1.832-0.362,2.748-0.565c1.725-0.38,3.502-0.769,5.311-0.854c1.715-0.149,3.424-0.34,5.125-0.531
			c3.732-0.418,7.582-0.854,11.451-0.742l8.332-0.191l8.473,0.645c3.893,0.094,7.832,0.805,11.635,1.491
			c1.691,0.306,3.385,0.613,5.109,0.872c1.744,0.2,3.416,0.678,5.195,1.179c0.996,0.283,2,0.564,2.977,0.787
			c1.008,0.286,2.027,0.54,3.055,0.792c1.703,0.42,3.475,0.861,5.135,1.455l8.051,2.971c0.531,0.199,1.063,0.389,1.586,0.578
			c0.813,0.289,1.629,0.578,2.381,0.888l11.6,5.62c1.488,0.815,2.938,1.698,4.387,2.581c1.006,0.609,2.014,1.219,3.053,1.82
			c3.705,1.961,7.141,4.542,10.469,7.034c1.223,0.917,2.439,1.834,3.707,2.748c1.707,1.116,3.174,2.494,4.746,3.951
			c0.576,0.539,1.154,1.082,1.74,1.601l5.641,5.116l6.746,7.266c0.559,0.625,1.146,1.265,1.738,1.904
			c1.67,1.803,3.387,3.667,4.287,5.138c0.934,1.344,1.898,2.637,2.877,3.938c2.16,2.882,4.395,5.867,6.348,9.501
			c0.58,0.991,1.18,1.977,1.785,2.957c0.877,1.446,1.803,2.942,2.602,4.401l3.742,7.771l1.891,3.815
			c0.346,0.824,0.641,1.66,0.947,2.494c0.176,0.503,0.359,1.002,0.549,1.497l2.998,8.044c0.586,1.632,1.018,3.367,1.449,5.04
			c0.25,1.056,0.518,2.113,0.818,3.139l1.643,6.107l0.334,2.101c0.258,1.692,0.563,3.372,0.875,5.057
			c0.697,3.811,1.416,7.754,1.535,11.689l0.666,8.347l-0.164,8.444c0.111,3.799-0.309,7.616-0.713,11.318
			c-0.191,1.738-0.379,3.475-0.521,5.249c-0.08,1.778-0.453,3.479-0.844,5.28c-0.199,0.909-0.396,1.829-0.551,2.726l-1.582,7.968
			l-2.379,7.775c-0.271,0.855-0.514,1.722-0.75,2.593c-0.492,1.767-0.953,3.436-1.713,5.065c-3.969,10.527-8.65,20.003-13.9,28.162
			l-4.178,6.551c-0.578,0.991-1.281,1.963-2.172,3.006l-8.104,10.194c-0.014,0.02-0.035,0.043-0.045,0.06
			c-0.039,0.052-0.08,0.113-0.111,0.169l-0.982,1.032c-0.938,1-1.877,2.004-2.824,3.014c-2.584,2.905-4.881,5.052-7.096,7.127
			c-1.08,1.01-2.15,2.011-3.182,3.031c-1.221,0.98-2.424,1.982-3.613,2.989c-2.391,2.003-4.855,4.063-7.432,5.844
			c-7.5,5.84-15.584,10.211-22.676,14.051c-8.602,4.185-16.006,7.233-22.652,9.313c-12.682,4.199-26.092,6.886-39.881,7.992
			c-3.713,0.399-7.125,0.458-10.43,0.52c-1.736,0.035-3.406,0.063-4.928,0.147c-1.482-0.062-2.895-0.106-4.24-0.147
			c-2.785-0.093-5.186-0.169-7.273-0.319l-9.695-0.873c-0.432-0.04-0.818,0.248-0.916,0.661c-0.092,0.416,0.137,0.843,0.533,0.993
			c0,0,3.193,1.212,9.197,3.5c2.088,0.706,4.512,1.413,7.316,2.225c1.285,0.38,2.645,0.77,4.139,1.212
			c1.039,0.223,2.121,0.47,3.238,0.732c3.764,0.859,8.02,1.841,12.699,2.387c14.521,2.137,29.52,2.195,44.549,0.163
			c9.385-1.071,19.078-3.654,27.354-6.053c7.918-2.649,18.365-6.438,28.861-12.225l3.688-1.932c0.795-0.452,1.572-0.941,2.357-1.431
			c0.41-0.259,0.82-0.515,1.236-0.771l7.266-4.561c0.934-0.685,1.9-1.377,2.875-2.078c3.973-2.874,8.082-5.841,11.18-8.534
			l4.773-3.943c0.006-0.007,0.014-0.015,0.016-0.018c0.01-0.005,0.021-0.02,0.039-0.03l11.773-11.779
			c1.24-1.179,2.293-2.35,3.23-3.563l6.037-7.403c17.215-22.041,28.998-47.462,34.088-73.534c0.303-1.867,0.641-3.736,0.988-5.61
			c0.938-5.116,1.91-10.405,2.053-15.738l0.736-10.959l-0.244-10.956c0.057-5.667-0.674-11.391-1.395-16.92
			c-0.223-1.755-0.447-3.519-0.656-5.303l-0.389-2.846l-1.869-8.222c-0.295-1.197-0.566-2.407-0.836-3.62
			c-0.547-2.427-1.113-4.947-1.891-7.395l-3.602-10.759c-0.227-0.646-0.449-1.298-0.67-1.956c-0.381-1.152-0.773-2.301-1.217-3.476
			l-7.08-15.674c-1.217-2.319-2.568-4.609-3.877-6.822c-0.619-1.049-1.238-2.092-1.832-3.123c-3.102-5.801-7.467-11.65-11.686-17.31
			l-1.867-2.509C359.766,90.771,358.07,88.903,356.428,87.096z"/>
		<path fill="#9D9D9C" d="M287.746,138.588c-0.008-0.014-0.02-0.023-0.033-0.034l0.008-0.007c-0.012-0.01-0.145-0.137-0.16-0.146
			l-4.707-4.413c-1.047-0.978-2.129-1.986-3.318-2.836l-0.695-0.527c-2.684-2.053-5.451-4.177-8.455-5.857l-1.389-0.831
			c-1.119-0.682-2.25-1.357-3.449-2.002l-4.965-2.302c-2.369-1.186-4.877-2.021-7.314-2.833c-1.008-0.329-2.012-0.665-3.066-1.044
			c-3.74-1.012-7.119-1.898-10.629-2.463c-0.754-0.087-1.512-0.189-2.266-0.286c-2.746-0.356-5.588-0.724-8.395-0.707
			c-1.756-0.036-3.502-0.072-5.318-0.113l-5.172,0.338c-2.637,0.087-5.229,0.579-7.719,1.057c-0.852,0.161-1.689,0.321-2.555,0.468
			c-2.492,0.505-4.914,1.224-7.264,1.918c-0.836,0.246-1.658,0.491-2.561,0.751l-1.775,0.691c-2.449,0.943-4.971,1.914-7.363,3.133
			c-0.889,0.502-1.793,0.969-2.691,1.43c-1.91,0.987-3.885,2.004-5.654,3.28l-1.373,0.916c-2.184,1.437-4.242,2.797-6.365,4.705
			l-4.662,4.021l-4.855,5.271c-0.41,0.375-0.566,0.522-0.605,0.56c-0.063,0.059-0.107,0.126-0.152,0.195
			c-0.006,0.012-0.023,0.029-0.023,0.038l-6.555,9.038c-1.344,2.367-2.592,4.7-3.713,6.936c-0.184,0.377-0.381,0.75-0.568,1.122
			c-0.389,0.759-0.771,1.508-1.117,2.325l-1.732,4.827c-0.646,1.824-1.26,3.551-1.779,5.381l-1.822,9.559
			c-0.121,0.727-0.141,1.448-0.166,2.14c-0.01,0.324-0.02,0.649-0.041,1c-0.025,0.966-0.072,1.917-0.111,2.841
			c-0.131,2.892-0.262,5.626,0.18,8.223c0.121,0.919,0.215,1.81,0.303,2.675c0.238,2.29,0.463,4.449,1.111,6.476
			c0.678,2.692,1.346,5.07,2.008,7.159l2.104,4.688c1.168,2.565,1.863,3.919,1.863,3.919c0.178,0.333,0.547,0.52,0.912,0.457
			c0.373-0.067,0.656-0.366,0.705-0.741c0,0,0.184-1.514,0.395-4.333l0.334-4.998c0.439-1.959,0.867-4.139,1.316-6.52
			c0.199-1.484,0.73-3.16,1.299-4.929c0.271-0.844,0.545-1.708,0.797-2.605c0.492-1.971,1.379-3.975,2.326-6.092
			c0.326-0.738,0.66-1.48,0.992-2.263c0.533-1.412,1.348-2.797,2.207-4.226l2.168-3.747l5.072-6.898
			c0.24-0.284,0.506-0.555,0.773-0.821l0.777-0.773l0.324-0.332l0.346-0.343c0.719-0.716,1.406-1.452,2.102-2.194
			c0.469-0.492,0.932-0.99,1.328-1.41l5.42-4.334c0.057-0.022,0.113-0.056,0.164-0.09l5.816-4.044l3.008-1.396
			c0.828-0.456,1.92-0.902,3.072-1.371c0.695-0.287,1.4-0.577,2.094-0.892c1.023-0.513,2.15-0.831,3.338-1.164
			c0.76-0.215,1.512-0.429,2.193-0.678c0.967-0.28,1.998-0.489,2.994-0.689c0.977-0.188,1.947-0.389,2.738-0.624
			c0.828-0.08,1.652-0.19,2.471-0.308c1.211-0.166,2.365-0.324,3.516-0.367c0.68-0.005,1.361-0.031,2.047-0.053
			c1.381-0.05,2.68-0.098,4.055,0.036l2.98,0.094l3.07,0.438c4.113,0.521,8.082,1.775,11.734,2.989
			c3.369,1.391,7.287,3.14,10.865,5.66c1.129,0.628,2.135,1.438,3.203,2.295c0.555,0.448,1.111,0.897,1.721,1.34
			c0.545,0.361,1.021,0.844,1.523,1.346c0.225,0.22,0.453,0.444,0.676,0.648l2.107,1.978l2.949,3.373
			c0.568,0.636,1.414,1.594,1.6,1.998c0.361,0.597,0.75,1.134,1.162,1.687c0.586,0.793,1.189,1.618,1.801,2.792
			c0.232,0.399,0.475,0.794,0.707,1.192c0.305,0.473,0.596,0.954,0.834,1.388c0.375,0.845,0.787,1.675,1.201,2.507l0.189,0.362
			c0.6,1.039,0.994,2.168,1.418,3.36c0.271,0.763,0.541,1.529,0.828,2.168c1.092,3.768,2.152,7.814,2.531,11.912l0.313,2.977
			l-0.018,3.122c0.068,1.305-0.033,2.581-0.129,3.935c-0.061,0.7-0.115,1.4-0.139,2.062c-0.711,7.596-3.111,15.137-7.139,22.401
			l-0.541,0.978c-0.783,1.405-1.523,2.737-2.484,3.95l-2.109,2.992c-0.051,0.073-0.086,0.148-0.111,0.23l-5.547,6.051l-1.076,0.933
			c-0.928,0.787-1.797,1.53-2.65,2.378c-0.238,0.222-0.479,0.452-0.711,0.685c-0.346,0.339-0.693,0.682-1.031,0.958l-0.305,0.213
			c-0.648,0.434-1.279,0.864-1.906,1.299c-1.49,1.029-2.941,2.04-4.262,2.973l-4.506,2.385c-1.59,0.884-2.928,1.569-4.314,2.036
			c-0.754,0.292-1.504,0.588-2.244,0.887c-2.164,0.867-4.203,1.682-6.23,2.104c-0.855,0.209-1.705,0.446-2.531,0.676
			c-1.814,0.509-3.523,0.984-5.156,1.128c-2.412,0.349-4.633,0.682-6.486,1.018l-9.293,0.419c-0.379,0.023-0.699,0.289-0.787,0.66
			c-0.098,0.366,0.066,0.751,0.402,0.939c0.049,0.034,1.318,0.767,3.854,2.038l4.838,2.362c1.854,0.665,4.105,1.396,6.834,2.203
			c1.984,0.751,4.139,1.063,6.422,1.386c0.859,0.125,1.752,0.256,2.629,0.407c2.594,0.557,5.305,0.537,8.166,0.522
			c0.955-0.008,1.93-0.014,2.967,0c0.324-0.008,0.656-0.008,0.984-0.002c0.691,0.002,1.408,0.008,2.143-0.087l9.688-1.452
			c1.668-0.404,3.316-0.912,5.041-1.447l5.281-1.655c0.844-0.325,1.705-0.734,2.574-1.146l1.107-0.523
			c2.16-1.006,4.623-2.253,7.58-3.855c1.916-1.221,3.865-2.465,5.846-3.737l2.158-1.385c0.025-0.02,0.115-0.093,0.143-0.113
			l-0.004-0.005c0.02-0.018,0.043-0.028,0.061-0.045h0.004c0-0.002,0.014-0.014,0.018-0.017c0.184-0.15,0.398-0.345,0.652-0.572
			l4.016-3.522c0.834-0.688,1.688-1.473,2.615-2.396c1.084-1.085,2.129-2.229,3.195-3.396l0.547-0.591
			c8.789-9.972,15.016-21.781,18.016-34.173c0.182-0.847,0.375-1.692,0.568-2.537c0.576-2.476,1.166-5.034,1.346-7.641l0.543-5.245
			l0.094-5.227c0.127-2.833-0.127-5.686-0.371-8.444c-0.068-0.756-0.135-1.52-0.199-2.328c-0.479-3.609-1.271-7.263-2.084-10.735
			c-0.309-0.984-0.598-1.986-0.883-2.982c-0.723-2.478-1.459-5.042-2.553-7.457l-2.146-5.118c-0.58-1.172-1.205-2.321-1.84-3.473
			l-0.766-1.399c-1.617-3.226-4.123-6.739-6.541-10.052c-1-1.421-1.697-2.227-2.381-3.008c-0.248-0.283-0.496-0.565-0.768-0.89
			l-2.836-3.293c-0.344-0.364-0.564-0.613-0.732-0.782c-0.018-0.017-0.029-0.037-0.047-0.053L287.746,138.588z"/>
		<g>
			<path fill="#C6C6C6" d="M176.408,221.845c7.449,22.426,31.674,34.562,54.098,27.11c22.43-7.459,34.557-31.684,27.105-54.11
				c-7.449-22.417-31.668-34.556-54.098-27.098C181.09,175.199,168.947,199.431,176.408,221.845z"/>
		</g>
		<path fill="#2A2A2A" d="M203.738,206.696L96.51,313.922l-32.07-2.907c-0.211,0.013-0.412,0.101-0.561,0.248L8.75,366.39
			c-0.225,0.231-0.305,0.571-0.201,0.884c0.109,0.311,0.381,0.528,0.705,0.568l30.846,6.591l8.77,2.144l2.145,8.799l6.584,30.814
			c0.045,0.324,0.268,0.601,0.574,0.708c0.307,0.106,0.65,0.022,0.887-0.205l55.125-55.127c0.148-0.153,0.238-0.352,0.246-0.561
			l-2.912-32.075l107.23-107.229c0.055-0.054,0.102-0.122,0.139-0.189c3.248-3.461,2.633-9.483-1.438-13.549
			C213.324,203.833,207.17,203.262,203.738,206.696z"/>
	</g>
	<g>
		<path fill="#706F6F" d="M329.586,176.485c-0.404,0.09-0.689,0.472-0.656,0.891c0,0,0.162,2.423,0.445,6.96
			c0.082,1.493,0.098,3.214,0.115,5.204c0.012,0.962,0.018,1.973,0.037,2.952c-0.08,1.147-0.131,2.346-0.182,3.601
			c-0.092,2.337-0.191,4.752-0.531,7.402c-0.986,9.767-3.074,19.228-6.197,28.125c-3.979,11.554-9.684,22.195-16.973,31.651
			c-1.234,1.735-2.689,3.433-4.102,5.069c-0.729,0.844-1.459,1.691-2.105,2.488l-0.502,0.494c-0.619,0.62-1.209,1.232-1.807,1.848
			c-0.598,0.622-1.209,1.257-1.857,1.91c-1.053,1.049-2.033,1.965-3.096,2.9l-2.857,2.633c-0.07,0.037-0.137,0.076-0.191,0.127
			c-0.029,0.017-0.057,0.036-0.086,0.057l-5.008,3.88c-2.227,1.908-4.824,3.519-7.342,5.075l-1.416,0.879
			c-13.088,7.979-27.447,13.076-41.496,14.738c-1.242,0.086-2.482,0.215-3.721,0.342c-2.527,0.259-5.141,0.53-7.773,0.436
			l-5.734,0.102l-5.852-0.492c-8.496-0.651-16.699-2.837-22.844-4.649l-5.557-2.091c-0.332-0.123-0.666-0.248-1-0.369
			c-0.592-0.211-1.178-0.418-1.703-0.644l-8-3.898c-1.033-0.565-2.045-1.186-3.057-1.804c-0.682-0.416-1.363-0.833-2.076-1.253
			c-1.686-0.896-3.139-1.872-4.506-2.86l-29.561,29.557c4.262,3.157,8.664,6.416,12.938,8.684l1.969,1.147
			c1.734,1.017,3.533,2.068,5.4,3.043l11.504,5.117c0.865,0.332,1.746,0.623,2.625,0.914l9.24,3.048
			c1.779,0.557,3.611,0.958,5.383,1.352c0.898,0.197,1.789,0.396,2.719,0.619c0.918,0.176,1.826,0.391,2.732,0.604
			c1.744,0.411,3.549,0.838,5.375,1.001c1.27,0.138,2.539,0.294,3.799,0.445c4.08,0.495,8.295,1.008,12.449,0.94l1.094,0.019
			c2.318,0.035,4.631,0.071,7.014,0.101l7.914-0.578c3.945-0.143,7.818-0.881,11.566-1.603c1.361-0.258,2.713-0.521,4.088-0.754
			c19.029-3.87,37.523-12.656,53.502-25.418l0.924-0.771c2.65-2.186,5.389-4.445,7.826-6.881c0.529-0.531,1.049-1.073,1.537-1.607
			l6.186-6.361l2.756-3.439c2.002-2.377,4.281-5.628,6.49-8.771l1.146-1.637c0.613-1.042,1.248-2.063,1.879-3.073
			c1.578-2.547,3.068-4.949,4.264-7.533c3.205-6.044,5.926-12.753,8.574-21.152c1.633-6.059,3.389-13.157,4.016-19.854
			c1.264-10.933,0.998-21.774-0.789-32.192c-0.486-3.45-1.283-6.55-1.99-9.285c-0.193-0.745-0.375-1.464-0.563-2.225l-0.908-2.81
			c-0.652-2.037-1.215-3.793-1.787-5.346l-2.689-6.499C330.418,176.602,329.994,176.385,329.586,176.485z"/>
		<path fill="#706F6F" d="M137.059,263.673c-5.836-8.203-10.588-17.363-13.973-27.099c-1.988-6.677-4.105-14.617-4.746-22.9
			l-0.492-5.765l0.074-5.872c-0.107-2.614,0.162-5.256,0.414-7.81c0.121-1.212,0.244-2.428,0.328-3.616
			c0.254-2.367,0.73-4.745,1.191-7.051c0.279-1.386,0.559-2.77,0.77-4.067l1.594-5.422c0.188-0.6,0.348-1.208,0.506-1.818
			c0.32-1.222,0.619-2.378,1.135-3.499l2.988-7.72l1.258-2.45c0.506-0.966,1.002-1.953,1.492-2.936
			c1.166-2.332,2.27-4.534,3.547-6.407l3.184-5.311l2.814-3.582c1.25-1.577,2.486-3.148,3.707-4.704l0.811-1.016
			c0.01-0.014,0.016-0.024,0.027-0.034c0.033-0.043,0.063-0.09,0.092-0.138l2.127-2.37c0.791-0.946,1.693-1.919,2.84-3.064
			c0.686-0.688,1.385-1.363,2.082-2.033c0.701-0.676,1.396-1.345,2.08-2.032l0.072-0.079c0.885-0.732,1.754-1.484,2.619-2.235
			c1.689-1.461,3.285-2.843,5.029-4.088c9.402-7.277,20.033-13.007,31.602-17.022c8.879-3.141,18.34-5.246,28.145-6.259
			c2.605-0.333,5.014-0.437,7.34-0.534c1.266-0.054,2.482-0.107,3.564-0.189c1.043,0.012,2.041,0.02,2.984,0.026
			c1.992,0.011,3.711,0.02,5.211,0.101l6.994,0.448c0.42,0.026,0.803-0.258,0.891-0.665c0.09-0.406-0.121-0.825-0.51-0.986
			l-6.508-2.672c-1.469-0.541-3.186-1.083-5.178-1.712c-0.936-0.298-1.936-0.611-3.051-0.971c-0.709-0.172-1.441-0.359-2.203-0.552
			c-2.723-0.693-5.813-1.476-9.225-1.94c-10.447-1.758-21.281-1.993-32.184-0.695c-6.639,0.634-13.465,2.337-19.885,4.089
			c-8.342,2.64-15.041,5.378-21.049,8.595c-2.648,1.238-5.199,2.822-7.666,4.357c-0.973,0.604-1.957,1.217-3.016,1.856
			c-0.877,0.628-1.771,1.25-2.668,1.876c-2.547,1.781-5.18,3.62-7.615,5.718l-3.875,3.168l-9.156,8.931l-5.834,6.967
			c-2.742,3.085-4.859,6.342-6.904,9.5c-0.521,0.796-1.041,1.599-1.58,2.407l-2.012,3.107l-5.129,9.786
			c-1.676,3.303-3.029,6.846-4.344,10.269c-0.475,1.231-0.947,2.472-1.469,3.788c-0.391,1.398-0.801,2.803-1.215,4.208
			c-1.021,3.47-2.076,7.059-2.811,10.734c-0.225,1.371-0.488,2.738-0.746,4.114c-0.707,3.733-1.436,7.596-1.574,11.5l-0.566,8.016
			l0.145,7.994c-0.055,4.208,0.475,8.446,0.984,12.542c0.158,1.24,0.313,2.482,0.447,3.697c0.145,1.869,0.576,3.689,1.004,5.442
			c0.217,0.894,0.432,1.788,0.613,2.729c0.219,0.88,0.414,1.763,0.609,2.649c0.4,1.782,0.811,3.623,1.367,5.396
			c4.662,16.097,12.482,31.359,22.92,44.888L137.059,263.673z"/>
	</g>
</g>
</svg>
