<?xml version="1.0" encoding="utf-8"?>
<!-- Generator: Adobe Illustrator 16.0.3, SVG Export Plug-In . SVG Version: 6.00 Build 0)  -->
<!DOCTYPE svg PUBLIC "-//W3C//DTD SVG 1.1//EN" "http://www.w3.org/Graphics/SVG/1.1/DTD/svg11.dtd">
<svg version="1.1" id="Ebene_1" xmlns="http://www.w3.org/2000/svg" xmlns:xlink="http://www.w3.org/1999/xlink" x="0px" y="0px"
	 width="425.197px" height="425.197px" viewBox="0 0 425.197 425.197" enable-background="new 0 0 425.197 425.197"
	 xml:space="preserve">
<g>
	<g>
		<path fill="#2A2A2A" d="M415.516,8.317l-82.334,33.479c-0.326,0.133-0.537,0.446-0.541,0.799c0.004,0.349,0.217,0.661,0.543,0.794
			l24.123,9.735L196.08,214.354c-0.338,0.336-0.338,0.879-0.004,1.214l13.797,13.796c0.336,0.336,0.875,0.336,1.215,0
			L372.105,68.346l9.457,23.425c0.131,0.321,0.445,0.536,0.793,0.536c0.23,0,0.453-0.095,0.607-0.252
			c0.082-0.077,0.145-0.175,0.189-0.284l33.479-82.337c0.131-0.32,0.053-0.686-0.186-0.931
			C416.199,8.263,415.834,8.187,415.516,8.317z"/>
		<path fill="#2A2A2A" d="M356.428,87.096c-0.58-0.642-1.166-1.28-1.766-1.969l-6.775-7.528c-0.381-0.397-0.682-0.709-0.916-0.927
			c-0.014-0.014-0.021-0.03-0.033-0.043l-0.006,0.004c-0.023-0.015-0.035-0.025-0.051-0.04l0.01-0.005
			c-0.01-0.008-0.123-0.117-0.123-0.124l-8.307-7.453c-0.664-0.586-1.324-1.174-1.982-1.764c-2.178-1.955-4.43-3.974-6.908-5.644
			c-1.201-0.867-2.396-1.744-3.596-2.62c-4.926-3.614-10.021-7.351-15.512-10.28c-0.994-0.568-1.98-1.15-2.969-1.727
			c-2.281-1.34-4.635-2.725-7.063-3.987l-15.697-7c-1.201-0.461-2.438-0.87-3.658-1.279c-0.582-0.19-1.162-0.384-1.744-0.585
			l-10.777-3.579c-2.422-0.756-4.918-1.309-7.334-1.844c-1.232-0.271-2.455-0.543-3.682-0.845l-8.293-1.861l-2.793-0.345
			c-1.756-0.197-3.51-0.417-5.258-0.64c-5.543-0.698-11.268-1.419-16.92-1.342l-11.053-0.215l-10.838,0.764
			c-5.316,0.173-10.561,1.148-15.621,2.089c-1.922,0.362-3.84,0.72-5.736,1.028c-2.482,0.344-4.891,1.038-7.223,1.709
			c-1.049,0.3-2.104,0.603-3.172,0.875l-10.158,2.893l-9.699,3.749c-0.941,0.396-1.885,0.768-2.836,1.135
			c-2.219,0.871-4.521,1.769-6.625,2.956l-13.506,7.008l-4.193,2.703c-1.139,0.752-2.273,1.478-3.404,2.208
			c-4.299,2.765-8.748,5.62-12.879,9.26c-2.586,2.128-5.141,4.238-7.705,6.34l-1.928,1.628l-12.455,12.59l-4.301,5.189
			c-2.943,3.368-5.518,6.99-8.004,10.493c-0.859,1.207-1.705,2.403-2.602,3.632l-4.484,7.193c-1.648,2.508-3.008,5.11-4.109,7.302
			c-5.879,10.716-9.756,21.623-12.174,28.932c-2.375,8.301-4.936,18.031-5.957,27.301c-1.998,15.035-1.902,30.03,0.264,44.537
			c0.551,4.666,1.531,8.891,2.393,12.621c0.266,1.148,0.525,2.255,0.773,3.39c0.426,1.42,0.824,2.78,1.201,4.062
			c0.828,2.828,1.547,5.272,2.266,7.386l3.506,9.119c0.152,0.401,0.576,0.629,0.992,0.528c0.416-0.094,0.705-0.489,0.66-0.915
			l-0.912-9.717c-0.164-2.032-0.244-4.333-0.334-6.987c-0.049-1.425-0.102-2.926-0.174-4.427c0.072-1.572,0.1-3.22,0.123-4.937
			c0.053-3.319,0.104-6.746,0.492-10.516c1.053-13.762,3.691-27.185,7.857-39.901c2.072-6.679,5.1-14.098,9.23-22.646
			c3.859-7.174,8.238-15.313,14.016-22.791c1.434-2.042,2.82-3.844,4.254-5.521l4.488-5.472c1.01-1.044,2-2.111,2.996-3.182
			c2.117-2.281,4.305-4.638,6.699-6.777l0.525-0.459l3.508-3.276c0.02-0.014,0.035-0.026,0.057-0.041l0.002-0.003
			c0.006-0.003,0.016-0.01,0.02-0.013c0.023-0.014,0.047-0.033,0.068-0.051l12.787-10.371l7.779-4.901
			c2.695-1.924,5.887-3.576,9.266-5.326c1.357-0.704,2.721-1.41,4.043-2.129l3.418-1.825l11.189-4.523
			c1.574-0.746,3.25-1.214,5.021-1.706c0.854-0.238,1.721-0.479,2.551-0.748l7.709-2.374l8.027-1.63
			c0.924-0.159,1.834-0.361,2.748-0.565c1.725-0.379,3.502-0.767,5.309-0.854c1.713-0.146,3.424-0.337,5.131-0.529
			c3.725-0.419,7.578-0.852,11.447-0.742l8.33-0.19l8.473,0.646c3.895,0.093,7.832,0.803,11.637,1.489
			c1.691,0.304,3.383,0.612,5.109,0.869c1.744,0.201,3.42,0.681,5.193,1.179c1.002,0.284,2.006,0.566,2.973,0.79
			c1.016,0.285,2.035,0.539,3.059,0.79c1.707,0.423,3.477,0.862,5.137,1.454l8.053,2.972c0.527,0.198,1.057,0.389,1.584,0.576
			c0.811,0.29,1.625,0.579,2.377,0.889l11.604,5.62c1.486,0.815,2.936,1.7,4.391,2.58c1,0.609,2.008,1.219,3.049,1.821
			c3.705,1.962,7.143,4.543,10.469,7.034c1.221,0.917,2.439,1.835,3.703,2.749c1.709,1.114,3.178,2.491,4.744,3.95
			c0.58,0.539,1.162,1.081,1.744,1.6l5.641,5.115l6.746,7.265c0.557,0.627,1.146,1.266,1.74,1.904
			c1.67,1.803,3.391,3.666,4.289,5.139c0.93,1.344,1.898,2.635,2.873,3.938c2.158,2.883,4.395,5.864,6.35,9.501
			c0.58,0.99,1.182,1.975,1.783,2.956c0.881,1.446,1.803,2.942,2.604,4.401l3.746,7.77l1.887,3.818
			c0.346,0.822,0.643,1.66,0.947,2.494c0.178,0.502,0.359,1.001,0.549,1.495l2.996,8.041c0.588,1.635,1.021,3.368,1.445,5.043
			c0.258,1.058,0.523,2.112,0.824,3.141l1.643,6.106l0.334,2.099c0.256,1.692,0.566,3.374,0.877,5.059
			c0.695,3.808,1.414,7.753,1.533,11.689l0.664,8.348l-0.164,8.442c0.111,3.8-0.307,7.619-0.709,11.318
			c-0.193,1.736-0.383,3.476-0.527,5.249c-0.074,1.778-0.449,3.479-0.842,5.281c-0.197,0.909-0.395,1.826-0.547,2.724l-1.586,7.968
			l-2.379,7.777c-0.271,0.854-0.514,1.721-0.752,2.59c-0.488,1.769-0.949,3.438-1.711,5.064
			c-3.969,10.529-8.648,20.004-13.898,28.162l-4.178,6.553c-0.576,0.992-1.281,1.965-2.17,3.006l-8.107,10.193
			c-0.014,0.021-0.035,0.045-0.047,0.061c-0.035,0.055-0.072,0.111-0.107,0.17l-0.986,1.033c-0.932,0.998-1.873,2.002-2.82,3.014
			c-2.586,2.906-4.879,5.051-7.098,7.123c-1.08,1.012-2.15,2.016-3.178,3.033c-1.223,0.98-2.426,1.986-3.619,2.99
			c-2.385,2.002-4.85,4.066-7.43,5.846c-7.496,5.838-15.582,10.211-22.674,14.049c-8.604,4.186-16.006,7.232-22.654,9.314
			c-12.682,4.197-26.09,6.887-39.877,7.992c-3.717,0.396-7.127,0.457-10.432,0.52c-1.74,0.035-3.406,0.063-4.928,0.146
			c-1.482-0.061-2.895-0.107-4.238-0.146c-2.789-0.092-5.188-0.17-7.275-0.324l-9.695-0.869c-0.43-0.041-0.82,0.248-0.916,0.664
			c-0.094,0.412,0.135,0.838,0.535,0.988c0,0,3.193,1.213,9.191,3.504c2.088,0.705,4.514,1.412,7.324,2.223
			c1.281,0.379,2.639,0.768,4.135,1.211c1.041,0.225,2.121,0.471,3.24,0.734c3.762,0.859,8.016,1.84,12.695,2.385
			c14.525,2.137,29.52,2.195,44.553,0.166c9.383-1.07,19.076-3.654,27.35-6.053c7.922-2.652,18.367-6.439,28.863-12.227l3.688-1.928
			c0.793-0.455,1.572-0.943,2.354-1.434c0.414-0.258,0.822-0.516,1.24-0.77l7.266-4.564c0.936-0.682,1.898-1.375,2.871-2.078
			c3.977-2.871,8.088-5.838,11.188-8.533l4.77-3.943c0.006-0.006,0.014-0.016,0.018-0.018c0.008-0.006,0.018-0.02,0.033-0.029
			l11.781-11.779c1.23-1.18,2.291-2.354,3.223-3.561l6.041-7.406c17.213-22.041,29-47.46,34.086-73.533
			c0.305-1.868,0.641-3.737,0.99-5.612c0.938-5.115,1.908-10.403,2.055-15.738l0.734-10.959l-0.244-10.954
			c0.057-5.668-0.672-11.39-1.393-16.921c-0.225-1.756-0.451-3.518-0.658-5.302l-0.391-2.847l-1.869-8.222
			c-0.291-1.199-0.563-2.406-0.838-3.618c-0.543-2.432-1.115-4.947-1.887-7.396l-3.6-10.758c-0.23-0.647-0.451-1.301-0.67-1.956
			c-0.385-1.152-0.773-2.304-1.221-3.479l-7.078-15.671c-1.215-2.32-2.568-4.609-3.879-6.824c-0.617-1.046-1.238-2.092-1.83-3.122
			c-3.102-5.798-7.467-11.649-11.686-17.312l-1.867-2.506C359.762,90.774,358.072,88.905,356.428,87.096z"/>
		<path fill="#2A2A2A" d="M287.744,138.588c-0.006-0.013-0.023-0.022-0.031-0.033l0.008-0.007c-0.014-0.01-0.146-0.137-0.162-0.146
			l-4.703-4.413c-1.045-0.978-2.133-1.985-3.32-2.834l-0.691-0.53c-2.686-2.051-5.453-4.178-8.457-5.855l-1.389-0.83
			c-1.123-0.683-2.252-1.358-3.453-2.006l-4.965-2.3c-2.369-1.185-4.879-2.021-7.311-2.832c-1.014-0.33-2.016-0.666-3.068-1.044
			c-3.742-1.014-7.119-1.898-10.631-2.464c-0.752-0.087-1.51-0.188-2.264-0.283c-2.746-0.36-5.586-0.729-8.395-0.711
			c-1.754-0.034-3.5-0.07-5.32-0.11l-5.17,0.339c-2.639,0.086-5.225,0.578-7.719,1.054c-0.85,0.16-1.688,0.32-2.555,0.47
			c-2.492,0.505-4.918,1.224-7.266,1.918c-0.834,0.247-1.658,0.491-2.557,0.752l-1.777,0.689c-2.449,0.943-4.973,1.916-7.357,3.135
			c-0.895,0.502-1.799,0.967-2.699,1.429c-1.91,0.987-3.885,2.006-5.65,3.28l-1.377,0.916c-2.182,1.438-4.24,2.797-6.365,4.705
			l-4.662,4.021l-4.854,5.268c-0.412,0.376-0.566,0.522-0.605,0.561c-0.061,0.061-0.107,0.127-0.15,0.197
			c-0.008,0.015-0.023,0.029-0.027,0.037l-6.553,9.039c-1.344,2.367-2.59,4.7-3.715,6.938c-0.184,0.378-0.379,0.749-0.568,1.121
			c-0.389,0.755-0.771,1.507-1.117,2.323l-1.734,4.826c-0.645,1.825-1.26,3.552-1.775,5.385l-1.82,9.557
			c-0.121,0.727-0.141,1.447-0.17,2.141c-0.006,0.324-0.016,0.648-0.039,1c-0.025,0.967-0.072,1.915-0.113,2.842
			c-0.131,2.893-0.26,5.625,0.184,8.224c0.123,0.921,0.213,1.811,0.301,2.674c0.238,2.291,0.459,4.449,1.113,6.475
			c0.674,2.695,1.342,5.072,2.004,7.161l2.104,4.687c1.172,2.567,1.867,3.92,1.867,3.92c0.174,0.336,0.545,0.52,0.91,0.456
			c0.371-0.066,0.656-0.366,0.703-0.739c0,0,0.186-1.514,0.396-4.333l0.336-4.998c0.436-1.959,0.863-4.138,1.313-6.519
			c0.201-1.487,0.732-3.16,1.303-4.93c0.268-0.846,0.543-1.709,0.793-2.605c0.492-1.972,1.379-3.974,2.33-6.094
			c0.328-0.736,0.658-1.479,0.99-2.263c0.533-1.413,1.348-2.8,2.209-4.226l2.162-3.746l5.072-6.9
			c0.244-0.279,0.508-0.552,0.777-0.817l0.779-0.772l0.32-0.33l0.352-0.345c0.715-0.717,1.404-1.453,2.102-2.193
			c0.465-0.491,0.928-0.99,1.324-1.409l5.42-4.336c0.057-0.022,0.113-0.057,0.164-0.091l5.816-4.044l3.006-1.396
			c0.83-0.455,1.926-0.903,3.072-1.372c0.697-0.283,1.398-0.575,2.098-0.89c1.02-0.513,2.146-0.831,3.338-1.165
			c0.758-0.215,1.514-0.429,2.195-0.676c0.961-0.282,1.994-0.489,2.992-0.689c0.973-0.192,1.943-0.39,2.736-0.624
			c0.828-0.08,1.652-0.19,2.471-0.308c1.213-0.168,2.363-0.324,3.516-0.368c0.682-0.004,1.365-0.03,2.045-0.054
			c1.385-0.051,2.678-0.097,4.057,0.037l2.979,0.093l3.072,0.439c4.113,0.521,8.08,1.775,11.736,2.99
			c3.367,1.389,7.287,3.14,10.865,5.657c1.127,0.63,2.133,1.438,3.201,2.296c0.555,0.45,1.111,0.898,1.719,1.343
			c0.543,0.361,1.02,0.841,1.525,1.343c0.225,0.222,0.449,0.444,0.676,0.649l2.109,1.979l2.949,3.374
			c0.566,0.634,1.414,1.591,1.596,1.996c0.365,0.595,0.752,1.134,1.166,1.687c0.584,0.794,1.191,1.618,1.799,2.793
			c0.229,0.402,0.475,0.793,0.711,1.19c0.299,0.476,0.59,0.955,0.828,1.391c0.379,0.844,0.791,1.673,1.201,2.507l0.188,0.362
			c0.605,1.038,0.998,2.165,1.422,3.357c0.27,0.763,0.537,1.53,0.826,2.17c1.092,3.765,2.152,7.813,2.531,11.911l0.316,2.976
			l-0.02,3.123c0.066,1.303-0.031,2.581-0.133,3.934c-0.057,0.7-0.109,1.399-0.137,2.063c-0.707,7.597-3.109,15.136-7.135,22.402
			l-0.543,0.977c-0.785,1.405-1.523,2.737-2.484,3.952l-2.109,2.99c-0.049,0.073-0.084,0.149-0.111,0.231l-5.545,6.053l-1.08,0.929
			c-0.926,0.787-1.793,1.535-2.648,2.382c-0.24,0.221-0.477,0.451-0.713,0.684c-0.346,0.34-0.693,0.683-1.027,0.958l-0.309,0.213
			c-0.646,0.436-1.277,0.864-1.902,1.299c-1.492,1.032-2.941,2.043-4.264,2.972l-4.506,2.389c-1.59,0.884-2.928,1.566-4.311,2.035
			c-0.76,0.292-1.506,0.588-2.252,0.887c-2.162,0.868-4.199,1.683-6.229,2.106c-0.855,0.207-1.705,0.445-2.527,0.671
			c-1.82,0.51-3.529,0.984-5.156,1.13c-2.418,0.348-4.633,0.683-6.494,1.019l-9.287,0.42c-0.379,0.021-0.701,0.288-0.789,0.658
			c-0.094,0.366,0.07,0.751,0.4,0.94c0.057,0.032,1.322,0.769,3.857,2.038l4.836,2.359c1.857,0.668,4.109,1.396,6.836,2.208
			c1.982,0.749,4.139,1.061,6.422,1.385c0.861,0.124,1.75,0.254,2.627,0.405c2.594,0.556,5.307,0.536,8.168,0.521
			c0.953-0.007,1.932-0.013,2.967,0c0.324-0.007,0.656-0.007,0.984-0.003c0.693,0.003,1.41,0.01,2.145-0.087l9.688-1.45
			c1.668-0.405,3.309-0.913,5.041-1.45l5.281-1.653c0.842-0.322,1.701-0.731,2.568-1.144l1.113-0.521
			c2.16-1.009,4.617-2.259,7.576-3.858c1.916-1.222,3.869-2.467,5.846-3.734l2.158-1.387c0.025-0.021,0.119-0.095,0.143-0.114
			l-0.002-0.006c0.02-0.017,0.041-0.026,0.059-0.044h0.004c0-0.004,0.014-0.014,0.018-0.017c0.184-0.152,0.4-0.346,0.654-0.572
			l4.018-3.522c0.836-0.689,1.688-1.473,2.609-2.396c1.09-1.085,2.133-2.231,3.199-3.396l0.545-0.592
			c8.791-9.974,15.018-21.781,18.02-34.175c0.18-0.847,0.373-1.69,0.568-2.538c0.572-2.474,1.164-5.031,1.344-7.639l0.543-5.246
			l0.094-5.226c0.127-2.833-0.125-5.685-0.369-8.445c-0.07-0.754-0.139-1.518-0.199-2.325c-0.479-3.608-1.273-7.26-2.086-10.735
			c-0.309-0.984-0.596-1.985-0.887-2.983c-0.717-2.477-1.455-5.041-2.547-7.456l-2.148-5.119c-0.576-1.17-1.205-2.322-1.842-3.471
			l-0.764-1.399c-1.621-3.228-4.119-6.739-6.539-10.051c-1.002-1.422-1.703-2.229-2.387-3.009c-0.248-0.285-0.49-0.565-0.764-0.892
			l-2.836-3.294c-0.34-0.362-0.564-0.611-0.734-0.779c-0.016-0.018-0.027-0.037-0.047-0.054L287.744,138.588z"/>
		<g>
			<path fill="#2A2A2A" d="M176.408,221.848c7.451,22.425,31.672,34.559,54.094,27.107c22.43-7.46,34.559-31.685,27.109-54.106
				s-31.668-34.561-54.1-27.101C181.09,175.201,168.947,199.431,176.408,221.848z"/>
		</g>
		<path fill="#2A2A2A" d="M203.738,206.696L96.51,313.922l-32.07-2.906c-0.211,0.016-0.41,0.102-0.563,0.248L8.75,366.393
			c-0.225,0.23-0.307,0.572-0.199,0.885c0.104,0.305,0.379,0.529,0.705,0.568l30.842,6.588l8.771,2.143l2.145,8.799l6.584,30.814
			c0.043,0.326,0.266,0.6,0.572,0.707c0.309,0.107,0.654,0.023,0.885-0.203l55.127-55.125c0.152-0.154,0.238-0.352,0.248-0.563
			l-2.912-32.076l107.227-107.225c0.057-0.057,0.105-0.124,0.145-0.19c3.248-3.461,2.627-9.484-1.436-13.549
			C213.322,203.834,207.168,203.265,203.738,206.696z"/>
	</g>
	<g>
		<path fill="#2A2A2A" d="M329.588,176.486c-0.404,0.091-0.688,0.472-0.66,0.89c0,0,0.16,2.425,0.445,6.961
			c0.084,1.493,0.102,3.213,0.117,5.206c0.008,0.96,0.018,1.972,0.037,2.952c-0.082,1.146-0.131,2.347-0.182,3.6
			c-0.092,2.337-0.191,4.753-0.531,7.4c-0.986,9.77-3.072,19.231-6.195,28.13c-3.98,11.554-9.686,22.191-16.973,31.649
			c-1.234,1.737-2.689,3.432-4.102,5.069c-0.73,0.842-1.459,1.689-2.109,2.486l-0.5,0.495c-0.621,0.62-1.211,1.232-1.805,1.848
			c-0.602,0.623-1.207,1.255-1.861,1.908c-1.053,1.053-2.031,1.969-3.094,2.904l-2.859,2.631c-0.07,0.036-0.135,0.076-0.188,0.127
			c-0.029,0.017-0.057,0.036-0.086,0.057l-5.014,3.88c-2.219,1.908-4.824,3.52-7.34,5.075l-1.418,0.881
			c-13.082,7.979-27.447,13.074-41.496,14.738c-1.24,0.086-2.477,0.213-3.719,0.34c-2.525,0.258-5.143,0.529-7.773,0.436
			l-5.734,0.102l-5.85-0.492c-8.496-0.65-16.699-2.836-22.842-4.648l-5.561-2.092c-0.33-0.123-0.664-0.246-0.998-0.367
			c-0.59-0.211-1.178-0.418-1.707-0.643l-7.996-3.9c-1.035-0.568-2.047-1.187-3.057-1.804c-0.68-0.416-1.363-0.832-2.078-1.249
			c-1.686-0.898-3.137-1.876-4.508-2.863l-29.555,29.555c4.26,3.16,8.664,6.416,12.936,8.684l1.969,1.148
			c1.736,1.018,3.531,2.068,5.398,3.043l11.502,5.119c0.869,0.332,1.748,0.621,2.631,0.914l9.236,3.045
			c1.781,0.557,3.613,0.961,5.387,1.354c0.893,0.197,1.787,0.396,2.715,0.619c0.918,0.178,1.826,0.393,2.734,0.607
			c1.744,0.406,3.545,0.834,5.373,0.996c1.271,0.137,2.539,0.293,3.803,0.447c4.08,0.494,8.293,1.006,12.447,0.939l1.094,0.018
			c2.318,0.037,4.631,0.072,7.012,0.104l7.914-0.58c3.947-0.145,7.82-0.883,11.568-1.604c1.359-0.26,2.713-0.518,4.094-0.754
			c19.023-3.869,37.518-12.658,53.496-25.418l0.924-0.768c2.65-2.188,5.389-4.447,7.826-6.883c0.529-0.533,1.049-1.076,1.533-1.605
			l6.189-6.361l2.756-3.443c1.998-2.377,4.281-5.627,6.486-8.771l1.145-1.638c0.621-1.041,1.256-2.063,1.883-3.073
			c1.582-2.545,3.07-4.947,4.266-7.532c3.205-6.043,5.924-12.751,8.572-21.15c1.635-6.06,3.391-13.157,4.018-19.855
			c1.264-10.932,0.998-21.771-0.791-32.189c-0.484-3.453-1.281-6.552-1.986-9.286c-0.193-0.748-0.377-1.463-0.566-2.224
			l-0.906-2.808c-0.652-2.04-1.215-3.798-1.787-5.348l-2.693-6.502C330.412,176.604,329.996,176.388,329.588,176.486z"/>
		<path fill="#2A2A2A" d="M137.063,263.675c-5.84-8.205-10.594-17.364-13.977-27.1c-1.99-6.676-4.107-14.616-4.744-22.899
			l-0.498-5.765l0.076-5.872c-0.105-2.615,0.16-5.256,0.42-7.811c0.117-1.216,0.242-2.427,0.322-3.616
			c0.254-2.365,0.729-4.746,1.191-7.05c0.281-1.385,0.563-2.771,0.771-4.067l1.594-5.424c0.184-0.6,0.346-1.209,0.506-1.818
			c0.318-1.221,0.621-2.376,1.135-3.498l2.984-7.719l1.26-2.45c0.51-0.965,1.002-1.952,1.494-2.937
			c1.166-2.331,2.266-4.534,3.547-6.404l3.182-5.313l2.818-3.582c1.248-1.576,2.484-3.147,3.705-4.704l0.811-1.019
			c0.008-0.012,0.014-0.022,0.025-0.032c0.033-0.044,0.064-0.091,0.096-0.137l2.125-2.367c0.789-0.946,1.693-1.921,2.838-3.067
			c0.686-0.686,1.385-1.361,2.082-2.031c0.699-0.676,1.396-1.346,2.082-2.033l0.072-0.076c0.887-0.733,1.756-1.486,2.621-2.235
			c1.688-1.464,3.283-2.844,5.029-4.088c9.4-7.279,20.031-13.008,31.598-17.024c8.881-3.14,18.34-5.246,28.143-6.262
			c2.607-0.329,5.016-0.433,7.344-0.531c1.268-0.054,2.48-0.107,3.568-0.19c1.041,0.014,2.037,0.02,2.982,0.026
			c1.99,0.011,3.707,0.021,5.209,0.101l6.994,0.448c0.42,0.027,0.799-0.257,0.887-0.661c0.098-0.409-0.121-0.828-0.508-0.989
			l-6.504-2.674c-1.469-0.539-3.186-1.08-5.174-1.711c-0.943-0.298-1.941-0.612-3.057-0.972c-0.709-0.17-1.441-0.357-2.203-0.552
			c-2.725-0.689-5.814-1.474-9.223-1.938c-10.449-1.762-21.283-1.995-32.184-0.696c-6.639,0.636-13.467,2.337-19.889,4.088
			c-8.342,2.641-15.039,5.381-21.045,8.597c-2.652,1.24-5.201,2.822-7.668,4.355c-0.975,0.606-1.955,1.219-3.018,1.854
			c-0.879,0.63-1.771,1.253-2.668,1.878c-2.545,1.781-5.176,3.619-7.615,5.718l-3.873,3.168l-9.154,8.932l-5.84,6.967
			c-2.738,3.083-4.855,6.344-6.904,9.501c-0.518,0.797-1.037,1.597-1.576,2.407l-2.014,3.106l-5.129,9.784
			c-1.672,3.307-3.029,6.849-4.342,10.271c-0.477,1.23-0.949,2.47-1.469,3.788c-0.391,1.399-0.805,2.803-1.215,4.209
			c-1.021,3.467-2.074,7.057-2.809,10.732c-0.229,1.37-0.488,2.738-0.748,4.114c-0.709,3.732-1.438,7.596-1.576,11.5l-0.564,8.015
			l0.146,7.994c-0.059,4.208,0.473,8.446,0.984,12.544c0.154,1.238,0.307,2.481,0.447,3.697c0.143,1.866,0.578,3.684,1.004,5.443
			c0.211,0.893,0.426,1.787,0.613,2.728c0.215,0.877,0.414,1.76,0.611,2.647c0.393,1.781,0.807,3.622,1.361,5.397
			c4.666,16.096,12.486,31.358,22.924,44.887L137.063,263.675z"/>
	</g>
</g>
</svg>
