<?xml version="1.0" encoding="utf-8"?>
<!-- Generator: Adobe Illustrator 16.0.3, SVG Export Plug-In . SVG Version: 6.00 Build 0)  -->
<!DOCTYPE svg PUBLIC "-//W3C//DTD SVG 1.1//EN" "http://www.w3.org/Graphics/SVG/1.1/DTD/svg11.dtd">
<svg version="1.1" id="Ebene_1" xmlns="http://www.w3.org/2000/svg" xmlns:xlink="http://www.w3.org/1999/xlink" x="0px" y="0px"
	 width="425.197px" height="425.197px" viewBox="0 0 425.197 425.197" enable-background="new 0 0 425.197 425.197"
	 xml:space="preserve">
<g>
	<g>
		<path fill="#2A2A2A" d="M415.517,8.318l-82.337,33.48c-0.324,0.129-0.537,0.445-0.537,0.799c0,0.346,0.213,0.659,0.541,0.792
			l24.125,9.735L196.08,214.357c-0.336,0.333-0.336,0.876-0.002,1.21l13.797,13.794c0.334,0.336,0.871,0.339,1.213,0L372.106,68.344
			l9.456,23.425c0.131,0.325,0.445,0.536,0.793,0.538c0.231-0.001,0.451-0.095,0.611-0.252c0.077-0.076,0.143-0.175,0.185-0.285
			l33.478-82.336c0.134-0.318,0.056-0.685-0.182-0.929C416.2,8.262,415.836,8.186,415.517,8.318z"/>
		<path fill="#2A2A2A" d="M356.428,87.098c-0.581-0.646-1.167-1.281-1.766-1.969l-6.777-7.53c-0.378-0.399-0.679-0.708-0.916-0.924
			c-0.011-0.016-0.022-0.033-0.03-0.045l-0.009,0.004c-0.02-0.014-0.031-0.024-0.048-0.037l0.009-0.007
			c-0.009-0.008-0.123-0.117-0.123-0.125l-8.307-7.452c-0.663-0.585-1.324-1.178-1.982-1.765c-2.18-1.955-4.433-3.975-6.909-5.645
			c-1.199-0.866-2.396-1.746-3.594-2.618c-4.924-3.613-10.021-7.353-15.513-10.279c-0.988-0.571-1.979-1.151-2.967-1.731
			c-2.281-1.337-4.636-2.725-7.064-3.983l-15.696-7.001c-1.203-0.463-2.435-0.87-3.656-1.278c-0.587-0.19-1.163-0.385-1.749-0.587
			l-10.773-3.577c-2.423-0.759-4.92-1.31-7.336-1.846c-1.23-0.271-2.457-0.54-3.686-0.845l-8.288-1.861l-2.794-0.344
			c-1.754-0.198-3.508-0.417-5.257-0.639c-5.541-0.7-11.271-1.422-16.921-1.346l-11.054-0.213l-10.838,0.765
			c-5.319,0.173-10.56,1.146-15.619,2.087c-1.924,0.361-3.845,0.721-5.737,1.03c-2.482,0.345-4.891,1.037-7.223,1.709
			c-1.052,0.299-2.102,0.602-3.17,0.875l-10.162,2.89l-9.7,3.75c-0.935,0.397-1.882,0.767-2.833,1.135
			c-2.221,0.869-4.52,1.771-6.627,2.955l-13.504,7.009l-4.197,2.706c-1.137,0.749-2.269,1.477-3.402,2.205
			c-4.299,2.766-8.745,5.622-12.881,9.26c-2.584,2.131-5.14,4.241-7.7,6.344l-1.93,1.625L85.243,82.392l-4.3,5.185
			c-2.943,3.371-5.52,6.991-8.004,10.494c-0.857,1.208-1.707,2.403-2.603,3.633l-4.483,7.194c-1.647,2.506-3.01,5.109-4.112,7.302
			c-5.878,10.714-9.755,21.621-12.171,28.931c-2.375,8.296-4.937,18.032-5.96,27.3c-1.995,15.034-1.899,30.031,0.263,44.538
			c0.553,4.663,1.534,8.891,2.395,12.618c0.27,1.15,0.527,2.257,0.775,3.391c0.425,1.42,0.822,2.779,1.197,4.062
			c0.835,2.831,1.554,5.274,2.268,7.386l3.51,9.122c0.149,0.4,0.575,0.626,0.988,0.529c0.419-0.093,0.703-0.492,0.66-0.916
			l-0.91-9.721c-0.163-2.032-0.247-4.327-0.333-6.986c-0.05-1.426-0.102-2.927-0.173-4.425c0.071-1.576,0.1-3.222,0.122-4.938
			c0.052-3.317,0.103-6.748,0.488-10.515c1.058-13.761,3.694-27.186,7.862-39.901c2.068-6.679,5.096-14.098,9.226-22.644
			c3.861-7.174,8.239-15.317,14.02-22.791c1.433-2.044,2.821-3.845,4.254-5.522l4.485-5.472c1.01-1.042,1.998-2.114,2.997-3.182
			c2.118-2.281,4.304-4.637,6.696-6.776l0.529-0.46l3.505-3.278c0.021-0.011,0.038-0.027,0.058-0.041h0.004
			c0.006-0.004,0.015-0.008,0.018-0.011c0.025-0.017,0.048-0.035,0.07-0.052l12.784-10.373l7.783-4.903
			c2.694-1.923,5.885-3.576,9.265-5.325c1.356-0.703,2.719-1.409,4.044-2.128l3.417-1.827l11.187-4.522
			c1.576-0.745,3.252-1.216,5.021-1.707c0.857-0.24,1.726-0.477,2.556-0.75l7.707-2.373l8.028-1.629
			c0.923-0.161,1.833-0.361,2.751-0.564c1.721-0.379,3.501-0.766,5.306-0.855c1.713-0.145,3.425-0.337,5.134-0.527
			c3.722-0.42,7.573-0.855,11.445-0.743l8.326-0.189l8.476,0.642c3.894,0.096,7.832,0.804,11.637,1.492
			c1.691,0.303,3.385,0.611,5.111,0.869c1.743,0.2,3.417,0.681,5.192,1.179c1,0.282,2.007,0.567,2.974,0.79
			c1.014,0.284,2.032,0.538,3.057,0.792c1.709,0.42,3.479,0.857,5.137,1.451l8.051,2.972c0.533,0.199,1.062,0.389,1.586,0.578
			c0.813,0.291,1.628,0.576,2.381,0.887l11.6,5.621c1.487,0.815,2.936,1.698,4.392,2.581c1.001,0.606,2.007,1.216,3.051,1.821
			c3.703,1.961,7.14,4.539,10.466,7.033c1.221,0.918,2.439,1.834,3.707,2.749c1.707,1.116,3.174,2.493,4.742,3.95
			c0.58,0.54,1.159,1.079,1.74,1.601l5.642,5.116l6.746,7.263c0.559,0.626,1.146,1.265,1.739,1.905
			c1.672,1.8,3.392,3.666,4.288,5.139c0.933,1.344,1.903,2.636,2.875,3.938c2.161,2.883,4.396,5.866,6.349,9.501
			c0.582,0.993,1.183,1.975,1.786,2.954c0.881,1.45,1.802,2.944,2.604,4.405l3.744,7.771l1.89,3.816
			c0.341,0.822,0.64,1.66,0.943,2.491c0.179,0.505,0.36,1.004,0.549,1.498l2.998,8.044c0.587,1.632,1.019,3.367,1.445,5.042
			c0.259,1.057,0.521,2.11,0.823,3.136l1.645,6.11l0.331,2.098c0.256,1.691,0.568,3.375,0.877,5.06
			c0.697,3.81,1.416,7.752,1.534,11.691l0.666,8.345l-0.164,8.44c0.11,3.801-0.311,7.621-0.713,11.319
			c-0.189,1.739-0.379,3.476-0.522,5.251c-0.076,1.776-0.451,3.48-0.844,5.277c-0.198,0.914-0.396,1.831-0.547,2.727l-1.585,7.966
			l-2.381,7.779c-0.271,0.855-0.512,1.722-0.75,2.591c-0.489,1.77-0.951,3.437-1.711,5.068
			c-3.971,10.528-8.649,20.001-13.898,28.158l-4.183,6.554c-0.571,0.99-1.277,1.967-2.165,3.004l-8.11,10.193
			c-0.014,0.021-0.034,0.043-0.045,0.063c-0.038,0.053-0.073,0.109-0.108,0.168l-0.985,1.031c-0.932,1-1.874,2.004-2.821,3.016
			c-2.588,2.904-4.88,5.053-7.098,7.123c-1.079,1.014-2.15,2.016-3.177,3.035c-1.224,0.979-2.427,1.984-3.618,2.986
			c-2.388,2.004-4.851,4.072-7.429,5.848c-7.497,5.838-15.585,10.209-22.677,14.053c-8.603,4.182-16.004,7.23-22.654,9.311
			c-12.68,4.201-26.091,6.885-39.88,7.992c-3.716,0.398-7.126,0.457-10.428,0.52c-1.739,0.033-3.407,0.063-4.929,0.146
			c-1.485-0.059-2.895-0.107-4.237-0.148c-2.788-0.088-5.188-0.166-7.274-0.322l-9.698-0.869c-0.429-0.039-0.818,0.25-0.917,0.662
			c-0.092,0.418,0.138,0.842,0.536,0.992c0,0,3.195,1.213,9.194,3.502c2.09,0.705,4.512,1.412,7.32,2.223
			c1.282,0.379,2.641,0.771,4.137,1.213c1.041,0.225,2.122,0.471,3.239,0.734c3.761,0.857,8.019,1.84,12.7,2.385
			c14.518,2.137,29.517,2.193,44.549,0.162c9.385-1.068,19.076-3.652,27.351-6.049c7.919-2.65,18.364-6.438,28.862-12.229
			l3.687-1.926c0.792-0.457,1.571-0.945,2.355-1.436c0.413-0.256,0.823-0.514,1.241-0.771l7.262-4.561
			c0.938-0.682,1.9-1.375,2.874-2.078c3.975-2.873,8.087-5.838,11.188-8.535l4.77-3.943c0.005-0.006,0.013-0.014,0.017-0.018
			c0.007-0.008,0.019-0.02,0.037-0.029l11.776-11.779c1.232-1.182,2.289-2.35,3.226-3.559l6.04-7.406
			c17.214-22.044,28.995-47.461,34.084-73.535c0.307-1.87,0.644-3.736,0.989-5.609c0.938-5.116,1.91-10.407,2.054-15.737
			l0.736-10.963l-0.243-10.953c0.058-5.669-0.673-11.39-1.392-16.92c-0.226-1.757-0.449-3.518-0.661-5.304l-0.39-2.845l-1.867-8.222
			c-0.291-1.201-0.564-2.406-0.838-3.62c-0.545-2.432-1.114-4.945-1.887-7.395l-3.6-10.759c-0.229-0.649-0.452-1.299-0.673-1.957
			c-0.386-1.149-0.77-2.303-1.218-3.477l-7.081-15.674c-1.218-2.319-2.567-4.606-3.879-6.822c-0.616-1.047-1.237-2.092-1.829-3.123
			c-3.1-5.798-7.465-11.653-11.686-17.31l-1.868-2.508C359.763,90.772,358.072,88.903,356.428,87.098z"/>
		<path fill="#F40E0E" d="M287.743,138.589c-0.004-0.016-0.019-0.025-0.028-0.034l0.008-0.009c-0.014-0.008-0.146-0.137-0.164-0.145
			l-4.701-4.412c-1.048-0.978-2.134-1.984-3.321-2.835l-0.694-0.529c-2.684-2.054-5.453-4.178-8.457-5.857l-1.388-0.827
			c-1.123-0.684-2.251-1.358-3.451-2.007l-4.969-2.299c-2.368-1.185-4.876-2.024-7.31-2.831c-1.011-0.333-2.012-0.67-3.066-1.048
			c-3.742-1.01-7.12-1.897-10.629-2.463c-0.752-0.09-1.512-0.189-2.269-0.288c-2.743-0.354-5.585-0.722-8.392-0.707
			c-1.754-0.029-3.502-0.067-5.319-0.111l-5.173,0.339c-2.636,0.087-5.225,0.578-7.719,1.055c-0.85,0.16-1.688,0.322-2.553,0.467
			c-2.491,0.508-4.916,1.226-7.265,1.921c-0.835,0.248-1.657,0.492-2.559,0.753l-1.774,0.688c-2.451,0.942-4.974,1.914-7.361,3.134
			c-0.893,0.499-1.795,0.966-2.693,1.43c-1.912,0.986-3.887,2.006-5.653,3.279l-1.376,0.914c-2.184,1.441-4.242,2.798-6.367,4.707
			l-4.66,4.02l-4.855,5.271c-0.411,0.375-0.564,0.521-0.605,0.557c-0.059,0.059-0.109,0.127-0.148,0.197
			c-0.01,0.017-0.027,0.034-0.029,0.04l-6.554,9.039c-1.343,2.364-2.589,4.7-3.712,6.938c-0.185,0.378-0.38,0.748-0.57,1.117
			c-0.389,0.76-0.77,1.511-1.114,2.326l-1.737,4.829c-0.646,1.824-1.259,3.551-1.774,5.381l-1.823,9.559
			c-0.12,0.728-0.141,1.447-0.166,2.143c-0.006,0.323-0.02,0.645-0.04,0.996c-0.026,0.972-0.073,1.918-0.115,2.842
			c-0.13,2.894-0.261,5.626,0.187,8.226c0.121,0.919,0.209,1.808,0.296,2.674c0.24,2.289,0.463,4.449,1.114,6.474
			c0.68,2.695,1.343,5.072,2.007,7.161l2.104,4.687c1.169,2.567,1.864,3.919,1.864,3.919c0.176,0.336,0.545,0.518,0.912,0.457
			c0.372-0.07,0.654-0.368,0.705-0.74c0,0,0.184-1.514,0.395-4.332l0.336-4.999c0.437-1.959,0.865-4.137,1.313-6.519
			c0.203-1.485,0.732-3.16,1.302-4.933c0.269-0.844,0.542-1.706,0.796-2.601c0.491-1.975,1.374-3.975,2.326-6.096
			c0.329-0.736,0.662-1.478,0.992-2.262c0.531-1.414,1.348-2.799,2.207-4.223l2.166-3.748l5.071-6.897
			c0.245-0.284,0.508-0.554,0.773-0.821l0.78-0.771l0.322-0.334l0.35-0.341c0.719-0.721,1.403-1.455,2.102-2.195
			c0.466-0.492,0.932-0.992,1.326-1.412l5.419-4.333c0.057-0.022,0.112-0.056,0.167-0.089l5.813-4.045l3.007-1.396
			c0.83-0.455,1.922-0.903,3.072-1.374c0.694-0.286,1.399-0.574,2.1-0.889c1.02-0.515,2.144-0.831,3.335-1.165
			c0.762-0.213,1.514-0.432,2.196-0.676c0.962-0.283,1.994-0.489,2.99-0.688c0.974-0.193,1.945-0.394,2.739-0.626
			c0.829-0.079,1.65-0.19,2.467-0.306c1.215-0.169,2.368-0.327,3.52-0.37c0.682-0.002,1.362-0.027,2.045-0.052
			c1.383-0.052,2.678-0.1,4.054,0.038l2.979,0.09l3.073,0.44c4.111,0.519,8.08,1.774,11.736,2.987
			c3.369,1.392,7.289,3.143,10.864,5.66c1.126,0.629,2.135,1.441,3.202,2.293c0.554,0.452,1.11,0.9,1.72,1.347
			c0.542,0.36,1.019,0.835,1.526,1.341c0.223,0.22,0.449,0.444,0.675,0.649l2.107,1.979l2.953,3.374
			c0.563,0.632,1.411,1.589,1.594,1.994c0.363,0.595,0.753,1.136,1.165,1.688c0.584,0.794,1.19,1.616,1.797,2.792
			c0.229,0.4,0.479,0.792,0.713,1.19c0.299,0.478,0.591,0.958,0.828,1.391c0.378,0.842,0.789,1.673,1.203,2.506l0.188,0.361
			c0.603,1.04,0.998,2.164,1.419,3.358c0.272,0.764,0.54,1.527,0.829,2.169c1.092,3.764,2.153,7.814,2.53,11.913l0.313,2.976
			l-0.02,3.121c0.067,1.303-0.028,2.583-0.13,3.937c-0.054,0.697-0.108,1.397-0.136,2.062c-0.708,7.593-3.109,15.133-7.137,22.4
			l-0.545,0.975c-0.781,1.406-1.521,2.739-2.486,3.955l-2.104,2.99c-0.052,0.074-0.089,0.15-0.113,0.23l-5.545,6.054l-1.078,0.929
			c-0.926,0.789-1.795,1.535-2.651,2.378c-0.238,0.223-0.475,0.454-0.711,0.686c-0.346,0.341-0.693,0.683-1.027,0.956l-0.31,0.216
			c-0.645,0.435-1.278,0.865-1.902,1.3c-1.49,1.028-2.944,2.04-4.26,2.969l-4.512,2.39c-1.59,0.884-2.925,1.567-4.307,2.034
			c-0.762,0.292-1.509,0.59-2.254,0.889c-2.163,0.868-4.197,1.684-6.229,2.104c-0.857,0.208-1.705,0.447-2.527,0.674
			c-1.816,0.508-3.529,0.981-5.16,1.13c-2.414,0.345-4.629,0.683-6.488,1.015l-9.291,0.422c-0.379,0.02-0.699,0.289-0.785,0.656
			c-0.099,0.37,0.066,0.755,0.4,0.944c0.051,0.031,1.319,0.767,3.856,2.037l4.835,2.361c1.856,0.664,4.105,1.392,6.836,2.206
			c1.982,0.75,4.141,1.061,6.423,1.386c0.861,0.123,1.749,0.254,2.626,0.402c2.593,0.557,5.309,0.539,8.17,0.523
			c0.953-0.007,1.93-0.013,2.965,0.001c0.324-0.008,0.657-0.005,0.984-0.004c0.694,0.004,1.41,0.013,2.144-0.086l9.686-1.45
			c1.672-0.403,3.314-0.914,5.041-1.453l5.286-1.65c0.84-0.326,1.701-0.733,2.567-1.146l1.114-0.522
			c2.158-1.01,4.617-2.257,7.575-3.857c1.915-1.22,3.866-2.464,5.843-3.734l2.162-1.385c0.025-0.023,0.116-0.096,0.142-0.119v-0.008
			c0.017-0.014,0.036-0.025,0.056-0.042h0.004c0-0.003,0.014-0.011,0.02-0.017c0.183-0.149,0.397-0.344,0.651-0.57l4.017-3.523
			c0.838-0.688,1.69-1.472,2.612-2.395c1.087-1.086,2.131-2.231,3.201-3.392l0.548-0.597c8.785-9.975,15.013-21.779,18.013-34.173
			c0.183-0.845,0.374-1.691,0.567-2.539c0.576-2.471,1.166-5.031,1.345-7.639l0.545-5.247l0.093-5.226
			c0.127-2.828-0.124-5.683-0.366-8.439c-0.071-0.76-0.139-1.523-0.203-2.327c-0.478-3.611-1.272-7.263-2.084-10.74
			c-0.311-0.981-0.599-1.981-0.886-2.98c-0.718-2.479-1.457-5.042-2.551-7.456l-2.145-5.12c-0.58-1.172-1.206-2.323-1.84-3.471
			l-0.768-1.401c-1.618-3.226-4.121-6.739-6.541-10.05c-1.002-1.42-1.7-2.23-2.384-3.007c-0.248-0.288-0.491-0.567-0.762-0.89
			l-2.839-3.294c-0.342-0.364-0.566-0.615-0.733-0.784c-0.015-0.017-0.027-0.034-0.044-0.053L287.743,138.589z"/>
		<g>
			<path fill="#FFCC34" d="M176.406,221.85c7.45,22.421,31.671,34.559,54.096,27.107c22.432-7.461,34.561-31.684,27.106-54.106
				c-7.448-22.421-31.663-34.56-54.095-27.102C181.089,175.2,168.947,199.434,176.406,221.85z"/>
		</g>
		<path fill="#2A2A2A" d="M203.738,206.698L96.507,313.924l-32.067-2.908c-0.211,0.014-0.412,0.1-0.563,0.25L8.749,366.393
			c-0.226,0.23-0.304,0.572-0.198,0.883c0.104,0.311,0.379,0.531,0.7,0.57l30.847,6.59l8.771,2.141l2.144,8.799l6.585,30.818
			c0.042,0.324,0.265,0.594,0.572,0.703c0.306,0.107,0.651,0.027,0.886-0.203l55.127-55.123c0.147-0.152,0.235-0.354,0.246-0.564
			l-2.911-32.076l107.229-107.224c0.056-0.058,0.102-0.125,0.142-0.19c3.247-3.462,2.63-9.487-1.437-13.55
			C213.323,203.833,207.169,203.266,203.738,206.698z"/>
	</g>
	<g>
		<path fill="#487AF5" d="M329.589,176.485c-0.406,0.091-0.688,0.472-0.661,0.891c0,0,0.16,2.425,0.446,6.959
			c0.085,1.495,0.1,3.216,0.119,5.206c0.009,0.963,0.017,1.972,0.036,2.952c-0.081,1.147-0.132,2.347-0.184,3.598
			c-0.092,2.337-0.191,4.756-0.528,7.402c-0.988,9.77-3.073,19.232-6.199,28.13c-3.98,11.555-9.687,22.194-16.973,31.648
			c-1.231,1.739-2.689,3.433-4.103,5.068c-0.729,0.846-1.459,1.694-2.107,2.488l-0.5,0.497c-0.62,0.619-1.211,1.23-1.804,1.849
			c-0.603,0.624-1.208,1.255-1.862,1.907c-1.051,1.051-2.031,1.969-3.096,2.901l-2.857,2.63c-0.067,0.038-0.133,0.081-0.188,0.131
			c-0.029,0.017-0.058,0.035-0.084,0.058l-5.014,3.877c-2.222,1.907-4.824,3.518-7.342,5.075l-1.416,0.883
			c-13.086,7.975-27.448,13.073-41.496,14.733c-1.241,0.088-2.478,0.213-3.722,0.342c-2.527,0.26-5.143,0.529-7.771,0.438
			l-5.737,0.102l-5.849-0.492c-8.494-0.648-16.7-2.834-22.843-4.648l-5.559-2.096c-0.33-0.123-0.666-0.245-0.999-0.365
			c-0.589-0.209-1.177-0.421-1.707-0.642l-7.994-3.903c-1.036-0.565-2.046-1.182-3.058-1.801c-0.683-0.417-1.363-0.832-2.078-1.251
			c-1.686-0.896-3.139-1.876-4.508-2.859l-29.555,29.553c4.258,3.158,8.663,6.42,12.935,8.684l1.969,1.145
			c1.737,1.018,3.532,2.07,5.398,3.047l11.502,5.117c0.871,0.332,1.749,0.623,2.63,0.914l9.241,3.045
			c1.777,0.555,3.608,0.963,5.384,1.354c0.896,0.199,1.789,0.393,2.718,0.621c0.914,0.176,1.823,0.391,2.729,0.605
			c1.747,0.408,3.548,0.834,5.375,0.998c1.271,0.137,2.541,0.289,3.803,0.443c4.077,0.496,8.294,1.008,12.449,0.943l1.091,0.016
			c2.317,0.035,4.631,0.074,7.012,0.102l7.915-0.578c3.947-0.143,7.822-0.883,11.568-1.604c1.36-0.258,2.714-0.516,4.092-0.752
			c19.024-3.873,37.518-12.656,53.5-25.42l0.924-0.766c2.647-2.189,5.387-4.451,7.825-6.885c0.529-0.531,1.048-1.074,1.533-1.607
			l6.189-6.361l2.753-3.439c2-2.377,4.282-5.631,6.489-8.772l1.144-1.636c0.623-1.041,1.256-2.061,1.886-3.073
			c1.579-2.546,3.066-4.951,4.265-7.535c3.205-6.041,5.924-12.752,8.571-21.146c1.635-6.063,3.39-13.163,4.016-19.858
			c1.268-10.934,0.999-21.771-0.789-32.192c-0.486-3.45-1.283-6.546-1.989-9.287c-0.188-0.742-0.375-1.464-0.563-2.22l-0.907-2.807
			c-0.652-2.041-1.217-3.799-1.787-5.352l-2.691-6.5C330.413,176.604,329.998,176.391,329.589,176.485z"/>
		<path fill="#487AF5" d="M137.062,263.676c-5.839-8.203-10.597-17.367-13.976-27.103c-1.991-6.674-4.107-14.614-4.745-22.898
			l-0.493-5.765l0.073-5.871c-0.106-2.615,0.16-5.257,0.416-7.809c0.12-1.217,0.244-2.429,0.325-3.619
			c0.254-2.367,0.729-4.748,1.192-7.048c0.278-1.388,0.561-2.774,0.77-4.068l1.594-5.426c0.183-0.601,0.344-1.205,0.505-1.814
			c0.319-1.224,0.623-2.379,1.136-3.5l2.988-7.719l1.259-2.453c0.505-0.962,1.001-1.951,1.492-2.934
			c1.163-2.332,2.265-4.535,3.549-6.405l3.179-5.312l2.818-3.581c1.25-1.583,2.485-3.148,3.706-4.706l0.809-1.02
			c0.01-0.012,0.015-0.024,0.026-0.031c0.034-0.044,0.067-0.092,0.096-0.138l2.122-2.365c0.793-0.95,1.698-1.924,2.843-3.066
			c0.685-0.687,1.384-1.363,2.08-2.034c0.7-0.676,1.397-1.347,2.085-2.03l0.067-0.079c0.887-0.73,1.758-1.486,2.625-2.235
			c1.686-1.463,3.279-2.845,5.026-4.088c9.403-7.278,20.033-13.007,31.6-17.024c8.88-3.14,18.342-5.246,28.144-6.26
			c2.606-0.332,5.016-0.436,7.345-0.532c1.266-0.055,2.479-0.109,3.566-0.19c1.039,0.011,2.037,0.02,2.983,0.022
			c1.987,0.013,3.707,0.022,5.208,0.104l6.992,0.447c0.422,0.027,0.803-0.256,0.891-0.661c0.095-0.409-0.122-0.825-0.508-0.987
			l-6.507-2.676c-1.471-0.541-3.187-1.083-5.173-1.711c-0.941-0.301-1.941-0.614-3.058-0.971c-0.708-0.17-1.441-0.358-2.2-0.553
			c-2.727-0.69-5.813-1.474-9.225-1.938c-10.45-1.76-21.287-1.995-32.184-0.698c-6.641,0.639-13.467,2.338-19.887,4.089
			c-8.342,2.642-15.044,5.381-21.047,8.597c-2.65,1.237-5.2,2.822-7.668,4.355c-0.977,0.605-1.956,1.219-3.021,1.852
			c-0.872,0.632-1.768,1.255-2.667,1.88c-2.544,1.78-5.174,3.619-7.614,5.719l-3.872,3.166l-9.154,8.933l-5.837,6.966
			c-2.742,3.086-4.857,6.346-6.908,9.499c-0.517,0.798-1.036,1.598-1.575,2.409l-2.014,3.11l-5.131,9.782
			c-1.67,3.306-3.027,6.848-4.342,10.269c-0.471,1.234-0.947,2.471-1.467,3.79c-0.39,1.4-0.804,2.803-1.216,4.209
			c-1.023,3.465-2.076,7.055-2.807,10.732c-0.23,1.37-0.491,2.738-0.75,4.114c-0.706,3.735-1.435,7.596-1.574,11.499l-0.565,8.017
			l0.145,7.995c-0.057,4.208,0.472,8.448,0.983,12.542c0.156,1.241,0.309,2.482,0.446,3.7c0.146,1.865,0.582,3.683,1.006,5.44
			c0.213,0.893,0.431,1.786,0.613,2.728c0.216,0.88,0.412,1.762,0.609,2.649c0.398,1.78,0.809,3.624,1.363,5.396
			c4.666,16.095,12.485,31.357,22.925,44.887L137.062,263.676z"/>
	</g>
</g>
</svg>
