<?xml version="1.0" encoding="utf-8"?>
<!-- Generator: Adobe Illustrator 16.0.3, SVG Export Plug-In . SVG Version: 6.00 Build 0)  -->
<!DOCTYPE svg PUBLIC "-//W3C//DTD SVG 1.1//EN" "http://www.w3.org/Graphics/SVG/1.1/DTD/svg11.dtd">
<svg version="1.1" xmlns="http://www.w3.org/2000/svg" xmlns:xlink="http://www.w3.org/1999/xlink" x="0px" y="0px"
	 width="1703.396px" height="382.013px" viewBox="0 0 1703.396 382.013" enable-background="new 0 0 1703.396 382.013"
	 xml:space="preserve">
<g id="Ebene_1">
	<g>
		<g>
			<g>
				<path fill="#2A2A2A" d="M318.163,63.319l-51.436,20.915c-0.201,0.08-0.336,0.279-0.336,0.498
					c0.002,0.217,0.135,0.415,0.338,0.494l15.072,6.084L181.08,192.032c-0.211,0.211-0.211,0.55-0.002,0.758l8.619,8.619
					c0.21,0.209,0.545,0.209,0.758,0l100.589-100.59l5.908,14.634c0.082,0.201,0.278,0.336,0.494,0.336
					c0.146-0.002,0.283-0.061,0.381-0.158c0.051-0.048,0.092-0.109,0.117-0.178l20.914-51.437c0.084-0.201,0.033-0.426-0.115-0.58
					C318.591,63.285,318.362,63.239,318.163,63.319z"/>
				<path fill="#2A2A2A" d="M281.251,112.533c-0.364-0.402-0.73-0.801-1.104-1.229l-4.232-4.705
					c-0.24-0.248-0.422-0.441-0.572-0.578c-0.008-0.01-0.015-0.021-0.021-0.027l-0.004,0.003c-0.015-0.009-0.021-0.016-0.03-0.022
					l0.005-0.006c-0.005-0.006-0.074-0.071-0.074-0.076l-5.191-4.658c-0.414-0.363-0.826-0.732-1.24-1.1
					c-1.359-1.223-2.766-2.482-4.314-3.526c-0.748-0.542-1.495-1.091-2.246-1.636c-3.074-2.258-6.261-4.592-9.689-6.422
					c-0.619-0.355-1.236-0.719-1.854-1.08c-1.426-0.834-2.896-1.701-4.412-2.489l-9.806-4.374c-0.752-0.292-1.522-0.543-2.286-0.798
					c-0.364-0.12-0.726-0.242-1.092-0.367l-6.73-2.237c-1.514-0.471-3.072-0.816-4.582-1.148c-0.768-0.17-1.535-0.342-2.301-0.528
					l-5.179-1.163l-1.744-0.216c-1.098-0.123-2.193-0.261-3.287-0.398c-3.46-0.437-7.037-0.889-10.57-0.84l-6.902-0.134
					l-6.771,0.477c-3.323,0.108-6.597,0.716-9.758,1.306c-1.201,0.226-2.4,0.449-3.585,0.644c-1.549,0.215-3.054,0.646-4.511,1.067
					c-0.656,0.187-1.314,0.377-1.982,0.548l-6.348,1.805l-6.059,2.344c-0.586,0.246-1.178,0.479-1.77,0.709
					c-1.387,0.543-2.825,1.105-4.141,1.848l-8.436,4.377l-2.623,1.689c-0.708,0.469-1.416,0.922-2.123,1.377
					c-2.686,1.728-5.465,3.514-8.047,5.783c-1.615,1.333-3.211,2.65-4.812,3.965l-1.206,1.014l-7.78,7.867l-2.688,3.24
					c-1.838,2.104-3.446,4.367-4.998,6.557c-0.537,0.754-1.066,1.5-1.626,2.268l-2.802,4.494c-1.03,1.566-1.879,3.191-2.566,4.563
					c-3.675,6.693-6.095,13.507-7.605,18.074c-1.482,5.183-3.084,11.263-3.724,17.056c-1.247,9.391-1.188,18.759,0.165,27.82
					c0.344,2.915,0.959,5.554,1.495,7.884c0.165,0.718,0.329,1.408,0.483,2.118c0.265,0.889,0.513,1.736,0.75,2.537
					c0.516,1.768,0.966,3.294,1.413,4.613l2.192,5.699c0.094,0.25,0.36,0.391,0.619,0.331c0.26-0.06,0.438-0.306,0.408-0.571
					l-0.564-6.072c-0.103-1.271-0.154-2.705-0.209-4.365c-0.03-0.891-0.064-1.827-0.107-2.766c0.044-0.982,0.061-2.01,0.074-3.084
					c0.035-2.073,0.066-4.215,0.307-6.568c0.659-8.598,2.309-16.982,4.911-24.927c1.294-4.173,3.181-8.808,5.765-14.146
					c2.412-4.484,5.148-9.568,8.758-14.239c0.896-1.275,1.762-2.4,2.657-3.449l2.8-3.418c0.631-0.651,1.252-1.319,1.873-1.987
					c1.324-1.424,2.689-2.896,4.186-4.233l0.328-0.287l2.192-2.047c0.012-0.008,0.021-0.019,0.034-0.025l0.002-0.002
					c0.005-0.002,0.009-0.006,0.013-0.008c0.015-0.01,0.029-0.021,0.044-0.031l7.987-6.479l4.858-3.062
					c1.686-1.201,3.68-2.234,5.789-3.328c0.848-0.438,1.699-0.88,2.525-1.328l2.135-1.139l6.99-2.828
					c0.982-0.465,2.029-0.758,3.137-1.066c0.534-0.148,1.074-0.299,1.594-0.467l4.816-1.482l5.016-1.019
					c0.576-0.1,1.145-0.226,1.717-0.353c1.076-0.235,2.188-0.479,3.318-0.535c1.07-0.09,2.139-0.209,3.203-0.329
					c2.328-0.262,4.734-0.534,7.153-0.466l5.201-0.119l5.294,0.404c2.43,0.061,4.893,0.502,7.27,0.932
					c1.057,0.189,2.113,0.381,3.191,0.543c1.09,0.125,2.135,0.424,3.244,0.736c0.625,0.178,1.252,0.354,1.857,0.492
					c0.634,0.178,1.27,0.338,1.908,0.492c1.066,0.266,2.174,0.539,3.21,0.91l5.029,1.856c0.333,0.124,0.662,0.243,0.99,0.36
					c0.508,0.182,1.017,0.359,1.486,0.556l7.248,3.511c0.93,0.511,1.834,1.061,2.744,1.612c0.625,0.38,1.256,0.762,1.904,1.139
					c2.314,1.225,4.461,2.837,6.539,4.396c0.763,0.572,1.524,1.144,2.314,1.715c1.068,0.698,1.985,1.559,2.964,2.469
					c0.362,0.338,0.724,0.676,1.089,1.002l3.523,3.193l4.216,4.539c0.348,0.391,0.716,0.789,1.087,1.189
					c1.043,1.125,2.117,2.291,2.679,3.21c0.581,0.837,1.187,1.646,1.796,2.458c1.352,1.803,2.745,3.666,3.969,5.938
					c0.361,0.619,0.736,1.232,1.113,1.846c0.551,0.904,1.129,1.839,1.627,2.751l2.339,4.854l1.181,2.386
					c0.216,0.514,0.4,1.036,0.59,1.557c0.115,0.313,0.226,0.626,0.344,0.935l1.871,5.025c0.368,1.02,0.639,2.104,0.904,3.148
					c0.161,0.66,0.326,1.318,0.514,1.96l1.025,3.816l0.207,1.312c0.162,1.057,0.357,2.107,0.551,3.16
					c0.437,2.38,0.883,4.841,0.957,7.303l0.416,5.213l-0.102,5.274c0.068,2.374-0.193,4.761-0.445,7.071
					c-0.119,1.085-0.236,2.171-0.326,3.28c-0.049,1.109-0.283,2.173-0.527,3.298c-0.123,0.569-0.247,1.141-0.342,1.703l-0.99,4.977
					l-1.487,4.859c-0.169,0.532-0.321,1.074-0.468,1.617c-0.308,1.105-0.597,2.148-1.07,3.165
					c-2.479,6.578-5.404,12.497-8.683,17.593l-2.61,4.093c-0.361,0.618-0.801,1.228-1.355,1.877l-5.066,6.369
					c-0.006,0.014-0.02,0.027-0.025,0.037c-0.023,0.033-0.047,0.069-0.068,0.107l-0.615,0.645c-0.582,0.623-1.17,1.251-1.762,1.883
					c-1.617,1.814-3.049,3.155-4.434,4.451c-0.677,0.633-1.344,1.256-1.984,1.893c-0.766,0.613-1.516,1.242-2.262,1.867
					c-1.49,1.252-3.031,2.543-4.641,3.652c-4.684,3.648-9.733,6.38-14.164,8.779c-5.375,2.613-9.998,4.518-14.151,5.818
					c-7.924,2.623-16.301,4.302-24.916,4.992c-2.319,0.248-4.449,0.285-6.515,0.324c-1.086,0.023-2.126,0.039-3.078,0.09
					c-0.926-0.033-1.809-0.064-2.647-0.092c-1.742-0.053-3.24-0.104-4.545-0.199l-6.059-0.545c-0.268-0.024-0.513,0.154-0.571,0.416
					c-0.058,0.26,0.085,0.525,0.335,0.618c0,0,1.994,0.757,5.742,2.187c1.307,0.441,2.82,0.883,4.574,1.391
					c0.801,0.234,1.648,0.48,2.584,0.757c0.65,0.14,1.325,0.296,2.022,0.456c2.352,0.538,5.011,1.152,7.933,1.492
					c9.074,1.336,18.441,1.37,27.832,0.105c5.862-0.671,11.916-2.285,17.085-3.782c4.949-1.657,11.474-4.022,18.032-7.64
					l2.306-1.204c0.494-0.284,0.98-0.587,1.469-0.896c0.257-0.16,0.514-0.32,0.775-0.48l4.537-2.85
					c0.586-0.426,1.188-0.859,1.795-1.299c2.482-1.795,5.051-3.646,6.988-5.331l2.98-2.464c0.004-0.004,0.009-0.008,0.012-0.01
					c0.004-0.006,0.01-0.014,0.02-0.02l7.359-7.358c0.77-0.738,1.431-1.47,2.016-2.226l3.771-4.625
					c10.754-13.77,18.115-29.648,21.293-45.937c0.191-1.168,0.403-2.336,0.619-3.505c0.586-3.194,1.191-6.501,1.283-9.832
					l0.459-6.849l-0.152-6.844c0.035-3.541-0.422-7.116-0.87-10.568c-0.14-1.098-0.282-2.199-0.413-3.313l-0.243-1.778l-1.167-5.138
					c-0.184-0.748-0.352-1.504-0.523-2.26c-0.34-1.52-0.697-3.091-1.18-4.619l-2.251-6.723c-0.142-0.403-0.278-0.811-0.417-1.221
					c-0.242-0.72-0.482-1.44-0.763-2.173l-4.423-9.791c-0.758-1.449-1.605-2.877-2.424-4.261c-0.383-0.654-0.773-1.308-1.143-1.952
					c-1.938-3.622-4.662-7.277-7.299-10.813l-1.168-1.566C283.337,114.83,282.278,113.664,281.251,112.533z"/>
				<path fill="#F40E0E" d="M238.343,144.7c-0.003-0.009-0.013-0.015-0.018-0.021l0.004-0.004c-0.008-0.006-0.091-0.086-0.102-0.093
					l-2.936-2.757c-0.656-0.609-1.335-1.24-2.078-1.77l-0.434-0.332c-1.676-1.281-3.405-2.611-5.282-3.658l-0.867-0.517
					c-0.701-0.426-1.407-0.849-2.157-1.253l-3.102-1.438c-1.479-0.74-3.048-1.264-4.569-1.769c-0.631-0.206-1.256-0.417-1.915-0.653
					c-2.337-0.632-4.448-1.188-6.64-1.539c-0.471-0.055-0.945-0.117-1.414-0.178c-1.717-0.223-3.49-0.455-5.246-0.443
					c-1.094-0.021-2.186-0.043-3.321-0.068l-3.232,0.21c-1.647,0.056-3.264,0.362-4.821,0.659c-0.531,0.1-1.054,0.201-1.596,0.292
					c-1.557,0.317-3.07,0.766-4.537,1.2c-0.522,0.154-1.036,0.307-1.598,0.469l-1.111,0.43c-1.529,0.59-3.105,1.197-4.598,1.959
					c-0.557,0.313-1.121,0.602-1.684,0.893c-1.193,0.617-2.428,1.254-3.531,2.049l-0.859,0.57c-1.363,0.9-2.65,1.75-3.977,2.941
					l-2.912,2.512l-3.033,3.289c-0.257,0.237-0.354,0.329-0.379,0.352c-0.037,0.037-0.068,0.079-0.093,0.123
					c-0.006,0.01-0.017,0.02-0.019,0.023l-4.094,5.646c-0.838,1.479-1.619,2.937-2.32,4.334c-0.115,0.237-0.236,0.469-0.355,0.699
					c-0.244,0.474-0.48,0.942-0.695,1.451l-1.084,3.016c-0.404,1.141-0.787,2.219-1.111,3.363l-1.138,5.971
					c-0.075,0.455-0.088,0.903-0.104,1.337c-0.004,0.202-0.012,0.405-0.025,0.624c-0.016,0.605-0.046,1.197-0.07,1.775
					c-0.082,1.808-0.162,3.515,0.114,5.139c0.076,0.574,0.133,1.131,0.188,1.67c0.15,1.432,0.288,2.781,0.696,4.045
					c0.422,1.684,0.838,3.168,1.252,4.473l1.316,2.93c0.73,1.604,1.163,2.447,1.163,2.447c0.11,0.211,0.341,0.324,0.569,0.285
					c0.232-0.042,0.409-0.229,0.439-0.461c0,0,0.114-0.945,0.247-2.707l0.209-3.123c0.272-1.223,0.54-2.584,0.821-4.07
					c0.125-0.931,0.457-1.975,0.813-3.083c0.168-0.526,0.34-1.065,0.498-1.626c0.307-1.231,0.861-2.482,1.453-3.809
					c0.205-0.459,0.412-0.924,0.618-1.412c0.335-0.883,0.843-1.748,1.38-2.641l1.354-2.34l3.168-4.31
					c0.152-0.176,0.316-0.345,0.483-0.513l0.485-0.48l0.202-0.209l0.219-0.213c0.448-0.448,0.876-0.908,1.313-1.37
					c0.291-0.308,0.58-0.618,0.828-0.882l3.386-2.708c0.034-0.015,0.069-0.034,0.103-0.056l3.634-2.525l1.879-0.871
					c0.517-0.285,1.201-0.565,1.919-0.859c0.434-0.178,0.873-0.358,1.312-0.557c0.638-0.32,1.341-0.518,2.083-0.729
					c0.475-0.133,0.945-0.267,1.371-0.422c0.603-0.175,1.247-0.305,1.87-0.43c0.607-0.121,1.214-0.245,1.71-0.391
					c0.518-0.049,1.031-0.118,1.541-0.191c0.758-0.105,1.479-0.204,2.198-0.23c0.426-0.003,0.853-0.02,1.278-0.033
					c0.862-0.031,1.672-0.061,2.532,0.021l1.86,0.061l1.92,0.275c2.569,0.324,5.047,1.107,7.332,1.866
					c2.104,0.869,4.554,1.962,6.787,3.534c0.705,0.395,1.333,0.9,2,1.436c0.346,0.281,0.694,0.561,1.075,0.838
					c0.338,0.227,0.636,0.525,0.953,0.84c0.139,0.138,0.28,0.277,0.423,0.406l1.317,1.235l1.842,2.108
					c0.353,0.395,0.883,0.992,0.998,1.245c0.227,0.374,0.469,0.71,0.728,1.055c0.364,0.496,0.743,1.009,1.123,1.743
					c0.145,0.251,0.297,0.496,0.444,0.744c0.188,0.298,0.369,0.598,0.518,0.869c0.236,0.525,0.494,1.045,0.751,1.566l0.116,0.225
					c0.378,0.649,0.624,1.354,0.888,2.099c0.169,0.478,0.337,0.956,0.518,1.356c0.681,2.352,1.345,4.883,1.581,7.441l0.197,1.859
					l-0.014,1.949c0.043,0.814-0.018,1.613-0.082,2.459c-0.032,0.436-0.066,0.873-0.084,1.287
					c-0.443,4.746-1.942,9.454-4.458,13.995l-0.339,0.608c-0.49,0.877-0.951,1.711-1.553,2.471l-1.314,1.867
					c-0.032,0.046-0.057,0.094-0.071,0.145l-3.463,3.781l-0.676,0.58c-0.577,0.493-1.121,0.959-1.654,1.488
					c-0.148,0.138-0.297,0.284-0.445,0.428c-0.215,0.211-0.431,0.424-0.643,0.597l-0.191,0.134
					c-0.404,0.273-0.799,0.541-1.189,0.813c-0.932,0.645-1.839,1.275-2.662,1.855l-2.814,1.492
					c-0.996,0.554-1.831,0.979-2.695,1.271c-0.473,0.182-0.94,0.367-1.406,0.555c-1.351,0.543-2.622,1.052-3.889,1.315
					c-0.536,0.13-1.068,0.279-1.582,0.422c-1.136,0.316-2.203,0.614-3.223,0.704c-1.508,0.217-2.892,0.428-4.053,0.637L185,226.073
					c-0.237,0.014-0.437,0.182-0.492,0.41c-0.06,0.232,0.043,0.472,0.251,0.59c0.032,0.021,0.825,0.479,2.407,1.271l3.022,1.477
					c1.159,0.416,2.564,0.871,4.271,1.377c1.239,0.47,2.586,0.662,4.01,0.867c0.539,0.076,1.094,0.158,1.643,0.251
					c1.621,0.347,3.315,0.335,5.104,0.327c0.596-0.006,1.205-0.01,1.852,0.001c0.203-0.007,0.41-0.005,0.615-0.004
					c0.434,0.004,0.881,0.009,1.34-0.052l6.051-0.908c1.045-0.252,2.068-0.57,3.148-0.906l3.3-1.031
					c0.526-0.203,1.064-0.459,1.605-0.717l0.695-0.326c1.35-0.631,2.883-1.409,4.732-2.41c1.197-0.763,2.416-1.539,3.65-2.333
					l1.35-0.866c0.017-0.014,0.073-0.059,0.091-0.072l-0.002-0.004c0.011-0.011,0.024-0.018,0.036-0.026h0.002
					c0-0.003,0.008-0.009,0.01-0.011c0.114-0.095,0.248-0.216,0.408-0.357l2.51-2.201c0.523-0.43,1.055-0.92,1.632-1.496
					c0.68-0.679,1.333-1.395,1.999-2.119l0.34-0.371c5.49-6.23,9.381-13.609,11.257-21.35c0.112-0.527,0.231-1.056,0.354-1.586
					c0.358-1.543,0.727-3.143,0.84-4.771l0.338-3.277l0.059-3.265c0.08-1.769-0.078-3.552-0.229-5.274
					c-0.044-0.473-0.087-0.951-0.126-1.453c-0.297-2.256-0.795-4.535-1.302-6.707c-0.193-0.615-0.374-1.24-0.554-1.863
					c-0.449-1.549-0.91-3.15-1.592-4.658l-1.342-3.198c-0.361-0.733-0.754-1.45-1.15-2.167l-0.477-0.875
					c-1.013-2.017-2.574-4.209-4.086-6.277c-0.627-0.889-1.063-1.395-1.49-1.88c-0.154-0.179-0.307-0.354-0.475-0.558l-1.774-2.058
					c-0.212-0.227-0.353-0.383-0.458-0.487c-0.01-0.012-0.018-0.022-0.028-0.034L238.343,144.7z"/>
				<g>
					<path fill="#FFCC34" d="M168.789,196.714c4.656,14.009,19.788,21.589,33.796,16.934c14.013-4.661,21.591-19.792,16.934-33.801
						c-4.653-14.006-19.783-21.589-33.796-16.93C171.715,167.571,164.129,182.71,168.789,196.714z"/>
				</g>
				<path fill="#2A2A2A" d="M185.863,187.249l-66.988,66.985l-20.035-1.815c-0.132,0.009-0.256,0.063-0.35,0.155l-34.438,34.438
					c-0.141,0.145-0.192,0.361-0.125,0.553c0.065,0.193,0.236,0.333,0.439,0.357l19.268,4.117l5.479,1.336l1.342,5.499l4.113,19.25
					c0.025,0.203,0.165,0.377,0.357,0.441c0.191,0.066,0.406,0.016,0.553-0.129L129.916,284c0.095-0.096,0.149-0.218,0.154-0.351
					l-1.817-20.038l66.987-66.985c0.035-0.035,0.066-0.076,0.089-0.117c2.03-2.164,1.643-5.926-0.897-8.465
					C191.851,185.461,188.007,185.106,185.863,187.249z"/>
			</g>
			<g>
				<path fill="#487AF5" d="M264.483,168.375c-0.254,0.058-0.432,0.295-0.414,0.557c0,0,0.104,1.514,0.279,4.349
					c0.053,0.934,0.064,2.009,0.076,3.254c0.004,0.6,0.008,1.229,0.021,1.843c-0.051,0.716-0.083,1.466-0.114,2.249
					c-0.058,1.459-0.119,2.971-0.331,4.623c-0.616,6.104-1.921,12.014-3.871,17.572c-2.485,7.219-6.048,13.865-10.603,19.772
					c-0.77,1.086-1.68,2.144-2.563,3.166c-0.457,0.528-0.913,1.058-1.316,1.554l-0.313,0.31c-0.388,0.388-0.756,0.77-1.129,1.155
					c-0.375,0.39-0.755,0.783-1.163,1.191c-0.659,0.656-1.269,1.229-1.933,1.813l-1.785,1.645c-0.045,0.023-0.084,0.047-0.117,0.08
					c-0.02,0.01-0.036,0.021-0.055,0.035l-3.131,2.424c-1.388,1.191-3.012,2.197-4.586,3.17l-0.885,0.549
					c-8.175,4.984-17.147,8.169-25.922,9.209c-0.776,0.053-1.55,0.133-2.325,0.212c-1.579,0.163-3.213,0.331-4.855,0.273
					l-3.584,0.063l-3.652-0.305c-5.309-0.408-10.434-1.773-14.27-2.905l-3.475-1.309c-0.205-0.076-0.416-0.154-0.625-0.229
					c-0.367-0.132-0.735-0.264-1.064-0.4l-4.996-2.438c-0.646-0.354-1.277-0.74-1.908-1.127c-0.426-0.26-0.852-0.52-1.299-0.781
					c-1.053-0.559-1.961-1.172-2.816-1.787l-18.463,18.46c2.66,1.979,5.412,4.012,8.082,5.428l1.229,0.716
					c1.086,0.636,2.207,1.293,3.371,1.9l7.187,3.198c0.542,0.207,1.093,0.39,1.644,0.572l5.771,1.9
					c1.11,0.35,2.257,0.604,3.364,0.846c0.56,0.121,1.118,0.247,1.698,0.385c0.573,0.113,1.14,0.244,1.706,0.379
					c1.092,0.257,2.217,0.522,3.359,0.623c0.793,0.088,1.584,0.184,2.375,0.28c2.548,0.31,5.181,0.63,7.775,0.588l0.684,0.011
					c1.449,0.023,2.893,0.047,4.382,0.064l4.942-0.361c2.467-0.09,4.887-0.553,7.227-1.001c0.851-0.163,1.695-0.325,2.559-0.471
					c11.884-2.419,23.437-7.907,33.421-15.881l0.576-0.478c1.654-1.366,3.366-2.779,4.888-4.301
					c0.331-0.334,0.655-0.672,0.959-1.004l3.866-3.975l1.723-2.148c1.248-1.485,2.674-3.517,4.052-5.48l0.716-1.022
					c0.387-0.65,0.781-1.288,1.175-1.92c0.987-1.589,1.916-3.092,2.663-4.707c2.003-3.775,3.703-7.965,5.356-13.213
					c1.021-3.785,2.117-8.221,2.51-12.404c0.789-6.828,0.624-13.602-0.493-20.109c-0.304-2.156-0.803-4.091-1.242-5.802
					c-0.119-0.465-0.236-0.913-0.354-1.388l-0.564-1.754c-0.408-1.275-0.761-2.373-1.115-3.342l-1.685-4.061
					C265.001,168.45,264.739,168.316,264.483,168.375z"/>
				<path fill="#487AF5" d="M144.21,222.846c-3.647-5.126-6.618-10.849-8.729-16.933c-1.243-4.17-2.566-9.129-2.966-14.303
					l-0.308-3.603l0.045-3.668c-0.066-1.634,0.102-3.284,0.261-4.878c0.075-0.761,0.153-1.517,0.204-2.26
					c0.156-1.479,0.455-2.967,0.743-4.404c0.175-0.866,0.349-1.732,0.479-2.541l0.996-3.389c0.115-0.375,0.217-0.754,0.318-1.135
					c0.198-0.764,0.387-1.486,0.707-2.186l1.866-4.824l0.786-1.531c0.316-0.602,0.625-1.219,0.93-1.833
					c0.732-1.456,1.419-2.833,2.219-4l1.987-3.319l1.76-2.239c0.78-0.986,1.553-1.965,2.315-2.938l0.506-0.637
					c0.006-0.008,0.01-0.016,0.017-0.021c0.022-0.025,0.04-0.057,0.06-0.086l1.327-1.479c0.495-0.593,1.059-1.199,1.772-1.916
					c0.43-0.428,0.865-0.851,1.303-1.27c0.436-0.423,0.872-0.842,1.301-1.27l0.044-0.049c0.554-0.457,1.096-0.927,1.638-1.396
					c1.053-0.914,2.049-1.775,3.141-2.554c5.875-4.548,12.516-8.126,19.742-10.636c5.548-1.961,11.458-3.276,17.582-3.91
					c1.627-0.208,3.133-0.273,4.587-0.334c0.79-0.032,1.548-0.066,2.228-0.119c0.649,0.01,1.271,0.014,1.864,0.018
					c1.243,0.007,2.314,0.014,3.253,0.064l4.369,0.277c0.263,0.019,0.5-0.158,0.556-0.412c0.06-0.256-0.075-0.516-0.317-0.616
					l-4.065-1.673c-0.916-0.336-1.988-0.676-3.231-1.068c-0.587-0.187-1.213-0.382-1.909-0.605
					c-0.442-0.109-0.901-0.225-1.376-0.344c-1.701-0.432-3.633-0.922-5.762-1.213c-6.528-1.1-13.297-1.246-20.104-0.436
					c-4.149,0.398-8.413,1.461-12.425,2.555c-5.211,1.649-9.396,3.362-13.148,5.373c-1.655,0.772-3.248,1.762-4.789,2.719
					c-0.609,0.379-1.223,0.762-1.885,1.159c-0.549,0.394-1.106,0.782-1.668,1.175c-1.59,1.111-3.234,2.26-4.756,3.57l-2.42,1.979
					l-5.721,5.58l-3.646,4.352c-1.712,1.928-3.035,3.965-4.313,5.936c-0.325,0.498-0.648,0.998-0.985,1.505l-1.258,1.939
					l-3.205,6.113c-1.043,2.066-1.892,4.276-2.713,6.415c-0.294,0.77-0.592,1.542-0.915,2.368c-0.244,0.873-0.503,1.748-0.759,2.627
					c-0.639,2.167-1.297,4.408-1.756,6.705c-0.143,0.856-0.306,1.711-0.467,2.57c-0.443,2.333-0.898,4.746-0.986,7.184l-0.352,5.008
					l0.09,4.994c-0.033,2.629,0.296,5.277,0.615,7.836c0.098,0.775,0.193,1.549,0.277,2.309c0.092,1.168,0.365,2.302,0.629,3.4
					c0.135,0.558,0.269,1.117,0.384,1.705c0.136,0.549,0.259,1.102,0.381,1.654c0.247,1.113,0.505,2.264,0.851,3.373
					c2.916,10.054,7.801,19.588,14.322,28.039L144.21,222.846z"/>
			</g>
		</g>
	</g>
	<g>
		<path fill="#2A2A2A" d="M441.164,200.402c4.635,5.856,6.954,12.567,6.954,20.13c0,6.834-1.679,12.841-5.032,18.025
			c-3.357,5.187-8.207,9.242-14.549,12.169c-6.345,2.928-13.848,4.392-22.509,4.392h-55.083V127.385h52.704
			c8.661,0,16.132,1.404,22.417,4.209c6.282,2.808,11.04,6.711,14.274,11.712c3.23,5.004,4.85,10.677,4.85,17.019
			c0,7.443-1.984,13.665-5.948,18.666c-3.966,5.004-9.241,8.541-15.829,10.614C430.61,190.949,436.526,194.545,441.164,200.402z
			 M376.565,180.089h23.424c6.099,0,10.797-1.373,14.091-4.118s4.941-6.68,4.941-11.804s-1.647-9.087-4.941-11.895
			c-3.294-2.805-7.992-4.209-14.091-4.209h-23.424V180.089z M416.917,229.865c3.477-2.928,5.215-7.074,5.215-12.444
			c0-5.49-1.83-9.79-5.489-12.901c-3.66-3.111-8.602-4.667-14.823-4.667h-25.254v34.404h25.803
			C408.59,234.257,413.439,232.792,416.917,229.865z"/>
		<path fill="#2A2A2A" d="M494.964,247.981c-10.005-5.61-17.934-13.387-23.79-23.333c-5.855-9.942-8.784-21.196-8.784-33.763
			c0-12.444,2.929-23.636,8.784-33.581c5.856-9.942,13.785-17.72,23.79-23.333c10.002-5.61,20.982-8.418,32.94-8.418
			c12.078,0,23.086,2.808,33.031,8.418c9.942,5.613,17.812,13.391,23.607,23.333c5.793,9.945,8.692,21.137,8.692,33.581
			c0,12.567-2.899,23.821-8.692,33.763c-5.796,9.945-13.696,17.723-23.699,23.333c-10.005,5.613-20.984,8.418-32.939,8.418
			C515.946,256.399,504.966,253.595,494.964,247.981z M548.217,228.309c5.856-3.477,10.432-8.446,13.726-14.915
			c3.294-6.465,4.94-13.968,4.94-22.509c0-8.538-1.646-16.013-4.94-22.417c-3.294-6.405-7.869-11.314-13.726-14.731
			c-5.855-3.414-12.627-5.124-20.313-5.124c-7.687,0-14.488,1.71-20.404,5.124c-5.919,3.417-10.522,8.326-13.816,14.731
			c-3.295,6.405-4.941,13.879-4.941,22.417c0,8.541,1.646,16.044,4.941,22.509c3.294,6.468,7.897,11.438,13.816,14.915
			c5.916,3.477,12.718,5.215,20.404,5.215C535.59,233.524,542.361,231.786,548.217,228.309z"/>
		<path fill="#2A2A2A" d="M701.203,165.814c-2.928-5.367-6.954-9.453-12.078-12.261c-5.124-2.805-11.103-4.209-17.934-4.209
			c-7.566,0-14.274,1.71-20.131,5.124c-5.855,3.417-10.431,8.298-13.725,14.64c-3.294,6.345-4.941,13.665-4.941,21.96
			c0,8.541,1.676,15.984,5.033,22.326c3.354,6.345,8.021,11.226,13.999,14.64c5.977,3.417,12.931,5.124,20.862,5.124
			c9.759,0,17.751-2.591,23.973-7.777c6.223-5.184,10.309-12.413,12.261-21.686h-43.92v-19.581h69.175v22.326
			c-1.71,8.907-5.37,17.142-10.98,24.705c-5.613,7.566-12.842,13.634-21.686,18.208c-8.847,4.575-18.758,6.863-29.737,6.863
			c-12.324,0-23.455-2.774-33.397-8.327c-9.945-5.55-17.751-13.268-23.424-23.149s-8.51-21.105-8.51-33.672
			c0-12.564,2.837-23.819,8.51-33.764c5.673-9.942,13.479-17.688,23.424-23.241c9.942-5.55,21.014-8.326,33.215-8.326
			c14.394,0,26.9,3.508,37.515,10.522c10.614,7.017,17.934,16.867,21.96,29.554H701.203z"/>
		<path fill="#2A2A2A" d="M778.428,148.063v32.025h43.005v20.313h-43.005v33.855h48.495v20.862h-74.115V127.202h74.115v20.862
			H778.428z"/>
		<path fill="#2A2A2A" d="M959.414,255.119h-25.62l-58.011-87.657v87.657h-25.62V127.202h25.62l58.011,87.84v-87.84h25.62V255.119z"
			/>
		<path fill="#2A2A2A" d="M1010.285,234.806h42.09v20.313h-67.71V127.385h25.62V234.806z"/>
		<path fill="#2A2A2A" d="M1094.282,127.385v127.734h-25.62V127.385H1094.282z"/>
		<path fill="#2A2A2A" d="M1208.475,165.814c-2.929-5.367-6.954-9.453-12.078-12.261c-5.124-2.805-11.104-4.209-17.935-4.209
			c-7.565,0-14.273,1.71-20.13,5.124c-5.855,3.417-10.431,8.298-13.725,14.64c-3.294,6.345-4.941,13.665-4.941,21.96
			c0,8.541,1.676,15.984,5.032,22.326c3.354,6.345,8.021,11.226,14,14.64c5.976,3.417,12.93,5.124,20.862,5.124
			c9.759,0,17.751-2.591,23.973-7.777c6.222-5.184,10.308-12.413,12.261-21.686h-43.92v-19.581h69.174v22.326
			c-1.71,8.907-5.369,17.142-10.979,24.705c-5.613,7.566-12.842,13.634-21.686,18.208c-8.847,4.575-18.758,6.863-29.737,6.863
			c-12.324,0-23.456-2.774-33.397-8.327c-9.945-5.55-17.751-13.268-23.425-23.149c-5.673-9.882-8.509-21.105-8.509-33.672
			c0-12.564,2.836-23.819,8.509-33.764c5.674-9.942,13.479-17.688,23.425-23.241c9.941-5.55,21.013-8.326,33.214-8.326
			c14.395,0,26.901,3.508,37.516,10.522c10.613,7.017,17.934,16.867,21.96,29.554H1208.475z"/>
		<path fill="#2A2A2A" d="M1338.402,230.78h-50.874l-8.418,24.339h-26.901l45.934-127.917h29.828l45.934,127.917h-27.084
			L1338.402,230.78z M1331.448,210.284l-18.483-53.436l-18.482,53.436H1331.448z"/>
		<path fill="#2A2A2A" d="M1391.012,252.099c-2.99-2.865-4.483-6.434-4.483-10.706c0-4.269,1.493-7.837,4.483-10.706
			c2.988-2.865,6.8-4.3,11.438-4.3c4.513,0,8.235,1.436,11.163,4.3c2.929,2.868,4.393,6.437,4.393,10.706
			c0,4.272-1.464,7.84-4.393,10.706c-2.928,2.868-6.65,4.3-11.163,4.3C1397.812,256.399,1394,254.967,1391.012,252.099z"/>
		<path fill="#2A2A2A" d="M1518.745,135.253c10.186,5.247,18.054,12.719,23.607,22.418c5.55,9.699,8.326,20.953,8.326,33.763
			s-2.776,24.004-8.326,33.581c-5.554,9.579-13.422,16.99-23.607,22.234c-10.188,5.247-21.991,7.869-35.41,7.869h-44.652V127.385
			h44.652C1496.754,127.385,1508.558,130.01,1518.745,135.253z M1513.529,222.362c7.32-7.32,10.98-17.628,10.98-30.927
			c0-13.296-3.66-23.698-10.98-31.202c-7.319-7.503-17.69-11.254-31.109-11.254h-18.117v84.363h18.117
			C1495.839,233.342,1506.21,229.682,1513.529,222.362z"/>
		<path fill="#2A2A2A" d="M1595.513,148.063v32.025h43.005v20.313h-43.005v33.855h48.495v20.862h-74.115V127.202h74.115v20.862
			H1595.513z"/>
	</g>
</g>
<g id="Ebene_2">
</g>
</svg>
