<svg xmlns="http://www.w3.org/2000/svg" width="160" height="35" viewBox="0 0 160 35"><path d="M121.5 15.7c-3.7-.1-4.2-2.9-4.3-3.7h11.5c0-4.7-2.4-7.8-7.3-7.8-4.8 0-7.3 3.2-7.3 6.9 0 4.1 2.8 7 7.5 7 4.5 0 6.3-2.8 6.7-4.1h-3.3c-.6 1-1.8 1.7-3.5 1.7zm-.2-9.1c2.2 0 3.7.8 4.1 3h-8.2c.7-2.5 2.6-3 4.1-3zm-35.5 9.1c-3.7-.1-4.2-2.9-4.3-3.7h11.5c0-4.7-2.4-7.8-7.3-7.8-4.8 0-7.3 3.2-7.3 6.9 0 4.1 2.8 7 7.5 7 4.5 0 6.3-2.8 6.7-4.1h-3.4c-.5 1-1.7 1.7-3.4 1.7zm-.2-9.1c2.2 0 3.7.8 4.1 3h-8.2c.7-2.5 2.6-3 4.1-3zm12.1-6.6h3v17.7h-3v-17.7zm8.7 0h3.1v17.7h-3.1v-17.7zm26.7 4.6h3v1.6c1-.9 2.2-2.1 4.9-2.1s5.1 1.1 5.1 5.1v8.4h-3v-7.3c0-2.6-.8-3.7-2.8-3.7-2.4 0-3.4 1-4.1 1.9v9h-3v-12.9h-.1zm16.8.5h2.3v-4.3h3v4.3h4.6v2.6h-4.6v6c0 .9.4 1.9 2.1 1.9.6 0 1.8-.1 2.6-.4v2.7c-1.5.2-2.2.3-3.3.3-2.9 0-4.5-.9-4.5-3.8v-6.7h-2.3v-2.6h.1z" fill="#666B6E"/><path d="M33.5 21.2h-4.9l-3.1-4-3.1 4h-4.9l5.7-6.8-5.9-7.1h4.9l3.4 4.3 3.5-4.3h4.9l-5.9 7.1 5.4 6.8zm23.8-6.8h-4.9l-3.1-4-3.1 4h-4.9l5.7-6.8-6-7.1h4.9l3.4 4.3 3.5-4.3h4.9l-5.9 7.1 5.5 6.8z" fill="#005CA9"/><path d="M7.4 15.7c-3.7-.1-4.2-2.9-4.3-3.7h11.5c0-4.7-2.4-7.8-7.3-7.8s-7.3 3.2-7.3 6.9c0 4.1 2.8 7 7.5 7 4.5 0 6.3-2.8 6.7-4.1h-3.4c-.5 1-1.7 1.7-3.4 1.7zm-.2-9.1c2.2 0 3.7.8 4.1 3h-8.1c.6-2.4 2.4-3 4-3zm60.3 9c-2.9 0-4.2-2.1-4.2-4.6 0-2.1 1.6-4.2 4.5-4.2 2.2 0 3.5 1.2 3.8 2.3h3c-.3-2.2-2.3-4.9-7.1-4.9-4.7 0-7.4 3.2-7.4 6.7 0 5.3 3.4 7.3 7.6 7.3 4.7 0 6.6-3.2 7-5h-3.2c-.1 1.1-1.5 2.4-4 2.4z" fill="#666B6E"/><path fill="#005CA9" d="M36.3.5h2.1v20.7h-2.1v-20.7z"/><path d="M86.7 28.3c-1-1.4-2.6-1.6-3.4-1.6-2.6 0-3.1 1.4-3.1 2.1 0 1 .5 1.8 3 2.1 1.6.2 2 .3 2 .8 0 .6-.7.8-1.5.8-1 0-1.9-.3-2.4-1.1l-1.3.8c.6.7 1.3 1.6 3.5 1.6 1.1 0 3.3-.2 3.3-2.2 0-1.6-1.6-1.9-3.4-2.1-.9-.1-1.5-.2-1.5-.7 0-.4.4-.8 1.5-.8 1.4 0 1.9.7 2.1 1l1.2-.7zm7.1 5.5c1.8 0 3.7-.9 3.7-3.5 0-1.8-1.1-3.5-3.7-3.5s-3.7 1.7-3.7 3.5c0 2.6 1.9 3.5 3.7 3.5zm0-1.3c-1.4 0-2.1-.8-2.1-2.2 0-1.5 1-2.2 2.1-2.2 1.2 0 2.1.6 2.1 2.2 0 1.4-.7 2.2-2.1 2.2zm7.6 1.1h1.5v-8.9h-1.5v8.9zm12.4-6.6h-1.5v4.5c-.4.5-.9 1-2.1 1-1 0-1.4-.6-1.4-1.9v-3.6h-1.5v4.2c0 2 1.2 2.6 2.6 2.6 1.3 0 2-.6 2.5-1v.8h1.5v-6.6h-.1zm3.5 1.5h1.2v3.4c0 1.4.8 1.9 2.2 1.9.5 0 .9 0 1.6-.1v-1.3c-.4.1-1 .2-1.3.2-.9 0-1.1-.5-1.1-1v-3h2.3v-1.3h-2.2v-2.1h-1.5v2.1h-1.2v1.2zm8.9 5.1h1.5v-6.6h-1.5v6.6zm0-7.8h1.5v-1.3h-1.5v1.3zm9.1 8c1.8 0 3.7-.9 3.7-3.5 0-1.8-1.1-3.5-3.7-3.5s-3.7 1.7-3.7 3.5c0 2.6 1.9 3.5 3.7 3.5zm0-1.3c-1.4 0-2.1-.8-2.1-2.2 0-1.5 1-2.2 2.1-2.2 1.2 0 2.1.6 2.1 2.2 0 1.4-.8 2.2-2.1 2.2zm7.5 1.1h1.5v-4.6c.4-.5.9-1 2.1-1 1 0 1.4.6 1.4 1.9v3.7h1.5v-4.2c0-2-1.2-2.6-2.6-2.6-1.3 0-2 .6-2.5 1v-.8h-1.5v6.6h.1zm17-5.3c-1-1.4-2.6-1.6-3.4-1.6-2.6 0-3.1 1.4-3.1 2.1 0 1 .5 1.8 3 2.1 1.6.2 2 .3 2 .8 0 .6-.7.8-1.5.8-1 0-1.9-.3-2.4-1.1l-1.3.7c.6.7 1.3 1.6 3.5 1.6 1.1 0 3.3-.2 3.3-2.2 0-1.6-1.6-1.9-3.4-2.1-.9-.1-1.5-.2-1.5-.7 0-.4.4-.8 1.5-.8 1.4 0 1.9.7 2.1 1l1.2-.6z" fill="#666B6E"/></svg>