<?xml version="1.0" encoding="utf-8"?>
<!-- Generator: Adobe Illustrator 16.0.3, SVG Export Plug-In . SVG Version: 6.00 Build 0)  -->
<!DOCTYPE svg PUBLIC "-//W3C//DTD SVG 1.1//EN" "http://www.w3.org/Graphics/SVG/1.1/DTD/svg11.dtd">
<svg version="1.1" id="Ebene_1" xmlns="http://www.w3.org/2000/svg" xmlns:xlink="http://www.w3.org/1999/xlink" x="0px" y="0px"
	 width="425.196px" height="283.464px" viewBox="0 0 425.196 283.464" enable-background="new 0 0 425.196 283.464"
	 xml:space="preserve">
<g>
	<g>
		<path fill="#2A2A2A" d="M324.123,30.015l-48.035,19.532c-0.189,0.076-0.313,0.261-0.313,0.466
			c0.001,0.203,0.125,0.386,0.315,0.462l14.075,5.681l-94.063,94.063c-0.196,0.195-0.196,0.512-0.001,0.707l8.049,8.049
			c0.196,0.195,0.51,0.196,0.708,0l93.939-93.939l5.518,13.666c0.075,0.188,0.259,0.313,0.462,0.313
			c0.136-0.001,0.264-0.056,0.355-0.147c0.047-0.045,0.084-0.102,0.109-0.166l19.531-48.035c0.077-0.188,0.031-0.399-0.107-0.542
			C324.522,29.983,324.31,29.939,324.123,30.015z"/>
		<path fill="#2A2A2A" d="M289.651,75.975c-0.339-0.375-0.681-0.747-1.03-1.147l-3.953-4.394c-0.223-0.232-0.396-0.413-0.534-0.54
			c-0.008-0.009-0.014-0.019-0.02-0.026l-0.004,0.003c-0.013-0.008-0.019-0.015-0.028-0.021l0.005-0.004
			c-0.005-0.005-0.071-0.068-0.071-0.073l-4.846-4.347c-0.388-0.342-0.772-0.687-1.158-1.03c-1.271-1.141-2.584-2.317-4.03-3.293
			c-0.7-0.505-1.397-1.018-2.097-1.528c-2.873-2.108-5.847-4.288-9.05-5.996c-0.578-0.333-1.154-0.672-1.73-1.009
			c-1.332-0.78-2.706-1.59-4.122-2.325l-9.157-4.085c-0.702-0.27-1.421-0.507-2.134-0.745c-0.341-0.111-0.679-0.225-1.02-0.342
			l-6.286-2.088c-1.413-0.442-2.87-0.764-4.279-1.076c-0.718-0.158-1.433-0.316-2.149-0.492l-4.836-1.086l-1.629-0.202
			c-1.025-0.115-2.049-0.243-3.069-0.372c-3.232-0.408-6.573-0.829-9.871-0.784l-6.447-0.125l-6.323,0.445
			c-3.104,0.102-6.161,0.67-9.113,1.219c-1.122,0.211-2.242,0.42-3.348,0.601c-1.447,0.201-2.852,0.605-4.213,0.997
			c-0.613,0.175-1.227,0.352-1.851,0.511l-5.927,1.687l-5.659,2.188c-0.547,0.23-1.1,0.447-1.653,0.661
			c-1.296,0.508-2.638,1.032-3.866,1.726l-7.878,4.088l-2.448,1.578c-0.663,0.437-1.325,0.861-1.985,1.286
			c-2.508,1.613-5.103,3.28-7.515,5.402c-1.508,1.243-2.999,2.474-4.493,3.7l-1.126,0.949l-7.266,7.346l-2.51,3.026
			c-1.717,1.966-3.219,4.078-4.669,6.122c-0.501,0.705-0.995,1.402-1.518,2.119l-2.617,4.197c-0.961,1.462-1.754,2.98-2.397,4.26
			c-3.43,6.251-5.691,12.614-7.102,16.879c-1.385,4.841-2.88,10.519-3.477,15.928c-1.164,8.771-1.109,17.519,0.153,25.982
			c0.322,2.722,0.896,5.187,1.397,7.362c0.155,0.67,0.307,1.316,0.451,1.979c0.248,0.829,0.48,1.621,0.7,2.369
			c0.484,1.65,0.903,3.076,1.321,4.309l2.047,5.321c0.088,0.233,0.336,0.366,0.578,0.309c0.243-0.055,0.41-0.285,0.384-0.533
			l-0.53-5.671c-0.096-1.186-0.143-2.526-0.195-4.076c-0.028-0.832-0.06-1.707-0.101-2.582c0.042-0.918,0.058-1.879,0.071-2.881
			c0.031-1.936,0.061-3.936,0.286-6.134c0.615-8.03,2.155-15.86,4.586-23.279c1.208-3.897,2.974-8.225,5.383-13.211
			c2.253-4.187,4.808-8.935,8.179-13.297c0.837-1.191,1.646-2.242,2.482-3.221l2.616-3.192c0.59-0.609,1.167-1.232,1.748-1.856
			c1.236-1.33,2.512-2.705,3.909-3.953l0.306-0.269l2.047-1.912c0.012-0.007,0.021-0.016,0.033-0.023l0.002-0.001
			c0.004-0.003,0.008-0.006,0.011-0.008c0.014-0.009,0.027-0.02,0.04-0.029l7.46-6.052l4.538-2.859
			c1.574-1.122,3.436-2.085,5.406-3.107c0.792-0.409,1.587-0.822,2.358-1.241l1.994-1.064l6.528-2.64
			c0.917-0.435,1.896-0.708,2.929-0.995c0.499-0.14,1.004-0.279,1.489-0.437l4.497-1.385l4.684-0.951
			c0.538-0.094,1.069-0.211,1.604-0.329c1.005-0.221,2.043-0.447,3.098-0.499c0.999-0.085,1.997-0.196,2.992-0.309
			c2.173-0.244,4.421-0.498,6.68-0.433l4.858-0.111l4.943,0.376c2.271,0.056,4.569,0.469,6.789,0.87
			c0.987,0.177,1.974,0.356,2.981,0.507c1.018,0.118,1.994,0.396,3.03,0.688c0.583,0.165,1.169,0.33,1.734,0.46
			c0.592,0.166,1.186,0.314,1.783,0.462c0.996,0.245,2.029,0.501,2.997,0.847l4.697,1.734c0.31,0.116,0.618,0.227,0.925,0.337
			c0.474,0.17,0.949,0.337,1.388,0.518l6.768,3.279c0.868,0.476,1.714,0.991,2.563,1.506c0.584,0.354,1.172,0.71,1.779,1.063
			c2.161,1.144,4.166,2.649,6.107,4.104c0.712,0.535,1.423,1.069,2.161,1.603c0.997,0.651,1.854,1.454,2.768,2.305
			c0.338,0.315,0.676,0.631,1.016,0.935l3.291,2.983l3.937,4.238c0.325,0.365,0.669,0.738,1.015,1.111
			c0.975,1.051,1.978,2.139,2.502,2.998c0.543,0.784,1.108,1.537,1.678,2.297c1.26,1.682,2.563,3.422,3.703,5.544
			c0.339,0.578,0.689,1.151,1.041,1.724c0.515,0.845,1.052,1.717,1.519,2.568l2.186,4.533l1.102,2.228
			c0.2,0.479,0.374,0.969,0.553,1.454c0.104,0.293,0.209,0.585,0.319,0.873l1.748,4.692c0.343,0.953,0.596,1.965,0.844,2.941
			c0.15,0.617,0.305,1.231,0.48,1.831l0.958,3.563l0.194,1.225c0.15,0.987,0.331,1.969,0.512,2.951
			c0.407,2.223,0.826,4.522,0.895,6.82l0.389,4.869l-0.096,4.925c0.064,2.217-0.18,4.446-0.415,6.604
			c-0.111,1.014-0.222,2.027-0.306,3.063c-0.045,1.037-0.263,2.03-0.492,3.08c-0.115,0.532-0.23,1.066-0.318,1.59l-0.926,4.648
			l-1.389,4.538c-0.158,0.498-0.298,1.004-0.437,1.511c-0.286,1.032-0.556,2.006-0.999,2.956c-2.315,6.143-5.047,11.67-8.108,16.429
			l-2.438,3.823c-0.337,0.577-0.747,1.146-1.265,1.753l-4.731,5.947c-0.008,0.013-0.019,0.025-0.025,0.036
			c-0.022,0.03-0.044,0.063-0.064,0.098l-0.574,0.603c-0.544,0.583-1.094,1.169-1.646,1.758c-1.51,1.695-2.847,2.947-4.14,4.157
			c-0.632,0.59-1.255,1.175-1.854,1.769c-0.714,0.572-1.415,1.159-2.111,1.744c-1.392,1.168-2.83,2.374-4.334,3.41
			c-4.374,3.406-9.091,5.957-13.229,8.198c-5.018,2.44-9.337,4.219-13.216,5.434c-7.398,2.449-15.222,4.017-23.267,4.662
			c-2.167,0.231-4.157,0.267-6.084,0.303c-1.015,0.021-1.987,0.037-2.875,0.085c-0.865-0.034-1.689-0.062-2.473-0.086
			c-1.627-0.052-3.026-0.098-4.244-0.188l-5.657-0.508c-0.251-0.022-0.479,0.145-0.534,0.388c-0.054,0.242,0.079,0.489,0.313,0.578
			c0,0,1.862,0.706,5.362,2.042c1.22,0.412,2.634,0.824,4.272,1.298c0.747,0.22,1.54,0.449,2.412,0.707
			c0.608,0.131,1.238,0.275,1.89,0.427c2.195,0.502,4.678,1.075,7.408,1.393c8.473,1.247,17.222,1.279,25.991,0.096
			c5.476-0.624,11.129-2.132,15.956-3.53c4.622-1.547,10.715-3.756,16.84-7.134l2.15-1.125c0.464-0.266,0.918-0.55,1.375-0.836
			c0.24-0.149,0.479-0.3,0.724-0.449l4.237-2.661c0.547-0.398,1.108-0.803,1.676-1.213c2.319-1.676,4.718-3.406,6.526-4.979
			l2.783-2.3c0.004-0.004,0.008-0.008,0.01-0.01c0.005-0.005,0.012-0.012,0.021-0.018l6.872-6.872
			c0.72-0.689,1.336-1.372,1.882-2.078l3.523-4.319c10.043-12.86,16.918-27.689,19.885-42.901c0.179-1.09,0.376-2.18,0.578-3.272
			c0.547-2.984,1.113-6.07,1.198-9.182l0.429-6.396l-0.142-6.391c0.033-3.307-0.394-6.645-0.813-9.87
			c-0.131-1.025-0.263-2.054-0.385-3.094l-0.227-1.66l-1.091-4.798c-0.171-0.699-0.329-1.404-0.488-2.111
			c-0.318-1.418-0.65-2.886-1.102-4.314l-2.101-6.276c-0.134-0.378-0.263-0.758-0.391-1.142c-0.226-0.671-0.451-1.344-0.712-2.029
			l-4.13-9.143c-0.71-1.354-1.499-2.688-2.263-3.98c-0.359-0.61-0.723-1.221-1.068-1.822c-1.809-3.383-4.355-6.797-6.817-10.099
			l-1.09-1.463C291.598,78.12,290.61,77.03,289.651,75.975z"/>
		<path fill="#F40E0E" d="M249.58,106.016c-0.003-0.008-0.012-0.014-0.017-0.019l0.004-0.005c-0.008-0.006-0.085-0.08-0.095-0.086
			l-2.744-2.574c-0.61-0.569-1.244-1.158-1.938-1.653l-0.404-0.31c-1.566-1.197-3.181-2.438-4.934-3.416l-0.81-0.483
			c-0.655-0.398-1.313-0.793-2.014-1.17l-2.897-1.342c-1.382-0.691-2.846-1.181-4.266-1.652c-0.59-0.193-1.174-0.39-1.789-0.61
			c-2.183-0.591-4.154-1.107-6.201-1.437c-0.439-0.052-0.882-0.11-1.321-0.167c-1.603-0.208-3.26-0.424-4.898-0.413
			c-1.023-0.02-2.042-0.041-3.103-0.065l-3.018,0.197c-1.539,0.051-3.048,0.338-4.503,0.615c-0.496,0.094-0.984,0.188-1.49,0.273
			c-1.454,0.296-2.868,0.715-4.238,1.12c-0.487,0.145-0.967,0.287-1.492,0.439l-1.036,0.401c-1.43,0.551-2.902,1.117-4.294,1.829
			c-0.521,0.292-1.048,0.563-1.573,0.834c-1.115,0.575-2.267,1.17-3.298,1.913l-0.802,0.533c-1.273,0.841-2.475,1.633-3.714,2.747
			l-2.72,2.345l-2.832,3.074c-0.24,0.219-0.33,0.305-0.354,0.327c-0.034,0.034-0.063,0.073-0.087,0.114
			c-0.005,0.009-0.015,0.019-0.017,0.022l-3.823,5.273c-0.783,1.38-1.512,2.741-2.166,4.047c-0.108,0.221-0.222,0.437-0.333,0.653
			c-0.227,0.442-0.449,0.88-0.65,1.355l-1.012,2.817c-0.377,1.064-0.734,2.071-1.037,3.14l-1.063,5.576
			c-0.07,0.425-0.082,0.844-0.098,1.249c-0.004,0.189-0.011,0.378-0.023,0.583c-0.015,0.565-0.043,1.118-0.066,1.658
			c-0.076,1.688-0.151,3.281,0.107,4.798c0.071,0.536,0.124,1.056,0.175,1.56c0.14,1.336,0.269,2.597,0.65,3.778
			c0.394,1.572,0.782,2.958,1.169,4.177l1.229,2.735c0.683,1.498,1.087,2.286,1.087,2.286c0.103,0.196,0.318,0.303,0.532,0.267
			c0.217-0.04,0.382-0.214,0.41-0.432c0,0,0.107-0.883,0.231-2.527l0.195-2.916c0.255-1.143,0.505-2.414,0.767-3.803
			c0.117-0.868,0.427-1.844,0.759-2.878c0.157-0.492,0.317-0.995,0.465-1.519c0.286-1.15,0.804-2.318,1.357-3.556
			c0.191-0.43,0.385-0.863,0.577-1.32c0.313-0.824,0.787-1.632,1.289-2.464l1.264-2.186l2.959-4.025
			c0.142-0.164,0.295-0.322,0.451-0.479l0.454-0.449l0.188-0.194l0.204-0.2c0.418-0.419,0.819-0.848,1.227-1.279
			c0.271-0.288,0.542-0.578,0.773-0.823l3.162-2.529c0.032-0.014,0.065-0.033,0.096-0.052l3.393-2.36l1.755-0.813
			c0.483-0.266,1.122-0.527,1.792-0.802c0.405-0.166,0.815-0.335,1.224-0.519c0.596-0.3,1.252-0.484,1.946-0.681
			c0.443-0.124,0.883-0.249,1.281-0.394c0.562-0.164,1.164-0.285,1.746-0.402c0.567-0.112,1.134-0.228,1.597-0.364
			c0.483-0.046,0.963-0.111,1.439-0.179c0.708-0.099,1.381-0.19,2.053-0.216c0.397-0.002,0.796-0.017,1.193-0.03
			c0.806-0.03,1.563-0.058,2.365,0.021l1.738,0.055l1.793,0.257c2.399,0.304,4.713,1.035,6.847,1.743
			c1.965,0.812,4.252,1.833,6.339,3.301c0.657,0.368,1.244,0.841,1.867,1.341c0.324,0.262,0.649,0.523,1.004,0.782
			c0.316,0.212,0.594,0.49,0.89,0.784c0.131,0.129,0.263,0.26,0.395,0.379l1.229,1.154l1.722,1.969
			c0.329,0.368,0.824,0.927,0.931,1.163c0.212,0.349,0.438,0.662,0.68,0.985c0.341,0.463,0.694,0.942,1.049,1.628
			c0.135,0.234,0.277,0.463,0.415,0.695c0.175,0.278,0.346,0.558,0.483,0.811c0.221,0.492,0.461,0.977,0.701,1.463l0.109,0.211
			c0.353,0.606,0.583,1.264,0.829,1.959c0.158,0.445,0.315,0.893,0.483,1.267c0.637,2.196,1.256,4.559,1.477,6.949l0.183,1.736
			l-0.011,1.821c0.04,0.761-0.017,1.507-0.076,2.296c-0.032,0.407-0.063,0.816-0.08,1.203c-0.414,4.431-1.814,8.829-4.163,13.069
			l-0.317,0.568c-0.456,0.82-0.888,1.598-1.449,2.307l-1.23,1.744c-0.028,0.043-0.05,0.088-0.064,0.135l-3.235,3.531l-0.63,0.543
			c-0.539,0.46-1.047,0.896-1.545,1.389c-0.14,0.129-0.278,0.265-0.416,0.399c-0.201,0.198-0.403,0.397-0.6,0.558l-0.18,0.125
			c-0.377,0.255-0.745,0.505-1.11,0.759c-0.87,0.601-1.717,1.19-2.486,1.733l-2.63,1.393c-0.928,0.517-1.708,0.915-2.515,1.188
			c-0.442,0.169-0.879,0.343-1.313,0.518c-1.262,0.506-2.45,0.982-3.633,1.228c-0.5,0.121-0.996,0.261-1.477,0.394
			c-1.061,0.296-2.057,0.573-3.009,0.658c-1.409,0.202-2.701,0.398-3.786,0.594l-5.42,0.245c-0.221,0.012-0.408,0.169-0.459,0.383
			c-0.056,0.216,0.04,0.44,0.234,0.55c0.03,0.02,0.77,0.448,2.248,1.188l2.822,1.378c1.083,0.389,2.396,0.813,3.988,1.287
			c1.157,0.438,2.415,0.618,3.746,0.809c0.503,0.072,1.021,0.148,1.533,0.235c1.514,0.324,3.096,0.313,4.766,0.305
			c0.556-0.004,1.126-0.008,1.73,0.001c0.188-0.005,0.383-0.004,0.574-0.003c0.405,0.003,0.822,0.007,1.251-0.05l5.651-0.847
			c0.974-0.235,1.932-0.533,2.94-0.846l3.082-0.964c0.491-0.189,0.994-0.428,1.499-0.668l0.649-0.305
			c1.26-0.589,2.694-1.317,4.42-2.251c1.118-0.712,2.257-1.438,3.409-2.179l1.261-0.809c0.015-0.012,0.068-0.055,0.084-0.067
			l-0.002-0.004c0.011-0.009,0.022-0.016,0.034-0.025h0.002c0-0.002,0.008-0.008,0.01-0.01c0.107-0.088,0.232-0.201,0.381-0.333
			l2.344-2.056c0.488-0.402,0.985-0.859,1.523-1.397c0.635-0.634,1.244-1.302,1.867-1.98l0.318-0.346
			c5.127-5.819,8.761-12.708,10.511-19.938c0.106-0.493,0.218-0.986,0.332-1.48c0.335-1.443,0.679-2.936,0.784-4.457l0.316-3.061
			l0.055-3.049c0.074-1.651-0.073-3.316-0.215-4.925c-0.041-0.442-0.08-0.888-0.117-1.357c-0.278-2.106-0.742-4.236-1.216-6.264
			c-0.181-0.575-0.349-1.158-0.517-1.74c-0.419-1.446-0.85-2.942-1.487-4.35l-1.253-2.987c-0.337-0.684-0.703-1.354-1.073-2.024
			l-0.446-0.817c-0.945-1.883-2.405-3.932-3.816-5.862c-0.584-0.83-0.992-1.302-1.391-1.756c-0.145-0.167-0.287-0.331-0.445-0.52
			l-1.656-1.922c-0.198-0.212-0.329-0.357-0.428-0.455c-0.009-0.011-0.016-0.021-0.026-0.032L249.58,106.016z"/>
		<g>
			<path fill="#FFCC34" d="M184.625,154.59c4.348,13.083,18.479,20.162,31.561,15.814c13.086-4.352,20.163-18.483,15.814-31.565
				c-4.346-13.08-18.475-20.162-31.561-15.812C187.357,127.375,180.273,141.513,184.625,154.59z"/>
		</g>
		<path fill="#2A2A2A" d="M200.57,145.751l-62.558,62.557l-18.71-1.696c-0.123,0.008-0.24,0.059-0.328,0.146l-32.161,32.161
			c-0.132,0.135-0.179,0.335-0.117,0.516c0.062,0.18,0.222,0.31,0.411,0.333l17.994,3.844l5.116,1.249l1.252,5.134l3.842,17.979
			c0.024,0.189,0.154,0.349,0.334,0.411c0.179,0.063,0.38,0.015,0.517-0.119l32.16-32.16c0.088-0.089,0.139-0.204,0.145-0.328
			l-1.698-18.713l62.558-62.556c0.033-0.033,0.061-0.072,0.083-0.111c1.896-2.02,1.534-5.534-0.838-7.905
			C206.162,144.081,202.572,143.75,200.57,145.751z"/>
	</g>
	<g>
		<path fill="#487AF5" d="M273.992,128.125c-0.236,0.054-0.401,0.275-0.385,0.52c0,0,0.094,1.414,0.26,4.061
			c0.049,0.872,0.059,1.876,0.069,3.038c0.005,0.561,0.01,1.149,0.021,1.722c-0.048,0.669-0.077,1.369-0.106,2.1
			c-0.055,1.363-0.112,2.774-0.31,4.318c-0.576,5.699-1.793,11.22-3.615,16.41c-2.322,6.741-5.65,12.948-9.902,18.465
			c-0.719,1.014-1.569,2.002-2.393,2.957c-0.426,0.493-0.853,0.987-1.23,1.451l-0.291,0.289c-0.362,0.362-0.706,0.719-1.054,1.079
			c-0.351,0.363-0.705,0.731-1.086,1.113c-0.613,0.612-1.185,1.147-1.805,1.693l-1.668,1.534c-0.04,0.021-0.078,0.046-0.11,0.075
			c-0.017,0.01-0.033,0.021-0.049,0.033l-2.925,2.264c-1.296,1.112-2.813,2.052-4.282,2.96l-0.827,0.515
			c-7.634,4.653-16.013,7.627-24.209,8.597c-0.724,0.051-1.446,0.125-2.17,0.199c-1.475,0.151-3,0.309-4.535,0.255l-3.346,0.059
			l-3.413-0.287c-4.956-0.379-9.743-1.654-13.326-2.711l-3.243-1.222c-0.193-0.072-0.389-0.144-0.584-0.214
			c-0.343-0.123-0.687-0.245-0.994-0.375l-4.666-2.275c-0.604-0.33-1.193-0.691-1.783-1.053c-0.397-0.242-0.795-0.484-1.213-0.729
			c-0.982-0.522-1.83-1.094-2.629-1.669l-17.243,17.242c2.485,1.843,5.055,3.744,7.547,5.066l1.148,0.669
			c1.014,0.594,2.061,1.207,3.149,1.775l6.711,2.987c0.506,0.192,1.02,0.363,1.534,0.533l5.39,1.776
			c1.037,0.324,2.107,0.561,3.142,0.789c0.522,0.115,1.044,0.23,1.585,0.361c0.535,0.104,1.064,0.229,1.594,0.354
			c1.019,0.239,2.07,0.487,3.137,0.582c0.74,0.08,1.48,0.17,2.218,0.26c2.379,0.289,4.838,0.588,7.262,0.55l0.638,0.01
			c1.353,0.021,2.701,0.043,4.091,0.06l4.617-0.338c2.303-0.083,4.563-0.516,6.749-0.935c0.794-0.151,1.583-0.303,2.388-0.44
			c11.099-2.258,21.888-7.384,31.211-14.83l0.539-0.446c1.546-1.276,3.144-2.595,4.565-4.017c0.31-0.311,0.612-0.627,0.896-0.938
			l3.61-3.711l1.607-2.007c1.166-1.387,2.498-3.284,3.785-5.118l0.668-0.954c0.362-0.607,0.731-1.203,1.098-1.793
			c0.922-1.484,1.791-2.888,2.489-4.395c1.869-3.526,3.456-7.44,5.001-12.34c0.953-3.535,1.978-7.677,2.343-11.584
			c0.738-6.378,0.583-12.702-0.46-18.78c-0.284-2.014-0.75-3.821-1.161-5.418c-0.111-0.435-0.22-0.854-0.329-1.296l-0.528-1.639
			c-0.381-1.189-0.71-2.216-1.043-3.12l-1.571-3.792C274.475,128.195,274.231,128.07,273.992,128.125z"/>
		<path fill="#487AF5" d="M161.671,178.994c-3.406-4.787-6.181-10.132-8.153-15.812c-1.16-3.895-2.396-8.526-2.769-13.359
			l-0.288-3.363l0.043-3.426c-0.062-1.525,0.094-3.066,0.243-4.556c0.07-0.709,0.143-1.416,0.19-2.109
			c0.146-1.382,0.425-2.771,0.695-4.113c0.163-0.81,0.326-1.618,0.448-2.373l0.931-3.165c0.107-0.35,0.201-0.704,0.295-1.06
			c0.186-0.714,0.362-1.388,0.662-2.041l1.742-4.505l0.734-1.43c0.296-0.562,0.584-1.139,0.871-1.712
			c0.68-1.36,1.322-2.646,2.069-3.736l1.856-3.1l1.644-2.09c0.729-0.921,1.45-1.836,2.162-2.744l0.473-0.595
			c0.005-0.007,0.009-0.014,0.015-0.019c0.02-0.025,0.038-0.053,0.056-0.081l1.239-1.381c0.462-0.553,0.989-1.121,1.656-1.788
			c0.401-0.401,0.809-0.795,1.215-1.187c0.408-0.395,0.815-0.785,1.215-1.185l0.042-0.046c0.517-0.427,1.023-0.866,1.529-1.304
			c0.984-0.854,1.915-1.659,2.934-2.385c5.485-4.247,11.687-7.589,18.436-9.933c5.181-1.831,10.7-3.06,16.419-3.651
			c1.521-0.194,2.926-0.255,4.284-0.312c0.738-0.031,1.446-0.063,2.08-0.111c0.607,0.009,1.188,0.013,1.742,0.016
			c1.16,0.007,2.161,0.013,3.038,0.06l4.08,0.261c0.245,0.016,0.467-0.149,0.518-0.387c0.056-0.238-0.07-0.481-0.297-0.575
			l-3.795-1.562c-0.856-0.314-1.858-0.631-3.019-0.998c-0.549-0.174-1.132-0.357-1.782-0.566c-0.413-0.1-0.842-0.208-1.285-0.321
			c-1.589-0.403-3.392-0.86-5.381-1.132c-6.097-1.026-12.418-1.163-18.776-0.406c-3.874,0.372-7.856,1.363-11.603,2.385
			c-4.866,1.541-8.775,3.14-12.278,5.017c-1.547,0.722-3.034,1.646-4.474,2.54c-0.568,0.354-1.141,0.711-1.76,1.082
			c-0.512,0.367-1.033,0.73-1.557,1.097c-1.485,1.038-3.021,2.11-4.443,3.335l-2.259,1.848l-5.342,5.211l-3.405,4.064
			c-1.599,1.8-2.834,3.702-4.029,5.543c-0.302,0.465-0.605,0.932-0.92,1.404l-1.174,1.813l-2.993,5.708
			c-0.975,1.929-1.767,3.994-2.533,5.991c-0.276,0.719-0.553,1.44-0.856,2.211c-0.228,0.815-0.469,1.634-0.709,2.454
			c-0.596,2.023-1.211,4.117-1.639,6.262c-0.133,0.8-0.285,1.598-0.437,2.4c-0.412,2.179-0.838,4.433-0.919,6.709l-0.329,4.677
			l0.084,4.664c-0.032,2.455,0.276,4.928,0.574,7.317c0.091,0.724,0.181,1.447,0.261,2.157c0.084,1.089,0.339,2.149,0.586,3.175
			c0.125,0.521,0.25,1.043,0.358,1.592c0.126,0.513,0.241,1.028,0.356,1.545c0.23,1.039,0.471,2.114,0.795,3.149
			c2.722,9.39,7.284,18.294,13.374,26.187L161.671,178.994z"/>
	</g>
</g>
</svg>
