<?xml version="1.0" encoding="utf-8"?>
<!-- Generator: Adobe Illustrator 16.0.3, SVG Export Plug-In . SVG Version: 6.00 Build 0)  -->
<!DOCTYPE svg PUBLIC "-//W3C//DTD SVG 1.1//EN" "http://www.w3.org/Graphics/SVG/1.1/DTD/svg11.dtd">
<svg version="1.1" id="Ebene_1" xmlns="http://www.w3.org/2000/svg" xmlns:xlink="http://www.w3.org/1999/xlink" x="0px" y="0px"
	 width="425.196px" height="283.464px" viewBox="0 0 425.196 283.464" enable-background="new 0 0 425.196 283.464"
	 xml:space="preserve">
<g>
	<g>
		<path fill="#1D1D1B" d="M324.123,30.016l-48.035,19.533c-0.189,0.076-0.313,0.26-0.314,0.465c0.002,0.203,0.125,0.387,0.316,0.463
			l14.074,5.68l-94.063,94.064c-0.195,0.195-0.195,0.512,0,0.707l8.049,8.049c0.195,0.195,0.51,0.195,0.707,0l93.939-93.939
			l5.518,13.666c0.076,0.188,0.26,0.313,0.463,0.313c0.135,0,0.264-0.055,0.355-0.146c0.047-0.045,0.084-0.102,0.109-0.166
			l19.531-48.035c0.076-0.188,0.031-0.4-0.107-0.543C324.521,29.984,324.309,29.939,324.123,30.016z"/>
		<path fill="#1D1D1B" d="M289.65,75.977c-0.338-0.375-0.68-0.748-1.029-1.148l-3.953-4.393c-0.223-0.232-0.396-0.414-0.535-0.541
			c-0.008-0.008-0.014-0.018-0.02-0.025l-0.004,0.002c-0.012-0.008-0.018-0.014-0.027-0.021l0.004-0.004
			c-0.004-0.004-0.07-0.068-0.07-0.072l-4.846-4.348c-0.389-0.342-0.773-0.686-1.158-1.029c-1.271-1.141-2.584-2.318-4.031-3.293
			c-0.699-0.506-1.396-1.018-2.096-1.529c-2.873-2.107-5.848-4.287-9.051-5.996c-0.578-0.332-1.154-0.672-1.73-1.008
			c-1.332-0.781-2.705-1.59-4.121-2.326l-9.158-4.084c-0.701-0.27-1.42-0.508-2.133-0.746c-0.342-0.111-0.68-0.225-1.02-0.342
			l-6.287-2.088c-1.412-0.441-2.869-0.764-4.279-1.076c-0.717-0.158-1.432-0.316-2.148-0.492l-4.836-1.086l-1.629-0.201
			c-1.025-0.115-2.049-0.244-3.07-0.373c-3.232-0.408-6.572-0.828-9.871-0.783l-6.447-0.125l-6.322,0.445
			c-3.104,0.102-6.162,0.67-9.113,1.219c-1.123,0.211-2.242,0.42-3.348,0.6c-1.447,0.201-2.852,0.605-4.213,0.998
			c-0.613,0.174-1.227,0.352-1.852,0.51l-5.926,1.688l-5.66,2.188c-0.547,0.23-1.1,0.447-1.652,0.662
			c-1.297,0.508-2.639,1.031-3.867,1.725l-7.877,4.088l-2.449,1.578c-0.662,0.438-1.324,0.861-1.984,1.287
			c-2.508,1.613-5.104,3.279-7.516,5.402c-1.508,1.242-2.998,2.473-4.492,3.699l-1.127,0.949l-7.266,7.346l-2.51,3.027
			c-1.717,1.965-3.219,4.078-4.668,6.121c-0.502,0.705-0.996,1.402-1.518,2.119l-2.617,4.197c-0.961,1.463-1.754,2.98-2.398,4.26
			c-3.43,6.252-5.691,12.615-7.102,16.879c-1.385,4.842-2.879,10.52-3.477,15.928c-1.164,8.771-1.109,17.52,0.154,25.982
			c0.322,2.723,0.895,5.188,1.396,7.363c0.156,0.67,0.307,1.316,0.451,1.979c0.248,0.828,0.48,1.621,0.701,2.369
			c0.484,1.65,0.902,3.076,1.32,4.309l2.047,5.32c0.088,0.234,0.336,0.367,0.578,0.309c0.244-0.055,0.41-0.285,0.385-0.533
			l-0.531-5.67c-0.096-1.186-0.143-2.527-0.195-4.076c-0.027-0.832-0.059-1.707-0.1-2.582c0.041-0.918,0.057-1.879,0.07-2.881
			c0.031-1.936,0.061-3.936,0.287-6.135c0.615-8.029,2.154-15.859,4.586-23.279c1.207-3.896,2.973-8.225,5.383-13.211
			c2.252-4.186,4.807-8.934,8.178-13.297c0.838-1.191,1.646-2.242,2.482-3.221l2.617-3.191c0.59-0.609,1.166-1.232,1.748-1.857
			c1.236-1.33,2.512-2.705,3.908-3.953l0.307-0.268l2.047-1.912c0.012-0.008,0.021-0.016,0.033-0.023l0.002-0.002
			c0.004-0.002,0.008-0.006,0.01-0.008c0.014-0.008,0.027-0.02,0.041-0.029l7.459-6.051l4.539-2.859
			c1.574-1.123,3.436-2.086,5.406-3.107c0.791-0.41,1.586-0.822,2.357-1.242l1.994-1.064l6.529-2.639
			c0.916-0.436,1.895-0.709,2.928-0.996c0.5-0.139,1.004-0.279,1.49-0.436l4.496-1.385l4.684-0.951
			c0.539-0.094,1.07-0.211,1.604-0.33c1.006-0.221,2.043-0.447,3.098-0.498c1-0.086,1.998-0.197,2.992-0.309
			c2.174-0.244,4.422-0.498,6.68-0.434l4.859-0.111l4.943,0.377c2.271,0.055,4.568,0.469,6.789,0.869
			c0.986,0.178,1.973,0.357,2.98,0.508c1.018,0.117,1.994,0.396,3.031,0.688c0.582,0.166,1.168,0.33,1.734,0.461
			c0.592,0.166,1.186,0.314,1.783,0.461c0.996,0.246,2.029,0.502,2.996,0.848l4.697,1.734c0.311,0.115,0.619,0.227,0.926,0.336
			c0.473,0.17,0.949,0.338,1.387,0.518l6.768,3.279c0.869,0.477,1.715,0.992,2.563,1.506c0.584,0.355,1.172,0.711,1.779,1.063
			c2.162,1.145,4.166,2.65,6.107,4.104c0.713,0.535,1.424,1.07,2.162,1.604c0.996,0.65,1.854,1.453,2.768,2.305
			c0.338,0.314,0.676,0.631,1.016,0.934l3.291,2.984l3.936,4.238c0.326,0.365,0.67,0.738,1.016,1.111
			c0.975,1.051,1.977,2.139,2.502,2.998c0.543,0.783,1.107,1.537,1.678,2.297c1.26,1.682,2.563,3.422,3.703,5.543
			c0.338,0.578,0.689,1.152,1.041,1.725c0.514,0.844,1.051,1.717,1.518,2.568l2.186,4.533l1.102,2.227
			c0.201,0.48,0.375,0.969,0.553,1.455c0.104,0.293,0.209,0.584,0.32,0.873l1.748,4.691c0.342,0.953,0.596,1.965,0.844,2.941
			c0.15,0.617,0.305,1.232,0.48,1.832l0.957,3.563l0.195,1.225c0.15,0.988,0.33,1.969,0.512,2.951
			c0.406,2.223,0.826,4.523,0.895,6.82l0.389,4.869l-0.096,4.926c0.064,2.217-0.18,4.445-0.416,6.604
			c-0.111,1.014-0.221,2.027-0.305,3.063c-0.045,1.037-0.264,2.029-0.492,3.08c-0.115,0.531-0.23,1.066-0.318,1.59l-0.926,4.648
			l-1.389,4.537c-0.158,0.498-0.299,1.004-0.438,1.512c-0.285,1.031-0.555,2.006-0.998,2.955c-2.316,6.143-5.047,11.67-8.109,16.43
			l-2.438,3.822c-0.338,0.578-0.748,1.146-1.266,1.754l-4.73,5.947c-0.008,0.012-0.02,0.025-0.025,0.035
			c-0.023,0.031-0.045,0.064-0.064,0.098l-0.574,0.604c-0.545,0.582-1.094,1.168-1.646,1.758c-1.51,1.695-2.848,2.947-4.141,4.156
			c-0.631,0.59-1.254,1.176-1.854,1.77c-0.715,0.572-1.416,1.158-2.111,1.744c-1.393,1.168-2.83,2.373-4.334,3.41
			c-4.375,3.406-9.092,5.957-13.23,8.197c-5.018,2.441-9.336,4.219-13.215,5.434c-7.398,2.449-15.223,4.018-23.268,4.662
			c-2.166,0.232-4.156,0.268-6.084,0.303c-1.014,0.021-1.986,0.037-2.875,0.086c-0.865-0.035-1.689-0.063-2.473-0.086
			c-1.627-0.053-3.025-0.098-4.244-0.188l-5.656-0.508c-0.252-0.023-0.479,0.145-0.535,0.387c-0.053,0.242,0.08,0.49,0.313,0.578
			c0,0,1.863,0.707,5.363,2.043c1.219,0.412,2.633,0.824,4.271,1.297c0.748,0.221,1.541,0.449,2.412,0.707
			c0.609,0.131,1.238,0.275,1.891,0.428c2.195,0.502,4.678,1.074,7.408,1.393c8.473,1.246,17.221,1.279,25.99,0.096
			c5.477-0.625,11.129-2.133,15.957-3.531c4.621-1.547,10.715-3.756,16.84-7.133l2.15-1.125c0.463-0.266,0.918-0.551,1.375-0.836
			c0.24-0.15,0.479-0.301,0.723-0.449l4.238-2.662c0.547-0.398,1.107-0.803,1.676-1.213c2.318-1.676,4.717-3.406,6.525-4.979
			l2.783-2.301c0.004-0.004,0.008-0.008,0.01-0.01c0.006-0.004,0.012-0.012,0.021-0.018l6.871-6.871
			c0.721-0.689,1.336-1.373,1.883-2.078l3.523-4.32c10.043-12.859,16.918-27.689,19.885-42.9c0.178-1.09,0.375-2.18,0.578-3.273
			c0.547-2.984,1.113-6.07,1.197-9.182l0.43-6.395l-0.143-6.391c0.033-3.307-0.393-6.645-0.813-9.871
			c-0.131-1.025-0.262-2.053-0.385-3.094l-0.227-1.66l-1.09-4.797c-0.172-0.699-0.33-1.404-0.488-2.111
			c-0.318-1.418-0.65-2.887-1.102-4.314l-2.102-6.277c-0.133-0.377-0.262-0.758-0.391-1.141c-0.225-0.672-0.451-1.344-0.711-2.029
			l-4.131-9.143c-0.709-1.354-1.498-2.689-2.262-3.98c-0.359-0.611-0.723-1.221-1.068-1.822c-1.809-3.383-4.355-6.797-6.818-10.1
			l-1.09-1.463C291.598,78.121,290.609,77.031,289.65,75.977z"/>
		<path fill="#9D9D9C" d="M249.58,106.018c-0.004-0.008-0.012-0.014-0.018-0.02l0.004-0.004c-0.008-0.006-0.084-0.08-0.094-0.086
			l-2.744-2.574c-0.611-0.57-1.244-1.158-1.938-1.654l-0.404-0.309c-1.566-1.197-3.182-2.438-4.934-3.416l-0.811-0.484
			c-0.654-0.398-1.313-0.793-2.014-1.17l-2.896-1.342c-1.383-0.691-2.846-1.18-4.266-1.652c-0.59-0.193-1.174-0.389-1.789-0.609
			c-2.184-0.592-4.154-1.107-6.201-1.438c-0.439-0.051-0.883-0.109-1.322-0.166c-1.602-0.209-3.26-0.424-4.898-0.414
			c-1.023-0.02-2.041-0.041-3.102-0.064l-3.018,0.197c-1.539,0.051-3.049,0.338-4.504,0.615c-0.496,0.094-0.984,0.188-1.49,0.273
			c-1.453,0.295-2.867,0.715-4.238,1.119c-0.486,0.145-0.967,0.287-1.492,0.439l-1.035,0.402c-1.43,0.551-2.902,1.117-4.295,1.828
			c-0.52,0.293-1.047,0.564-1.572,0.834c-1.115,0.576-2.268,1.17-3.299,1.914l-0.801,0.533c-1.273,0.84-2.475,1.633-3.715,2.746
			l-2.719,2.346l-2.832,3.074c-0.24,0.219-0.33,0.305-0.354,0.326c-0.035,0.035-0.063,0.074-0.088,0.115
			c-0.004,0.008-0.014,0.018-0.016,0.021l-3.824,5.273c-0.783,1.381-1.512,2.742-2.166,4.047c-0.107,0.221-0.221,0.438-0.332,0.654
			c-0.227,0.441-0.449,0.879-0.65,1.355l-1.012,2.816c-0.377,1.064-0.734,2.072-1.037,3.141l-1.063,5.576
			c-0.07,0.424-0.082,0.844-0.098,1.248c-0.004,0.189-0.012,0.379-0.023,0.584c-0.016,0.564-0.043,1.117-0.066,1.658
			c-0.076,1.688-0.152,3.281,0.107,4.797c0.07,0.537,0.123,1.057,0.174,1.561c0.141,1.336,0.27,2.596,0.65,3.777
			c0.395,1.572,0.783,2.959,1.17,4.178l1.229,2.734c0.682,1.498,1.086,2.287,1.086,2.287c0.104,0.195,0.318,0.303,0.533,0.266
			c0.217-0.039,0.381-0.213,0.41-0.432c0,0,0.107-0.883,0.23-2.527l0.195-2.916c0.256-1.143,0.506-2.414,0.768-3.803
			c0.117-0.867,0.426-1.844,0.758-2.877c0.158-0.492,0.318-0.996,0.465-1.52c0.287-1.15,0.805-2.318,1.357-3.555
			c0.191-0.43,0.385-0.863,0.578-1.32c0.313-0.824,0.787-1.633,1.289-2.465l1.264-2.186l2.959-4.025
			c0.141-0.164,0.295-0.322,0.451-0.479l0.453-0.449l0.189-0.193l0.203-0.201c0.418-0.418,0.82-0.848,1.227-1.279
			c0.271-0.287,0.543-0.578,0.773-0.822l3.162-2.529c0.033-0.014,0.066-0.033,0.096-0.053l3.393-2.359l1.756-0.814
			c0.482-0.266,1.121-0.527,1.791-0.801c0.406-0.166,0.816-0.336,1.225-0.52c0.596-0.299,1.252-0.484,1.945-0.68
			c0.443-0.125,0.883-0.25,1.281-0.395c0.563-0.164,1.164-0.285,1.746-0.402c0.568-0.111,1.135-0.227,1.598-0.363
			c0.482-0.047,0.963-0.111,1.439-0.18c0.707-0.098,1.381-0.189,2.053-0.215c0.396-0.002,0.795-0.018,1.193-0.031
			c0.805-0.029,1.563-0.057,2.365,0.021l1.738,0.055l1.793,0.256c2.398,0.305,4.713,1.035,6.846,1.744
			c1.965,0.811,4.252,1.832,6.34,3.301c0.656,0.367,1.244,0.84,1.867,1.34c0.324,0.262,0.648,0.523,1.004,0.783
			c0.316,0.211,0.594,0.49,0.889,0.783c0.131,0.129,0.264,0.26,0.395,0.379l1.23,1.154l1.721,1.969
			c0.33,0.369,0.824,0.928,0.932,1.164c0.211,0.348,0.438,0.662,0.68,0.984c0.34,0.463,0.693,0.943,1.049,1.629
			c0.135,0.234,0.277,0.463,0.414,0.695c0.176,0.277,0.346,0.557,0.484,0.811c0.221,0.492,0.461,0.977,0.701,1.463l0.109,0.211
			c0.352,0.605,0.582,1.264,0.828,1.959c0.158,0.445,0.316,0.893,0.484,1.266c0.637,2.197,1.256,4.559,1.477,6.949l0.182,1.736
			l-0.01,1.822c0.039,0.76-0.018,1.506-0.076,2.295c-0.033,0.408-0.064,0.816-0.08,1.203c-0.414,4.432-1.814,8.83-4.164,13.07
			l-0.316,0.568c-0.457,0.82-0.889,1.598-1.449,2.307l-1.23,1.744c-0.029,0.043-0.051,0.088-0.064,0.135l-3.236,3.531l-0.629,0.543
			c-0.539,0.459-1.047,0.895-1.545,1.389c-0.141,0.129-0.279,0.264-0.416,0.398c-0.201,0.199-0.404,0.398-0.6,0.559l-0.18,0.125
			c-0.377,0.254-0.746,0.504-1.111,0.758c-0.869,0.602-1.717,1.191-2.486,1.734l-2.629,1.393c-0.928,0.516-1.709,0.914-2.516,1.188
			c-0.441,0.17-0.879,0.344-1.313,0.518c-1.262,0.506-2.451,0.982-3.633,1.229c-0.5,0.121-0.996,0.26-1.477,0.393
			c-1.061,0.297-2.057,0.574-3.01,0.658c-1.408,0.203-2.701,0.398-3.785,0.594l-5.42,0.246c-0.221,0.012-0.408,0.168-0.459,0.383
			c-0.057,0.215,0.039,0.439,0.234,0.549c0.029,0.02,0.77,0.449,2.248,1.189l2.822,1.377c1.082,0.389,2.396,0.814,3.988,1.287
			c1.156,0.438,2.414,0.619,3.746,0.809c0.502,0.072,1.021,0.148,1.533,0.236c1.514,0.324,3.096,0.313,4.766,0.305
			c0.555-0.004,1.125-0.008,1.73,0c0.188-0.004,0.383-0.004,0.574-0.002c0.404,0.002,0.822,0.006,1.25-0.051l5.652-0.846
			c0.973-0.236,1.932-0.533,2.939-0.846l3.082-0.965c0.492-0.189,0.994-0.428,1.5-0.668l0.648-0.305
			c1.26-0.588,2.695-1.316,4.42-2.25c1.119-0.713,2.258-1.439,3.41-2.18l1.26-0.809c0.016-0.012,0.068-0.055,0.084-0.066
			l-0.002-0.004c0.012-0.01,0.023-0.016,0.035-0.025h0.002c0-0.002,0.008-0.008,0.01-0.01c0.107-0.088,0.232-0.201,0.381-0.334
			l2.344-2.055c0.488-0.402,0.984-0.859,1.523-1.398c0.635-0.633,1.244-1.301,1.867-1.98l0.318-0.346
			c5.127-5.818,8.76-12.707,10.51-19.938c0.107-0.494,0.219-0.986,0.332-1.48c0.336-1.443,0.68-2.936,0.785-4.457l0.316-3.061
			l0.055-3.049c0.074-1.652-0.074-3.316-0.215-4.926c-0.041-0.441-0.08-0.887-0.117-1.357c-0.279-2.105-0.742-4.236-1.217-6.264
			c-0.18-0.574-0.348-1.158-0.516-1.74c-0.42-1.445-0.85-2.941-1.488-4.35l-1.252-2.986c-0.338-0.684-0.703-1.355-1.074-2.025
			l-0.445-0.816c-0.945-1.883-2.406-3.932-3.816-5.863c-0.584-0.83-0.992-1.301-1.391-1.756c-0.145-0.166-0.287-0.33-0.445-0.52
			l-1.656-1.922c-0.199-0.211-0.33-0.357-0.428-0.455c-0.01-0.01-0.016-0.021-0.027-0.031L249.58,106.018z"/>
		<g>
			<path fill="#C6C6C6" d="M184.625,154.592c4.348,13.082,18.479,20.162,31.561,15.814c13.086-4.352,20.162-18.484,15.814-31.566
				c-4.346-13.08-18.475-20.162-31.561-15.811C187.357,127.377,180.273,141.514,184.625,154.592z"/>
		</g>
		<path fill="#1D1D1B" d="M200.57,145.752l-62.559,62.557l-18.709-1.695c-0.123,0.008-0.24,0.059-0.328,0.145L86.813,238.92
			c-0.131,0.135-0.178,0.334-0.117,0.516c0.063,0.18,0.223,0.309,0.412,0.332l17.994,3.844l5.115,1.25l1.252,5.133l3.842,17.979
			c0.025,0.189,0.154,0.35,0.334,0.412s0.381,0.014,0.518-0.119l32.16-32.16c0.088-0.09,0.139-0.205,0.145-0.328l-1.699-18.713
			l62.559-62.557c0.033-0.033,0.061-0.072,0.082-0.111c1.896-2.02,1.535-5.533-0.838-7.904
			C206.162,144.082,202.572,143.75,200.57,145.752z"/>
	</g>
	<g>
		<path fill="#706F6F" d="M273.992,128.127c-0.236,0.053-0.402,0.275-0.385,0.52c0,0,0.094,1.414,0.26,4.061
			c0.049,0.871,0.059,1.875,0.068,3.037c0.006,0.561,0.01,1.15,0.021,1.723c-0.047,0.668-0.076,1.369-0.105,2.1
			c-0.055,1.363-0.113,2.773-0.311,4.318c-0.576,5.699-1.793,11.219-3.615,16.41c-2.322,6.74-5.65,12.947-9.902,18.465
			c-0.719,1.014-1.568,2.002-2.393,2.957c-0.426,0.492-0.852,0.986-1.23,1.451l-0.291,0.289c-0.361,0.361-0.705,0.719-1.053,1.078
			c-0.352,0.363-0.705,0.732-1.086,1.113c-0.613,0.613-1.186,1.148-1.805,1.693l-1.668,1.535c-0.041,0.021-0.078,0.045-0.111,0.074
			c-0.016,0.01-0.033,0.021-0.049,0.033l-2.924,2.264c-1.297,1.113-2.814,2.053-4.283,2.961l-0.826,0.514
			c-7.635,4.654-16.014,7.627-24.209,8.598c-0.725,0.051-1.447,0.125-2.17,0.199c-1.475,0.15-3,0.309-4.535,0.254l-3.346,0.059
			l-3.414-0.287c-4.955-0.379-9.742-1.654-13.326-2.711l-3.242-1.221c-0.193-0.072-0.389-0.145-0.584-0.215
			c-0.344-0.123-0.688-0.244-0.994-0.375l-4.666-2.275c-0.604-0.33-1.193-0.691-1.783-1.053c-0.398-0.242-0.795-0.484-1.213-0.729
			c-0.982-0.523-1.83-1.094-2.629-1.67l-17.244,17.242c2.486,1.844,5.055,3.744,7.547,5.066l1.148,0.67
			c1.014,0.594,2.061,1.207,3.15,1.775l6.711,2.986c0.506,0.193,1.02,0.363,1.533,0.533l5.391,1.777
			c1.037,0.324,2.107,0.561,3.141,0.789c0.523,0.115,1.045,0.23,1.586,0.361c0.535,0.104,1.064,0.229,1.594,0.354
			c1.018,0.238,2.07,0.486,3.137,0.582c0.74,0.08,1.48,0.17,2.217,0.26c2.379,0.289,4.838,0.588,7.262,0.549l0.639,0.01
			c1.352,0.021,2.701,0.043,4.09,0.061l4.617-0.338c2.303-0.084,4.563-0.516,6.75-0.936c0.793-0.15,1.582-0.303,2.387-0.439
			c11.1-2.258,21.889-7.385,31.211-14.83l0.539-0.447c1.547-1.275,3.145-2.594,4.566-4.016c0.309-0.311,0.611-0.627,0.895-0.938
			l3.611-3.711l1.607-2.008c1.166-1.387,2.498-3.283,3.785-5.117l0.668-0.955c0.361-0.607,0.73-1.203,1.098-1.793
			c0.922-1.484,1.791-2.887,2.488-4.395c1.869-3.525,3.457-7.439,5.002-12.34c0.953-3.535,1.977-7.676,2.342-11.584
			c0.738-6.377,0.584-12.701-0.459-18.779c-0.285-2.014-0.75-3.822-1.162-5.418c-0.111-0.436-0.219-0.854-0.328-1.297l-0.529-1.639
			c-0.381-1.189-0.709-2.215-1.043-3.119l-1.57-3.793C274.475,128.195,274.23,128.07,273.992,128.127z"/>
		<path fill="#706F6F" d="M161.67,178.994c-3.406-4.787-6.18-10.131-8.152-15.811c-1.16-3.895-2.396-8.527-2.77-13.359l-0.287-3.363
			l0.043-3.426c-0.063-1.525,0.094-3.066,0.242-4.557c0.07-0.709,0.143-1.416,0.191-2.109c0.146-1.381,0.424-2.77,0.695-4.113
			c0.162-0.809,0.326-1.617,0.447-2.373l0.932-3.164c0.107-0.35,0.201-0.705,0.295-1.061c0.186-0.713,0.361-1.387,0.662-2.041
			l1.742-4.504l0.734-1.43c0.295-0.563,0.584-1.139,0.871-1.713c0.68-1.359,1.322-2.645,2.068-3.736l1.857-3.1l1.643-2.09
			c0.729-0.92,1.451-1.836,2.162-2.744l0.473-0.594c0.006-0.008,0.01-0.014,0.016-0.02c0.02-0.025,0.037-0.053,0.055-0.08
			l1.24-1.381c0.461-0.553,0.988-1.121,1.656-1.789c0.4-0.4,0.809-0.795,1.215-1.186c0.408-0.395,0.814-0.785,1.215-1.186
			l0.041-0.045c0.518-0.428,1.023-0.867,1.529-1.305c0.984-0.854,1.916-1.658,2.934-2.385c5.486-4.246,11.688-7.588,18.436-9.932
			c5.182-1.832,10.701-3.061,16.42-3.652c1.521-0.193,2.926-0.254,4.283-0.311c0.738-0.031,1.447-0.063,2.08-0.111
			c0.607,0.008,1.189,0.012,1.742,0.016c1.16,0.006,2.162,0.012,3.039,0.059l4.08,0.262c0.244,0.016,0.467-0.15,0.518-0.387
			c0.055-0.238-0.07-0.482-0.297-0.576l-3.795-1.561c-0.857-0.314-1.859-0.631-3.02-0.998c-0.549-0.174-1.131-0.357-1.781-0.566
			c-0.414-0.1-0.842-0.209-1.285-0.322c-1.59-0.402-3.393-0.859-5.381-1.131c-6.098-1.027-12.418-1.164-18.777-0.406
			c-3.873,0.371-7.855,1.363-11.602,2.385c-4.867,1.541-8.775,3.139-12.279,5.016c-1.547,0.723-3.033,1.646-4.473,2.541
			c-0.568,0.354-1.141,0.711-1.76,1.082c-0.512,0.367-1.033,0.73-1.557,1.096c-1.486,1.039-3.021,2.111-4.443,3.336l-2.26,1.848
			l-5.342,5.211l-3.404,4.064c-1.6,1.799-2.834,3.701-4.029,5.543c-0.303,0.465-0.605,0.932-0.92,1.404l-1.174,1.813l-2.994,5.709
			c-0.975,1.928-1.766,3.994-2.533,5.99c-0.275,0.719-0.553,1.441-0.855,2.211c-0.229,0.816-0.469,1.635-0.709,2.455
			c-0.596,2.023-1.211,4.117-1.639,6.262c-0.133,0.799-0.285,1.598-0.438,2.4c-0.412,2.178-0.838,4.432-0.918,6.709l-0.33,4.676
			l0.084,4.664c-0.031,2.455,0.277,4.928,0.574,7.318c0.092,0.723,0.182,1.447,0.262,2.156c0.084,1.09,0.338,2.15,0.586,3.176
			c0.125,0.521,0.25,1.043,0.357,1.592c0.127,0.512,0.242,1.027,0.357,1.545c0.23,1.039,0.471,2.113,0.795,3.148
			c2.721,9.391,7.283,18.295,13.373,26.188L161.67,178.994z"/>
	</g>
</g>
</svg>
