<?xml version="1.0" encoding="utf-8"?>
<!-- Generator: Adobe Illustrator 16.0.3, SVG Export Plug-In . SVG Version: 6.00 Build 0)  -->
<!DOCTYPE svg PUBLIC "-//W3C//DTD SVG 1.1//EN" "http://www.w3.org/Graphics/SVG/1.1/DTD/svg11.dtd">
<svg version="1.1" id="Ebene_1" xmlns="http://www.w3.org/2000/svg" xmlns:xlink="http://www.w3.org/1999/xlink" x="0px" y="0px"
	 width="425.196px" height="283.464px" viewBox="0 0 425.196 283.464" enable-background="new 0 0 425.196 283.464"
	 xml:space="preserve">
<g>
	<g>
		<path fill="#2A2A2A" d="M370.454,141.597l-47.777-20.155c-0.188-0.08-0.405-0.036-0.551,0.107
			c-0.143,0.145-0.185,0.361-0.104,0.55l5.937,13.97H194.933c-0.276,0-0.5,0.224-0.5,0.5v11.383c0,0.276,0.222,0.499,0.5,0.5
			l132.851-0.001l-5.762,13.566c-0.08,0.187-0.038,0.404,0.104,0.548c0.097,0.096,0.227,0.147,0.356,0.147
			c0.064,0,0.131-0.013,0.194-0.04l47.776-20.156c0.188-0.078,0.305-0.26,0.308-0.46C370.76,141.856,370.64,141.674,370.454,141.597
			z"/>
		<path fill="#2A2A2A" d="M313.58,149.72c0.025-0.504,0.047-1.01,0.083-1.541l0.312-5.901c0.007-0.322,0.012-0.572,0.004-0.761
			c0.001-0.011,0.004-0.022,0.005-0.032l-0.005,0c-0.003-0.014-0.003-0.024-0.005-0.036l0.007,0.001
			c-0.001-0.007-0.002-0.098,0.001-0.103l-0.353-6.5c-0.033-0.515-0.062-1.03-0.091-1.547c-0.092-1.704-0.188-3.466-0.521-5.178
			c-0.138-0.852-0.269-1.708-0.401-2.563c-0.541-3.523-1.103-7.167-2.159-10.64c-0.174-0.645-0.342-1.291-0.511-1.937
			c-0.39-1.493-0.789-3.037-1.271-4.558l-3.587-9.363c-0.306-0.688-0.646-1.364-0.981-2.037c-0.162-0.319-0.321-0.639-0.479-0.963
			l-2.969-5.92c-0.687-1.312-1.489-2.57-2.265-3.787c-0.396-0.619-0.789-1.237-1.172-1.868l-2.651-4.188l-1.01-1.294
			c-0.644-0.807-1.276-1.621-1.907-2.435c-1.996-2.573-4.062-5.233-6.425-7.534l-4.471-4.648l-4.786-4.156
			c-2.267-2.123-4.83-3.882-7.306-5.581c-0.942-0.646-1.883-1.29-2.792-1.944c-1.166-0.88-2.444-1.587-3.684-2.273
			c-0.558-0.309-1.116-0.618-1.67-0.946l-5.384-2.998l-5.549-2.455c-0.55-0.225-1.094-0.462-1.637-0.702
			c-1.275-0.557-2.595-1.135-3.954-1.514l-8.461-2.68l-2.847-0.616c-0.777-0.16-1.546-0.328-2.313-0.494
			c-2.914-0.632-5.928-1.289-9.134-1.494c-1.945-0.187-3.87-0.372-5.794-0.561l-1.467-0.125l-10.332,0.056l-3.915,0.366
			c-2.604,0.175-5.159,0.607-7.63,1.027c-0.853,0.144-1.695,0.288-2.571,0.426l-4.818,1.116c-1.714,0.355-3.349,0.868-4.708,1.316
			c-6.845,1.996-12.944,4.896-16.957,6.914c-4.401,2.444-9.474,5.402-13.721,8.804c-7.025,5.38-13.172,11.604-18.264,18.482
			c-1.696,2.152-3.034,4.299-4.218,6.193c-0.364,0.583-0.714,1.148-1.08,1.718c-0.411,0.762-0.807,1.485-1.181,2.169
			c-0.824,1.51-1.536,2.814-2.112,3.982l-2.315,5.21c-0.103,0.227-0.021,0.496,0.191,0.626c0.21,0.133,0.491,0.088,0.648-0.105
			l3.635-4.385c0.771-0.906,1.686-1.888,2.744-3.021c0.568-0.607,1.165-1.249,1.755-1.896c0.679-0.62,1.369-1.288,2.087-1.986
			c1.391-1.347,2.826-2.741,4.54-4.135c6.113-5.244,12.739-9.691,19.703-13.219c3.61-1.901,7.919-3.713,13.148-5.535
			c4.554-1.368,9.717-2.918,15.186-3.619c1.434-0.251,2.748-0.422,4.032-0.522l4.107-0.409c0.848-0.014,1.696-0.045,2.549-0.076
			c1.814-0.066,3.688-0.136,5.56-0.031l0.406,0.026l2.799,0.096c0.014,0.003,0.026,0.004,0.04,0.007l0.002,0
			c0.005,0.001,0.01,0.002,0.014,0.002c0.016,0.003,0.033,0.006,0.049,0.007l9.555,0.997l5.23,1.187
			c1.906,0.319,3.903,0.954,6.021,1.625c0.849,0.27,1.703,0.541,2.545,0.79l2.162,0.658l6.483,2.749
			c0.955,0.341,1.841,0.84,2.774,1.367c0.451,0.254,0.907,0.512,1.362,0.745l4.158,2.202l3.984,2.638
			c0.447,0.314,0.905,0.607,1.367,0.901c0.866,0.555,1.761,1.127,2.543,1.837c0.767,0.647,1.551,1.273,2.334,1.898
			c1.709,1.363,3.478,2.773,5.029,4.417l3.514,3.357l3.229,3.762c1.567,1.645,2.9,3.562,4.186,5.415
			c0.573,0.824,1.144,1.648,1.75,2.467c0.636,0.803,1.13,1.689,1.656,2.628c0.295,0.53,0.593,1.061,0.9,1.552
			c0.302,0.536,0.616,1.061,0.935,1.587c0.531,0.879,1.081,1.79,1.521,2.719l2.095,4.547c0.138,0.301,0.277,0.596,0.416,0.892
			c0.215,0.455,0.434,0.91,0.615,1.347l2.467,7.105c0.277,0.95,0.511,1.912,0.747,2.877c0.162,0.663,0.327,1.33,0.507,2.009
			c0.72,2.337,1.072,4.819,1.417,7.221c0.125,0.88,0.25,1.762,0.396,2.661c0.244,1.165,0.282,2.339,0.327,3.586
			c0.016,0.461,0.031,0.925,0.058,1.38l0.217,4.436l-0.213,5.78c-0.028,0.488-0.049,0.996-0.068,1.503
			c-0.054,1.432-0.114,2.911-0.352,3.89c-0.17,0.938-0.303,1.872-0.438,2.81c-0.298,2.08-0.606,4.232-1.302,6.539
			c-0.169,0.648-0.326,1.302-0.482,1.955c-0.233,0.962-0.47,1.958-0.742,2.89l-1.66,4.751l-0.796,2.354
			c-0.198,0.481-0.421,0.95-0.638,1.419c-0.134,0.28-0.266,0.562-0.392,0.842l-2.082,4.556c-0.432,0.915-0.968,1.81-1.483,2.675
			c-0.33,0.543-0.655,1.087-0.955,1.635l-1.842,3.197l-0.729,1.004c-0.592,0.805-1.158,1.626-1.725,2.449
			c-1.284,1.859-2.614,3.782-4.19,5.455l-3.169,3.717l-3.55,3.416c-1.521,1.612-3.271,3.017-4.963,4.376
			c-0.795,0.638-1.59,1.276-2.381,1.949c-0.766,0.702-1.622,1.25-2.526,1.831c-0.458,0.295-0.917,0.59-1.35,0.898l-3.941,2.633
			l-4.19,2.226c-0.465,0.24-0.921,0.501-1.377,0.76c-0.933,0.527-1.812,1.025-2.797,1.384c-5.98,2.706-11.82,4.684-17.351,5.884
			l-4.428,0.978c-0.646,0.171-1.339,0.283-2.134,0.347l-7.551,0.859c-0.015,0.003-0.031,0.004-0.044,0.008
			c-0.037,0.005-0.075,0.014-0.114,0.023l-0.832,0.019c-0.797,0.028-1.601,0.054-2.407,0.079c-2.267,0.131-4.097,0.071-5.867,0.012
			c-0.863-0.029-1.718-0.056-2.562-0.06c-0.909-0.101-1.82-0.182-2.727-0.26c-1.81-0.159-3.68-0.323-5.476-0.654
			c-5.501-0.684-10.641-2.216-15.151-3.558c-5.274-1.822-9.585-3.62-13.188-5.503c-6.963-3.5-13.604-7.923-19.748-13.156
			c-1.696-1.369-3.129-2.75-4.517-4.087c-0.731-0.704-1.432-1.38-2.093-1.973c-0.588-0.636-1.151-1.239-1.688-1.81
			c-1.114-1.187-2.071-2.209-2.869-3.134l-3.641-4.359c-0.162-0.194-0.44-0.236-0.652-0.104c-0.209,0.134-0.29,0.402-0.188,0.63
			c0,0,0.817,1.815,2.348,5.235c0.571,1.155,1.28,2.446,2.104,3.939c0.373,0.684,0.771,1.407,1.206,2.206
			c0.337,0.522,0.681,1.071,1.034,1.638c1.197,1.908,2.548,4.068,4.254,6.223c5.109,6.874,11.272,13.083,18.311,18.447
			c4.313,3.43,9.377,6.361,13.779,8.787c4.361,2.174,10.231,4.92,16.951,6.863l2.316,0.724c0.516,0.142,1.038,0.261,1.563,0.382
			c0.275,0.063,0.55,0.126,0.829,0.193l4.878,1.115c0.668,0.104,1.352,0.215,2.043,0.327c2.824,0.456,5.744,0.927,8.136,1.094
			l3.594,0.342c0.006,0.001,0.012,0,0.014,0c0.008,0.001,0.017,0.001,0.027,0.002h9.719c0.996,0.022,1.915-0.024,2.8-0.138
			l5.546-0.563c16.195-1.993,31.542-7.618,44.396-16.275c0.896-0.645,1.807-1.276,2.723-1.906c2.497-1.724,5.08-3.505,7.34-5.646
			l4.825-4.218l4.419-4.619c2.361-2.315,4.42-4.978,6.404-7.554c0.633-0.817,1.267-1.637,1.916-2.459l1.014-1.334l2.621-4.164
			c0.374-0.616,0.761-1.226,1.147-1.838c0.777-1.228,1.581-2.501,2.272-3.831l2.952-5.922c0.173-0.363,0.351-0.722,0.531-1.083
			c0.314-0.635,0.631-1.27,0.932-1.94l3.545-9.384c0.454-1.459,0.841-2.96,1.214-4.414c0.178-0.687,0.353-1.375,0.533-2.044
			c1.113-3.67,1.727-7.886,2.32-11.962l0.264-1.805C313.44,152.613,313.513,151.144,313.58,149.72z"/>
		<path fill="#F40E0E" d="M264.004,142.627c0.003-0.008,0.001-0.018,0.001-0.026h0.006c-0.001-0.01-0.003-0.117-0.006-0.127
			l-0.12-3.761c-0.029-0.834-0.061-1.698-0.201-2.539l-0.066-0.504c-0.262-1.954-0.526-3.973-1.073-5.904l-0.23-0.914
			c-0.183-0.745-0.368-1.489-0.597-2.251l-1.101-2.998c-0.488-1.466-1.178-2.847-1.848-4.184c-0.28-0.555-0.555-1.107-0.834-1.698
			c-1.125-1.961-2.153-3.72-3.368-5.4c-0.274-0.349-0.546-0.703-0.816-1.054c-0.986-1.28-2.006-2.604-3.172-3.755
			c-0.71-0.737-1.415-1.473-2.147-2.241l-2.273-1.993c-1.124-1.052-2.395-1.917-3.619-2.75c-0.417-0.284-0.828-0.564-1.247-0.861
			c-1.237-0.818-2.534-1.522-3.789-2.204c-0.446-0.243-0.887-0.481-1.365-0.745l-1.017-0.449c-1.4-0.621-2.843-1.262-4.33-1.741
			c-0.574-0.163-1.14-0.343-1.702-0.524c-1.195-0.38-2.43-0.775-3.685-0.979l-0.944-0.19c-1.494-0.305-2.904-0.594-4.568-0.684
			l-3.581-0.265l-4.177,0.171c-0.324-0.014-0.448-0.019-0.48-0.018c-0.049-0.001-0.097,0.007-0.143,0.019
			c-0.01,0.002-0.023,0.003-0.027,0.005l-6.433,1.025c-1.529,0.422-3.007,0.87-4.394,1.33c-0.232,0.079-0.465,0.153-0.697,0.227
			c-0.473,0.152-0.939,0.305-1.418,0.498l-2.708,1.278c-1.019,0.486-1.983,0.945-2.953,1.485l-4.694,3.193
			c-0.351,0.25-0.654,0.538-0.952,0.814c-0.137,0.13-0.274,0.26-0.429,0.395c-0.41,0.389-0.821,0.761-1.22,1.126
			c-1.247,1.139-2.427,2.213-3.316,3.468c-0.329,0.431-0.659,0.834-0.979,1.228c-0.846,1.042-1.646,2.025-2.212,3.13
			c-0.833,1.391-1.538,2.645-2.127,3.78l-1.065,2.803c-0.576,1.542-0.848,2.386-0.848,2.386c-0.066,0.21,0.011,0.438,0.188,0.563
			c0.181,0.125,0.421,0.119,0.595-0.015c0,0,0.7-0.548,1.95-1.623l2.2-1.924c0.988-0.628,2.064-1.35,3.231-2.147
			c0.696-0.531,1.605-1.001,2.571-1.498c0.459-0.237,0.928-0.479,1.402-0.746c1.016-0.61,2.208-1.07,3.475-1.554
			c0.438-0.168,0.882-0.338,1.342-0.525c0.804-0.362,1.71-0.598,2.653-0.832l2.439-0.651l4.938-0.754
			c0.216-0.016,0.437-0.02,0.657-0.02l0.639,0.004l0.271-0.003l0.286,0.001c0.592,0,1.179-0.02,1.771-0.037
			c0.396-0.013,0.793-0.025,1.13-0.035l4.024,0.447c0.032,0.013,0.069,0.023,0.104,0.03l4.068,0.731l1.816,0.665
			c0.529,0.154,1.166,0.42,1.834,0.701c0.403,0.168,0.813,0.339,1.231,0.498c0.633,0.209,1.228,0.543,1.857,0.895
			c0.401,0.226,0.801,0.449,1.185,0.628c0.513,0.281,1.024,0.621,1.519,0.95c0.481,0.321,0.963,0.641,1.387,0.871
			c0.375,0.31,0.76,0.602,1.145,0.892c0.57,0.432,1.111,0.841,1.604,1.298c0.282,0.28,0.574,0.551,0.865,0.823
			c0.591,0.548,1.146,1.063,1.657,1.687l1.19,1.268l1.087,1.449c1.481,1.913,2.601,4.065,3.608,6.074
			c0.815,1.963,1.711,4.304,2.148,6.816c0.204,0.725,0.285,1.475,0.372,2.269c0.044,0.415,0.089,0.83,0.157,1.263
			c0.073,0.373,0.073,0.767,0.074,1.184c0.001,0.183,0.002,0.368,0.011,0.546l0.054,1.686l-0.175,2.61
			c-0.028,0.493-0.072,1.239-0.164,1.481c-0.098,0.396-0.158,0.778-0.217,1.177c-0.086,0.568-0.175,1.158-0.409,1.894
			c-0.07,0.26-0.132,0.523-0.198,0.785c-0.073,0.32-0.15,0.639-0.231,0.915c-0.192,0.504-0.364,1.017-0.538,1.53l-0.072,0.226
			c-0.18,0.678-0.481,1.306-0.799,1.972c-0.203,0.427-0.408,0.854-0.554,1.237c-1.104,2.003-2.336,4.111-3.87,5.958l-1.099,1.356
			l-1.295,1.281c-0.51,0.566-1.077,1.054-1.678,1.569c-0.311,0.266-0.622,0.533-0.907,0.795c-3.426,2.84-7.526,4.96-12.186,6.297
			l-0.626,0.177c-0.902,0.258-1.757,0.502-2.656,0.606L210,174.335c-0.051,0.01-0.098,0.026-0.142,0.049l-4.784,0.209l-0.83-0.061
			c-0.706-0.056-1.373-0.107-2.073-0.111c-0.19-0.008-0.385-0.009-0.577-0.011c-0.282-0.002-0.566-0.004-0.818-0.029l-0.215-0.04
			c-0.447-0.086-0.885-0.17-1.322-0.249c-1.04-0.19-2.056-0.372-2.983-0.532l-2.845-0.876c-1.021-0.291-1.854-0.56-2.618-0.937
			c-0.433-0.193-0.864-0.38-1.295-0.563c-1.25-0.534-2.428-1.038-3.437-1.701c-0.439-0.268-0.889-0.521-1.323-0.766
			c-0.959-0.542-1.859-1.049-2.593-1.662c-1.139-0.854-2.191-1.629-3.097-2.258l-4.006-3.658c-0.165-0.148-0.408-0.17-0.596-0.054
			c-0.191,0.113-0.282,0.339-0.223,0.554c0.008,0.035,0.228,0.862,0.749,2.43l1.021,2.971c0.491,1.04,1.119,2.27,1.91,3.73
			c0.509,1.126,1.271,2.144,2.077,3.221c0.305,0.406,0.617,0.825,0.917,1.249c0.842,1.3,1.968,2.411,3.155,3.585
			c0.396,0.391,0.802,0.791,1.223,1.225c0.137,0.13,0.273,0.268,0.408,0.404c0.284,0.288,0.577,0.586,0.92,0.848l4.595,3.399
			c0.854,0.521,1.742,0.988,2.678,1.48l2.86,1.497c0.481,0.214,1.005,0.4,1.532,0.588l0.675,0.243
			c1.307,0.475,2.837,0.974,4.717,1.535c1.294,0.286,2.613,0.577,3.951,0.869l1.463,0.32c0.02,0.003,0.087,0.01,0.107,0.012
			l0.001-0.004c0.014,0.001,0.027,0.004,0.043,0.006l0.001,0.001c0.002-0.001,0.011,0,0.014,0c0.139,0.014,0.307,0.023,0.505,0.034
			l3.111,0.204c0.629,0.061,1.304,0.088,2.065,0.088c0.896,0.001,1.8-0.04,2.72-0.08l0.47-0.02
			c7.741-0.489,15.182-2.791,21.531-6.666c0.424-0.274,0.852-0.544,1.281-0.813c1.258-0.784,2.557-1.595,3.706-2.596l2.389-1.94
			l2.194-2.117c1.22-1.116,2.293-2.396,3.33-3.635c0.284-0.342,0.571-0.684,0.877-1.043c1.293-1.685,2.471-3.52,3.569-5.288
			c0.279-0.535,0.572-1.065,0.865-1.597c0.727-1.318,1.479-2.68,2.024-4.126l1.226-2.998c0.246-0.722,0.461-1.455,0.673-2.19
			l0.263-0.894c0.663-2,1.079-4.48,1.447-6.843c0.174-1,0.218-1.623,0.258-2.226c0.016-0.22,0.031-0.438,0.053-0.682l0.188-2.531
			c0.01-0.29,0.02-0.485,0.019-0.624c0.002-0.014,0.005-0.027,0.005-0.042H264.004z"/>
		<g>
			<path fill="#FFCC34" d="M183.726,131.044c-6.177,12.326-1.19,27.323,11.135,33.499c12.33,6.176,27.327,1.188,33.502-11.138
				c6.177-12.322,1.193-27.32-11.136-33.498C204.902,113.733,189.896,118.72,183.726,131.044z"/>
		</g>
		<path fill="#2A2A2A" d="M201.251,136.069l-88.469,0l-12.031-14.43c-0.092-0.083-0.211-0.128-0.334-0.129H54.934
			c-0.188,0.001-0.362,0.11-0.447,0.281c-0.084,0.171-0.063,0.376,0.055,0.527l10.007,15.442l2.734,4.5l-2.745,4.515l-9.996,15.43
			c-0.116,0.151-0.138,0.355-0.055,0.526c0.082,0.171,0.259,0.279,0.45,0.281h45.481c0.124-0.001,0.242-0.046,0.334-0.129
			l12.03-14.433l88.469,0.001c0.047-0.001,0.095-0.008,0.138-0.021c2.769-0.088,4.998-2.827,4.997-6.182
			C206.387,138.841,204.082,136.069,201.251,136.069z"/>
	</g>
	<g>
		<path fill="#487AF5" d="M265.632,175.523c-0.205-0.129-0.479-0.089-0.64,0.095c0,0-0.934,1.065-2.688,3.055
			c-0.582,0.652-1.285,1.368-2.1,2.197c-0.393,0.4-0.806,0.82-1.201,1.232c-0.508,0.439-1.023,0.914-1.561,1.409
			c-1.003,0.926-2.041,1.882-3.272,2.835c-4.438,3.622-9.201,6.666-14.16,9.048c-6.409,3.124-13.151,5.16-20.059,6.055
			c-1.226,0.208-2.525,0.304-3.782,0.397c-0.65,0.048-1.302,0.097-1.896,0.157l-0.41-0.002c-0.513,0-1.008,0.009-1.509,0.018
			c-0.504,0.009-1.015,0.019-1.555,0.019c-0.867,0-1.649-0.025-2.474-0.078l-2.264-0.095c-0.044-0.013-0.088-0.022-0.132-0.025
			c-0.019-0.004-0.038-0.008-0.058-0.011l-3.669-0.468c-1.703-0.129-3.44-0.539-5.121-0.935l-0.948-0.222
			c-8.688-2.107-16.716-5.929-23.197-11.039c-0.548-0.476-1.111-0.934-1.676-1.393c-1.149-0.936-2.339-1.904-3.387-3.027
			l-2.407-2.325l-2.211-2.616c-3.236-3.772-5.72-8.06-7.506-11.34l-1.429-3.157c-0.086-0.188-0.174-0.376-0.263-0.564
			c-0.155-0.329-0.312-0.658-0.438-0.967l-1.69-4.908c-0.193-0.661-0.354-1.333-0.517-2.006c-0.109-0.453-0.219-0.905-0.342-1.374
			c-0.325-1.064-0.521-2.067-0.679-3.04l-24.385,0c0.455,3.061,0.927,6.222,1.754,8.919l0.339,1.285
			c0.297,1.136,0.604,2.311,0.972,3.482l2.633,6.858c0.223,0.494,0.465,0.978,0.708,1.461l2.555,5.068
			c0.505,0.962,1.095,1.886,1.664,2.779c0.288,0.451,0.575,0.901,0.865,1.377c0.305,0.451,0.591,0.915,0.877,1.377
			c0.551,0.889,1.119,1.808,1.807,2.628c0.467,0.581,0.927,1.167,1.385,1.752c1.478,1.886,3.005,3.837,4.746,5.523l0.443,0.458
			c0.941,0.972,1.88,1.94,2.851,2.935l3.504,3.025c1.687,1.571,3.591,2.863,5.434,4.113c0.668,0.454,1.333,0.905,1.999,1.377
			c9.444,6.25,20.698,10.255,32.556,11.583l0.697,0.066c1.995,0.19,4.058,0.387,6.068,0.387c0.438,0,0.876-0.009,1.296-0.029
			l5.178-0.071l2.556-0.282c1.805-0.156,4.088-0.556,6.295-0.943l1.147-0.202c0.686-0.174,1.367-0.334,2.043-0.493
			c1.702-0.399,3.31-0.776,4.868-1.348c3.815-1.171,7.705-2.816,12.262-5.189c3.174-1.825,6.826-4.03,9.848-6.534
			c5.032-3.988,9.395-8.569,12.955-13.604c1.223-1.625,2.172-3.233,3.01-4.652c0.229-0.386,0.448-0.759,0.684-1.149l0.785-1.534
			c0.571-1.11,1.064-2.068,1.469-2.942l1.57-3.794C265.924,175.913,265.84,175.652,265.632,175.523z"/>
		<path fill="#487AF5" d="M150.239,132.069c0.977-5.793,2.794-11.535,5.415-16.946c1.934-3.574,4.335-7.723,7.489-11.403
			l2.174-2.583l2.453-2.392c1.035-1.122,2.234-2.102,3.394-3.05c0.551-0.45,1.102-0.9,1.626-1.356c1.081-0.874,2.26-1.658,3.4-2.417
			c0.688-0.458,1.375-0.915,1.995-1.361l2.896-1.58c0.323-0.171,0.641-0.356,0.958-0.542c0.637-0.373,1.237-0.724,1.911-0.975
			l4.418-1.952l1.53-0.493c0.606-0.188,1.218-0.391,1.826-0.594c1.442-0.481,2.806-0.936,4.105-1.18l3.504-0.878l2.641-0.315
			c1.166-0.136,2.323-0.272,3.469-0.411l0.755-0.087c0.008-0.001,0.016-0.002,0.023-0.003c0.032-0.003,0.064-0.009,0.097-0.018
			l1.853-0.1c0.718-0.063,1.492-0.093,2.436-0.093c0.568,0,1.134,0.01,1.698,0.021c0.567,0.01,1.132,0.021,1.696,0.021l0.063-0.002
			c0.667,0.064,1.336,0.112,2.003,0.16c1.3,0.093,2.527,0.181,3.761,0.387c6.882,0.876,13.63,2.899,20.06,6.013
			c4.958,2.369,9.729,5.404,14.191,9.028c1.214,0.938,2.249,1.889,3.25,2.808c0.544,0.5,1.066,0.979,1.549,1.393
			c0.424,0.436,0.832,0.849,1.222,1.244c0.815,0.825,1.52,1.537,2.106,2.19l2.7,3.069c0.162,0.185,0.436,0.224,0.64,0.093
			c0.208-0.13,0.291-0.391,0.196-0.617l-1.579-3.789c-0.383-0.827-0.867-1.76-1.429-2.84c-0.266-0.511-0.548-1.053-0.859-1.66
			c-0.222-0.363-0.448-0.743-0.682-1.135c-0.839-1.41-1.79-3.007-3.005-4.605c-3.585-5.038-7.958-9.604-12.989-13.565
			c-3.003-2.476-6.52-4.592-9.891-6.519c-4.53-2.35-8.425-3.984-12.229-5.134c-1.604-0.583-3.31-0.981-4.959-1.366
			c-0.652-0.152-1.31-0.306-2.01-0.48c-0.622-0.102-1.247-0.213-1.876-0.325c-1.784-0.317-3.628-0.644-5.5-0.785l-2.904-0.29
			l-7.462-0.093l-5.281,0.465c-2.403,0.143-4.622,0.615-6.769,1.07c-0.542,0.115-1.087,0.231-1.644,0.343l-2.112,0.452l-6.153,1.92
			c-2.053,0.675-4.073,1.575-6.027,2.445c-0.703,0.313-1.409,0.627-2.169,0.957c-0.737,0.417-1.486,0.825-2.237,1.235
			c-1.852,1.01-3.767,2.054-5.586,3.269c-0.659,0.47-1.331,0.928-2.006,1.388c-1.832,1.25-3.727,2.542-5.394,4.095l-3.54,3.073
			l-3.238,3.358c-1.759,1.713-3.289,3.679-4.769,5.58c-0.447,0.575-0.896,1.151-1.341,1.709c-0.71,0.83-1.28,1.759-1.831,2.659
			c-0.28,0.457-0.561,0.915-0.872,1.38c-0.273,0.451-0.557,0.897-0.84,1.343c-0.571,0.898-1.162,1.828-1.665,2.79
			c-4.715,8.564-7.785,18.086-9.06,27.975H150.239z"/>
	</g>
</g>
</svg>
