<?xml version="1.0" encoding="utf-8"?>
<!-- Generator: Adobe Illustrator 16.0.3, SVG Export Plug-In . SVG Version: 6.00 Build 0)  -->
<!DOCTYPE svg PUBLIC "-//W3C//DTD SVG 1.1//EN" "http://www.w3.org/Graphics/SVG/1.1/DTD/svg11.dtd">
<svg version="1.1" id="Ebene_1" xmlns="http://www.w3.org/2000/svg" xmlns:xlink="http://www.w3.org/1999/xlink" x="0px" y="0px"
	 width="1000px" height="1000px" viewBox="0 0 1000 1000" enable-background="new 0 0 1000 1000" xml:space="preserve">
<g>
	<g>
		<path fill="#2A2A2A" d="M987.758,8.961L789.846,89.438c-0.782,0.313-1.289,1.074-1.293,1.919c0.004,0.837,0.516,1.59,1.3,1.903
			l57.993,23.405L460.291,504.224c-0.809,0.805-0.809,2.107-0.004,2.912l33.163,33.163c0.809,0.805,2.101,0.81,2.917,0
			l387.047-387.047l22.732,56.306c0.311,0.777,1.066,1.288,1.903,1.292c0.56-0.004,1.087-0.23,1.465-0.608
			c0.193-0.185,0.346-0.418,0.451-0.684l80.472-197.913c0.318-0.772,0.129-1.646-0.443-2.233
			C989.403,8.829,988.526,8.648,987.758,8.961z"/>
		<path fill="#2A2A2A" d="M845.729,198.324c-1.396-1.545-2.805-3.078-4.245-4.727l-16.288-18.103
			c-0.917-0.958-1.633-1.702-2.2-2.225c-0.032-0.036-0.057-0.077-0.081-0.108l-0.016,0.011c-0.052-0.032-0.076-0.06-0.117-0.088
			l0.021-0.016c-0.021-0.021-0.293-0.281-0.293-0.302l-19.965-17.909c-1.598-1.408-3.184-2.829-4.773-4.245
			c-5.234-4.699-10.646-9.548-16.604-13.567c-2.885-2.08-5.758-4.192-8.639-6.297c-11.838-8.687-24.089-17.667-37.287-24.705
			c-2.382-1.372-4.755-2.768-7.13-4.156c-5.488-3.215-11.148-6.55-16.983-9.58l-37.729-16.831c-2.893-1.11-5.854-2.088-8.792-3.07
			c-1.403-0.458-2.796-0.925-4.2-1.408l-25.899-8.602c-5.823-1.823-11.826-3.146-17.632-4.434c-2.957-0.652-5.902-1.304-8.855-2.028
			l-19.925-4.474l-6.713-0.833c-4.224-0.474-8.44-1.002-12.646-1.533c-13.318-1.682-27.082-3.416-40.672-3.231l-26.563-0.515
			l-26.053,1.835c-12.787,0.418-25.385,2.76-37.549,5.021c-4.623,0.869-9.238,1.73-13.792,2.475
			c-5.963,0.829-11.75,2.495-17.358,4.107c-2.527,0.721-5.054,1.449-7.625,2.104l-24.419,6.949l-23.317,9.017
			c-2.253,0.949-4.531,1.843-6.812,2.724c-5.34,2.092-10.868,4.252-15.93,7.11l-32.458,16.842l-10.087,6.502
			c-2.732,1.799-5.46,3.55-8.18,5.299c-10.333,6.647-21.024,13.515-30.962,22.259c-6.212,5.122-12.356,10.192-18.513,15.245
			l-4.639,3.911l-29.936,30.266l-10.341,12.469c-7.073,8.1-13.262,16.803-19.237,25.224c-2.064,2.905-4.101,5.778-6.252,8.731
			l-10.783,17.293c-3.959,6.023-7.227,12.28-9.878,17.551c-14.131,25.754-23.45,51.973-29.259,69.543
			c-5.706,19.945-11.866,43.338-14.324,65.625c-4.796,36.14-4.571,72.179,0.631,107.052c1.328,11.215,3.69,21.37,5.758,30.334
			c0.64,2.761,1.263,5.424,1.859,8.152c1.021,3.415,1.979,6.679,2.885,9.761c1.996,6.8,3.722,12.674,5.444,17.753l8.433,21.924
			c0.362,0.962,1.385,1.51,2.382,1.271c1.002-0.226,1.69-1.175,1.581-2.196l-2.185-23.365c-0.394-4.885-0.587-10.409-0.805-16.794
			c-0.117-3.429-0.245-7.034-0.415-10.639c0.173-3.783,0.238-7.742,0.294-11.871c0.129-7.974,0.25-16.214,1.179-25.271
			c2.535-33.086,8.88-65.348,18.895-95.915c4.977-16.058,12.252-33.887,22.178-54.431c9.282-17.25,19.808-36.813,33.698-54.786
			c3.448-4.909,6.78-9.238,10.228-13.27l10.779-13.153c2.431-2.511,4.808-5.078,7.203-7.649
			c5.093-5.479,10.348-11.145,16.106-16.287l1.259-1.106l8.434-7.878c0.049-0.028,0.089-0.064,0.137-0.097l0.008-0.004
			c0.016-0.012,0.032-0.024,0.044-0.032c0.057-0.037,0.113-0.081,0.165-0.121l30.736-24.935l18.698-11.781
			c6.486-4.624,14.155-8.591,22.274-12.803c3.264-1.686,6.539-3.388,9.717-5.114l8.216-4.386l26.898-10.876
			c3.778-1.79,7.81-2.917,12.066-4.1c2.056-0.575,4.136-1.15,6.136-1.798l18.529-5.706l19.297-3.918
			c2.216-0.387,4.406-0.87,6.606-1.356c4.14-0.909,8.417-1.842,12.763-2.056c4.116-0.351,8.228-0.809,12.328-1.271
			c8.953-1.006,18.215-2.053,27.521-1.782l20.018-0.459l20.366,1.549c9.36,0.229,18.828,1.931,27.974,3.585
			c4.068,0.728,8.132,1.469,12.284,2.088c4.192,0.486,8.217,1.633,12.485,2.836c2.402,0.68,4.816,1.36,7.146,1.895
			c2.438,0.684,4.884,1.296,7.347,1.903c4.104,1.01,8.36,2.064,12.349,3.489l19.354,7.146c1.275,0.479,2.547,0.934,3.811,1.388
			c1.951,0.7,3.911,1.388,5.717,2.132l27.884,13.512c3.577,1.959,7.062,4.084,10.558,6.204c2.406,1.46,4.829,2.925,7.331,4.378
			c8.904,4.711,17.165,10.916,25.164,16.907c2.934,2.205,5.862,4.406,8.904,6.603c4.107,2.684,7.637,5.991,11.402,9.496
			c1.392,1.299,2.784,2.599,4.186,3.85l13.56,12.292l16.218,17.462c1.34,1.504,2.757,3.042,4.181,4.579
			c4.016,4.329,8.149,8.812,10.309,12.352c2.238,3.231,4.567,6.333,6.913,9.464c5.19,6.928,10.563,14.098,15.258,22.842
			c1.396,2.382,2.841,4.744,4.289,7.102c2.12,3.48,4.334,7.073,6.256,10.582l9.006,18.678l4.538,9.178
			c0.825,1.976,1.542,3.991,2.277,5.992c0.427,1.207,0.86,2.41,1.315,3.597l7.202,19.333c1.413,3.927,2.455,8.095,3.477,12.119
			c0.62,2.543,1.256,5.074,1.98,7.545l3.946,14.682l0.801,5.045c0.619,4.068,1.364,8.112,2.109,12.159
			c1.677,9.158,3.403,18.634,3.685,28.101l1.602,20.062l-0.395,20.292c0.266,9.134-0.739,18.32-1.709,27.207
			c-0.46,4.177-0.915,8.354-1.261,12.618c-0.184,4.273-1.082,8.366-2.027,12.69c-0.475,2.193-0.95,4.394-1.312,6.551l-3.815,19.151
			l-5.721,18.699c-0.651,2.051-1.228,4.136-1.798,6.224c-1.179,4.254-2.29,8.266-4.117,12.181
			c-9.539,25.307-20.793,48.082-33.407,67.688l-10.047,15.754c-1.389,2.377-3.078,4.723-5.211,7.222l-19.494,24.504
			c-0.033,0.052-0.076,0.104-0.104,0.149c-0.093,0.124-0.182,0.261-0.266,0.4l-2.367,2.483c-2.24,2.402-4.506,4.816-6.783,7.242
			c-6.22,6.985-11.729,12.144-17.057,17.129c-2.603,2.431-5.17,4.841-7.64,7.287c-2.942,2.357-5.83,4.775-8.7,7.186
			c-5.733,4.813-11.659,9.781-17.855,14.051c-18.022,14.035-37.455,24.544-54.508,33.778c-20.674,10.055-38.47,17.382-54.452,22.387
			c-30.482,10.091-62.716,16.549-95.863,19.21c-8.928,0.952-17.128,1.098-25.066,1.246c-4.181,0.084-8.188,0.153-11.845,0.35
			c-3.565-0.14-6.961-0.252-10.188-0.354c-6.704-0.213-12.469-0.402-17.487-0.772l-23.309-2.092
			c-1.034-0.093-1.972,0.595-2.201,1.598c-0.222,0.997,0.326,2.016,1.288,2.382c0,0,7.673,2.908,22.093,8.413
			c5.026,1.697,10.853,3.396,17.604,5.347c3.078,0.905,6.345,1.851,9.938,2.913c2.507,0.539,5.102,1.135,7.786,1.759
			c9.045,2.068,19.273,4.43,30.523,5.738c34.909,5.138,70.957,5.271,107.089,0.395c22.56-2.572,45.854-8.784,65.741-14.546
			c19.044-6.373,44.146-15.475,69.383-29.394l8.86-4.635c1.912-1.095,3.782-2.265,5.666-3.443c0.989-0.615,1.971-1.235,2.98-1.851
			l17.459-10.966c2.253-1.641,4.566-3.307,6.903-4.996c9.557-6.905,19.438-14.034,26.891-20.517l11.467-9.476
			c0.017-0.016,0.033-0.032,0.041-0.04c0.021-0.021,0.049-0.049,0.084-0.072l28.314-28.314c2.966-2.841,5.504-5.653,7.753-8.563
			l14.518-17.796c41.379-52.987,69.705-114.086,81.929-176.762c0.735-4.489,1.55-8.98,2.382-13.482
			c2.254-12.296,4.587-25.012,4.937-37.83l1.767-26.351l-0.583-26.331c0.136-13.624-1.621-27.377-3.348-40.667
			c-0.539-4.225-1.082-8.462-1.586-12.747l-0.934-6.839l-4.494-19.768c-0.704-2.882-1.355-5.786-2.012-8.7
			c-1.312-5.842-2.68-11.89-4.538-17.776l-8.654-25.86c-0.552-1.557-1.084-3.122-1.609-4.704c-0.931-2.764-1.86-5.536-2.935-8.361
			l-17.016-37.669c-2.925-5.576-6.177-11.076-9.322-16.4c-1.48-2.515-2.978-5.03-4.401-7.507
			c-7.451-13.938-17.945-28.005-28.09-41.608l-4.49-6.027C853.747,207.16,849.68,202.67,845.729,198.324z"/>
		<path fill="#F40E0E" d="M680.628,322.099c-0.012-0.032-0.048-0.056-0.068-0.077l0.016-0.021c-0.032-0.024-0.35-0.329-0.39-0.354
			l-11.307-10.606c-2.515-2.346-5.126-4.772-7.982-6.812l-1.665-1.276c-6.454-4.933-13.106-10.043-20.328-14.074l-3.336-1.992
			c-2.7-1.642-5.412-3.267-8.296-4.82l-11.938-5.529c-5.693-2.849-11.725-4.864-17.575-6.808c-2.43-0.797-4.837-1.605-7.371-2.515
			c-8.992-2.435-17.116-4.563-25.55-5.919c-1.811-0.213-3.634-0.455-5.443-0.688c-6.604-0.857-13.432-1.747-20.184-1.702
			c-4.216-0.081-8.413-0.169-12.783-0.27l-12.434,0.812c-6.34,0.209-12.558,1.393-18.552,2.536c-2.044,0.386-4.056,0.772-6.14,1.126
			c-5.991,1.218-11.817,2.945-17.463,4.615c-2.008,0.595-3.983,1.183-6.148,1.811l-4.269,1.654
			c-5.891,2.269-11.958,4.603-17.692,7.537c-2.145,1.203-4.318,2.321-6.482,3.436c-4.595,2.37-9.339,4.82-13.588,7.882l-3.303,2.197
			c-5.247,3.464-10.196,6.728-15.302,11.319l-11.206,9.661l-11.668,12.666c-0.99,0.902-1.359,1.256-1.456,1.348
			c-0.141,0.141-0.258,0.302-0.358,0.471c-0.021,0.037-0.061,0.077-0.068,0.093l-15.752,21.728
			c-3.227,5.685-6.229,11.294-8.925,16.673c-0.447,0.909-0.914,1.799-1.372,2.691c-0.934,1.823-1.851,3.625-2.68,5.585
			l-4.168,11.608c-1.553,4.385-3.026,8.534-4.273,12.936l-4.377,22.974c-0.29,1.751-0.339,3.477-0.402,5.146
			c-0.017,0.781-0.045,1.557-0.097,2.402c-0.06,2.33-0.177,4.607-0.273,6.832c-0.313,6.953-0.624,13.519,0.442,19.768
			c0.294,2.209,0.511,4.349,0.721,6.426c0.575,5.503,1.106,10.698,2.68,15.567c1.621,6.479,3.223,12.188,4.816,17.208l5.062,11.271
			c2.813,6.172,4.479,9.42,4.479,9.42c0.422,0.809,1.312,1.247,2.193,1.099c0.893-0.165,1.573-0.882,1.69-1.779
			c0,0,0.442-3.638,0.953-10.412l0.805-12.016c1.05-4.708,2.08-9.946,3.159-15.668c0.483-3.577,1.758-7.596,3.126-11.857
			c0.648-2.028,1.308-4.1,1.916-6.257c1.179-4.74,3.311-9.552,5.593-14.65c0.789-1.771,1.585-3.557,2.378-5.44
			c1.287-3.396,3.243-6.724,5.312-10.151l5.207-9.005l12.191-16.586c0.583-0.675,1.215-1.328,1.859-1.971l1.871-1.851l0.776-0.801
			l0.841-0.825c1.722-1.726,3.375-3.492,5.053-5.271c1.115-1.187,2.233-2.382,3.187-3.392l13.028-10.421
			c0.133-0.056,0.27-0.137,0.394-0.213l13.979-9.725l7.23-3.352c1.992-1.094,4.623-2.173,7.383-3.304
			c1.67-0.684,3.359-1.38,5.042-2.137c2.455-1.235,5.158-1.996,8.019-2.804c1.827-0.511,3.638-1.026,5.279-1.622
			c2.314-0.676,4.796-1.175,7.195-1.658c2.337-0.463,4.671-0.938,6.579-1.5c1.991-0.189,3.967-0.458,5.931-0.736
			c2.917-0.406,5.689-0.784,8.457-0.889c1.638-0.008,3.28-0.069,4.917-0.125c3.32-0.125,6.438-0.237,9.746,0.085l7.161,0.225
			l7.388,1.058c9.888,1.252,19.418,4.266,28.211,7.183c8.095,3.343,17.519,7.553,26.117,13.6c2.707,1.518,5.125,3.464,7.692,5.524
			c1.336,1.079,2.676,2.158,4.136,3.223c1.305,0.873,2.446,2.02,3.666,3.231c0.539,0.531,1.082,1.07,1.626,1.562l5.065,4.756
			l7.094,8.112c1.355,1.517,3.396,3.818,3.834,4.792c0.873,1.437,1.807,2.728,2.8,4.06c1.405,1.907,2.861,3.883,4.322,6.708
			c0.555,0.965,1.143,1.907,1.709,2.864c0.721,1.147,1.426,2.298,1.993,3.34c0.909,2.028,1.899,4.023,2.889,6.027l0.45,0.869
			c1.453,2.499,2.402,5.206,3.416,8.071c0.651,1.835,1.299,3.678,1.991,5.219c2.624,9.049,5.175,18.782,6.084,28.632l0.752,7.154
			l-0.043,7.504c0.164,3.134-0.069,6.209-0.314,9.459c-0.133,1.678-0.262,3.364-0.33,4.957
			c-1.706,18.256-7.476,36.378-17.153,53.848l-1.307,2.343c-1.879,3.38-3.657,6.583-5.971,9.503l-5.069,7.188
			c-0.117,0.176-0.206,0.361-0.266,0.556l-13.331,14.549l-2.595,2.236c-2.222,1.896-4.313,3.69-6.366,5.722
			c-0.575,0.531-1.146,1.091-1.714,1.646c-0.828,0.817-1.662,1.638-2.471,2.298l-0.739,0.515c-1.554,1.05-3.07,2.081-4.575,3.127
			c-3.585,2.474-7.073,4.904-10.245,7.143l-10.835,5.737c-3.822,2.128-7.037,3.769-10.36,4.896
			c-1.823,0.695-3.621,1.411-5.412,2.132c-5.198,2.085-10.096,4.048-14.968,5.058c-2.061,0.5-4.104,1.074-6.084,1.621
			c-4.371,1.22-8.473,2.363-12.396,2.713c-5.807,0.833-11.13,1.642-15.6,2.446l-22.331,1.01c-0.91,0.049-1.683,0.696-1.891,1.578
			c-0.229,0.889,0.165,1.813,0.965,2.265c0.125,0.08,3.171,1.847,9.262,4.896l11.629,5.678c4.462,1.602,9.874,3.352,16.432,5.303
			c4.767,1.803,9.95,2.547,15.435,3.331c2.071,0.298,4.208,0.612,6.317,0.97c6.236,1.336,12.754,1.292,19.635,1.255
			c2.29-0.015,4.639-0.031,7.13,0.004c0.776-0.019,1.577-0.015,2.366-0.011c1.67,0.011,3.388,0.027,5.154-0.206l23.284-3.488
			c4.012-0.97,7.958-2.196,12.116-3.484l12.698-3.971c2.023-0.78,4.096-1.763,6.176-2.753l2.676-1.255
			c5.19-2.426,11.102-5.429,18.211-9.274c4.606-2.934,9.298-5.927,14.046-8.977l5.194-3.332c0.061-0.048,0.282-0.225,0.347-0.277
			l-0.008-0.017c0.043-0.036,0.092-0.063,0.141-0.104h0.007c0-0.009,0.033-0.033,0.041-0.041c0.442-0.361,0.958-0.829,1.568-1.372
			l9.657-8.469c2.012-1.658,4.061-3.541,6.276-5.758c2.616-2.612,5.127-5.365,7.693-8.161l1.312-1.424
			c21.125-23.977,36.097-52.359,43.307-82.15c0.438-2.032,0.898-4.063,1.368-6.1c1.381-5.947,2.797-12.095,3.231-18.364l1.303-12.61
			l0.226-12.561c0.306-6.804-0.301-13.665-0.885-20.291c-0.169-1.823-0.329-3.658-0.482-5.593
			c-1.147-8.679-3.059-17.454-5.01-25.808c-0.745-2.37-1.437-4.771-2.129-7.17c-1.726-5.959-3.5-12.123-6.127-17.921l-5.163-12.308
			c-1.389-2.816-2.896-5.581-4.422-8.341l-1.839-3.367c-3.895-7.757-9.91-16.2-15.725-24.154c-2.406-3.42-4.087-5.364-5.729-7.235
			c-0.596-0.688-1.183-1.363-1.834-2.14l-6.824-7.919c-0.816-0.873-1.356-1.473-1.763-1.875c-0.036-0.044-0.064-0.088-0.108-0.133
			L680.628,322.099z"/>
		<g>
			<path fill="#FFCC34" d="M413.001,522.233c17.914,53.903,76.135,83.071,130.036,65.157
				c53.916-17.929,83.075-76.154,65.157-130.055c-17.904-53.892-76.117-83.071-130.035-65.146
				C424.26,410.103,395.073,468.352,413.001,522.233z"/>
		</g>
		<path fill="#2A2A2A" d="M478.699,485.815L220.951,743.559l-77.088-6.989c-0.507,0.032-0.99,0.242-1.352,0.601L10.002,869.679
			c-0.543,0.556-0.736,1.381-0.483,2.125c0.253,0.739,0.914,1.274,1.694,1.372l74.139,15.836l21.079,5.146l5.159,21.152
			l15.829,74.074c0.101,0.78,0.636,1.438,1.376,1.693c0.736,0.259,1.565,0.062,2.128-0.49l132.505-132.504
			c0.362-0.367,0.572-0.842,0.595-1.354l-6.997-77.1l257.749-257.74c0.135-0.137,0.249-0.298,0.342-0.458
			c7.81-8.321,6.32-22.803-3.453-32.572C501.738,478.931,486.947,477.566,478.699,485.815z"/>
	</g>
	<g>
		<path fill="#487AF5" d="M781.21,413.193c-0.974,0.221-1.654,1.135-1.585,2.141c0,0,0.386,5.826,1.07,16.73
			c0.201,3.593,0.241,7.729,0.286,12.517c0.019,2.31,0.039,4.736,0.088,7.094c-0.196,2.756-0.318,5.641-0.438,8.65
			c-0.226,5.617-0.463,11.431-1.275,17.792c-2.375,23.483-7.388,46.228-14.896,67.613c-9.568,27.775-23.28,53.35-40.799,76.078
			c-2.962,4.177-6.467,8.249-9.858,12.184c-1.755,2.032-3.513,4.068-5.069,5.979l-1.199,1.191c-1.493,1.492-2.909,2.961-4.342,4.446
			c-1.444,1.495-2.905,3.013-4.474,4.586c-2.528,2.523-4.881,4.728-7.437,6.977l-6.871,6.321c-0.166,0.09-0.322,0.189-0.455,0.311
			c-0.069,0.039-0.137,0.088-0.202,0.137l-12.051,9.326c-5.339,4.583-11.591,8.454-17.643,12.196l-3.409,2.12
			c-31.452,19.172-65.975,31.425-99.744,35.42c-2.98,0.209-5.96,0.515-8.94,0.821c-6.076,0.623-12.361,1.271-18.687,1.05
			l-13.785,0.241l-14.062-1.184c-20.42-1.561-40.143-6.815-54.906-11.169l-13.362-5.033c-0.797-0.298-1.602-0.592-2.407-0.882
			c-1.412-0.507-2.828-1.01-4.096-1.545l-19.224-9.375c-2.487-1.36-4.917-2.849-7.347-4.338c-1.638-0.997-3.275-1.995-4.998-3.005
			c-4.048-2.152-7.541-4.507-10.831-6.877l-71.045,71.041c10.24,7.593,20.826,15.427,31.095,20.875l4.731,2.757
			c4.177,2.445,8.49,4.972,12.977,7.313l27.65,12.309c2.084,0.793,4.201,1.497,6.321,2.196l22.207,7.319
			c4.273,1.336,8.683,2.311,12.944,3.252c2.152,0.474,4.301,0.948,6.53,1.487c2.205,0.427,4.386,0.941,6.567,1.458
			c4.197,0.984,8.53,2.006,12.924,2.397c3.05,0.329,6.1,0.699,9.138,1.07c9.802,1.19,19.933,2.422,29.919,2.266l2.627,0.039
			c5.573,0.089,11.128,0.178,16.855,0.246l19.023-1.393c9.488-0.341,18.8-2.124,27.808-3.851c3.271-0.624,6.521-1.247,9.838-1.814
			c45.728-9.303,90.182-30.423,128.595-61.102l2.221-1.84c6.369-5.259,12.951-10.69,18.811-16.549
			c1.274-1.279,2.522-2.583,3.688-3.862l14.876-15.29l6.623-8.268c4.804-5.715,10.292-13.531,15.595-21.088l2.753-3.932
			c1.493-2.503,3.013-4.957,4.522-7.388c3.799-6.115,7.379-11.897,10.257-18.105c7.7-14.529,14.238-30.656,20.604-50.843
			c3.926-14.565,8.147-31.63,9.651-47.729c3.043-26.278,2.403-52.334-1.895-77.377c-1.17-8.297-3.09-15.745-4.784-22.323
			c-0.458-1.791-0.905-3.517-1.356-5.339l-2.176-6.752c-1.57-4.9-2.925-9.129-4.297-12.855l-6.475-15.623
			C783.197,413.479,782.195,412.964,781.21,413.193z"/>
		<path fill="#487AF5" d="M318.427,622.778c-14.034-19.724-25.465-41.744-33.593-65.145c-4.78-16.048-9.874-35.131-11.407-55.044
			l-1.187-13.858l0.177-14.115c-0.253-6.285,0.386-12.634,1.002-18.77c0.29-2.921,0.587-5.834,0.785-8.691
			c0.604-5.693,1.75-11.415,2.864-16.947c0.673-3.335,1.344-6.667,1.847-9.777l3.835-13.04c0.442-1.441,0.828-2.901,1.214-4.366
			c0.765-2.941,1.493-5.718,2.729-8.41l7.178-18.561l3.025-5.891c1.219-2.313,2.406-4.691,3.589-7.053
			c2.8-5.605,5.448-10.9,8.525-15.395l7.649-12.771l6.772-8.61c3.001-3.794,5.975-7.564,8.908-11.306l1.948-2.451
			c0.02-0.028,0.036-0.057,0.06-0.077c0.081-0.104,0.157-0.217,0.229-0.334l5.106-5.688c1.903-2.278,4.076-4.62,6.824-7.368
			c1.653-1.653,3.332-3.275,5.005-4.889c1.682-1.625,3.359-3.234,5.005-4.88l0.173-0.189c2.128-1.759,4.217-3.569,6.301-5.372
			c4.055-3.517,7.89-6.836,12.086-9.826c22.601-17.499,48.15-31.267,75.958-40.924c21.345-7.545,44.087-12.606,67.65-15.045
			c6.269-0.8,12.055-1.05,17.651-1.283c3.042-0.129,5.96-0.257,8.57-0.459c2.502,0.037,4.896,0.053,7.178,0.064
			c4.78,0.028,8.904,0.053,12.518,0.246l16.811,1.074c1.01,0.064,1.923-0.616,2.132-1.593c0.23-0.982-0.29-1.984-1.222-2.37
			l-15.637-6.434c-3.528-1.295-7.657-2.599-12.437-4.113c-2.262-0.716-4.663-1.473-7.343-2.333c-1.702-0.41-3.469-0.857-5.295-1.323
			c-6.548-1.662-13.977-3.545-22.171-4.664c-25.12-4.229-51.165-4.792-77.362-1.674c-15.961,1.533-32.37,5.617-47.805,9.826
			c-20.049,6.349-36.156,12.936-50.588,20.669c-6.374,2.974-12.501,6.78-18.432,10.465c-2.342,1.457-4.7,2.929-7.25,4.458
			c-2.108,1.513-4.257,3.01-6.414,4.519c-6.12,4.277-12.445,8.695-18.308,13.74l-9.307,7.613l-22.009,21.47l-14.031,16.746
			c-6.586,7.416-11.676,15.253-16.601,22.838c-1.243,1.915-2.494,3.838-3.79,5.786l-4.836,7.472l-12.333,23.518
			c-4.016,7.946-7.278,16.457-10.437,24.685c-1.139,2.961-2.277,5.935-3.529,9.109c-0.938,3.36-1.932,6.732-2.921,10.111
			c-2.454,8.337-4.989,16.964-6.751,25.799c-0.547,3.296-1.174,6.583-1.798,9.89c-1.698,8.977-3.453,18.263-3.787,27.643
			l-1.355,19.269l0.346,19.217c-0.133,10.116,1.139,20.303,2.366,30.149c0.374,2.981,0.744,5.964,1.074,8.889
			c0.346,4.485,1.396,8.854,2.414,13.08c0.515,2.148,1.03,4.298,1.477,6.559c0.519,2.112,0.994,4.236,1.469,6.366
			c0.95,4.279,1.939,8.711,3.275,12.976c11.214,38.687,30.012,75.374,55.104,107.893L318.427,622.778z"/>
	</g>
</g>
</svg>
